M48
; DRILL file {KiCad (5.1.7)-1} date 12/15/20 01:37:46
; FORMAT={-:-/ absolute / inch / decimal}
; #@! TF.CreationDate,2020-12-15T01:37:46+01:00
; #@! TF.GenerationSoftware,Kicad,Pcbnew,(5.1.7)-1
FMAT,2
INCH
T1C0.0157
T2C0.0197
T3C0.0236
T4C0.0295
T5C0.0394
T6C0.0472
T7C0.1260
%
G90
G05
T1
X1.3Y-1.35
X1.3Y-1.975
X1.3Y-2.625
X1.35Y-1.35
X1.35Y-1.975
X1.35Y-2.625
X1.4Y-1.35
X1.4Y-1.975
X1.4Y-2.625
X1.45Y-1.35
X1.45Y-1.975
X1.45Y-2.625
X1.85Y-0.95
X1.85Y-1.25
X1.85Y-1.875
X1.8502Y-1.9996
X1.8502Y-2.1246
X1.8502Y-2.2496
X1.95Y-1.875
X1.95Y-2.0
X2.0Y-0.725
X2.0502Y-2.7496
X2.075Y-2.375
X2.1Y-2.625
X2.15Y-1.1
X2.15Y-1.75
X2.1502Y-2.3746
X2.1502Y-2.7496
X2.2Y-2.525
X2.225Y-2.375
X2.2502Y-2.6246
X2.2502Y-2.7496
X2.275Y-0.775
X2.35Y-1.875
X2.35Y-2.0
X2.35Y-2.5
X2.3502Y-2.6246
X2.3502Y-2.7496
X2.4Y-1.675
X2.4Y-1.85
X2.45Y-0.95
X2.45Y-1.25
X2.45Y-1.675
X2.45Y-1.85
X2.45Y-2.5
X2.45Y-2.625
X2.4502Y-2.7496
X2.455Y-0.825
X2.475Y-0.9
X2.475Y-2.05
X2.475Y-2.15
X2.725Y-0.8
X2.725Y-0.95
X2.725Y-1.25
X2.85Y-0.9
X2.85Y-1.525
X2.85Y-2.175
X2.9Y-0.9
X2.9Y-1.525
X2.9Y-2.175
X2.95Y-0.9
X2.95Y-1.525
X2.95Y-2.175
X3.0Y-0.9
X3.0Y-1.525
X3.0Y-2.175
T2
X1.2305Y-0.6
X1.2582Y-0.5332
X1.2582Y-0.6668
X1.325Y-0.5055
X1.325Y-0.6945
X1.3918Y-0.5332
X1.3918Y-0.6668
X1.4195Y-0.6
X2.8805Y-0.6
X2.9082Y-0.5332
X2.9082Y-0.6668
X2.975Y-0.5055
X2.975Y-0.6945
X3.0418Y-0.5332
X3.0418Y-0.6668
X3.0695Y-0.6
X1.2305Y-2.925
X1.2582Y-2.8582
X1.2582Y-2.9918
X1.325Y-2.8305
X1.325Y-3.0195
X1.3918Y-2.8582
X1.3918Y-2.9918
X1.4195Y-2.925
X2.8805Y-2.925
X2.9082Y-2.8582
X2.9082Y-2.9918
X2.975Y-2.8305
X2.975Y-3.0195
X3.0418Y-2.8582
X3.0418Y-2.9918
X3.0695Y-2.925
T3
X2.05Y-0.875
X2.15Y-0.875
X2.25Y-0.875
X2.825Y-0.725
T4
X2.4Y-2.85
X2.4787Y-2.85
X2.5575Y-2.85
X2.6362Y-2.85
X2.715Y-2.85
X1.575Y-2.85
X1.6537Y-2.85
X1.7325Y-2.85
X1.8112Y-2.85
X1.89Y-2.85
T5
X1.5Y-1.45
X1.5Y-2.1
X2.775Y-1.425
X2.775Y-2.05
X2.775Y-2.675
X1.6551Y-0.857
X1.6551Y-0.957
X1.6551Y-1.057
X1.6551Y-1.157
X1.6551Y-1.257
X1.6551Y-1.357
X1.6551Y-1.457
X1.6551Y-1.557
X1.6551Y-1.657
X1.6551Y-1.757
X1.6551Y-1.857
X1.6551Y-1.957
X1.6551Y-2.057
X1.6551Y-2.157
X1.6551Y-2.257
X1.6551Y-2.357
X1.6551Y-2.457
X1.6551Y-2.557
X1.6551Y-2.657
X2.6548Y-0.8567
X2.6548Y-0.9567
X2.6548Y-1.0567
X2.6548Y-1.1567
X2.6548Y-1.2567
X2.6548Y-1.3567
X2.6548Y-1.4567
X2.6548Y-1.5567
X2.6548Y-1.6567
X2.6548Y-1.7567
X2.6548Y-1.8567
X2.6548Y-1.9567
X2.6548Y-2.0567
X2.6548Y-2.1567
X2.6548Y-2.2567
X2.6548Y-2.3567
X2.6548Y-2.4567
X2.6548Y-2.5567
X2.6548Y-2.6567
T6
X1.375Y-1.6
X1.375Y-1.75
X1.375Y-1.9
X2.925Y-0.975
X2.925Y-1.125
X2.925Y-1.275
X1.375Y-2.25
X1.375Y-2.4
X1.375Y-2.55
X1.375Y-0.975
X1.375Y-1.125
X1.375Y-1.275
X2.925Y-1.6
X2.925Y-1.75
X2.925Y-1.9
X2.925Y-2.25
X2.925Y-2.4
X2.925Y-2.55
T7
X1.325Y-0.6
X2.975Y-0.6
X1.325Y-2.925
X2.975Y-2.925
T0
M30
