G04 #@! TF.GenerationSoftware,KiCad,Pcbnew,(5.1.7)-1*
G04 #@! TF.CreationDate,2021-01-23T01:49:41+01:00*
G04 #@! TF.ProjectId,espbreakout,65737062-7265-4616-9b6f-75742e6b6963,rev?*
G04 #@! TF.SameCoordinates,Original*
G04 #@! TF.FileFunction,Soldermask,Bot*
G04 #@! TF.FilePolarity,Negative*
%FSLAX46Y46*%
G04 Gerber Fmt 4.6, Leading zero omitted, Abs format (unit mm)*
G04 Created by KiCad (PCBNEW (5.1.7)-1) date 2021-01-23 01:49:41*
%MOMM*%
%LPD*%
G01*
G04 APERTURE LIST*
%ADD10O,1.802000X1.802000*%
%ADD11C,1.802000*%
%ADD12O,3.702000X1.902000*%
%ADD13O,1.302000X1.802000*%
%ADD14C,0.100000*%
%ADD15C,1.000000*%
%ADD16C,6.502000*%
%ADD17C,0.902000*%
G04 APERTURE END LIST*
G36*
G01*
X66532000Y-22610400D02*
X66532000Y-20910400D01*
G75*
G02*
X66583000Y-20859400I51000J0D01*
G01*
X68283000Y-20859400D01*
G75*
G02*
X68334000Y-20910400I0J-51000D01*
G01*
X68334000Y-22610400D01*
G75*
G02*
X68283000Y-22661400I-51000J0D01*
G01*
X66583000Y-22661400D01*
G75*
G02*
X66532000Y-22610400I0J51000D01*
G01*
G37*
D10*
X67433000Y-24300400D03*
X67433000Y-26840400D03*
X67433000Y-42080400D03*
X67433000Y-31920400D03*
X67433000Y-29380400D03*
X67433000Y-37000400D03*
X67433000Y-54780400D03*
X67433000Y-49700400D03*
X67433000Y-57320400D03*
X67433000Y-62400400D03*
X67433000Y-64940400D03*
X67433000Y-52240400D03*
X67433000Y-67480400D03*
X67433000Y-39540400D03*
X67433000Y-44620400D03*
X67433000Y-47160400D03*
X67433000Y-59860400D03*
X67433000Y-34460400D03*
D11*
X42040500Y-21768600D03*
D10*
X42040500Y-24308600D03*
X42040500Y-26848600D03*
X42040500Y-42088600D03*
X42040500Y-31928600D03*
X42040500Y-29388600D03*
X42040500Y-37008600D03*
X42040500Y-54788600D03*
X42040500Y-49708600D03*
X42040500Y-57328600D03*
X42040500Y-62408600D03*
X42040500Y-64948600D03*
X42040500Y-52248600D03*
G36*
G01*
X41139500Y-68338600D02*
X41139500Y-66638600D01*
G75*
G02*
X41190500Y-66587600I51000J0D01*
G01*
X42890500Y-66587600D01*
G75*
G02*
X42941500Y-66638600I0J-51000D01*
G01*
X42941500Y-68338600D01*
G75*
G02*
X42890500Y-68389600I-51000J0D01*
G01*
X41190500Y-68389600D01*
G75*
G02*
X41139500Y-68338600I0J51000D01*
G01*
G37*
X42040500Y-39548600D03*
X42040500Y-44628600D03*
X42040500Y-47168600D03*
X42040500Y-59868600D03*
X42040500Y-34468600D03*
G36*
G01*
X33125000Y-39689000D02*
X36725000Y-39689000D01*
G75*
G02*
X36776000Y-39740000I0J-51000D01*
G01*
X36776000Y-41540000D01*
G75*
G02*
X36725000Y-41591000I-51000J0D01*
G01*
X33125000Y-41591000D01*
G75*
G02*
X33074000Y-41540000I0J51000D01*
G01*
X33074000Y-39740000D01*
G75*
G02*
X33125000Y-39689000I51000J0D01*
G01*
G37*
D12*
X34925000Y-44450000D03*
X34925000Y-48260000D03*
G36*
G01*
X33125000Y-56199000D02*
X36725000Y-56199000D01*
G75*
G02*
X36776000Y-56250000I0J-51000D01*
G01*
X36776000Y-58050000D01*
G75*
G02*
X36725000Y-58101000I-51000J0D01*
G01*
X33125000Y-58101000D01*
G75*
G02*
X33074000Y-58050000I0J51000D01*
G01*
X33074000Y-56250000D01*
G75*
G02*
X33125000Y-56199000I51000J0D01*
G01*
G37*
X34925000Y-60960000D03*
X34925000Y-64770000D03*
G36*
G01*
X33125000Y-23814000D02*
X36725000Y-23814000D01*
G75*
G02*
X36776000Y-23865000I0J-51000D01*
G01*
X36776000Y-25665000D01*
G75*
G02*
X36725000Y-25716000I-51000J0D01*
G01*
X33125000Y-25716000D01*
G75*
G02*
X33074000Y-25665000I0J51000D01*
G01*
X33074000Y-23865000D01*
G75*
G02*
X33125000Y-23814000I51000J0D01*
G01*
G37*
X34925000Y-28575000D03*
X34925000Y-32385000D03*
G36*
G01*
X76095000Y-33336000D02*
X72495000Y-33336000D01*
G75*
G02*
X72444000Y-33285000I0J51000D01*
G01*
X72444000Y-31485000D01*
G75*
G02*
X72495000Y-31434000I51000J0D01*
G01*
X76095000Y-31434000D01*
G75*
G02*
X76146000Y-31485000I0J-51000D01*
G01*
X76146000Y-33285000D01*
G75*
G02*
X76095000Y-33336000I-51000J0D01*
G01*
G37*
X74295000Y-28575000D03*
X74295000Y-24765000D03*
G36*
G01*
X76095000Y-49211000D02*
X72495000Y-49211000D01*
G75*
G02*
X72444000Y-49160000I0J51000D01*
G01*
X72444000Y-47360000D01*
G75*
G02*
X72495000Y-47309000I51000J0D01*
G01*
X76095000Y-47309000D01*
G75*
G02*
X76146000Y-47360000I0J-51000D01*
G01*
X76146000Y-49160000D01*
G75*
G02*
X76095000Y-49211000I-51000J0D01*
G01*
G37*
X74295000Y-44450000D03*
X74295000Y-40640000D03*
G36*
G01*
X76095000Y-65721000D02*
X72495000Y-65721000D01*
G75*
G02*
X72444000Y-65670000I0J51000D01*
G01*
X72444000Y-63870000D01*
G75*
G02*
X72495000Y-63819000I51000J0D01*
G01*
X76095000Y-63819000D01*
G75*
G02*
X76146000Y-63870000I0J-51000D01*
G01*
X76146000Y-65670000D01*
G75*
G02*
X76095000Y-65721000I-51000J0D01*
G01*
G37*
X74295000Y-60960000D03*
X74295000Y-57150000D03*
G36*
G01*
X60309000Y-73240001D02*
X60309000Y-71539999D01*
G75*
G02*
X60359999Y-71489000I50999J0D01*
G01*
X61560001Y-71489000D01*
G75*
G02*
X61611000Y-71539999I0J-50999D01*
G01*
X61611000Y-73240001D01*
G75*
G02*
X61560001Y-73291000I-50999J0D01*
G01*
X60359999Y-73291000D01*
G75*
G02*
X60309000Y-73240001I0J50999D01*
G01*
G37*
D13*
X62960000Y-72390000D03*
X64960000Y-72390000D03*
X66960000Y-72390000D03*
X68960000Y-72390000D03*
G36*
G01*
X51269000Y-22965000D02*
X51269000Y-21465000D01*
G75*
G02*
X51320000Y-21414000I51000J0D01*
G01*
X52820000Y-21414000D01*
G75*
G02*
X52871000Y-21465000I0J-51000D01*
G01*
X52871000Y-22965000D01*
G75*
G02*
X52820000Y-23016000I-51000J0D01*
G01*
X51320000Y-23016000D01*
G75*
G02*
X51269000Y-22965000I0J51000D01*
G01*
G37*
G36*
G01*
X53809000Y-22975000D02*
X53809000Y-21475000D01*
G75*
G02*
X53860000Y-21424000I51000J0D01*
G01*
X55360000Y-21424000D01*
G75*
G02*
X55411000Y-21475000I0J-51000D01*
G01*
X55411000Y-22975000D01*
G75*
G02*
X55360000Y-23026000I-51000J0D01*
G01*
X53860000Y-23026000D01*
G75*
G02*
X53809000Y-22975000I0J51000D01*
G01*
G37*
G36*
G01*
X56354800Y-22965000D02*
X56354800Y-21465000D01*
G75*
G02*
X56405800Y-21414000I51000J0D01*
G01*
X57905800Y-21414000D01*
G75*
G02*
X57956800Y-21465000I0J-51000D01*
G01*
X57956800Y-22965000D01*
G75*
G02*
X57905800Y-23016000I-51000J0D01*
G01*
X56405800Y-23016000D01*
G75*
G02*
X56354800Y-22965000I0J51000D01*
G01*
G37*
G36*
G01*
X43052800Y-68220000D02*
X43052800Y-66720000D01*
G75*
G02*
X43103800Y-66669000I51000J0D01*
G01*
X44603800Y-66669000D01*
G75*
G02*
X44654800Y-66720000I0J-51000D01*
G01*
X44654800Y-68220000D01*
G75*
G02*
X44603800Y-68271000I-51000J0D01*
G01*
X43103800Y-68271000D01*
G75*
G02*
X43052800Y-68220000I0J51000D01*
G01*
G37*
G36*
G01*
X43052800Y-65680000D02*
X43052800Y-64180000D01*
G75*
G02*
X43103800Y-64129000I51000J0D01*
G01*
X44603800Y-64129000D01*
G75*
G02*
X44654800Y-64180000I0J-51000D01*
G01*
X44654800Y-65680000D01*
G75*
G02*
X44603800Y-65731000I-51000J0D01*
G01*
X43103800Y-65731000D01*
G75*
G02*
X43052800Y-65680000I0J51000D01*
G01*
G37*
G36*
G01*
X43052800Y-63140000D02*
X43052800Y-61640000D01*
G75*
G02*
X43103800Y-61589000I51000J0D01*
G01*
X44603800Y-61589000D01*
G75*
G02*
X44654800Y-61640000I0J-51000D01*
G01*
X44654800Y-63140000D01*
G75*
G02*
X44603800Y-63191000I-51000J0D01*
G01*
X43103800Y-63191000D01*
G75*
G02*
X43052800Y-63140000I0J51000D01*
G01*
G37*
G36*
G01*
X43052800Y-60600000D02*
X43052800Y-59100000D01*
G75*
G02*
X43103800Y-59049000I51000J0D01*
G01*
X44603800Y-59049000D01*
G75*
G02*
X44654800Y-59100000I0J-51000D01*
G01*
X44654800Y-60600000D01*
G75*
G02*
X44603800Y-60651000I-51000J0D01*
G01*
X43103800Y-60651000D01*
G75*
G02*
X43052800Y-60600000I0J51000D01*
G01*
G37*
G36*
G01*
X43052800Y-58060000D02*
X43052800Y-56560000D01*
G75*
G02*
X43103800Y-56509000I51000J0D01*
G01*
X44603800Y-56509000D01*
G75*
G02*
X44654800Y-56560000I0J-51000D01*
G01*
X44654800Y-58060000D01*
G75*
G02*
X44603800Y-58111000I-51000J0D01*
G01*
X43103800Y-58111000D01*
G75*
G02*
X43052800Y-58060000I0J51000D01*
G01*
G37*
G36*
G01*
X43052800Y-55520000D02*
X43052800Y-54020000D01*
G75*
G02*
X43103800Y-53969000I51000J0D01*
G01*
X44603800Y-53969000D01*
G75*
G02*
X44654800Y-54020000I0J-51000D01*
G01*
X44654800Y-55520000D01*
G75*
G02*
X44603800Y-55571000I-51000J0D01*
G01*
X43103800Y-55571000D01*
G75*
G02*
X43052800Y-55520000I0J51000D01*
G01*
G37*
G36*
G01*
X43052800Y-52980000D02*
X43052800Y-51480000D01*
G75*
G02*
X43103800Y-51429000I51000J0D01*
G01*
X44603800Y-51429000D01*
G75*
G02*
X44654800Y-51480000I0J-51000D01*
G01*
X44654800Y-52980000D01*
G75*
G02*
X44603800Y-53031000I-51000J0D01*
G01*
X43103800Y-53031000D01*
G75*
G02*
X43052800Y-52980000I0J51000D01*
G01*
G37*
G36*
G01*
X43052800Y-50440000D02*
X43052800Y-48940000D01*
G75*
G02*
X43103800Y-48889000I51000J0D01*
G01*
X44603800Y-48889000D01*
G75*
G02*
X44654800Y-48940000I0J-51000D01*
G01*
X44654800Y-50440000D01*
G75*
G02*
X44603800Y-50491000I-51000J0D01*
G01*
X43103800Y-50491000D01*
G75*
G02*
X43052800Y-50440000I0J51000D01*
G01*
G37*
G36*
G01*
X43052800Y-47900000D02*
X43052800Y-46400000D01*
G75*
G02*
X43103800Y-46349000I51000J0D01*
G01*
X44603800Y-46349000D01*
G75*
G02*
X44654800Y-46400000I0J-51000D01*
G01*
X44654800Y-47900000D01*
G75*
G02*
X44603800Y-47951000I-51000J0D01*
G01*
X43103800Y-47951000D01*
G75*
G02*
X43052800Y-47900000I0J51000D01*
G01*
G37*
G36*
G01*
X43052800Y-45360000D02*
X43052800Y-43860000D01*
G75*
G02*
X43103800Y-43809000I51000J0D01*
G01*
X44603800Y-43809000D01*
G75*
G02*
X44654800Y-43860000I0J-51000D01*
G01*
X44654800Y-45360000D01*
G75*
G02*
X44603800Y-45411000I-51000J0D01*
G01*
X43103800Y-45411000D01*
G75*
G02*
X43052800Y-45360000I0J51000D01*
G01*
G37*
G36*
G01*
X43052800Y-42820000D02*
X43052800Y-41320000D01*
G75*
G02*
X43103800Y-41269000I51000J0D01*
G01*
X44603800Y-41269000D01*
G75*
G02*
X44654800Y-41320000I0J-51000D01*
G01*
X44654800Y-42820000D01*
G75*
G02*
X44603800Y-42871000I-51000J0D01*
G01*
X43103800Y-42871000D01*
G75*
G02*
X43052800Y-42820000I0J51000D01*
G01*
G37*
G36*
G01*
X43052800Y-40280000D02*
X43052800Y-38780000D01*
G75*
G02*
X43103800Y-38729000I51000J0D01*
G01*
X44603800Y-38729000D01*
G75*
G02*
X44654800Y-38780000I0J-51000D01*
G01*
X44654800Y-40280000D01*
G75*
G02*
X44603800Y-40331000I-51000J0D01*
G01*
X43103800Y-40331000D01*
G75*
G02*
X43052800Y-40280000I0J51000D01*
G01*
G37*
G36*
G01*
X43052800Y-37740000D02*
X43052800Y-36240000D01*
G75*
G02*
X43103800Y-36189000I51000J0D01*
G01*
X44603800Y-36189000D01*
G75*
G02*
X44654800Y-36240000I0J-51000D01*
G01*
X44654800Y-37740000D01*
G75*
G02*
X44603800Y-37791000I-51000J0D01*
G01*
X43103800Y-37791000D01*
G75*
G02*
X43052800Y-37740000I0J51000D01*
G01*
G37*
G36*
G01*
X43052800Y-35200000D02*
X43052800Y-33700000D01*
G75*
G02*
X43103800Y-33649000I51000J0D01*
G01*
X44603800Y-33649000D01*
G75*
G02*
X44654800Y-33700000I0J-51000D01*
G01*
X44654800Y-35200000D01*
G75*
G02*
X44603800Y-35251000I-51000J0D01*
G01*
X43103800Y-35251000D01*
G75*
G02*
X43052800Y-35200000I0J51000D01*
G01*
G37*
G36*
G01*
X43052800Y-32660000D02*
X43052800Y-31160000D01*
G75*
G02*
X43103800Y-31109000I51000J0D01*
G01*
X44603800Y-31109000D01*
G75*
G02*
X44654800Y-31160000I0J-51000D01*
G01*
X44654800Y-32660000D01*
G75*
G02*
X44603800Y-32711000I-51000J0D01*
G01*
X43103800Y-32711000D01*
G75*
G02*
X43052800Y-32660000I0J51000D01*
G01*
G37*
G36*
G01*
X43052800Y-30120000D02*
X43052800Y-28620000D01*
G75*
G02*
X43103800Y-28569000I51000J0D01*
G01*
X44603800Y-28569000D01*
G75*
G02*
X44654800Y-28620000I0J-51000D01*
G01*
X44654800Y-30120000D01*
G75*
G02*
X44603800Y-30171000I-51000J0D01*
G01*
X43103800Y-30171000D01*
G75*
G02*
X43052800Y-30120000I0J51000D01*
G01*
G37*
G36*
G01*
X43052800Y-27580000D02*
X43052800Y-26080000D01*
G75*
G02*
X43103800Y-26029000I51000J0D01*
G01*
X44603800Y-26029000D01*
G75*
G02*
X44654800Y-26080000I0J-51000D01*
G01*
X44654800Y-27580000D01*
G75*
G02*
X44603800Y-27631000I-51000J0D01*
G01*
X43103800Y-27631000D01*
G75*
G02*
X43052800Y-27580000I0J51000D01*
G01*
G37*
G36*
G01*
X43052800Y-25040000D02*
X43052800Y-23540000D01*
G75*
G02*
X43103800Y-23489000I51000J0D01*
G01*
X44603800Y-23489000D01*
G75*
G02*
X44654800Y-23540000I0J-51000D01*
G01*
X44654800Y-25040000D01*
G75*
G02*
X44603800Y-25091000I-51000J0D01*
G01*
X43103800Y-25091000D01*
G75*
G02*
X43052800Y-25040000I0J51000D01*
G01*
G37*
G36*
G01*
X43052800Y-22500000D02*
X43052800Y-21000000D01*
G75*
G02*
X43103800Y-20949000I51000J0D01*
G01*
X44603800Y-20949000D01*
G75*
G02*
X44654800Y-21000000I0J-51000D01*
G01*
X44654800Y-22500000D01*
G75*
G02*
X44603800Y-22551000I-51000J0D01*
G01*
X43103800Y-22551000D01*
G75*
G02*
X43052800Y-22500000I0J51000D01*
G01*
G37*
G36*
G01*
X64719000Y-22500000D02*
X64719000Y-21000000D01*
G75*
G02*
X64770000Y-20949000I51000J0D01*
G01*
X66270000Y-20949000D01*
G75*
G02*
X66321000Y-21000000I0J-51000D01*
G01*
X66321000Y-22500000D01*
G75*
G02*
X66270000Y-22551000I-51000J0D01*
G01*
X64770000Y-22551000D01*
G75*
G02*
X64719000Y-22500000I0J51000D01*
G01*
G37*
G36*
G01*
X64719000Y-25040000D02*
X64719000Y-23540000D01*
G75*
G02*
X64770000Y-23489000I51000J0D01*
G01*
X66270000Y-23489000D01*
G75*
G02*
X66321000Y-23540000I0J-51000D01*
G01*
X66321000Y-25040000D01*
G75*
G02*
X66270000Y-25091000I-51000J0D01*
G01*
X64770000Y-25091000D01*
G75*
G02*
X64719000Y-25040000I0J51000D01*
G01*
G37*
G36*
G01*
X64719000Y-27580000D02*
X64719000Y-26080000D01*
G75*
G02*
X64770000Y-26029000I51000J0D01*
G01*
X66270000Y-26029000D01*
G75*
G02*
X66321000Y-26080000I0J-51000D01*
G01*
X66321000Y-27580000D01*
G75*
G02*
X66270000Y-27631000I-51000J0D01*
G01*
X64770000Y-27631000D01*
G75*
G02*
X64719000Y-27580000I0J51000D01*
G01*
G37*
G36*
G01*
X64719000Y-30120000D02*
X64719000Y-28620000D01*
G75*
G02*
X64770000Y-28569000I51000J0D01*
G01*
X66270000Y-28569000D01*
G75*
G02*
X66321000Y-28620000I0J-51000D01*
G01*
X66321000Y-30120000D01*
G75*
G02*
X66270000Y-30171000I-51000J0D01*
G01*
X64770000Y-30171000D01*
G75*
G02*
X64719000Y-30120000I0J51000D01*
G01*
G37*
G36*
G01*
X64719000Y-32660000D02*
X64719000Y-31160000D01*
G75*
G02*
X64770000Y-31109000I51000J0D01*
G01*
X66270000Y-31109000D01*
G75*
G02*
X66321000Y-31160000I0J-51000D01*
G01*
X66321000Y-32660000D01*
G75*
G02*
X66270000Y-32711000I-51000J0D01*
G01*
X64770000Y-32711000D01*
G75*
G02*
X64719000Y-32660000I0J51000D01*
G01*
G37*
G36*
G01*
X64719000Y-35200000D02*
X64719000Y-33700000D01*
G75*
G02*
X64770000Y-33649000I51000J0D01*
G01*
X66270000Y-33649000D01*
G75*
G02*
X66321000Y-33700000I0J-51000D01*
G01*
X66321000Y-35200000D01*
G75*
G02*
X66270000Y-35251000I-51000J0D01*
G01*
X64770000Y-35251000D01*
G75*
G02*
X64719000Y-35200000I0J51000D01*
G01*
G37*
G36*
G01*
X64719000Y-37740000D02*
X64719000Y-36240000D01*
G75*
G02*
X64770000Y-36189000I51000J0D01*
G01*
X66270000Y-36189000D01*
G75*
G02*
X66321000Y-36240000I0J-51000D01*
G01*
X66321000Y-37740000D01*
G75*
G02*
X66270000Y-37791000I-51000J0D01*
G01*
X64770000Y-37791000D01*
G75*
G02*
X64719000Y-37740000I0J51000D01*
G01*
G37*
G36*
G01*
X64719000Y-40280000D02*
X64719000Y-38780000D01*
G75*
G02*
X64770000Y-38729000I51000J0D01*
G01*
X66270000Y-38729000D01*
G75*
G02*
X66321000Y-38780000I0J-51000D01*
G01*
X66321000Y-40280000D01*
G75*
G02*
X66270000Y-40331000I-51000J0D01*
G01*
X64770000Y-40331000D01*
G75*
G02*
X64719000Y-40280000I0J51000D01*
G01*
G37*
G36*
G01*
X64719000Y-42820000D02*
X64719000Y-41320000D01*
G75*
G02*
X64770000Y-41269000I51000J0D01*
G01*
X66270000Y-41269000D01*
G75*
G02*
X66321000Y-41320000I0J-51000D01*
G01*
X66321000Y-42820000D01*
G75*
G02*
X66270000Y-42871000I-51000J0D01*
G01*
X64770000Y-42871000D01*
G75*
G02*
X64719000Y-42820000I0J51000D01*
G01*
G37*
G36*
G01*
X64719000Y-45360000D02*
X64719000Y-43860000D01*
G75*
G02*
X64770000Y-43809000I51000J0D01*
G01*
X66270000Y-43809000D01*
G75*
G02*
X66321000Y-43860000I0J-51000D01*
G01*
X66321000Y-45360000D01*
G75*
G02*
X66270000Y-45411000I-51000J0D01*
G01*
X64770000Y-45411000D01*
G75*
G02*
X64719000Y-45360000I0J51000D01*
G01*
G37*
G36*
G01*
X64719000Y-47900000D02*
X64719000Y-46400000D01*
G75*
G02*
X64770000Y-46349000I51000J0D01*
G01*
X66270000Y-46349000D01*
G75*
G02*
X66321000Y-46400000I0J-51000D01*
G01*
X66321000Y-47900000D01*
G75*
G02*
X66270000Y-47951000I-51000J0D01*
G01*
X64770000Y-47951000D01*
G75*
G02*
X64719000Y-47900000I0J51000D01*
G01*
G37*
G36*
G01*
X64719000Y-50440000D02*
X64719000Y-48940000D01*
G75*
G02*
X64770000Y-48889000I51000J0D01*
G01*
X66270000Y-48889000D01*
G75*
G02*
X66321000Y-48940000I0J-51000D01*
G01*
X66321000Y-50440000D01*
G75*
G02*
X66270000Y-50491000I-51000J0D01*
G01*
X64770000Y-50491000D01*
G75*
G02*
X64719000Y-50440000I0J51000D01*
G01*
G37*
G36*
G01*
X64719000Y-52980000D02*
X64719000Y-51480000D01*
G75*
G02*
X64770000Y-51429000I51000J0D01*
G01*
X66270000Y-51429000D01*
G75*
G02*
X66321000Y-51480000I0J-51000D01*
G01*
X66321000Y-52980000D01*
G75*
G02*
X66270000Y-53031000I-51000J0D01*
G01*
X64770000Y-53031000D01*
G75*
G02*
X64719000Y-52980000I0J51000D01*
G01*
G37*
G36*
G01*
X64719000Y-55520000D02*
X64719000Y-54020000D01*
G75*
G02*
X64770000Y-53969000I51000J0D01*
G01*
X66270000Y-53969000D01*
G75*
G02*
X66321000Y-54020000I0J-51000D01*
G01*
X66321000Y-55520000D01*
G75*
G02*
X66270000Y-55571000I-51000J0D01*
G01*
X64770000Y-55571000D01*
G75*
G02*
X64719000Y-55520000I0J51000D01*
G01*
G37*
G36*
G01*
X64719000Y-58060000D02*
X64719000Y-56560000D01*
G75*
G02*
X64770000Y-56509000I51000J0D01*
G01*
X66270000Y-56509000D01*
G75*
G02*
X66321000Y-56560000I0J-51000D01*
G01*
X66321000Y-58060000D01*
G75*
G02*
X66270000Y-58111000I-51000J0D01*
G01*
X64770000Y-58111000D01*
G75*
G02*
X64719000Y-58060000I0J51000D01*
G01*
G37*
G36*
G01*
X64719000Y-60600000D02*
X64719000Y-59100000D01*
G75*
G02*
X64770000Y-59049000I51000J0D01*
G01*
X66270000Y-59049000D01*
G75*
G02*
X66321000Y-59100000I0J-51000D01*
G01*
X66321000Y-60600000D01*
G75*
G02*
X66270000Y-60651000I-51000J0D01*
G01*
X64770000Y-60651000D01*
G75*
G02*
X64719000Y-60600000I0J51000D01*
G01*
G37*
G36*
G01*
X64719000Y-63140000D02*
X64719000Y-61640000D01*
G75*
G02*
X64770000Y-61589000I51000J0D01*
G01*
X66270000Y-61589000D01*
G75*
G02*
X66321000Y-61640000I0J-51000D01*
G01*
X66321000Y-63140000D01*
G75*
G02*
X66270000Y-63191000I-51000J0D01*
G01*
X64770000Y-63191000D01*
G75*
G02*
X64719000Y-63140000I0J51000D01*
G01*
G37*
G36*
G01*
X64719000Y-65680000D02*
X64719000Y-64180000D01*
G75*
G02*
X64770000Y-64129000I51000J0D01*
G01*
X66270000Y-64129000D01*
G75*
G02*
X66321000Y-64180000I0J-51000D01*
G01*
X66321000Y-65680000D01*
G75*
G02*
X66270000Y-65731000I-51000J0D01*
G01*
X64770000Y-65731000D01*
G75*
G02*
X64719000Y-65680000I0J51000D01*
G01*
G37*
G36*
G01*
X64719000Y-68220000D02*
X64719000Y-66720000D01*
G75*
G02*
X64770000Y-66669000I51000J0D01*
G01*
X66270000Y-66669000D01*
G75*
G02*
X66321000Y-66720000I0J-51000D01*
G01*
X66321000Y-68220000D01*
G75*
G02*
X66270000Y-68271000I-51000J0D01*
G01*
X64770000Y-68271000D01*
G75*
G02*
X64719000Y-68220000I0J51000D01*
G01*
G37*
G36*
G01*
X39354000Y-73240001D02*
X39354000Y-71539999D01*
G75*
G02*
X39404999Y-71489000I50999J0D01*
G01*
X40605001Y-71489000D01*
G75*
G02*
X40656000Y-71539999I0J-50999D01*
G01*
X40656000Y-73240001D01*
G75*
G02*
X40605001Y-73291000I-50999J0D01*
G01*
X39404999Y-73291000D01*
G75*
G02*
X39354000Y-73240001I0J50999D01*
G01*
G37*
X42005000Y-72390000D03*
X44005000Y-72390000D03*
X46005000Y-72390000D03*
X48005000Y-72390000D03*
D14*
G36*
X38519950Y-27774980D02*
G01*
X38529517Y-27777882D01*
X38538334Y-27782595D01*
X38546062Y-27788938D01*
X38552435Y-27796710D01*
X39052435Y-28546710D01*
X39057138Y-28555532D01*
X39060030Y-28565103D01*
X39061000Y-28575053D01*
X39060010Y-28585002D01*
X39057097Y-28594566D01*
X39052435Y-28603290D01*
X38552435Y-29353290D01*
X38546100Y-29361025D01*
X38538378Y-29367375D01*
X38529566Y-29372097D01*
X38520002Y-29375010D01*
X38510000Y-29376000D01*
X37510000Y-29376000D01*
X37500050Y-29375020D01*
X37490483Y-29372118D01*
X37481666Y-29367405D01*
X37473938Y-29361062D01*
X37467595Y-29353334D01*
X37462882Y-29344517D01*
X37459980Y-29334950D01*
X37459000Y-29325000D01*
X37459000Y-27825000D01*
X37459980Y-27815050D01*
X37462882Y-27805483D01*
X37467595Y-27796666D01*
X37473938Y-27788938D01*
X37481666Y-27782595D01*
X37490483Y-27777882D01*
X37500050Y-27774980D01*
X37510000Y-27774000D01*
X38510000Y-27774000D01*
X38519950Y-27774980D01*
G37*
G36*
X39969950Y-27774980D02*
G01*
X39979517Y-27777882D01*
X39988334Y-27782595D01*
X39996062Y-27788938D01*
X40002405Y-27796666D01*
X40007118Y-27805483D01*
X40010020Y-27815050D01*
X40011000Y-27825000D01*
X40011000Y-29325000D01*
X40010020Y-29334950D01*
X40007118Y-29344517D01*
X40002405Y-29353334D01*
X39996062Y-29361062D01*
X39988334Y-29367405D01*
X39979517Y-29372118D01*
X39969950Y-29375020D01*
X39960000Y-29376000D01*
X38810000Y-29376000D01*
X38800050Y-29375020D01*
X38790483Y-29372118D01*
X38781666Y-29367405D01*
X38773938Y-29361062D01*
X38767595Y-29353334D01*
X38762882Y-29344517D01*
X38759980Y-29334950D01*
X38759000Y-29325000D01*
X38759980Y-29315050D01*
X38762882Y-29305483D01*
X38767565Y-29296710D01*
X39248705Y-28575000D01*
X38767565Y-27853290D01*
X38762862Y-27844468D01*
X38759970Y-27834897D01*
X38759000Y-27824947D01*
X38759990Y-27814998D01*
X38762903Y-27805434D01*
X38767625Y-27796622D01*
X38773975Y-27788900D01*
X38781710Y-27782565D01*
X38790532Y-27777862D01*
X38800103Y-27774970D01*
X38810000Y-27774000D01*
X39960000Y-27774000D01*
X39969950Y-27774980D01*
G37*
G36*
G01*
X33074000Y-22975000D02*
X33074000Y-21475000D01*
G75*
G02*
X33125000Y-21424000I51000J0D01*
G01*
X34125000Y-21424000D01*
G75*
G02*
X34176000Y-21475000I0J-51000D01*
G01*
X34176000Y-22975000D01*
G75*
G02*
X34125000Y-23026000I-51000J0D01*
G01*
X33125000Y-23026000D01*
G75*
G02*
X33074000Y-22975000I0J51000D01*
G01*
G37*
G36*
G01*
X34374000Y-22975000D02*
X34374000Y-21475000D01*
G75*
G02*
X34425000Y-21424000I51000J0D01*
G01*
X35425000Y-21424000D01*
G75*
G02*
X35476000Y-21475000I0J-51000D01*
G01*
X35476000Y-22975000D01*
G75*
G02*
X35425000Y-23026000I-51000J0D01*
G01*
X34425000Y-23026000D01*
G75*
G02*
X34374000Y-22975000I0J51000D01*
G01*
G37*
G36*
G01*
X35674000Y-22975000D02*
X35674000Y-21475000D01*
G75*
G02*
X35725000Y-21424000I51000J0D01*
G01*
X36725000Y-21424000D01*
G75*
G02*
X36776000Y-21475000I0J-51000D01*
G01*
X36776000Y-22975000D01*
G75*
G02*
X36725000Y-23026000I-51000J0D01*
G01*
X35725000Y-23026000D01*
G75*
G02*
X35674000Y-22975000I0J51000D01*
G01*
G37*
G36*
G01*
X76146000Y-50050000D02*
X76146000Y-51550000D01*
G75*
G02*
X76095000Y-51601000I-51000J0D01*
G01*
X75095000Y-51601000D01*
G75*
G02*
X75044000Y-51550000I0J51000D01*
G01*
X75044000Y-50050000D01*
G75*
G02*
X75095000Y-49999000I51000J0D01*
G01*
X76095000Y-49999000D01*
G75*
G02*
X76146000Y-50050000I0J-51000D01*
G01*
G37*
G36*
G01*
X74846000Y-50050000D02*
X74846000Y-51550000D01*
G75*
G02*
X74795000Y-51601000I-51000J0D01*
G01*
X73795000Y-51601000D01*
G75*
G02*
X73744000Y-51550000I0J51000D01*
G01*
X73744000Y-50050000D01*
G75*
G02*
X73795000Y-49999000I51000J0D01*
G01*
X74795000Y-49999000D01*
G75*
G02*
X74846000Y-50050000I0J-51000D01*
G01*
G37*
G36*
G01*
X73546000Y-50050000D02*
X73546000Y-51550000D01*
G75*
G02*
X73495000Y-51601000I-51000J0D01*
G01*
X72495000Y-51601000D01*
G75*
G02*
X72444000Y-51550000I0J51000D01*
G01*
X72444000Y-50050000D01*
G75*
G02*
X72495000Y-49999000I51000J0D01*
G01*
X73495000Y-49999000D01*
G75*
G02*
X73546000Y-50050000I0J-51000D01*
G01*
G37*
G36*
G01*
X76146000Y-66560000D02*
X76146000Y-68060000D01*
G75*
G02*
X76095000Y-68111000I-51000J0D01*
G01*
X75095000Y-68111000D01*
G75*
G02*
X75044000Y-68060000I0J51000D01*
G01*
X75044000Y-66560000D01*
G75*
G02*
X75095000Y-66509000I51000J0D01*
G01*
X76095000Y-66509000D01*
G75*
G02*
X76146000Y-66560000I0J-51000D01*
G01*
G37*
G36*
G01*
X74846000Y-66560000D02*
X74846000Y-68060000D01*
G75*
G02*
X74795000Y-68111000I-51000J0D01*
G01*
X73795000Y-68111000D01*
G75*
G02*
X73744000Y-68060000I0J51000D01*
G01*
X73744000Y-66560000D01*
G75*
G02*
X73795000Y-66509000I51000J0D01*
G01*
X74795000Y-66509000D01*
G75*
G02*
X74846000Y-66560000I0J-51000D01*
G01*
G37*
G36*
G01*
X73546000Y-66560000D02*
X73546000Y-68060000D01*
G75*
G02*
X73495000Y-68111000I-51000J0D01*
G01*
X72495000Y-68111000D01*
G75*
G02*
X72444000Y-68060000I0J51000D01*
G01*
X72444000Y-66560000D01*
G75*
G02*
X72495000Y-66509000I51000J0D01*
G01*
X73495000Y-66509000D01*
G75*
G02*
X73546000Y-66560000I0J-51000D01*
G01*
G37*
G36*
G01*
X33074000Y-55360000D02*
X33074000Y-53860000D01*
G75*
G02*
X33125000Y-53809000I51000J0D01*
G01*
X34125000Y-53809000D01*
G75*
G02*
X34176000Y-53860000I0J-51000D01*
G01*
X34176000Y-55360000D01*
G75*
G02*
X34125000Y-55411000I-51000J0D01*
G01*
X33125000Y-55411000D01*
G75*
G02*
X33074000Y-55360000I0J51000D01*
G01*
G37*
G36*
G01*
X34374000Y-55360000D02*
X34374000Y-53860000D01*
G75*
G02*
X34425000Y-53809000I51000J0D01*
G01*
X35425000Y-53809000D01*
G75*
G02*
X35476000Y-53860000I0J-51000D01*
G01*
X35476000Y-55360000D01*
G75*
G02*
X35425000Y-55411000I-51000J0D01*
G01*
X34425000Y-55411000D01*
G75*
G02*
X34374000Y-55360000I0J51000D01*
G01*
G37*
G36*
G01*
X35674000Y-55360000D02*
X35674000Y-53860000D01*
G75*
G02*
X35725000Y-53809000I51000J0D01*
G01*
X36725000Y-53809000D01*
G75*
G02*
X36776000Y-53860000I0J-51000D01*
G01*
X36776000Y-55360000D01*
G75*
G02*
X36725000Y-55411000I-51000J0D01*
G01*
X35725000Y-55411000D01*
G75*
G02*
X35674000Y-55360000I0J51000D01*
G01*
G37*
G36*
G01*
X76176000Y-34175000D02*
X76176000Y-35675000D01*
G75*
G02*
X76125000Y-35726000I-51000J0D01*
G01*
X75125000Y-35726000D01*
G75*
G02*
X75074000Y-35675000I0J51000D01*
G01*
X75074000Y-34175000D01*
G75*
G02*
X75125000Y-34124000I51000J0D01*
G01*
X76125000Y-34124000D01*
G75*
G02*
X76176000Y-34175000I0J-51000D01*
G01*
G37*
G36*
G01*
X74876000Y-34175000D02*
X74876000Y-35675000D01*
G75*
G02*
X74825000Y-35726000I-51000J0D01*
G01*
X73825000Y-35726000D01*
G75*
G02*
X73774000Y-35675000I0J51000D01*
G01*
X73774000Y-34175000D01*
G75*
G02*
X73825000Y-34124000I51000J0D01*
G01*
X74825000Y-34124000D01*
G75*
G02*
X74876000Y-34175000I0J-51000D01*
G01*
G37*
G36*
G01*
X73576000Y-34175000D02*
X73576000Y-35675000D01*
G75*
G02*
X73525000Y-35726000I-51000J0D01*
G01*
X72525000Y-35726000D01*
G75*
G02*
X72474000Y-35675000I0J51000D01*
G01*
X72474000Y-34175000D01*
G75*
G02*
X72525000Y-34124000I51000J0D01*
G01*
X73525000Y-34124000D01*
G75*
G02*
X73576000Y-34175000I0J-51000D01*
G01*
G37*
G36*
G01*
X33074000Y-38850000D02*
X33074000Y-37350000D01*
G75*
G02*
X33125000Y-37299000I51000J0D01*
G01*
X34125000Y-37299000D01*
G75*
G02*
X34176000Y-37350000I0J-51000D01*
G01*
X34176000Y-38850000D01*
G75*
G02*
X34125000Y-38901000I-51000J0D01*
G01*
X33125000Y-38901000D01*
G75*
G02*
X33074000Y-38850000I0J51000D01*
G01*
G37*
G36*
G01*
X34374000Y-38850000D02*
X34374000Y-37350000D01*
G75*
G02*
X34425000Y-37299000I51000J0D01*
G01*
X35425000Y-37299000D01*
G75*
G02*
X35476000Y-37350000I0J-51000D01*
G01*
X35476000Y-38850000D01*
G75*
G02*
X35425000Y-38901000I-51000J0D01*
G01*
X34425000Y-38901000D01*
G75*
G02*
X34374000Y-38850000I0J51000D01*
G01*
G37*
G36*
G01*
X35674000Y-38850000D02*
X35674000Y-37350000D01*
G75*
G02*
X35725000Y-37299000I51000J0D01*
G01*
X36725000Y-37299000D01*
G75*
G02*
X36776000Y-37350000I0J-51000D01*
G01*
X36776000Y-38850000D01*
G75*
G02*
X36725000Y-38901000I-51000J0D01*
G01*
X35725000Y-38901000D01*
G75*
G02*
X35674000Y-38850000I0J51000D01*
G01*
G37*
G36*
X70269950Y-60159980D02*
G01*
X70279517Y-60162882D01*
X70288334Y-60167595D01*
X70296062Y-60173938D01*
X70302435Y-60181710D01*
X70802435Y-60931710D01*
X70807138Y-60940532D01*
X70810030Y-60950103D01*
X70811000Y-60960053D01*
X70810010Y-60970002D01*
X70807097Y-60979566D01*
X70802435Y-60988290D01*
X70302435Y-61738290D01*
X70296100Y-61746025D01*
X70288378Y-61752375D01*
X70279566Y-61757097D01*
X70270002Y-61760010D01*
X70260000Y-61761000D01*
X69260000Y-61761000D01*
X69250050Y-61760020D01*
X69240483Y-61757118D01*
X69231666Y-61752405D01*
X69223938Y-61746062D01*
X69217595Y-61738334D01*
X69212882Y-61729517D01*
X69209980Y-61719950D01*
X69209000Y-61710000D01*
X69209000Y-60210000D01*
X69209980Y-60200050D01*
X69212882Y-60190483D01*
X69217595Y-60181666D01*
X69223938Y-60173938D01*
X69231666Y-60167595D01*
X69240483Y-60162882D01*
X69250050Y-60159980D01*
X69260000Y-60159000D01*
X70260000Y-60159000D01*
X70269950Y-60159980D01*
G37*
G36*
X71719950Y-60159980D02*
G01*
X71729517Y-60162882D01*
X71738334Y-60167595D01*
X71746062Y-60173938D01*
X71752405Y-60181666D01*
X71757118Y-60190483D01*
X71760020Y-60200050D01*
X71761000Y-60210000D01*
X71761000Y-61710000D01*
X71760020Y-61719950D01*
X71757118Y-61729517D01*
X71752405Y-61738334D01*
X71746062Y-61746062D01*
X71738334Y-61752405D01*
X71729517Y-61757118D01*
X71719950Y-61760020D01*
X71710000Y-61761000D01*
X70560000Y-61761000D01*
X70550050Y-61760020D01*
X70540483Y-61757118D01*
X70531666Y-61752405D01*
X70523938Y-61746062D01*
X70517595Y-61738334D01*
X70512882Y-61729517D01*
X70509980Y-61719950D01*
X70509000Y-61710000D01*
X70509980Y-61700050D01*
X70512882Y-61690483D01*
X70517565Y-61681710D01*
X70998705Y-60960000D01*
X70517565Y-60238290D01*
X70512862Y-60229468D01*
X70509970Y-60219897D01*
X70509000Y-60209947D01*
X70509990Y-60199998D01*
X70512903Y-60190434D01*
X70517625Y-60181622D01*
X70523975Y-60173900D01*
X70531710Y-60167565D01*
X70540532Y-60162862D01*
X70550103Y-60159970D01*
X70560000Y-60159000D01*
X71710000Y-60159000D01*
X71719950Y-60159980D01*
G37*
G36*
X70269950Y-43649980D02*
G01*
X70279517Y-43652882D01*
X70288334Y-43657595D01*
X70296062Y-43663938D01*
X70302435Y-43671710D01*
X70802435Y-44421710D01*
X70807138Y-44430532D01*
X70810030Y-44440103D01*
X70811000Y-44450053D01*
X70810010Y-44460002D01*
X70807097Y-44469566D01*
X70802435Y-44478290D01*
X70302435Y-45228290D01*
X70296100Y-45236025D01*
X70288378Y-45242375D01*
X70279566Y-45247097D01*
X70270002Y-45250010D01*
X70260000Y-45251000D01*
X69260000Y-45251000D01*
X69250050Y-45250020D01*
X69240483Y-45247118D01*
X69231666Y-45242405D01*
X69223938Y-45236062D01*
X69217595Y-45228334D01*
X69212882Y-45219517D01*
X69209980Y-45209950D01*
X69209000Y-45200000D01*
X69209000Y-43700000D01*
X69209980Y-43690050D01*
X69212882Y-43680483D01*
X69217595Y-43671666D01*
X69223938Y-43663938D01*
X69231666Y-43657595D01*
X69240483Y-43652882D01*
X69250050Y-43649980D01*
X69260000Y-43649000D01*
X70260000Y-43649000D01*
X70269950Y-43649980D01*
G37*
G36*
X71719950Y-43649980D02*
G01*
X71729517Y-43652882D01*
X71738334Y-43657595D01*
X71746062Y-43663938D01*
X71752405Y-43671666D01*
X71757118Y-43680483D01*
X71760020Y-43690050D01*
X71761000Y-43700000D01*
X71761000Y-45200000D01*
X71760020Y-45209950D01*
X71757118Y-45219517D01*
X71752405Y-45228334D01*
X71746062Y-45236062D01*
X71738334Y-45242405D01*
X71729517Y-45247118D01*
X71719950Y-45250020D01*
X71710000Y-45251000D01*
X70560000Y-45251000D01*
X70550050Y-45250020D01*
X70540483Y-45247118D01*
X70531666Y-45242405D01*
X70523938Y-45236062D01*
X70517595Y-45228334D01*
X70512882Y-45219517D01*
X70509980Y-45209950D01*
X70509000Y-45200000D01*
X70509980Y-45190050D01*
X70512882Y-45180483D01*
X70517565Y-45171710D01*
X70998705Y-44450000D01*
X70517565Y-43728290D01*
X70512862Y-43719468D01*
X70509970Y-43709897D01*
X70509000Y-43699947D01*
X70509990Y-43689998D01*
X70512903Y-43680434D01*
X70517625Y-43671622D01*
X70523975Y-43663900D01*
X70531710Y-43657565D01*
X70540532Y-43652862D01*
X70550103Y-43649970D01*
X70560000Y-43649000D01*
X71710000Y-43649000D01*
X71719950Y-43649980D01*
G37*
G36*
X70269950Y-27774980D02*
G01*
X70279517Y-27777882D01*
X70288334Y-27782595D01*
X70296062Y-27788938D01*
X70302435Y-27796710D01*
X70802435Y-28546710D01*
X70807138Y-28555532D01*
X70810030Y-28565103D01*
X70811000Y-28575053D01*
X70810010Y-28585002D01*
X70807097Y-28594566D01*
X70802435Y-28603290D01*
X70302435Y-29353290D01*
X70296100Y-29361025D01*
X70288378Y-29367375D01*
X70279566Y-29372097D01*
X70270002Y-29375010D01*
X70260000Y-29376000D01*
X69260000Y-29376000D01*
X69250050Y-29375020D01*
X69240483Y-29372118D01*
X69231666Y-29367405D01*
X69223938Y-29361062D01*
X69217595Y-29353334D01*
X69212882Y-29344517D01*
X69209980Y-29334950D01*
X69209000Y-29325000D01*
X69209000Y-27825000D01*
X69209980Y-27815050D01*
X69212882Y-27805483D01*
X69217595Y-27796666D01*
X69223938Y-27788938D01*
X69231666Y-27782595D01*
X69240483Y-27777882D01*
X69250050Y-27774980D01*
X69260000Y-27774000D01*
X70260000Y-27774000D01*
X70269950Y-27774980D01*
G37*
G36*
X71719950Y-27774980D02*
G01*
X71729517Y-27777882D01*
X71738334Y-27782595D01*
X71746062Y-27788938D01*
X71752405Y-27796666D01*
X71757118Y-27805483D01*
X71760020Y-27815050D01*
X71761000Y-27825000D01*
X71761000Y-29325000D01*
X71760020Y-29334950D01*
X71757118Y-29344517D01*
X71752405Y-29353334D01*
X71746062Y-29361062D01*
X71738334Y-29367405D01*
X71729517Y-29372118D01*
X71719950Y-29375020D01*
X71710000Y-29376000D01*
X70560000Y-29376000D01*
X70550050Y-29375020D01*
X70540483Y-29372118D01*
X70531666Y-29367405D01*
X70523938Y-29361062D01*
X70517595Y-29353334D01*
X70512882Y-29344517D01*
X70509980Y-29334950D01*
X70509000Y-29325000D01*
X70509980Y-29315050D01*
X70512882Y-29305483D01*
X70517565Y-29296710D01*
X70998705Y-28575000D01*
X70517565Y-27853290D01*
X70512862Y-27844468D01*
X70509970Y-27834897D01*
X70509000Y-27824947D01*
X70509990Y-27814998D01*
X70512903Y-27805434D01*
X70517625Y-27796622D01*
X70523975Y-27788900D01*
X70531710Y-27782565D01*
X70540532Y-27777862D01*
X70550103Y-27774970D01*
X70560000Y-27774000D01*
X71710000Y-27774000D01*
X71719950Y-27774980D01*
G37*
G36*
X38519950Y-60159980D02*
G01*
X38529517Y-60162882D01*
X38538334Y-60167595D01*
X38546062Y-60173938D01*
X38552435Y-60181710D01*
X39052435Y-60931710D01*
X39057138Y-60940532D01*
X39060030Y-60950103D01*
X39061000Y-60960053D01*
X39060010Y-60970002D01*
X39057097Y-60979566D01*
X39052435Y-60988290D01*
X38552435Y-61738290D01*
X38546100Y-61746025D01*
X38538378Y-61752375D01*
X38529566Y-61757097D01*
X38520002Y-61760010D01*
X38510000Y-61761000D01*
X37510000Y-61761000D01*
X37500050Y-61760020D01*
X37490483Y-61757118D01*
X37481666Y-61752405D01*
X37473938Y-61746062D01*
X37467595Y-61738334D01*
X37462882Y-61729517D01*
X37459980Y-61719950D01*
X37459000Y-61710000D01*
X37459000Y-60210000D01*
X37459980Y-60200050D01*
X37462882Y-60190483D01*
X37467595Y-60181666D01*
X37473938Y-60173938D01*
X37481666Y-60167595D01*
X37490483Y-60162882D01*
X37500050Y-60159980D01*
X37510000Y-60159000D01*
X38510000Y-60159000D01*
X38519950Y-60159980D01*
G37*
G36*
X39969950Y-60159980D02*
G01*
X39979517Y-60162882D01*
X39988334Y-60167595D01*
X39996062Y-60173938D01*
X40002405Y-60181666D01*
X40007118Y-60190483D01*
X40010020Y-60200050D01*
X40011000Y-60210000D01*
X40011000Y-61710000D01*
X40010020Y-61719950D01*
X40007118Y-61729517D01*
X40002405Y-61738334D01*
X39996062Y-61746062D01*
X39988334Y-61752405D01*
X39979517Y-61757118D01*
X39969950Y-61760020D01*
X39960000Y-61761000D01*
X38810000Y-61761000D01*
X38800050Y-61760020D01*
X38790483Y-61757118D01*
X38781666Y-61752405D01*
X38773938Y-61746062D01*
X38767595Y-61738334D01*
X38762882Y-61729517D01*
X38759980Y-61719950D01*
X38759000Y-61710000D01*
X38759980Y-61700050D01*
X38762882Y-61690483D01*
X38767565Y-61681710D01*
X39248705Y-60960000D01*
X38767565Y-60238290D01*
X38762862Y-60229468D01*
X38759970Y-60219897D01*
X38759000Y-60209947D01*
X38759990Y-60199998D01*
X38762903Y-60190434D01*
X38767625Y-60181622D01*
X38773975Y-60173900D01*
X38781710Y-60167565D01*
X38790532Y-60162862D01*
X38800103Y-60159970D01*
X38810000Y-60159000D01*
X39960000Y-60159000D01*
X39969950Y-60159980D01*
G37*
G36*
X38519950Y-43649980D02*
G01*
X38529517Y-43652882D01*
X38538334Y-43657595D01*
X38546062Y-43663938D01*
X38552435Y-43671710D01*
X39052435Y-44421710D01*
X39057138Y-44430532D01*
X39060030Y-44440103D01*
X39061000Y-44450053D01*
X39060010Y-44460002D01*
X39057097Y-44469566D01*
X39052435Y-44478290D01*
X38552435Y-45228290D01*
X38546100Y-45236025D01*
X38538378Y-45242375D01*
X38529566Y-45247097D01*
X38520002Y-45250010D01*
X38510000Y-45251000D01*
X37510000Y-45251000D01*
X37500050Y-45250020D01*
X37490483Y-45247118D01*
X37481666Y-45242405D01*
X37473938Y-45236062D01*
X37467595Y-45228334D01*
X37462882Y-45219517D01*
X37459980Y-45209950D01*
X37459000Y-45200000D01*
X37459000Y-43700000D01*
X37459980Y-43690050D01*
X37462882Y-43680483D01*
X37467595Y-43671666D01*
X37473938Y-43663938D01*
X37481666Y-43657595D01*
X37490483Y-43652882D01*
X37500050Y-43649980D01*
X37510000Y-43649000D01*
X38510000Y-43649000D01*
X38519950Y-43649980D01*
G37*
G36*
X39969950Y-43649980D02*
G01*
X39979517Y-43652882D01*
X39988334Y-43657595D01*
X39996062Y-43663938D01*
X40002405Y-43671666D01*
X40007118Y-43680483D01*
X40010020Y-43690050D01*
X40011000Y-43700000D01*
X40011000Y-45200000D01*
X40010020Y-45209950D01*
X40007118Y-45219517D01*
X40002405Y-45228334D01*
X39996062Y-45236062D01*
X39988334Y-45242405D01*
X39979517Y-45247118D01*
X39969950Y-45250020D01*
X39960000Y-45251000D01*
X38810000Y-45251000D01*
X38800050Y-45250020D01*
X38790483Y-45247118D01*
X38781666Y-45242405D01*
X38773938Y-45236062D01*
X38767595Y-45228334D01*
X38762882Y-45219517D01*
X38759980Y-45209950D01*
X38759000Y-45200000D01*
X38759980Y-45190050D01*
X38762882Y-45180483D01*
X38767565Y-45171710D01*
X39248705Y-44450000D01*
X38767565Y-43728290D01*
X38762862Y-43719468D01*
X38759970Y-43709897D01*
X38759000Y-43699947D01*
X38759990Y-43689998D01*
X38762903Y-43680434D01*
X38767625Y-43671622D01*
X38773975Y-43663900D01*
X38781710Y-43657565D01*
X38790532Y-43652862D01*
X38800103Y-43649970D01*
X38810000Y-43649000D01*
X39960000Y-43649000D01*
X39969950Y-43649980D01*
G37*
D15*
X48933800Y-35023000D03*
D16*
X75565000Y-74295000D03*
D17*
X77965000Y-74295000D03*
X77262056Y-75992056D03*
X75565000Y-76695000D03*
X73867944Y-75992056D03*
X73165000Y-74295000D03*
X73867944Y-72597944D03*
X75565000Y-71895000D03*
X77262056Y-72597944D03*
D16*
X33655000Y-74295000D03*
D17*
X36055000Y-74295000D03*
X35352056Y-75992056D03*
X33655000Y-76695000D03*
X31957944Y-75992056D03*
X31255000Y-74295000D03*
X31957944Y-72597944D03*
X33655000Y-71895000D03*
X35352056Y-72597944D03*
D16*
X75565000Y-15240000D03*
D17*
X77965000Y-15240000D03*
X77262056Y-16937056D03*
X75565000Y-17640000D03*
X73867944Y-16937056D03*
X73165000Y-15240000D03*
X73867944Y-13542944D03*
X75565000Y-12840000D03*
X77262056Y-13542944D03*
D16*
X33655000Y-15240000D03*
D17*
X36055000Y-15240000D03*
X35352056Y-16937056D03*
X33655000Y-17640000D03*
X31957944Y-16937056D03*
X31255000Y-15240000D03*
X31957944Y-13542944D03*
X33655000Y-12840000D03*
X35352056Y-13542944D03*
D14*
G36*
X42951644Y-66587019D02*
G01*
X42952872Y-66591067D01*
X42964237Y-66612331D01*
X42979532Y-66630968D01*
X42998169Y-66646263D01*
X43019433Y-66657628D01*
X43042508Y-66664628D01*
X43066695Y-66667010D01*
X43068321Y-66668175D01*
X43068125Y-66670165D01*
X43066499Y-66671000D01*
X43054800Y-66671000D01*
X43054800Y-68269000D01*
X43066499Y-68269000D01*
X43068231Y-68270000D01*
X43068231Y-68272000D01*
X43066695Y-68272990D01*
X43042508Y-68275372D01*
X43019433Y-68282372D01*
X42998169Y-68293737D01*
X42979532Y-68309032D01*
X42964237Y-68327669D01*
X42952872Y-68348933D01*
X42945872Y-68372008D01*
X42944120Y-68389796D01*
X42942130Y-68391600D01*
X42941500Y-68391600D01*
X42939768Y-68390600D01*
X42939500Y-68389600D01*
X42939500Y-66587600D01*
X42940500Y-66585868D01*
X42941500Y-66585600D01*
X42949730Y-66585600D01*
X42951644Y-66587019D01*
G37*
G36*
X75045732Y-66508000D02*
G01*
X75046000Y-66509000D01*
X75046000Y-68111000D01*
X75045000Y-68112732D01*
X75044000Y-68113000D01*
X74846000Y-68113000D01*
X74844268Y-68112000D01*
X74844000Y-68111000D01*
X74844000Y-66511000D01*
X73746000Y-66511000D01*
X73746000Y-68111000D01*
X73745000Y-68112732D01*
X73744000Y-68113000D01*
X73546000Y-68113000D01*
X73544268Y-68112000D01*
X73544000Y-68111000D01*
X73544000Y-66509000D01*
X73545000Y-66507268D01*
X73546000Y-66507000D01*
X75044000Y-66507000D01*
X75045732Y-66508000D01*
G37*
G36*
X66322990Y-67208419D02*
G01*
X66325372Y-67232606D01*
X66332372Y-67255681D01*
X66343737Y-67276945D01*
X66359032Y-67295582D01*
X66377669Y-67310877D01*
X66398933Y-67322242D01*
X66422008Y-67329242D01*
X66445999Y-67331605D01*
X66469990Y-67329242D01*
X66493065Y-67322242D01*
X66514329Y-67310877D01*
X66532966Y-67295582D01*
X66548261Y-67276945D01*
X66559626Y-67255681D01*
X66564901Y-67238290D01*
X66566361Y-67236923D01*
X66568275Y-67237504D01*
X66568777Y-67239261D01*
X66538339Y-67392286D01*
X66538339Y-67568514D01*
X66568777Y-67721539D01*
X66568134Y-67723433D01*
X66566172Y-67723823D01*
X66564901Y-67722510D01*
X66559626Y-67705119D01*
X66548261Y-67683856D01*
X66532966Y-67665219D01*
X66514329Y-67649923D01*
X66493065Y-67638558D01*
X66469990Y-67631558D01*
X66445999Y-67629195D01*
X66422008Y-67631558D01*
X66398933Y-67638558D01*
X66377670Y-67649923D01*
X66359033Y-67665218D01*
X66343737Y-67683855D01*
X66332372Y-67705119D01*
X66325372Y-67728194D01*
X66322990Y-67752381D01*
X66321825Y-67754007D01*
X66319835Y-67753811D01*
X66319000Y-67752185D01*
X66319000Y-67208615D01*
X66320000Y-67206883D01*
X66322000Y-67206883D01*
X66322990Y-67208419D01*
G37*
G36*
X43053965Y-64437057D02*
G01*
X43054800Y-64438683D01*
X43054800Y-65458517D01*
X43053800Y-65460249D01*
X43051800Y-65460249D01*
X43050810Y-65458713D01*
X43048428Y-65434526D01*
X43041428Y-65411451D01*
X43030063Y-65390187D01*
X43014768Y-65371550D01*
X42996131Y-65356255D01*
X42974867Y-65344890D01*
X42951792Y-65337890D01*
X42927801Y-65335527D01*
X42903810Y-65337890D01*
X42880735Y-65344890D01*
X42859471Y-65356255D01*
X42840834Y-65371550D01*
X42829310Y-65385593D01*
X42827438Y-65386297D01*
X42825892Y-65385029D01*
X42826101Y-65383213D01*
X42833338Y-65372381D01*
X42900779Y-65209564D01*
X42935161Y-65036714D01*
X42935161Y-64860486D01*
X42900779Y-64687636D01*
X42833338Y-64524819D01*
X42826101Y-64513987D01*
X42825970Y-64511991D01*
X42827633Y-64510880D01*
X42829310Y-64511607D01*
X42840834Y-64525650D01*
X42859471Y-64540945D01*
X42880735Y-64552310D01*
X42903810Y-64559310D01*
X42927801Y-64561673D01*
X42951792Y-64559310D01*
X42974867Y-64552310D01*
X42996131Y-64540945D01*
X43014768Y-64525650D01*
X43030063Y-64507013D01*
X43041428Y-64485749D01*
X43048428Y-64462674D01*
X43050810Y-64438487D01*
X43051975Y-64436861D01*
X43053965Y-64437057D01*
G37*
G36*
X66322990Y-64668419D02*
G01*
X66325372Y-64692606D01*
X66332372Y-64715681D01*
X66343737Y-64736945D01*
X66359032Y-64755582D01*
X66377669Y-64770877D01*
X66398933Y-64782242D01*
X66422008Y-64789242D01*
X66445999Y-64791605D01*
X66469990Y-64789242D01*
X66493065Y-64782242D01*
X66514329Y-64770877D01*
X66532966Y-64755582D01*
X66548261Y-64736945D01*
X66559626Y-64715681D01*
X66564901Y-64698290D01*
X66566361Y-64696923D01*
X66568275Y-64697504D01*
X66568777Y-64699261D01*
X66538339Y-64852286D01*
X66538339Y-65028514D01*
X66568777Y-65181539D01*
X66568134Y-65183433D01*
X66566172Y-65183823D01*
X66564901Y-65182510D01*
X66559626Y-65165119D01*
X66548261Y-65143856D01*
X66532966Y-65125219D01*
X66514329Y-65109923D01*
X66493065Y-65098558D01*
X66469990Y-65091558D01*
X66445999Y-65089195D01*
X66422008Y-65091558D01*
X66398933Y-65098558D01*
X66377670Y-65109923D01*
X66359033Y-65125218D01*
X66343737Y-65143855D01*
X66332372Y-65165119D01*
X66325372Y-65188194D01*
X66322990Y-65212381D01*
X66321825Y-65214007D01*
X66319835Y-65213811D01*
X66319000Y-65212185D01*
X66319000Y-64668615D01*
X66320000Y-64666883D01*
X66322000Y-64666883D01*
X66322990Y-64668419D01*
G37*
G36*
X43053965Y-61897057D02*
G01*
X43054800Y-61898683D01*
X43054800Y-62918517D01*
X43053800Y-62920249D01*
X43051800Y-62920249D01*
X43050810Y-62918713D01*
X43048428Y-62894526D01*
X43041428Y-62871451D01*
X43030063Y-62850187D01*
X43014768Y-62831550D01*
X42996131Y-62816255D01*
X42974867Y-62804890D01*
X42951792Y-62797890D01*
X42927801Y-62795527D01*
X42903810Y-62797890D01*
X42880735Y-62804890D01*
X42859471Y-62816255D01*
X42840834Y-62831550D01*
X42829310Y-62845593D01*
X42827438Y-62846297D01*
X42825892Y-62845029D01*
X42826101Y-62843213D01*
X42833338Y-62832381D01*
X42900779Y-62669564D01*
X42935161Y-62496714D01*
X42935161Y-62320486D01*
X42900779Y-62147636D01*
X42833338Y-61984819D01*
X42826101Y-61973987D01*
X42825970Y-61971991D01*
X42827633Y-61970880D01*
X42829310Y-61971607D01*
X42840834Y-61985650D01*
X42859471Y-62000945D01*
X42880735Y-62012310D01*
X42903810Y-62019310D01*
X42927801Y-62021673D01*
X42951792Y-62019310D01*
X42974867Y-62012310D01*
X42996131Y-62000945D01*
X43014768Y-61985650D01*
X43030063Y-61967013D01*
X43041428Y-61945749D01*
X43048428Y-61922674D01*
X43050810Y-61898487D01*
X43051975Y-61896861D01*
X43053965Y-61897057D01*
G37*
G36*
X66322990Y-62128419D02*
G01*
X66325372Y-62152606D01*
X66332372Y-62175681D01*
X66343737Y-62196945D01*
X66359032Y-62215582D01*
X66377669Y-62230877D01*
X66398933Y-62242242D01*
X66422008Y-62249242D01*
X66445999Y-62251605D01*
X66469990Y-62249242D01*
X66493065Y-62242242D01*
X66514329Y-62230877D01*
X66532966Y-62215582D01*
X66548261Y-62196945D01*
X66559626Y-62175681D01*
X66564901Y-62158290D01*
X66566361Y-62156923D01*
X66568275Y-62157504D01*
X66568777Y-62159261D01*
X66538339Y-62312286D01*
X66538339Y-62488514D01*
X66568777Y-62641539D01*
X66568134Y-62643433D01*
X66566172Y-62643823D01*
X66564901Y-62642510D01*
X66559626Y-62625119D01*
X66548261Y-62603856D01*
X66532966Y-62585219D01*
X66514329Y-62569923D01*
X66493065Y-62558558D01*
X66469990Y-62551558D01*
X66445999Y-62549195D01*
X66422008Y-62551558D01*
X66398933Y-62558558D01*
X66377670Y-62569923D01*
X66359033Y-62585218D01*
X66343737Y-62603855D01*
X66332372Y-62625119D01*
X66325372Y-62648194D01*
X66322990Y-62672381D01*
X66321825Y-62674007D01*
X66319835Y-62673811D01*
X66319000Y-62672185D01*
X66319000Y-62128615D01*
X66320000Y-62126883D01*
X66322000Y-62126883D01*
X66322990Y-62128419D01*
G37*
G36*
X70518041Y-60183638D02*
G01*
X70517931Y-60185286D01*
X70514758Y-60191207D01*
X70511960Y-60200392D01*
X70511010Y-60209946D01*
X70511942Y-60219507D01*
X70514720Y-60228702D01*
X70519286Y-60237267D01*
X71000369Y-60958891D01*
X71000369Y-60961109D01*
X70519283Y-61682737D01*
X70514740Y-61691249D01*
X70511950Y-61700445D01*
X70511009Y-61710000D01*
X70511950Y-61719555D01*
X70514739Y-61728748D01*
X70517904Y-61734668D01*
X70517838Y-61736667D01*
X70516075Y-61737610D01*
X70514594Y-61736880D01*
X70513125Y-61735091D01*
X70513008Y-61734933D01*
X70505474Y-61723657D01*
X70488426Y-61706611D01*
X70468379Y-61693216D01*
X70446105Y-61683990D01*
X70422455Y-61679286D01*
X70398349Y-61679286D01*
X70374698Y-61683991D01*
X70352425Y-61693217D01*
X70332377Y-61706612D01*
X70315298Y-61723693D01*
X70308010Y-61733529D01*
X70306175Y-61734325D01*
X70304568Y-61733134D01*
X70304739Y-61731229D01*
X70800714Y-60987266D01*
X70805241Y-60978794D01*
X70808040Y-60969608D01*
X70808990Y-60960053D01*
X70808058Y-60950493D01*
X70805280Y-60941298D01*
X70800714Y-60932733D01*
X70304741Y-60188774D01*
X70304612Y-60186779D01*
X70306276Y-60185669D01*
X70307952Y-60186398D01*
X70323351Y-60205202D01*
X70341973Y-60220517D01*
X70363227Y-60231907D01*
X70386290Y-60238930D01*
X70410278Y-60241317D01*
X70434282Y-60238979D01*
X70457354Y-60232006D01*
X70478635Y-60220659D01*
X70497247Y-60205418D01*
X70508579Y-60190171D01*
X70508896Y-60190034D01*
X70514623Y-60183071D01*
X70516496Y-60182368D01*
X70518041Y-60183638D01*
G37*
G36*
X38768041Y-60183638D02*
G01*
X38767931Y-60185286D01*
X38764758Y-60191207D01*
X38761960Y-60200392D01*
X38761010Y-60209946D01*
X38761942Y-60219507D01*
X38764720Y-60228702D01*
X38769286Y-60237267D01*
X39250369Y-60958891D01*
X39250369Y-60961109D01*
X38769283Y-61682737D01*
X38764740Y-61691249D01*
X38761950Y-61700445D01*
X38761009Y-61710000D01*
X38761950Y-61719555D01*
X38764739Y-61728748D01*
X38767904Y-61734668D01*
X38767838Y-61736667D01*
X38766075Y-61737610D01*
X38764594Y-61736880D01*
X38763125Y-61735091D01*
X38763008Y-61734933D01*
X38755474Y-61723657D01*
X38738426Y-61706611D01*
X38718379Y-61693216D01*
X38696105Y-61683990D01*
X38672455Y-61679286D01*
X38648349Y-61679286D01*
X38624698Y-61683991D01*
X38602425Y-61693217D01*
X38582377Y-61706612D01*
X38565298Y-61723693D01*
X38558010Y-61733529D01*
X38556175Y-61734325D01*
X38554568Y-61733134D01*
X38554739Y-61731229D01*
X39050714Y-60987266D01*
X39055241Y-60978794D01*
X39058040Y-60969608D01*
X39058990Y-60960053D01*
X39058058Y-60950493D01*
X39055280Y-60941298D01*
X39050714Y-60932733D01*
X38554741Y-60188774D01*
X38554612Y-60186779D01*
X38556276Y-60185669D01*
X38557952Y-60186398D01*
X38573351Y-60205202D01*
X38591973Y-60220517D01*
X38613227Y-60231907D01*
X38636290Y-60238930D01*
X38660278Y-60241317D01*
X38684282Y-60238979D01*
X38707354Y-60232006D01*
X38728635Y-60220659D01*
X38747247Y-60205418D01*
X38758579Y-60190171D01*
X38758896Y-60190034D01*
X38764623Y-60183071D01*
X38766496Y-60182368D01*
X38768041Y-60183638D01*
G37*
G36*
X43053965Y-59357057D02*
G01*
X43054800Y-59358683D01*
X43054800Y-60378517D01*
X43053800Y-60380249D01*
X43051800Y-60380249D01*
X43050810Y-60378713D01*
X43048428Y-60354526D01*
X43041428Y-60331451D01*
X43030063Y-60310187D01*
X43014768Y-60291550D01*
X42996131Y-60276255D01*
X42974867Y-60264890D01*
X42951792Y-60257890D01*
X42927801Y-60255527D01*
X42903810Y-60257890D01*
X42880735Y-60264890D01*
X42859471Y-60276255D01*
X42840834Y-60291550D01*
X42829310Y-60305593D01*
X42827438Y-60306297D01*
X42825892Y-60305029D01*
X42826101Y-60303213D01*
X42833338Y-60292381D01*
X42900779Y-60129564D01*
X42935161Y-59956714D01*
X42935161Y-59780486D01*
X42900779Y-59607636D01*
X42833338Y-59444819D01*
X42826101Y-59433987D01*
X42825970Y-59431991D01*
X42827633Y-59430880D01*
X42829310Y-59431607D01*
X42840834Y-59445650D01*
X42859471Y-59460945D01*
X42880735Y-59472310D01*
X42903810Y-59479310D01*
X42927801Y-59481673D01*
X42951792Y-59479310D01*
X42974867Y-59472310D01*
X42996131Y-59460945D01*
X43014768Y-59445650D01*
X43030063Y-59427013D01*
X43041428Y-59405749D01*
X43048428Y-59382674D01*
X43050810Y-59358487D01*
X43051975Y-59356861D01*
X43053965Y-59357057D01*
G37*
G36*
X66322990Y-59588419D02*
G01*
X66325372Y-59612606D01*
X66332372Y-59635681D01*
X66343737Y-59656945D01*
X66359032Y-59675582D01*
X66377669Y-59690877D01*
X66398933Y-59702242D01*
X66422008Y-59709242D01*
X66445999Y-59711605D01*
X66469990Y-59709242D01*
X66493065Y-59702242D01*
X66514329Y-59690877D01*
X66532966Y-59675582D01*
X66548261Y-59656945D01*
X66559626Y-59635681D01*
X66564901Y-59618290D01*
X66566361Y-59616923D01*
X66568275Y-59617504D01*
X66568777Y-59619261D01*
X66538339Y-59772286D01*
X66538339Y-59948514D01*
X66568777Y-60101539D01*
X66568134Y-60103433D01*
X66566172Y-60103823D01*
X66564901Y-60102510D01*
X66559626Y-60085119D01*
X66548261Y-60063856D01*
X66532966Y-60045219D01*
X66514329Y-60029923D01*
X66493065Y-60018558D01*
X66469990Y-60011558D01*
X66445999Y-60009195D01*
X66422008Y-60011558D01*
X66398933Y-60018558D01*
X66377670Y-60029923D01*
X66359033Y-60045218D01*
X66343737Y-60063855D01*
X66332372Y-60085119D01*
X66325372Y-60108194D01*
X66322990Y-60132381D01*
X66321825Y-60134007D01*
X66319835Y-60133811D01*
X66319000Y-60132185D01*
X66319000Y-59588615D01*
X66320000Y-59586883D01*
X66322000Y-59586883D01*
X66322990Y-59588419D01*
G37*
G36*
X43053965Y-56817057D02*
G01*
X43054800Y-56818683D01*
X43054800Y-57838517D01*
X43053800Y-57840249D01*
X43051800Y-57840249D01*
X43050810Y-57838713D01*
X43048428Y-57814526D01*
X43041428Y-57791451D01*
X43030063Y-57770187D01*
X43014768Y-57751550D01*
X42996131Y-57736255D01*
X42974867Y-57724890D01*
X42951792Y-57717890D01*
X42927801Y-57715527D01*
X42903810Y-57717890D01*
X42880735Y-57724890D01*
X42859471Y-57736255D01*
X42840834Y-57751550D01*
X42829310Y-57765593D01*
X42827438Y-57766297D01*
X42825892Y-57765029D01*
X42826101Y-57763213D01*
X42833338Y-57752381D01*
X42900779Y-57589564D01*
X42935161Y-57416714D01*
X42935161Y-57240486D01*
X42900779Y-57067636D01*
X42833338Y-56904819D01*
X42826101Y-56893987D01*
X42825970Y-56891991D01*
X42827633Y-56890880D01*
X42829310Y-56891607D01*
X42840834Y-56905650D01*
X42859471Y-56920945D01*
X42880735Y-56932310D01*
X42903810Y-56939310D01*
X42927801Y-56941673D01*
X42951792Y-56939310D01*
X42974867Y-56932310D01*
X42996131Y-56920945D01*
X43014768Y-56905650D01*
X43030063Y-56887013D01*
X43041428Y-56865749D01*
X43048428Y-56842674D01*
X43050810Y-56818487D01*
X43051975Y-56816861D01*
X43053965Y-56817057D01*
G37*
G36*
X66322990Y-57048419D02*
G01*
X66325372Y-57072606D01*
X66332372Y-57095681D01*
X66343737Y-57116945D01*
X66359032Y-57135582D01*
X66377669Y-57150877D01*
X66398933Y-57162242D01*
X66422008Y-57169242D01*
X66445999Y-57171605D01*
X66469990Y-57169242D01*
X66493065Y-57162242D01*
X66514329Y-57150877D01*
X66532966Y-57135582D01*
X66548261Y-57116945D01*
X66559626Y-57095681D01*
X66564901Y-57078290D01*
X66566361Y-57076923D01*
X66568275Y-57077504D01*
X66568777Y-57079261D01*
X66538339Y-57232286D01*
X66538339Y-57408514D01*
X66568777Y-57561539D01*
X66568134Y-57563433D01*
X66566172Y-57563823D01*
X66564901Y-57562510D01*
X66559626Y-57545119D01*
X66548261Y-57523856D01*
X66532966Y-57505219D01*
X66514329Y-57489923D01*
X66493065Y-57478558D01*
X66469990Y-57471558D01*
X66445999Y-57469195D01*
X66422008Y-57471558D01*
X66398933Y-57478558D01*
X66377670Y-57489923D01*
X66359033Y-57505218D01*
X66343737Y-57523855D01*
X66332372Y-57545119D01*
X66325372Y-57568194D01*
X66322990Y-57592381D01*
X66321825Y-57594007D01*
X66319835Y-57593811D01*
X66319000Y-57592185D01*
X66319000Y-57048615D01*
X66320000Y-57046883D01*
X66322000Y-57046883D01*
X66322990Y-57048419D01*
G37*
G36*
X35675732Y-53808000D02*
G01*
X35676000Y-53809000D01*
X35676000Y-55411000D01*
X35675000Y-55412732D01*
X35674000Y-55413000D01*
X35476000Y-55413000D01*
X35474268Y-55412000D01*
X35474000Y-55411000D01*
X35474000Y-53811000D01*
X34376000Y-53811000D01*
X34376000Y-55411000D01*
X34375000Y-55412732D01*
X34374000Y-55413000D01*
X34176000Y-55413000D01*
X34174268Y-55412000D01*
X34174000Y-55411000D01*
X34174000Y-53809000D01*
X34175000Y-53807268D01*
X34176000Y-53807000D01*
X35674000Y-53807000D01*
X35675732Y-53808000D01*
G37*
G36*
X43053965Y-54277057D02*
G01*
X43054800Y-54278683D01*
X43054800Y-55298517D01*
X43053800Y-55300249D01*
X43051800Y-55300249D01*
X43050810Y-55298713D01*
X43048428Y-55274526D01*
X43041428Y-55251451D01*
X43030063Y-55230187D01*
X43014768Y-55211550D01*
X42996131Y-55196255D01*
X42974867Y-55184890D01*
X42951792Y-55177890D01*
X42927801Y-55175527D01*
X42903810Y-55177890D01*
X42880735Y-55184890D01*
X42859471Y-55196255D01*
X42840834Y-55211550D01*
X42829310Y-55225593D01*
X42827438Y-55226297D01*
X42825892Y-55225029D01*
X42826101Y-55223213D01*
X42833338Y-55212381D01*
X42900779Y-55049564D01*
X42935161Y-54876714D01*
X42935161Y-54700486D01*
X42900779Y-54527636D01*
X42833338Y-54364819D01*
X42826101Y-54353987D01*
X42825970Y-54351991D01*
X42827633Y-54350880D01*
X42829310Y-54351607D01*
X42840834Y-54365650D01*
X42859471Y-54380945D01*
X42880735Y-54392310D01*
X42903810Y-54399310D01*
X42927801Y-54401673D01*
X42951792Y-54399310D01*
X42974867Y-54392310D01*
X42996131Y-54380945D01*
X43014768Y-54365650D01*
X43030063Y-54347013D01*
X43041428Y-54325749D01*
X43048428Y-54302674D01*
X43050810Y-54278487D01*
X43051975Y-54276861D01*
X43053965Y-54277057D01*
G37*
G36*
X66322990Y-54508419D02*
G01*
X66325372Y-54532606D01*
X66332372Y-54555681D01*
X66343737Y-54576945D01*
X66359032Y-54595582D01*
X66377669Y-54610877D01*
X66398933Y-54622242D01*
X66422008Y-54629242D01*
X66445999Y-54631605D01*
X66469990Y-54629242D01*
X66493065Y-54622242D01*
X66514329Y-54610877D01*
X66532966Y-54595582D01*
X66548261Y-54576945D01*
X66559626Y-54555681D01*
X66564901Y-54538290D01*
X66566361Y-54536923D01*
X66568275Y-54537504D01*
X66568777Y-54539261D01*
X66538339Y-54692286D01*
X66538339Y-54868514D01*
X66568777Y-55021539D01*
X66568134Y-55023433D01*
X66566172Y-55023823D01*
X66564901Y-55022510D01*
X66559626Y-55005119D01*
X66548261Y-54983856D01*
X66532966Y-54965219D01*
X66514329Y-54949923D01*
X66493065Y-54938558D01*
X66469990Y-54931558D01*
X66445999Y-54929195D01*
X66422008Y-54931558D01*
X66398933Y-54938558D01*
X66377670Y-54949923D01*
X66359033Y-54965218D01*
X66343737Y-54983855D01*
X66332372Y-55005119D01*
X66325372Y-55028194D01*
X66322990Y-55052381D01*
X66321825Y-55054007D01*
X66319835Y-55053811D01*
X66319000Y-55052185D01*
X66319000Y-54508615D01*
X66320000Y-54506883D01*
X66322000Y-54506883D01*
X66322990Y-54508419D01*
G37*
G36*
X43053965Y-51737057D02*
G01*
X43054800Y-51738683D01*
X43054800Y-52758517D01*
X43053800Y-52760249D01*
X43051800Y-52760249D01*
X43050810Y-52758713D01*
X43048428Y-52734526D01*
X43041428Y-52711451D01*
X43030063Y-52690187D01*
X43014768Y-52671550D01*
X42996131Y-52656255D01*
X42974867Y-52644890D01*
X42951792Y-52637890D01*
X42927801Y-52635527D01*
X42903810Y-52637890D01*
X42880735Y-52644890D01*
X42859471Y-52656255D01*
X42840834Y-52671550D01*
X42829310Y-52685593D01*
X42827438Y-52686297D01*
X42825892Y-52685029D01*
X42826101Y-52683213D01*
X42833338Y-52672381D01*
X42900779Y-52509564D01*
X42935161Y-52336714D01*
X42935161Y-52160486D01*
X42900779Y-51987636D01*
X42833338Y-51824819D01*
X42826101Y-51813987D01*
X42825970Y-51811991D01*
X42827633Y-51810880D01*
X42829310Y-51811607D01*
X42840834Y-51825650D01*
X42859471Y-51840945D01*
X42880735Y-51852310D01*
X42903810Y-51859310D01*
X42927801Y-51861673D01*
X42951792Y-51859310D01*
X42974867Y-51852310D01*
X42996131Y-51840945D01*
X43014768Y-51825650D01*
X43030063Y-51807013D01*
X43041428Y-51785749D01*
X43048428Y-51762674D01*
X43050810Y-51738487D01*
X43051975Y-51736861D01*
X43053965Y-51737057D01*
G37*
G36*
X66322990Y-51968419D02*
G01*
X66325372Y-51992606D01*
X66332372Y-52015681D01*
X66343737Y-52036945D01*
X66359032Y-52055582D01*
X66377669Y-52070877D01*
X66398933Y-52082242D01*
X66422008Y-52089242D01*
X66445999Y-52091605D01*
X66469990Y-52089242D01*
X66493065Y-52082242D01*
X66514329Y-52070877D01*
X66532966Y-52055582D01*
X66548261Y-52036945D01*
X66559626Y-52015681D01*
X66564901Y-51998290D01*
X66566361Y-51996923D01*
X66568275Y-51997504D01*
X66568777Y-51999261D01*
X66538339Y-52152286D01*
X66538339Y-52328514D01*
X66568777Y-52481539D01*
X66568134Y-52483433D01*
X66566172Y-52483823D01*
X66564901Y-52482510D01*
X66559626Y-52465119D01*
X66548261Y-52443856D01*
X66532966Y-52425219D01*
X66514329Y-52409923D01*
X66493065Y-52398558D01*
X66469990Y-52391558D01*
X66445999Y-52389195D01*
X66422008Y-52391558D01*
X66398933Y-52398558D01*
X66377670Y-52409923D01*
X66359033Y-52425218D01*
X66343737Y-52443855D01*
X66332372Y-52465119D01*
X66325372Y-52488194D01*
X66322990Y-52512381D01*
X66321825Y-52514007D01*
X66319835Y-52513811D01*
X66319000Y-52512185D01*
X66319000Y-51968615D01*
X66320000Y-51966883D01*
X66322000Y-51966883D01*
X66322990Y-51968419D01*
G37*
G36*
X75045732Y-49998000D02*
G01*
X75046000Y-49999000D01*
X75046000Y-51601000D01*
X75045000Y-51602732D01*
X75044000Y-51603000D01*
X74846000Y-51603000D01*
X74844268Y-51602000D01*
X74844000Y-51601000D01*
X74844000Y-50001000D01*
X73746000Y-50001000D01*
X73746000Y-51601000D01*
X73745000Y-51602732D01*
X73744000Y-51603000D01*
X73546000Y-51603000D01*
X73544268Y-51602000D01*
X73544000Y-51601000D01*
X73544000Y-49999000D01*
X73545000Y-49997268D01*
X73546000Y-49997000D01*
X75044000Y-49997000D01*
X75045732Y-49998000D01*
G37*
G36*
X43053965Y-49197057D02*
G01*
X43054800Y-49198683D01*
X43054800Y-50218517D01*
X43053800Y-50220249D01*
X43051800Y-50220249D01*
X43050810Y-50218713D01*
X43048428Y-50194526D01*
X43041428Y-50171451D01*
X43030063Y-50150187D01*
X43014768Y-50131550D01*
X42996131Y-50116255D01*
X42974867Y-50104890D01*
X42951792Y-50097890D01*
X42927801Y-50095527D01*
X42903810Y-50097890D01*
X42880735Y-50104890D01*
X42859471Y-50116255D01*
X42840834Y-50131550D01*
X42829310Y-50145593D01*
X42827438Y-50146297D01*
X42825892Y-50145029D01*
X42826101Y-50143213D01*
X42833338Y-50132381D01*
X42900779Y-49969564D01*
X42935161Y-49796714D01*
X42935161Y-49620486D01*
X42900779Y-49447636D01*
X42833338Y-49284819D01*
X42826101Y-49273987D01*
X42825970Y-49271991D01*
X42827633Y-49270880D01*
X42829310Y-49271607D01*
X42840834Y-49285650D01*
X42859471Y-49300945D01*
X42880735Y-49312310D01*
X42903810Y-49319310D01*
X42927801Y-49321673D01*
X42951792Y-49319310D01*
X42974867Y-49312310D01*
X42996131Y-49300945D01*
X43014768Y-49285650D01*
X43030063Y-49267013D01*
X43041428Y-49245749D01*
X43048428Y-49222674D01*
X43050810Y-49198487D01*
X43051975Y-49196861D01*
X43053965Y-49197057D01*
G37*
G36*
X66322990Y-49428419D02*
G01*
X66325372Y-49452606D01*
X66332372Y-49475681D01*
X66343737Y-49496945D01*
X66359032Y-49515582D01*
X66377669Y-49530877D01*
X66398933Y-49542242D01*
X66422008Y-49549242D01*
X66445999Y-49551605D01*
X66469990Y-49549242D01*
X66493065Y-49542242D01*
X66514329Y-49530877D01*
X66532966Y-49515582D01*
X66548261Y-49496945D01*
X66559626Y-49475681D01*
X66564901Y-49458290D01*
X66566361Y-49456923D01*
X66568275Y-49457504D01*
X66568777Y-49459261D01*
X66538339Y-49612286D01*
X66538339Y-49788514D01*
X66568777Y-49941539D01*
X66568134Y-49943433D01*
X66566172Y-49943823D01*
X66564901Y-49942510D01*
X66559626Y-49925119D01*
X66548261Y-49903856D01*
X66532966Y-49885219D01*
X66514329Y-49869923D01*
X66493065Y-49858558D01*
X66469990Y-49851558D01*
X66445999Y-49849195D01*
X66422008Y-49851558D01*
X66398933Y-49858558D01*
X66377670Y-49869923D01*
X66359033Y-49885218D01*
X66343737Y-49903855D01*
X66332372Y-49925119D01*
X66325372Y-49948194D01*
X66322990Y-49972381D01*
X66321825Y-49974007D01*
X66319835Y-49973811D01*
X66319000Y-49972185D01*
X66319000Y-49428615D01*
X66320000Y-49426883D01*
X66322000Y-49426883D01*
X66322990Y-49428419D01*
G37*
G36*
X43053965Y-46657057D02*
G01*
X43054800Y-46658683D01*
X43054800Y-47678517D01*
X43053800Y-47680249D01*
X43051800Y-47680249D01*
X43050810Y-47678713D01*
X43048428Y-47654526D01*
X43041428Y-47631451D01*
X43030063Y-47610187D01*
X43014768Y-47591550D01*
X42996131Y-47576255D01*
X42974867Y-47564890D01*
X42951792Y-47557890D01*
X42927801Y-47555527D01*
X42903810Y-47557890D01*
X42880735Y-47564890D01*
X42859471Y-47576255D01*
X42840834Y-47591550D01*
X42829310Y-47605593D01*
X42827438Y-47606297D01*
X42825892Y-47605029D01*
X42826101Y-47603213D01*
X42833338Y-47592381D01*
X42900779Y-47429564D01*
X42935161Y-47256714D01*
X42935161Y-47080486D01*
X42900779Y-46907636D01*
X42833338Y-46744819D01*
X42826101Y-46733987D01*
X42825970Y-46731991D01*
X42827633Y-46730880D01*
X42829310Y-46731607D01*
X42840834Y-46745650D01*
X42859471Y-46760945D01*
X42880735Y-46772310D01*
X42903810Y-46779310D01*
X42927801Y-46781673D01*
X42951792Y-46779310D01*
X42974867Y-46772310D01*
X42996131Y-46760945D01*
X43014768Y-46745650D01*
X43030063Y-46727013D01*
X43041428Y-46705749D01*
X43048428Y-46682674D01*
X43050810Y-46658487D01*
X43051975Y-46656861D01*
X43053965Y-46657057D01*
G37*
G36*
X66322990Y-46888419D02*
G01*
X66325372Y-46912606D01*
X66332372Y-46935681D01*
X66343737Y-46956945D01*
X66359032Y-46975582D01*
X66377669Y-46990877D01*
X66398933Y-47002242D01*
X66422008Y-47009242D01*
X66445999Y-47011605D01*
X66469990Y-47009242D01*
X66493065Y-47002242D01*
X66514329Y-46990877D01*
X66532966Y-46975582D01*
X66548261Y-46956945D01*
X66559626Y-46935681D01*
X66564901Y-46918290D01*
X66566361Y-46916923D01*
X66568275Y-46917504D01*
X66568777Y-46919261D01*
X66538339Y-47072286D01*
X66538339Y-47248514D01*
X66568777Y-47401539D01*
X66568134Y-47403433D01*
X66566172Y-47403823D01*
X66564901Y-47402510D01*
X66559626Y-47385119D01*
X66548261Y-47363856D01*
X66532966Y-47345219D01*
X66514329Y-47329923D01*
X66493065Y-47318558D01*
X66469990Y-47311558D01*
X66445999Y-47309195D01*
X66422008Y-47311558D01*
X66398933Y-47318558D01*
X66377670Y-47329923D01*
X66359033Y-47345218D01*
X66343737Y-47363855D01*
X66332372Y-47385119D01*
X66325372Y-47408194D01*
X66322990Y-47432381D01*
X66321825Y-47434007D01*
X66319835Y-47433811D01*
X66319000Y-47432185D01*
X66319000Y-46888615D01*
X66320000Y-46886883D01*
X66322000Y-46886883D01*
X66322990Y-46888419D01*
G37*
G36*
X38768041Y-43673638D02*
G01*
X38767931Y-43675286D01*
X38764758Y-43681207D01*
X38761960Y-43690392D01*
X38761010Y-43699946D01*
X38761942Y-43709507D01*
X38764720Y-43718702D01*
X38769286Y-43727267D01*
X39250369Y-44448891D01*
X39250369Y-44451109D01*
X38769283Y-45172737D01*
X38764740Y-45181249D01*
X38761950Y-45190445D01*
X38761009Y-45200000D01*
X38761950Y-45209555D01*
X38764739Y-45218748D01*
X38767904Y-45224668D01*
X38767838Y-45226667D01*
X38766075Y-45227610D01*
X38764594Y-45226880D01*
X38763125Y-45225091D01*
X38763008Y-45224933D01*
X38755474Y-45213657D01*
X38738426Y-45196611D01*
X38718379Y-45183216D01*
X38696105Y-45173990D01*
X38672455Y-45169286D01*
X38648349Y-45169286D01*
X38624698Y-45173991D01*
X38602425Y-45183217D01*
X38582377Y-45196612D01*
X38565298Y-45213693D01*
X38558010Y-45223529D01*
X38556175Y-45224325D01*
X38554568Y-45223134D01*
X38554739Y-45221229D01*
X39050714Y-44477266D01*
X39055241Y-44468794D01*
X39058040Y-44459608D01*
X39058990Y-44450053D01*
X39058058Y-44440493D01*
X39055280Y-44431298D01*
X39050714Y-44422733D01*
X38554741Y-43678774D01*
X38554612Y-43676779D01*
X38556276Y-43675669D01*
X38557952Y-43676398D01*
X38573351Y-43695202D01*
X38591973Y-43710517D01*
X38613227Y-43721907D01*
X38636290Y-43728930D01*
X38660278Y-43731317D01*
X38684282Y-43728979D01*
X38707354Y-43722006D01*
X38728635Y-43710659D01*
X38747247Y-43695418D01*
X38758579Y-43680171D01*
X38758896Y-43680034D01*
X38764623Y-43673071D01*
X38766496Y-43672368D01*
X38768041Y-43673638D01*
G37*
G36*
X70518041Y-43673638D02*
G01*
X70517931Y-43675286D01*
X70514758Y-43681207D01*
X70511960Y-43690392D01*
X70511010Y-43699946D01*
X70511942Y-43709507D01*
X70514720Y-43718702D01*
X70519286Y-43727267D01*
X71000369Y-44448891D01*
X71000369Y-44451109D01*
X70519283Y-45172737D01*
X70514740Y-45181249D01*
X70511950Y-45190445D01*
X70511009Y-45200000D01*
X70511950Y-45209555D01*
X70514739Y-45218748D01*
X70517904Y-45224668D01*
X70517838Y-45226667D01*
X70516075Y-45227610D01*
X70514594Y-45226880D01*
X70513125Y-45225091D01*
X70513008Y-45224933D01*
X70505474Y-45213657D01*
X70488426Y-45196611D01*
X70468379Y-45183216D01*
X70446105Y-45173990D01*
X70422455Y-45169286D01*
X70398349Y-45169286D01*
X70374698Y-45173991D01*
X70352425Y-45183217D01*
X70332377Y-45196612D01*
X70315298Y-45213693D01*
X70308010Y-45223529D01*
X70306175Y-45224325D01*
X70304568Y-45223134D01*
X70304739Y-45221229D01*
X70800714Y-44477266D01*
X70805241Y-44468794D01*
X70808040Y-44459608D01*
X70808990Y-44450053D01*
X70808058Y-44440493D01*
X70805280Y-44431298D01*
X70800714Y-44422733D01*
X70304741Y-43678774D01*
X70304612Y-43676779D01*
X70306276Y-43675669D01*
X70307952Y-43676398D01*
X70323351Y-43695202D01*
X70341973Y-43710517D01*
X70363227Y-43721907D01*
X70386290Y-43728930D01*
X70410278Y-43731317D01*
X70434282Y-43728979D01*
X70457354Y-43722006D01*
X70478635Y-43710659D01*
X70497247Y-43695418D01*
X70508579Y-43680171D01*
X70508896Y-43680034D01*
X70514623Y-43673071D01*
X70516496Y-43672368D01*
X70518041Y-43673638D01*
G37*
G36*
X43053965Y-44117057D02*
G01*
X43054800Y-44118683D01*
X43054800Y-45138517D01*
X43053800Y-45140249D01*
X43051800Y-45140249D01*
X43050810Y-45138713D01*
X43048428Y-45114526D01*
X43041428Y-45091451D01*
X43030063Y-45070187D01*
X43014768Y-45051550D01*
X42996131Y-45036255D01*
X42974867Y-45024890D01*
X42951792Y-45017890D01*
X42927801Y-45015527D01*
X42903810Y-45017890D01*
X42880735Y-45024890D01*
X42859471Y-45036255D01*
X42840834Y-45051550D01*
X42829310Y-45065593D01*
X42827438Y-45066297D01*
X42825892Y-45065029D01*
X42826101Y-45063213D01*
X42833338Y-45052381D01*
X42900779Y-44889564D01*
X42935161Y-44716714D01*
X42935161Y-44540486D01*
X42900779Y-44367636D01*
X42833338Y-44204819D01*
X42826101Y-44193987D01*
X42825970Y-44191991D01*
X42827633Y-44190880D01*
X42829310Y-44191607D01*
X42840834Y-44205650D01*
X42859471Y-44220945D01*
X42880735Y-44232310D01*
X42903810Y-44239310D01*
X42927801Y-44241673D01*
X42951792Y-44239310D01*
X42974867Y-44232310D01*
X42996131Y-44220945D01*
X43014768Y-44205650D01*
X43030063Y-44187013D01*
X43041428Y-44165749D01*
X43048428Y-44142674D01*
X43050810Y-44118487D01*
X43051975Y-44116861D01*
X43053965Y-44117057D01*
G37*
G36*
X66322990Y-44348419D02*
G01*
X66325372Y-44372606D01*
X66332372Y-44395681D01*
X66343737Y-44416945D01*
X66359032Y-44435582D01*
X66377669Y-44450877D01*
X66398933Y-44462242D01*
X66422008Y-44469242D01*
X66445999Y-44471605D01*
X66469990Y-44469242D01*
X66493065Y-44462242D01*
X66514329Y-44450877D01*
X66532966Y-44435582D01*
X66548261Y-44416945D01*
X66559626Y-44395681D01*
X66564901Y-44378290D01*
X66566361Y-44376923D01*
X66568275Y-44377504D01*
X66568777Y-44379261D01*
X66538339Y-44532286D01*
X66538339Y-44708514D01*
X66568777Y-44861539D01*
X66568134Y-44863433D01*
X66566172Y-44863823D01*
X66564901Y-44862510D01*
X66559626Y-44845119D01*
X66548261Y-44823856D01*
X66532966Y-44805219D01*
X66514329Y-44789923D01*
X66493065Y-44778558D01*
X66469990Y-44771558D01*
X66445999Y-44769195D01*
X66422008Y-44771558D01*
X66398933Y-44778558D01*
X66377670Y-44789923D01*
X66359033Y-44805218D01*
X66343737Y-44823855D01*
X66332372Y-44845119D01*
X66325372Y-44868194D01*
X66322990Y-44892381D01*
X66321825Y-44894007D01*
X66319835Y-44893811D01*
X66319000Y-44892185D01*
X66319000Y-44348615D01*
X66320000Y-44346883D01*
X66322000Y-44346883D01*
X66322990Y-44348419D01*
G37*
G36*
X43053965Y-41577057D02*
G01*
X43054800Y-41578683D01*
X43054800Y-42598517D01*
X43053800Y-42600249D01*
X43051800Y-42600249D01*
X43050810Y-42598713D01*
X43048428Y-42574526D01*
X43041428Y-42551451D01*
X43030063Y-42530187D01*
X43014768Y-42511550D01*
X42996131Y-42496255D01*
X42974867Y-42484890D01*
X42951792Y-42477890D01*
X42927801Y-42475527D01*
X42903810Y-42477890D01*
X42880735Y-42484890D01*
X42859471Y-42496255D01*
X42840834Y-42511550D01*
X42829310Y-42525593D01*
X42827438Y-42526297D01*
X42825892Y-42525029D01*
X42826101Y-42523213D01*
X42833338Y-42512381D01*
X42900779Y-42349564D01*
X42935161Y-42176714D01*
X42935161Y-42000486D01*
X42900779Y-41827636D01*
X42833338Y-41664819D01*
X42826101Y-41653987D01*
X42825970Y-41651991D01*
X42827633Y-41650880D01*
X42829310Y-41651607D01*
X42840834Y-41665650D01*
X42859471Y-41680945D01*
X42880735Y-41692310D01*
X42903810Y-41699310D01*
X42927801Y-41701673D01*
X42951792Y-41699310D01*
X42974867Y-41692310D01*
X42996131Y-41680945D01*
X43014768Y-41665650D01*
X43030063Y-41647013D01*
X43041428Y-41625749D01*
X43048428Y-41602674D01*
X43050810Y-41578487D01*
X43051975Y-41576861D01*
X43053965Y-41577057D01*
G37*
G36*
X66322990Y-41808419D02*
G01*
X66325372Y-41832606D01*
X66332372Y-41855681D01*
X66343737Y-41876945D01*
X66359032Y-41895582D01*
X66377669Y-41910877D01*
X66398933Y-41922242D01*
X66422008Y-41929242D01*
X66445999Y-41931605D01*
X66469990Y-41929242D01*
X66493065Y-41922242D01*
X66514329Y-41910877D01*
X66532966Y-41895582D01*
X66548261Y-41876945D01*
X66559626Y-41855681D01*
X66564901Y-41838290D01*
X66566361Y-41836923D01*
X66568275Y-41837504D01*
X66568777Y-41839261D01*
X66538339Y-41992286D01*
X66538339Y-42168514D01*
X66568777Y-42321539D01*
X66568134Y-42323433D01*
X66566172Y-42323823D01*
X66564901Y-42322510D01*
X66559626Y-42305119D01*
X66548261Y-42283856D01*
X66532966Y-42265219D01*
X66514329Y-42249923D01*
X66493065Y-42238558D01*
X66469990Y-42231558D01*
X66445999Y-42229195D01*
X66422008Y-42231558D01*
X66398933Y-42238558D01*
X66377670Y-42249923D01*
X66359033Y-42265218D01*
X66343737Y-42283855D01*
X66332372Y-42305119D01*
X66325372Y-42328194D01*
X66322990Y-42352381D01*
X66321825Y-42354007D01*
X66319835Y-42353811D01*
X66319000Y-42352185D01*
X66319000Y-41808615D01*
X66320000Y-41806883D01*
X66322000Y-41806883D01*
X66322990Y-41808419D01*
G37*
G36*
X43053965Y-39037057D02*
G01*
X43054800Y-39038683D01*
X43054800Y-40058517D01*
X43053800Y-40060249D01*
X43051800Y-40060249D01*
X43050810Y-40058713D01*
X43048428Y-40034526D01*
X43041428Y-40011451D01*
X43030063Y-39990187D01*
X43014768Y-39971550D01*
X42996131Y-39956255D01*
X42974867Y-39944890D01*
X42951792Y-39937890D01*
X42927801Y-39935527D01*
X42903810Y-39937890D01*
X42880735Y-39944890D01*
X42859471Y-39956255D01*
X42840834Y-39971550D01*
X42829310Y-39985593D01*
X42827438Y-39986297D01*
X42825892Y-39985029D01*
X42826101Y-39983213D01*
X42833338Y-39972381D01*
X42900779Y-39809564D01*
X42935161Y-39636714D01*
X42935161Y-39460486D01*
X42900779Y-39287636D01*
X42833338Y-39124819D01*
X42826101Y-39113987D01*
X42825970Y-39111991D01*
X42827633Y-39110880D01*
X42829310Y-39111607D01*
X42840834Y-39125650D01*
X42859471Y-39140945D01*
X42880735Y-39152310D01*
X42903810Y-39159310D01*
X42927801Y-39161673D01*
X42951792Y-39159310D01*
X42974867Y-39152310D01*
X42996131Y-39140945D01*
X43014768Y-39125650D01*
X43030063Y-39107013D01*
X43041428Y-39085749D01*
X43048428Y-39062674D01*
X43050810Y-39038487D01*
X43051975Y-39036861D01*
X43053965Y-39037057D01*
G37*
G36*
X66322990Y-39268419D02*
G01*
X66325372Y-39292606D01*
X66332372Y-39315681D01*
X66343737Y-39336945D01*
X66359032Y-39355582D01*
X66377669Y-39370877D01*
X66398933Y-39382242D01*
X66422008Y-39389242D01*
X66445999Y-39391605D01*
X66469990Y-39389242D01*
X66493065Y-39382242D01*
X66514329Y-39370877D01*
X66532966Y-39355582D01*
X66548261Y-39336945D01*
X66559626Y-39315681D01*
X66564901Y-39298290D01*
X66566361Y-39296923D01*
X66568275Y-39297504D01*
X66568777Y-39299261D01*
X66538339Y-39452286D01*
X66538339Y-39628514D01*
X66568777Y-39781539D01*
X66568134Y-39783433D01*
X66566172Y-39783823D01*
X66564901Y-39782510D01*
X66559626Y-39765119D01*
X66548261Y-39743856D01*
X66532966Y-39725219D01*
X66514329Y-39709923D01*
X66493065Y-39698558D01*
X66469990Y-39691558D01*
X66445999Y-39689195D01*
X66422008Y-39691558D01*
X66398933Y-39698558D01*
X66377670Y-39709923D01*
X66359033Y-39725218D01*
X66343737Y-39743855D01*
X66332372Y-39765119D01*
X66325372Y-39788194D01*
X66322990Y-39812381D01*
X66321825Y-39814007D01*
X66319835Y-39813811D01*
X66319000Y-39812185D01*
X66319000Y-39268615D01*
X66320000Y-39266883D01*
X66322000Y-39266883D01*
X66322990Y-39268419D01*
G37*
G36*
X35675732Y-37298000D02*
G01*
X35676000Y-37299000D01*
X35676000Y-38901000D01*
X35675000Y-38902732D01*
X35674000Y-38903000D01*
X35476000Y-38903000D01*
X35474268Y-38902000D01*
X35474000Y-38901000D01*
X35474000Y-37301000D01*
X34376000Y-37301000D01*
X34376000Y-38901000D01*
X34375000Y-38902732D01*
X34374000Y-38903000D01*
X34176000Y-38903000D01*
X34174268Y-38902000D01*
X34174000Y-38901000D01*
X34174000Y-37299000D01*
X34175000Y-37297268D01*
X34176000Y-37297000D01*
X35674000Y-37297000D01*
X35675732Y-37298000D01*
G37*
G36*
X43053965Y-36497057D02*
G01*
X43054800Y-36498683D01*
X43054800Y-37518517D01*
X43053800Y-37520249D01*
X43051800Y-37520249D01*
X43050810Y-37518713D01*
X43048428Y-37494526D01*
X43041428Y-37471451D01*
X43030063Y-37450187D01*
X43014768Y-37431550D01*
X42996131Y-37416255D01*
X42974867Y-37404890D01*
X42951792Y-37397890D01*
X42927801Y-37395527D01*
X42903810Y-37397890D01*
X42880735Y-37404890D01*
X42859471Y-37416255D01*
X42840834Y-37431550D01*
X42829310Y-37445593D01*
X42827438Y-37446297D01*
X42825892Y-37445029D01*
X42826101Y-37443213D01*
X42833338Y-37432381D01*
X42900779Y-37269564D01*
X42935161Y-37096714D01*
X42935161Y-36920486D01*
X42900779Y-36747636D01*
X42833338Y-36584819D01*
X42826101Y-36573987D01*
X42825970Y-36571991D01*
X42827633Y-36570880D01*
X42829310Y-36571607D01*
X42840834Y-36585650D01*
X42859471Y-36600945D01*
X42880735Y-36612310D01*
X42903810Y-36619310D01*
X42927801Y-36621673D01*
X42951792Y-36619310D01*
X42974867Y-36612310D01*
X42996131Y-36600945D01*
X43014768Y-36585650D01*
X43030063Y-36567013D01*
X43041428Y-36545749D01*
X43048428Y-36522674D01*
X43050810Y-36498487D01*
X43051975Y-36496861D01*
X43053965Y-36497057D01*
G37*
G36*
X66322990Y-36728419D02*
G01*
X66325372Y-36752606D01*
X66332372Y-36775681D01*
X66343737Y-36796945D01*
X66359032Y-36815582D01*
X66377669Y-36830877D01*
X66398933Y-36842242D01*
X66422008Y-36849242D01*
X66445999Y-36851605D01*
X66469990Y-36849242D01*
X66493065Y-36842242D01*
X66514329Y-36830877D01*
X66532966Y-36815582D01*
X66548261Y-36796945D01*
X66559626Y-36775681D01*
X66564901Y-36758290D01*
X66566361Y-36756923D01*
X66568275Y-36757504D01*
X66568777Y-36759261D01*
X66538339Y-36912286D01*
X66538339Y-37088514D01*
X66568777Y-37241539D01*
X66568134Y-37243433D01*
X66566172Y-37243823D01*
X66564901Y-37242510D01*
X66559626Y-37225119D01*
X66548261Y-37203856D01*
X66532966Y-37185219D01*
X66514329Y-37169923D01*
X66493065Y-37158558D01*
X66469990Y-37151558D01*
X66445999Y-37149195D01*
X66422008Y-37151558D01*
X66398933Y-37158558D01*
X66377670Y-37169923D01*
X66359033Y-37185218D01*
X66343737Y-37203855D01*
X66332372Y-37225119D01*
X66325372Y-37248194D01*
X66322990Y-37272381D01*
X66321825Y-37274007D01*
X66319835Y-37273811D01*
X66319000Y-37272185D01*
X66319000Y-36728615D01*
X66320000Y-36726883D01*
X66322000Y-36726883D01*
X66322990Y-36728419D01*
G37*
G36*
X75075732Y-34123000D02*
G01*
X75076000Y-34124000D01*
X75076000Y-35726000D01*
X75075000Y-35727732D01*
X75074000Y-35728000D01*
X74876000Y-35728000D01*
X74874268Y-35727000D01*
X74874000Y-35726000D01*
X74874000Y-34126000D01*
X73776000Y-34126000D01*
X73776000Y-35726000D01*
X73775000Y-35727732D01*
X73774000Y-35728000D01*
X73576000Y-35728000D01*
X73574268Y-35727000D01*
X73574000Y-35726000D01*
X73574000Y-34124000D01*
X73575000Y-34122268D01*
X73576000Y-34122000D01*
X75074000Y-34122000D01*
X75075732Y-34123000D01*
G37*
G36*
X43053965Y-33957057D02*
G01*
X43054800Y-33958683D01*
X43054800Y-34978517D01*
X43053800Y-34980249D01*
X43051800Y-34980249D01*
X43050810Y-34978713D01*
X43048428Y-34954526D01*
X43041428Y-34931451D01*
X43030063Y-34910187D01*
X43014768Y-34891550D01*
X42996131Y-34876255D01*
X42974867Y-34864890D01*
X42951792Y-34857890D01*
X42927801Y-34855527D01*
X42903810Y-34857890D01*
X42880735Y-34864890D01*
X42859471Y-34876255D01*
X42840834Y-34891550D01*
X42829310Y-34905593D01*
X42827438Y-34906297D01*
X42825892Y-34905029D01*
X42826101Y-34903213D01*
X42833338Y-34892381D01*
X42900779Y-34729564D01*
X42935161Y-34556714D01*
X42935161Y-34380486D01*
X42900779Y-34207636D01*
X42833338Y-34044819D01*
X42826101Y-34033987D01*
X42825970Y-34031991D01*
X42827633Y-34030880D01*
X42829310Y-34031607D01*
X42840834Y-34045650D01*
X42859471Y-34060945D01*
X42880735Y-34072310D01*
X42903810Y-34079310D01*
X42927801Y-34081673D01*
X42951792Y-34079310D01*
X42974867Y-34072310D01*
X42996131Y-34060945D01*
X43014768Y-34045650D01*
X43030063Y-34027013D01*
X43041428Y-34005749D01*
X43048428Y-33982674D01*
X43050810Y-33958487D01*
X43051975Y-33956861D01*
X43053965Y-33957057D01*
G37*
G36*
X66322990Y-34188419D02*
G01*
X66325372Y-34212606D01*
X66332372Y-34235681D01*
X66343737Y-34256945D01*
X66359032Y-34275582D01*
X66377669Y-34290877D01*
X66398933Y-34302242D01*
X66422008Y-34309242D01*
X66445999Y-34311605D01*
X66469990Y-34309242D01*
X66493065Y-34302242D01*
X66514329Y-34290877D01*
X66532966Y-34275582D01*
X66548261Y-34256945D01*
X66559626Y-34235681D01*
X66564901Y-34218290D01*
X66566361Y-34216923D01*
X66568275Y-34217504D01*
X66568777Y-34219261D01*
X66538339Y-34372286D01*
X66538339Y-34548514D01*
X66568777Y-34701539D01*
X66568134Y-34703433D01*
X66566172Y-34703823D01*
X66564901Y-34702510D01*
X66559626Y-34685119D01*
X66548261Y-34663856D01*
X66532966Y-34645219D01*
X66514329Y-34629923D01*
X66493065Y-34618558D01*
X66469990Y-34611558D01*
X66445999Y-34609195D01*
X66422008Y-34611558D01*
X66398933Y-34618558D01*
X66377670Y-34629923D01*
X66359033Y-34645218D01*
X66343737Y-34663855D01*
X66332372Y-34685119D01*
X66325372Y-34708194D01*
X66322990Y-34732381D01*
X66321825Y-34734007D01*
X66319835Y-34733811D01*
X66319000Y-34732185D01*
X66319000Y-34188615D01*
X66320000Y-34186883D01*
X66322000Y-34186883D01*
X66322990Y-34188419D01*
G37*
G36*
X43053965Y-31417057D02*
G01*
X43054800Y-31418683D01*
X43054800Y-32438517D01*
X43053800Y-32440249D01*
X43051800Y-32440249D01*
X43050810Y-32438713D01*
X43048428Y-32414526D01*
X43041428Y-32391451D01*
X43030063Y-32370187D01*
X43014768Y-32351550D01*
X42996131Y-32336255D01*
X42974867Y-32324890D01*
X42951792Y-32317890D01*
X42927801Y-32315527D01*
X42903810Y-32317890D01*
X42880735Y-32324890D01*
X42859471Y-32336255D01*
X42840834Y-32351550D01*
X42829310Y-32365593D01*
X42827438Y-32366297D01*
X42825892Y-32365029D01*
X42826101Y-32363213D01*
X42833338Y-32352381D01*
X42900779Y-32189564D01*
X42935161Y-32016714D01*
X42935161Y-31840486D01*
X42900779Y-31667636D01*
X42833338Y-31504819D01*
X42826101Y-31493987D01*
X42825970Y-31491991D01*
X42827633Y-31490880D01*
X42829310Y-31491607D01*
X42840834Y-31505650D01*
X42859471Y-31520945D01*
X42880735Y-31532310D01*
X42903810Y-31539310D01*
X42927801Y-31541673D01*
X42951792Y-31539310D01*
X42974867Y-31532310D01*
X42996131Y-31520945D01*
X43014768Y-31505650D01*
X43030063Y-31487013D01*
X43041428Y-31465749D01*
X43048428Y-31442674D01*
X43050810Y-31418487D01*
X43051975Y-31416861D01*
X43053965Y-31417057D01*
G37*
G36*
X66322990Y-31648419D02*
G01*
X66325372Y-31672606D01*
X66332372Y-31695681D01*
X66343737Y-31716945D01*
X66359032Y-31735582D01*
X66377669Y-31750877D01*
X66398933Y-31762242D01*
X66422008Y-31769242D01*
X66445999Y-31771605D01*
X66469990Y-31769242D01*
X66493065Y-31762242D01*
X66514329Y-31750877D01*
X66532966Y-31735582D01*
X66548261Y-31716945D01*
X66559626Y-31695681D01*
X66564901Y-31678290D01*
X66566361Y-31676923D01*
X66568275Y-31677504D01*
X66568777Y-31679261D01*
X66538339Y-31832286D01*
X66538339Y-32008514D01*
X66568777Y-32161539D01*
X66568134Y-32163433D01*
X66566172Y-32163823D01*
X66564901Y-32162510D01*
X66559626Y-32145119D01*
X66548261Y-32123856D01*
X66532966Y-32105219D01*
X66514329Y-32089923D01*
X66493065Y-32078558D01*
X66469990Y-32071558D01*
X66445999Y-32069195D01*
X66422008Y-32071558D01*
X66398933Y-32078558D01*
X66377670Y-32089923D01*
X66359033Y-32105218D01*
X66343737Y-32123855D01*
X66332372Y-32145119D01*
X66325372Y-32168194D01*
X66322990Y-32192381D01*
X66321825Y-32194007D01*
X66319835Y-32193811D01*
X66319000Y-32192185D01*
X66319000Y-31648615D01*
X66320000Y-31646883D01*
X66322000Y-31646883D01*
X66322990Y-31648419D01*
G37*
G36*
X43053965Y-28877057D02*
G01*
X43054800Y-28878683D01*
X43054800Y-29898517D01*
X43053800Y-29900249D01*
X43051800Y-29900249D01*
X43050810Y-29898713D01*
X43048428Y-29874526D01*
X43041428Y-29851451D01*
X43030063Y-29830187D01*
X43014768Y-29811550D01*
X42996131Y-29796255D01*
X42974867Y-29784890D01*
X42951792Y-29777890D01*
X42927801Y-29775527D01*
X42903810Y-29777890D01*
X42880735Y-29784890D01*
X42859471Y-29796255D01*
X42840834Y-29811550D01*
X42829310Y-29825593D01*
X42827438Y-29826297D01*
X42825892Y-29825029D01*
X42826101Y-29823213D01*
X42833338Y-29812381D01*
X42900779Y-29649564D01*
X42935161Y-29476714D01*
X42935161Y-29300486D01*
X42900779Y-29127636D01*
X42833338Y-28964819D01*
X42826101Y-28953987D01*
X42825970Y-28951991D01*
X42827633Y-28950880D01*
X42829310Y-28951607D01*
X42840834Y-28965650D01*
X42859471Y-28980945D01*
X42880735Y-28992310D01*
X42903810Y-28999310D01*
X42927801Y-29001673D01*
X42951792Y-28999310D01*
X42974867Y-28992310D01*
X42996131Y-28980945D01*
X43014768Y-28965650D01*
X43030063Y-28947013D01*
X43041428Y-28925749D01*
X43048428Y-28902674D01*
X43050810Y-28878487D01*
X43051975Y-28876861D01*
X43053965Y-28877057D01*
G37*
G36*
X66322990Y-29108419D02*
G01*
X66325372Y-29132606D01*
X66332372Y-29155681D01*
X66343737Y-29176945D01*
X66359032Y-29195582D01*
X66377669Y-29210877D01*
X66398933Y-29222242D01*
X66422008Y-29229242D01*
X66445999Y-29231605D01*
X66469990Y-29229242D01*
X66493065Y-29222242D01*
X66514329Y-29210877D01*
X66532966Y-29195582D01*
X66548261Y-29176945D01*
X66559626Y-29155681D01*
X66564901Y-29138290D01*
X66566361Y-29136923D01*
X66568275Y-29137504D01*
X66568777Y-29139261D01*
X66538339Y-29292286D01*
X66538339Y-29468514D01*
X66568777Y-29621539D01*
X66568134Y-29623433D01*
X66566172Y-29623823D01*
X66564901Y-29622510D01*
X66559626Y-29605119D01*
X66548261Y-29583856D01*
X66532966Y-29565219D01*
X66514329Y-29549923D01*
X66493065Y-29538558D01*
X66469990Y-29531558D01*
X66445999Y-29529195D01*
X66422008Y-29531558D01*
X66398933Y-29538558D01*
X66377670Y-29549923D01*
X66359033Y-29565218D01*
X66343737Y-29583855D01*
X66332372Y-29605119D01*
X66325372Y-29628194D01*
X66322990Y-29652381D01*
X66321825Y-29654007D01*
X66319835Y-29653811D01*
X66319000Y-29652185D01*
X66319000Y-29108615D01*
X66320000Y-29106883D01*
X66322000Y-29106883D01*
X66322990Y-29108419D01*
G37*
G36*
X70518041Y-27798638D02*
G01*
X70517931Y-27800286D01*
X70514758Y-27806207D01*
X70511960Y-27815392D01*
X70511010Y-27824946D01*
X70511942Y-27834507D01*
X70514720Y-27843702D01*
X70519286Y-27852267D01*
X71000369Y-28573891D01*
X71000369Y-28576109D01*
X70519283Y-29297737D01*
X70514740Y-29306249D01*
X70511950Y-29315445D01*
X70511009Y-29325000D01*
X70511950Y-29334555D01*
X70514739Y-29343748D01*
X70517904Y-29349668D01*
X70517838Y-29351667D01*
X70516075Y-29352610D01*
X70514594Y-29351880D01*
X70513125Y-29350091D01*
X70513008Y-29349933D01*
X70505474Y-29338657D01*
X70488426Y-29321611D01*
X70468379Y-29308216D01*
X70446105Y-29298990D01*
X70422455Y-29294286D01*
X70398349Y-29294286D01*
X70374698Y-29298991D01*
X70352425Y-29308217D01*
X70332377Y-29321612D01*
X70315298Y-29338693D01*
X70308010Y-29348529D01*
X70306175Y-29349325D01*
X70304568Y-29348134D01*
X70304739Y-29346229D01*
X70800714Y-28602266D01*
X70805241Y-28593794D01*
X70808040Y-28584608D01*
X70808990Y-28575053D01*
X70808058Y-28565493D01*
X70805280Y-28556298D01*
X70800714Y-28547733D01*
X70304741Y-27803774D01*
X70304612Y-27801779D01*
X70306276Y-27800669D01*
X70307952Y-27801398D01*
X70323351Y-27820202D01*
X70341973Y-27835517D01*
X70363227Y-27846907D01*
X70386290Y-27853930D01*
X70410278Y-27856317D01*
X70434282Y-27853979D01*
X70457354Y-27847006D01*
X70478635Y-27835659D01*
X70497247Y-27820418D01*
X70508579Y-27805171D01*
X70508896Y-27805034D01*
X70514623Y-27798071D01*
X70516496Y-27797368D01*
X70518041Y-27798638D01*
G37*
G36*
X38768041Y-27798638D02*
G01*
X38767931Y-27800286D01*
X38764758Y-27806207D01*
X38761960Y-27815392D01*
X38761010Y-27824946D01*
X38761942Y-27834507D01*
X38764720Y-27843702D01*
X38769286Y-27852267D01*
X39250369Y-28573891D01*
X39250369Y-28576109D01*
X38769283Y-29297737D01*
X38764740Y-29306249D01*
X38761950Y-29315445D01*
X38761009Y-29325000D01*
X38761950Y-29334555D01*
X38764739Y-29343748D01*
X38767904Y-29349668D01*
X38767838Y-29351667D01*
X38766075Y-29352610D01*
X38764594Y-29351880D01*
X38763125Y-29350091D01*
X38763008Y-29349933D01*
X38755474Y-29338657D01*
X38738426Y-29321611D01*
X38718379Y-29308216D01*
X38696105Y-29298990D01*
X38672455Y-29294286D01*
X38648349Y-29294286D01*
X38624698Y-29298991D01*
X38602425Y-29308217D01*
X38582377Y-29321612D01*
X38565298Y-29338693D01*
X38558010Y-29348529D01*
X38556175Y-29349325D01*
X38554568Y-29348134D01*
X38554739Y-29346229D01*
X39050714Y-28602266D01*
X39055241Y-28593794D01*
X39058040Y-28584608D01*
X39058990Y-28575053D01*
X39058058Y-28565493D01*
X39055280Y-28556298D01*
X39050714Y-28547733D01*
X38554741Y-27803774D01*
X38554612Y-27801779D01*
X38556276Y-27800669D01*
X38557952Y-27801398D01*
X38573351Y-27820202D01*
X38591973Y-27835517D01*
X38613227Y-27846907D01*
X38636290Y-27853930D01*
X38660278Y-27856317D01*
X38684282Y-27853979D01*
X38707354Y-27847006D01*
X38728635Y-27835659D01*
X38747247Y-27820418D01*
X38758579Y-27805171D01*
X38758896Y-27805034D01*
X38764623Y-27798071D01*
X38766496Y-27797368D01*
X38768041Y-27798638D01*
G37*
G36*
X43053965Y-26337057D02*
G01*
X43054800Y-26338683D01*
X43054800Y-27358517D01*
X43053800Y-27360249D01*
X43051800Y-27360249D01*
X43050810Y-27358713D01*
X43048428Y-27334526D01*
X43041428Y-27311451D01*
X43030063Y-27290187D01*
X43014768Y-27271550D01*
X42996131Y-27256255D01*
X42974867Y-27244890D01*
X42951792Y-27237890D01*
X42927801Y-27235527D01*
X42903810Y-27237890D01*
X42880735Y-27244890D01*
X42859471Y-27256255D01*
X42840834Y-27271550D01*
X42829310Y-27285593D01*
X42827438Y-27286297D01*
X42825892Y-27285029D01*
X42826101Y-27283213D01*
X42833338Y-27272381D01*
X42900779Y-27109564D01*
X42935161Y-26936714D01*
X42935161Y-26760486D01*
X42900779Y-26587636D01*
X42833338Y-26424819D01*
X42826101Y-26413987D01*
X42825970Y-26411991D01*
X42827633Y-26410880D01*
X42829310Y-26411607D01*
X42840834Y-26425650D01*
X42859471Y-26440945D01*
X42880735Y-26452310D01*
X42903810Y-26459310D01*
X42927801Y-26461673D01*
X42951792Y-26459310D01*
X42974867Y-26452310D01*
X42996131Y-26440945D01*
X43014768Y-26425650D01*
X43030063Y-26407013D01*
X43041428Y-26385749D01*
X43048428Y-26362674D01*
X43050810Y-26338487D01*
X43051975Y-26336861D01*
X43053965Y-26337057D01*
G37*
G36*
X66322990Y-26568419D02*
G01*
X66325372Y-26592606D01*
X66332372Y-26615681D01*
X66343737Y-26636945D01*
X66359032Y-26655582D01*
X66377669Y-26670877D01*
X66398933Y-26682242D01*
X66422008Y-26689242D01*
X66445999Y-26691605D01*
X66469990Y-26689242D01*
X66493065Y-26682242D01*
X66514329Y-26670877D01*
X66532966Y-26655582D01*
X66548261Y-26636945D01*
X66559626Y-26615681D01*
X66564901Y-26598290D01*
X66566361Y-26596923D01*
X66568275Y-26597504D01*
X66568777Y-26599261D01*
X66538339Y-26752286D01*
X66538339Y-26928514D01*
X66568777Y-27081539D01*
X66568134Y-27083433D01*
X66566172Y-27083823D01*
X66564901Y-27082510D01*
X66559626Y-27065119D01*
X66548261Y-27043856D01*
X66532966Y-27025219D01*
X66514329Y-27009923D01*
X66493065Y-26998558D01*
X66469990Y-26991558D01*
X66445999Y-26989195D01*
X66422008Y-26991558D01*
X66398933Y-26998558D01*
X66377670Y-27009923D01*
X66359033Y-27025218D01*
X66343737Y-27043855D01*
X66332372Y-27065119D01*
X66325372Y-27088194D01*
X66322990Y-27112381D01*
X66321825Y-27114007D01*
X66319835Y-27113811D01*
X66319000Y-27112185D01*
X66319000Y-26568615D01*
X66320000Y-26566883D01*
X66322000Y-26566883D01*
X66322990Y-26568419D01*
G37*
G36*
X43053965Y-23797057D02*
G01*
X43054800Y-23798683D01*
X43054800Y-24818517D01*
X43053800Y-24820249D01*
X43051800Y-24820249D01*
X43050810Y-24818713D01*
X43048428Y-24794526D01*
X43041428Y-24771451D01*
X43030063Y-24750187D01*
X43014768Y-24731550D01*
X42996131Y-24716255D01*
X42974867Y-24704890D01*
X42951792Y-24697890D01*
X42927801Y-24695527D01*
X42903810Y-24697890D01*
X42880735Y-24704890D01*
X42859471Y-24716255D01*
X42840834Y-24731550D01*
X42829310Y-24745593D01*
X42827438Y-24746297D01*
X42825892Y-24745029D01*
X42826101Y-24743213D01*
X42833338Y-24732381D01*
X42900779Y-24569564D01*
X42935161Y-24396714D01*
X42935161Y-24220486D01*
X42900779Y-24047636D01*
X42833338Y-23884819D01*
X42826101Y-23873987D01*
X42825970Y-23871991D01*
X42827633Y-23870880D01*
X42829310Y-23871607D01*
X42840834Y-23885650D01*
X42859471Y-23900945D01*
X42880735Y-23912310D01*
X42903810Y-23919310D01*
X42927801Y-23921673D01*
X42951792Y-23919310D01*
X42974867Y-23912310D01*
X42996131Y-23900945D01*
X43014768Y-23885650D01*
X43030063Y-23867013D01*
X43041428Y-23845749D01*
X43048428Y-23822674D01*
X43050810Y-23798487D01*
X43051975Y-23796861D01*
X43053965Y-23797057D01*
G37*
G36*
X66322990Y-24028419D02*
G01*
X66325372Y-24052606D01*
X66332372Y-24075681D01*
X66343737Y-24096945D01*
X66359032Y-24115582D01*
X66377669Y-24130877D01*
X66398933Y-24142242D01*
X66422008Y-24149242D01*
X66445999Y-24151605D01*
X66469990Y-24149242D01*
X66493065Y-24142242D01*
X66514329Y-24130877D01*
X66532966Y-24115582D01*
X66548261Y-24096945D01*
X66559626Y-24075681D01*
X66564901Y-24058290D01*
X66566361Y-24056923D01*
X66568275Y-24057504D01*
X66568777Y-24059261D01*
X66538339Y-24212286D01*
X66538339Y-24388514D01*
X66568777Y-24541539D01*
X66568134Y-24543433D01*
X66566172Y-24543823D01*
X66564901Y-24542510D01*
X66559626Y-24525119D01*
X66548261Y-24503856D01*
X66532966Y-24485219D01*
X66514329Y-24469923D01*
X66493065Y-24458558D01*
X66469990Y-24451558D01*
X66445999Y-24449195D01*
X66422008Y-24451558D01*
X66398933Y-24458558D01*
X66377670Y-24469923D01*
X66359033Y-24485218D01*
X66343737Y-24503855D01*
X66332372Y-24525119D01*
X66325372Y-24548194D01*
X66322990Y-24572381D01*
X66321825Y-24574007D01*
X66319835Y-24573811D01*
X66319000Y-24572185D01*
X66319000Y-24028615D01*
X66320000Y-24026883D01*
X66322000Y-24026883D01*
X66322990Y-24028419D01*
G37*
G36*
X35675732Y-21423000D02*
G01*
X35676000Y-21424000D01*
X35676000Y-23026000D01*
X35675000Y-23027732D01*
X35674000Y-23028000D01*
X35476000Y-23028000D01*
X35474268Y-23027000D01*
X35474000Y-23026000D01*
X35474000Y-21426000D01*
X34376000Y-21426000D01*
X34376000Y-23026000D01*
X34375000Y-23027732D01*
X34374000Y-23028000D01*
X34176000Y-23028000D01*
X34174268Y-23027000D01*
X34174000Y-23026000D01*
X34174000Y-21424000D01*
X34175000Y-21422268D01*
X34176000Y-21422000D01*
X35674000Y-21422000D01*
X35675732Y-21423000D01*
G37*
G36*
X66533732Y-20858400D02*
G01*
X66534000Y-20859400D01*
X66534000Y-22661400D01*
X66533000Y-22663132D01*
X66532000Y-22663400D01*
X66530562Y-22663400D01*
X66528572Y-22661596D01*
X66527628Y-22652008D01*
X66520628Y-22628933D01*
X66509263Y-22607669D01*
X66493968Y-22589032D01*
X66475331Y-22573737D01*
X66454067Y-22562372D01*
X66430992Y-22555372D01*
X66406907Y-22553000D01*
X66321000Y-22553000D01*
X66319268Y-22552000D01*
X66319000Y-22551000D01*
X66319000Y-20949000D01*
X66320000Y-20947268D01*
X66321000Y-20947000D01*
X66406907Y-20947000D01*
X66430992Y-20944628D01*
X66454067Y-20937628D01*
X66475331Y-20926263D01*
X66493968Y-20910968D01*
X66509263Y-20892331D01*
X66520628Y-20871067D01*
X66524343Y-20858819D01*
X66526257Y-20857400D01*
X66532000Y-20857400D01*
X66533732Y-20858400D01*
G37*
G36*
X43053965Y-21257057D02*
G01*
X43054800Y-21258683D01*
X43054800Y-22278517D01*
X43053800Y-22280249D01*
X43051800Y-22280249D01*
X43050810Y-22278713D01*
X43048428Y-22254526D01*
X43041428Y-22231451D01*
X43030063Y-22210187D01*
X43014768Y-22191550D01*
X42996131Y-22176255D01*
X42974867Y-22164890D01*
X42951792Y-22157890D01*
X42927801Y-22155527D01*
X42903810Y-22157890D01*
X42880735Y-22164890D01*
X42859471Y-22176255D01*
X42840834Y-22191550D01*
X42829310Y-22205593D01*
X42827438Y-22206297D01*
X42825892Y-22205029D01*
X42826101Y-22203213D01*
X42833338Y-22192381D01*
X42900779Y-22029564D01*
X42935161Y-21856714D01*
X42935161Y-21680486D01*
X42900779Y-21507636D01*
X42833338Y-21344819D01*
X42826101Y-21333987D01*
X42825970Y-21331991D01*
X42827633Y-21330880D01*
X42829310Y-21331607D01*
X42840834Y-21345650D01*
X42859471Y-21360945D01*
X42880735Y-21372310D01*
X42903810Y-21379310D01*
X42927801Y-21381673D01*
X42951792Y-21379310D01*
X42974867Y-21372310D01*
X42996131Y-21360945D01*
X43014768Y-21345650D01*
X43030063Y-21327013D01*
X43041428Y-21305749D01*
X43048428Y-21282674D01*
X43050810Y-21258487D01*
X43051975Y-21256861D01*
X43053965Y-21257057D01*
G37*
M02*
