G04 #@! TF.GenerationSoftware,KiCad,Pcbnew,(5.1.7)-1*
G04 #@! TF.CreationDate,2021-01-23T01:49:41+01:00*
G04 #@! TF.ProjectId,espbreakout,65737062-7265-4616-9b6f-75742e6b6963,rev?*
G04 #@! TF.SameCoordinates,Original*
G04 #@! TF.FileFunction,Copper,L2,Bot*
G04 #@! TF.FilePolarity,Positive*
%FSLAX46Y46*%
G04 Gerber Fmt 4.6, Leading zero omitted, Abs format (unit mm)*
G04 Created by KiCad (PCBNEW (5.1.7)-1) date 2021-01-23 01:49:41*
%MOMM*%
%LPD*%
G01*
G04 APERTURE LIST*
G04 #@! TA.AperFunction,EtchedComponent*
%ADD10C,0.100000*%
G04 #@! TD*
G04 #@! TA.AperFunction,ComponentPad*
%ADD11R,1.700000X1.700000*%
G04 #@! TD*
G04 #@! TA.AperFunction,ComponentPad*
%ADD12O,1.700000X1.700000*%
G04 #@! TD*
G04 #@! TA.AperFunction,ComponentPad*
%ADD13C,1.700000*%
G04 #@! TD*
G04 #@! TA.AperFunction,ComponentPad*
%ADD14R,3.600000X1.800000*%
G04 #@! TD*
G04 #@! TA.AperFunction,ComponentPad*
%ADD15O,3.600000X1.800000*%
G04 #@! TD*
G04 #@! TA.AperFunction,ComponentPad*
%ADD16R,1.200000X1.700000*%
G04 #@! TD*
G04 #@! TA.AperFunction,ComponentPad*
%ADD17O,1.200000X1.700000*%
G04 #@! TD*
G04 #@! TA.AperFunction,SMDPad,CuDef*
%ADD18R,1.500000X1.500000*%
G04 #@! TD*
G04 #@! TA.AperFunction,SMDPad,CuDef*
%ADD19C,0.100000*%
G04 #@! TD*
G04 #@! TA.AperFunction,SMDPad,CuDef*
%ADD20R,1.000000X1.500000*%
G04 #@! TD*
G04 #@! TA.AperFunction,SMDPad,CuDef*
%ADD21C,0.600000*%
G04 #@! TD*
G04 #@! TA.AperFunction,ComponentPad*
%ADD22C,6.400000*%
G04 #@! TD*
G04 #@! TA.AperFunction,ComponentPad*
%ADD23C,0.800000*%
G04 #@! TD*
G04 #@! TA.AperFunction,ViaPad*
%ADD24C,0.800000*%
G04 #@! TD*
G04 #@! TA.AperFunction,ViaPad*
%ADD25C,1.000000*%
G04 #@! TD*
G04 #@! TA.AperFunction,ViaPad*
%ADD26C,1.400000*%
G04 #@! TD*
G04 #@! TA.AperFunction,Conductor*
%ADD27C,1.400000*%
G04 #@! TD*
G04 #@! TA.AperFunction,Conductor*
%ADD28C,1.000000*%
G04 #@! TD*
G04 #@! TA.AperFunction,Conductor*
%ADD29C,0.250000*%
G04 #@! TD*
G04 #@! TA.AperFunction,Conductor*
%ADD30C,0.600000*%
G04 #@! TD*
G04 #@! TA.AperFunction,Conductor*
%ADD31C,0.254000*%
G04 #@! TD*
G04 #@! TA.AperFunction,Conductor*
%ADD32C,0.100000*%
G04 #@! TD*
G04 APERTURE END LIST*
D10*
G36*
X48442800Y-34411000D02*
G01*
X48531800Y-34365000D01*
X48795800Y-34788000D01*
X48768800Y-34806000D01*
X48746800Y-34823000D01*
X48723800Y-34845000D01*
X48708800Y-34862000D01*
X48693800Y-34883000D01*
X48681800Y-34903000D01*
X48672800Y-34920000D01*
X48664800Y-34937000D01*
X48659800Y-34951000D01*
X48655800Y-34967000D01*
X48652800Y-34979000D01*
X48648800Y-34998000D01*
X48646800Y-35010000D01*
X48643800Y-35027000D01*
X48642800Y-35039000D01*
X48642800Y-35054000D01*
X48642800Y-35069000D01*
X48643800Y-35085000D01*
X48646800Y-35104000D01*
X48651800Y-35127000D01*
X48656800Y-35143000D01*
X48662800Y-35161000D01*
X48671800Y-35182000D01*
X48685800Y-35207000D01*
X48696800Y-35224000D01*
X48709800Y-35241000D01*
X48722800Y-35257000D01*
X48738800Y-35272000D01*
X48771800Y-35299000D01*
X48792800Y-35312000D01*
X48809800Y-35321000D01*
X48828800Y-35329000D01*
X48849800Y-35337000D01*
X48878800Y-35345000D01*
X48925800Y-35352000D01*
X48963800Y-35352000D01*
X49007800Y-35346000D01*
X49045800Y-35334000D01*
X49078800Y-35320000D01*
X49105800Y-35304000D01*
X49122800Y-35292000D01*
X49152800Y-35267000D01*
X49183800Y-35233000D01*
X49200800Y-35208000D01*
X49220800Y-35170000D01*
X49230800Y-35140000D01*
X49235800Y-35119000D01*
X49240800Y-35092000D01*
X49243800Y-35050000D01*
X49241800Y-35014000D01*
X49232800Y-34971000D01*
X49215800Y-34925000D01*
X49197800Y-34890000D01*
X49171800Y-34856000D01*
X49159800Y-34843000D01*
X49142800Y-34827000D01*
X49132800Y-34818000D01*
X49110800Y-34802000D01*
X49087800Y-34788000D01*
X49075800Y-34782000D01*
X49060800Y-34774000D01*
X49049800Y-34770000D01*
X49030800Y-34764000D01*
X49020800Y-34761000D01*
X49008800Y-34758000D01*
X48998800Y-34756000D01*
X48985800Y-34754000D01*
X48968800Y-34752000D01*
X48950800Y-34751000D01*
X48923800Y-34751000D01*
X48898800Y-34753000D01*
X48862800Y-34759000D01*
X48836800Y-34768000D01*
X48817800Y-34777000D01*
X48802800Y-34785000D01*
X48799800Y-34787000D01*
X48534800Y-34363000D01*
X48699800Y-34275000D01*
X48919800Y-34184000D01*
X49027800Y-34122000D01*
X49130800Y-34049000D01*
X49232800Y-33941000D01*
X49353800Y-33792000D01*
X49503800Y-33580000D01*
X49626800Y-33402000D01*
X49777800Y-33204000D01*
X49896800Y-33064000D01*
X49985800Y-32973000D01*
X50113800Y-32876000D01*
X50222800Y-32813000D01*
X50327800Y-32763000D01*
X50410800Y-32751000D01*
X50466800Y-32760000D01*
X50542800Y-32791000D01*
X50658800Y-32854000D01*
X50753800Y-32925000D01*
X50847800Y-32981000D01*
X50932800Y-33004000D01*
X51031800Y-33039000D01*
X51109800Y-33086000D01*
X51173800Y-33138000D01*
X51276800Y-33218000D01*
X51346800Y-33272000D01*
X51422800Y-33283000D01*
X51536800Y-33281000D01*
X51685800Y-33245000D01*
X51957800Y-33167000D01*
X52362800Y-33008000D01*
X52621800Y-32892000D01*
X53081800Y-32675000D01*
X53511800Y-32461000D01*
X53672800Y-32380000D01*
X53866800Y-32303000D01*
X54026800Y-32253000D01*
X54205800Y-32212000D01*
X54365800Y-32192000D01*
X54508800Y-32184000D01*
X54670800Y-32177000D01*
X54780800Y-32178000D01*
X54973800Y-32180000D01*
X55115800Y-32186000D01*
X55258800Y-32200000D01*
X55477800Y-32222000D01*
X55619800Y-32242000D01*
X55844800Y-32280000D01*
X55995800Y-32310000D01*
X56192800Y-32356000D01*
X56337800Y-32395000D01*
X56584800Y-32465000D01*
X56770800Y-32533000D01*
X57069800Y-32646000D01*
X57584800Y-32901000D01*
X57997800Y-33128000D01*
X58119800Y-33203000D01*
X58386800Y-33416000D01*
X58888800Y-33865000D01*
X59053800Y-34031000D01*
X59121800Y-34133000D01*
X59201800Y-34267000D01*
X59293800Y-34432000D01*
X59353800Y-34630000D01*
X59417800Y-34874000D01*
X59499800Y-35255000D01*
X59552800Y-35542000D01*
X59594800Y-35845000D01*
X59628800Y-36218000D01*
X59653800Y-36784000D01*
X59661800Y-37631000D01*
X59693800Y-37651000D01*
X60190800Y-37897000D01*
X60593800Y-38093000D01*
X61081800Y-38375000D01*
X61317800Y-38536000D01*
X61480800Y-38660000D01*
X61655800Y-38819000D01*
X61784800Y-38947000D01*
X61882800Y-39079000D01*
X61972800Y-39211000D01*
X62055800Y-39346000D01*
X62144800Y-39540000D01*
X62210800Y-39723000D01*
X62236800Y-39877000D01*
X62241800Y-40010000D01*
X62233800Y-40130000D01*
X62209800Y-40242000D01*
X62164800Y-40368000D01*
X62096800Y-40486000D01*
X62016800Y-40600000D01*
X61873800Y-40763000D01*
X61687800Y-40897000D01*
X61532800Y-40980000D01*
X61376800Y-41034000D01*
X61081800Y-41098000D01*
X60724800Y-41137000D01*
X59610800Y-41234000D01*
X58802800Y-41315000D01*
X58449800Y-41353000D01*
X58019800Y-41405000D01*
X57633800Y-41462000D01*
X57192800Y-41545000D01*
X56743800Y-41643000D01*
X56296800Y-41757000D01*
X55961800Y-41864000D01*
X55650800Y-41959000D01*
X55477800Y-42025000D01*
X55288800Y-42120000D01*
X55117800Y-42215000D01*
X54970800Y-42310000D01*
X54859800Y-42407000D01*
X54747800Y-42515000D01*
X54667800Y-42625000D01*
X54610800Y-42749000D01*
X54565800Y-42858000D01*
X54541800Y-42972000D01*
X54512800Y-43122000D01*
X54489800Y-43261000D01*
X54472800Y-43400000D01*
X54463800Y-43473000D01*
X54456800Y-43545000D01*
X54449800Y-43581000D01*
X54435800Y-43598000D01*
X54404800Y-43626000D01*
X54395800Y-43628000D01*
X54381800Y-43610000D01*
X54372800Y-43584000D01*
X54362800Y-43551000D01*
X54345800Y-43490000D01*
X54328800Y-43426000D01*
X54309800Y-43362000D01*
X54291800Y-43278000D01*
X54290800Y-43212000D01*
X54287800Y-43129000D01*
X54297800Y-43058000D01*
X54309800Y-42985000D01*
X54332800Y-42888000D01*
X54359800Y-42809000D01*
X54391800Y-42726000D01*
X54428800Y-42650000D01*
X54481800Y-42556000D01*
X54545800Y-42455000D01*
X54628800Y-42343000D01*
X54724800Y-42238000D01*
X54793800Y-42169000D01*
X54892800Y-42070000D01*
X55023800Y-41968000D01*
X55127800Y-41885000D01*
X55232800Y-41819000D01*
X55464800Y-41695000D01*
X55711800Y-41612000D01*
X55802800Y-41583000D01*
X55949800Y-41539000D01*
X56327800Y-41436000D01*
X56880800Y-41315000D01*
X57548800Y-41185000D01*
X58455800Y-41037000D01*
X59165800Y-40940000D01*
X59615800Y-40889000D01*
X59945800Y-40860000D01*
X60479800Y-40803000D01*
X60700800Y-40777000D01*
X60912800Y-40730000D01*
X61092800Y-40684000D01*
X61212800Y-40643000D01*
X61390800Y-40555000D01*
X61522800Y-40457000D01*
X61601800Y-40378000D01*
X61679800Y-40285000D01*
X61746800Y-40179000D01*
X61791800Y-40067000D01*
X61808800Y-39973000D01*
X61810800Y-39884000D01*
X61803800Y-39799000D01*
X61781800Y-39699000D01*
X61748800Y-39612000D01*
X61664800Y-39460000D01*
X61620800Y-39399000D01*
X61569800Y-39332000D01*
X61534800Y-39288000D01*
X61482800Y-39237000D01*
X61397800Y-39146000D01*
X61321800Y-39086000D01*
X61233800Y-39029000D01*
X61102800Y-38942000D01*
X60966800Y-38858000D01*
X60801800Y-38766000D01*
X60693800Y-38711000D01*
X60469800Y-38596000D01*
X60122800Y-38420000D01*
X59859800Y-38285000D01*
X59709800Y-38211000D01*
X59684800Y-38199000D01*
X59666800Y-38198000D01*
X59335800Y-38204000D01*
X58932800Y-38213000D01*
X58568800Y-38229000D01*
X58361800Y-38240000D01*
X58187800Y-38270000D01*
X58109800Y-38282000D01*
X58026800Y-38310000D01*
X57930800Y-38348000D01*
X57870800Y-38382000D01*
X57804800Y-38409000D01*
X57741800Y-38429000D01*
X57649800Y-38437000D01*
X57552800Y-38450000D01*
X57480800Y-38460000D01*
X57449800Y-38477000D01*
X57395800Y-38512000D01*
X57346800Y-38527000D01*
X57303800Y-38534000D01*
X57246800Y-38535000D01*
X57200800Y-38534000D01*
X57139800Y-38513000D01*
X57093800Y-38501000D01*
X57017800Y-38473000D01*
X56924800Y-38448000D01*
X56796800Y-38426000D01*
X56528800Y-38396000D01*
X56390800Y-38389000D01*
X56194800Y-38375000D01*
X55992800Y-38372000D01*
X55798800Y-38380000D01*
X55608800Y-38402000D01*
X55446800Y-38430000D01*
X55286800Y-38474000D01*
X55179800Y-38498000D01*
X55058800Y-38516000D01*
X54926800Y-38527000D01*
X54769800Y-38529000D01*
X54580800Y-38527000D01*
X54498800Y-38518000D01*
X54445800Y-38504000D01*
X54418800Y-38488000D01*
X54400800Y-38467000D01*
X54388800Y-38438000D01*
X54381800Y-38403000D01*
X54376800Y-38358000D01*
X54375800Y-38307000D01*
X54380800Y-38255000D01*
X54389800Y-38206000D01*
X54413800Y-38136000D01*
X54450800Y-38069000D01*
X54508800Y-37989000D01*
X54563800Y-37948000D01*
X54625800Y-37921000D01*
X54764800Y-37879000D01*
X55040800Y-37807000D01*
X55187800Y-37766000D01*
X55272800Y-37712000D01*
X55315800Y-37679000D01*
X55328800Y-37656000D01*
X55306800Y-37620000D01*
X55252800Y-37583000D01*
X55173800Y-37542000D01*
X55045800Y-37468000D01*
X54752800Y-37323000D01*
X54561800Y-37250000D01*
X54523800Y-37235000D01*
X54415800Y-37205000D01*
X54273800Y-37182000D01*
X54064800Y-37167000D01*
X53910800Y-37167000D01*
X53624800Y-37173000D01*
X53479800Y-37193000D01*
X53357800Y-37221000D01*
X53248800Y-37263000D01*
X53130800Y-37313000D01*
X53069800Y-37346000D01*
X53001800Y-37397000D01*
X52946800Y-37449000D01*
X52876800Y-37534000D01*
X52824800Y-37602000D01*
X52774800Y-37710000D01*
X52731800Y-37811000D01*
X52679800Y-37935000D01*
X52645800Y-38007000D01*
X52609800Y-38062000D01*
X52582800Y-38101000D01*
X52565800Y-38122000D01*
X52532800Y-38154000D01*
X52492800Y-38184000D01*
X52380800Y-38255000D01*
X52253800Y-38304000D01*
X52037800Y-38331000D01*
X51834800Y-38365000D01*
X51570800Y-38388000D01*
X51408800Y-38411000D01*
X51375800Y-38424000D01*
X51347800Y-38420000D01*
X51309800Y-38398000D01*
X51271800Y-38350000D01*
X51243800Y-38314000D01*
X51200800Y-38260000D01*
X51157800Y-38186000D01*
X51132800Y-38124000D01*
X51115800Y-38059000D01*
X51116800Y-37991000D01*
X51148800Y-37920000D01*
X51196800Y-37864000D01*
X51247800Y-37834000D01*
X51313800Y-37802000D01*
X51422800Y-37778000D01*
X51583800Y-37747000D01*
X51691800Y-37713000D01*
X51760800Y-37663000D01*
X51803800Y-37620000D01*
X51832800Y-37564000D01*
X51845800Y-37515000D01*
X51848800Y-37470000D01*
X51839800Y-37419000D01*
X51830800Y-37391000D01*
X51813800Y-37373000D01*
X51790800Y-37359000D01*
X51760800Y-37340000D01*
X51685800Y-37312000D01*
X51535800Y-37259000D01*
X51360800Y-37192000D01*
X51291800Y-37163000D01*
X51197800Y-37113000D01*
X51087800Y-37054000D01*
X50787800Y-36875000D01*
X50676800Y-36825000D01*
X50491800Y-36772000D01*
X50333800Y-36761000D01*
X50228800Y-36775000D01*
X50017800Y-36790000D01*
X49574800Y-36831000D01*
X49316800Y-36865000D01*
X49056800Y-36899000D01*
X48820800Y-36931000D01*
X48555800Y-36976000D01*
X48132800Y-37031000D01*
X48002800Y-37053000D01*
X47799800Y-37071000D01*
X47638800Y-37075000D01*
X47526800Y-37065000D01*
X47434800Y-37047000D01*
X47168800Y-36971000D01*
X46965800Y-36911000D01*
X46881800Y-36882000D01*
X46758800Y-36848000D01*
X46621800Y-36824000D01*
X46556800Y-36804000D01*
X46508800Y-36778000D01*
X46476800Y-36745000D01*
X46464800Y-36700000D01*
X46462800Y-36647000D01*
X46495800Y-36564000D01*
X46552800Y-36433000D01*
X46675800Y-36196000D01*
X46813800Y-35965000D01*
X46984800Y-35721000D01*
X47106800Y-35559000D01*
X47333800Y-35299000D01*
X47498800Y-35118000D01*
X47730800Y-34900000D01*
X47973800Y-34704000D01*
X48121800Y-34601000D01*
X48261800Y-34518000D01*
X48361800Y-34458000D01*
X48442800Y-34411000D01*
G37*
X48442800Y-34411000D02*
X48531800Y-34365000D01*
X48795800Y-34788000D01*
X48768800Y-34806000D01*
X48746800Y-34823000D01*
X48723800Y-34845000D01*
X48708800Y-34862000D01*
X48693800Y-34883000D01*
X48681800Y-34903000D01*
X48672800Y-34920000D01*
X48664800Y-34937000D01*
X48659800Y-34951000D01*
X48655800Y-34967000D01*
X48652800Y-34979000D01*
X48648800Y-34998000D01*
X48646800Y-35010000D01*
X48643800Y-35027000D01*
X48642800Y-35039000D01*
X48642800Y-35054000D01*
X48642800Y-35069000D01*
X48643800Y-35085000D01*
X48646800Y-35104000D01*
X48651800Y-35127000D01*
X48656800Y-35143000D01*
X48662800Y-35161000D01*
X48671800Y-35182000D01*
X48685800Y-35207000D01*
X48696800Y-35224000D01*
X48709800Y-35241000D01*
X48722800Y-35257000D01*
X48738800Y-35272000D01*
X48771800Y-35299000D01*
X48792800Y-35312000D01*
X48809800Y-35321000D01*
X48828800Y-35329000D01*
X48849800Y-35337000D01*
X48878800Y-35345000D01*
X48925800Y-35352000D01*
X48963800Y-35352000D01*
X49007800Y-35346000D01*
X49045800Y-35334000D01*
X49078800Y-35320000D01*
X49105800Y-35304000D01*
X49122800Y-35292000D01*
X49152800Y-35267000D01*
X49183800Y-35233000D01*
X49200800Y-35208000D01*
X49220800Y-35170000D01*
X49230800Y-35140000D01*
X49235800Y-35119000D01*
X49240800Y-35092000D01*
X49243800Y-35050000D01*
X49241800Y-35014000D01*
X49232800Y-34971000D01*
X49215800Y-34925000D01*
X49197800Y-34890000D01*
X49171800Y-34856000D01*
X49159800Y-34843000D01*
X49142800Y-34827000D01*
X49132800Y-34818000D01*
X49110800Y-34802000D01*
X49087800Y-34788000D01*
X49075800Y-34782000D01*
X49060800Y-34774000D01*
X49049800Y-34770000D01*
X49030800Y-34764000D01*
X49020800Y-34761000D01*
X49008800Y-34758000D01*
X48998800Y-34756000D01*
X48985800Y-34754000D01*
X48968800Y-34752000D01*
X48950800Y-34751000D01*
X48923800Y-34751000D01*
X48898800Y-34753000D01*
X48862800Y-34759000D01*
X48836800Y-34768000D01*
X48817800Y-34777000D01*
X48802800Y-34785000D01*
X48799800Y-34787000D01*
X48534800Y-34363000D01*
X48699800Y-34275000D01*
X48919800Y-34184000D01*
X49027800Y-34122000D01*
X49130800Y-34049000D01*
X49232800Y-33941000D01*
X49353800Y-33792000D01*
X49503800Y-33580000D01*
X49626800Y-33402000D01*
X49777800Y-33204000D01*
X49896800Y-33064000D01*
X49985800Y-32973000D01*
X50113800Y-32876000D01*
X50222800Y-32813000D01*
X50327800Y-32763000D01*
X50410800Y-32751000D01*
X50466800Y-32760000D01*
X50542800Y-32791000D01*
X50658800Y-32854000D01*
X50753800Y-32925000D01*
X50847800Y-32981000D01*
X50932800Y-33004000D01*
X51031800Y-33039000D01*
X51109800Y-33086000D01*
X51173800Y-33138000D01*
X51276800Y-33218000D01*
X51346800Y-33272000D01*
X51422800Y-33283000D01*
X51536800Y-33281000D01*
X51685800Y-33245000D01*
X51957800Y-33167000D01*
X52362800Y-33008000D01*
X52621800Y-32892000D01*
X53081800Y-32675000D01*
X53511800Y-32461000D01*
X53672800Y-32380000D01*
X53866800Y-32303000D01*
X54026800Y-32253000D01*
X54205800Y-32212000D01*
X54365800Y-32192000D01*
X54508800Y-32184000D01*
X54670800Y-32177000D01*
X54780800Y-32178000D01*
X54973800Y-32180000D01*
X55115800Y-32186000D01*
X55258800Y-32200000D01*
X55477800Y-32222000D01*
X55619800Y-32242000D01*
X55844800Y-32280000D01*
X55995800Y-32310000D01*
X56192800Y-32356000D01*
X56337800Y-32395000D01*
X56584800Y-32465000D01*
X56770800Y-32533000D01*
X57069800Y-32646000D01*
X57584800Y-32901000D01*
X57997800Y-33128000D01*
X58119800Y-33203000D01*
X58386800Y-33416000D01*
X58888800Y-33865000D01*
X59053800Y-34031000D01*
X59121800Y-34133000D01*
X59201800Y-34267000D01*
X59293800Y-34432000D01*
X59353800Y-34630000D01*
X59417800Y-34874000D01*
X59499800Y-35255000D01*
X59552800Y-35542000D01*
X59594800Y-35845000D01*
X59628800Y-36218000D01*
X59653800Y-36784000D01*
X59661800Y-37631000D01*
X59693800Y-37651000D01*
X60190800Y-37897000D01*
X60593800Y-38093000D01*
X61081800Y-38375000D01*
X61317800Y-38536000D01*
X61480800Y-38660000D01*
X61655800Y-38819000D01*
X61784800Y-38947000D01*
X61882800Y-39079000D01*
X61972800Y-39211000D01*
X62055800Y-39346000D01*
X62144800Y-39540000D01*
X62210800Y-39723000D01*
X62236800Y-39877000D01*
X62241800Y-40010000D01*
X62233800Y-40130000D01*
X62209800Y-40242000D01*
X62164800Y-40368000D01*
X62096800Y-40486000D01*
X62016800Y-40600000D01*
X61873800Y-40763000D01*
X61687800Y-40897000D01*
X61532800Y-40980000D01*
X61376800Y-41034000D01*
X61081800Y-41098000D01*
X60724800Y-41137000D01*
X59610800Y-41234000D01*
X58802800Y-41315000D01*
X58449800Y-41353000D01*
X58019800Y-41405000D01*
X57633800Y-41462000D01*
X57192800Y-41545000D01*
X56743800Y-41643000D01*
X56296800Y-41757000D01*
X55961800Y-41864000D01*
X55650800Y-41959000D01*
X55477800Y-42025000D01*
X55288800Y-42120000D01*
X55117800Y-42215000D01*
X54970800Y-42310000D01*
X54859800Y-42407000D01*
X54747800Y-42515000D01*
X54667800Y-42625000D01*
X54610800Y-42749000D01*
X54565800Y-42858000D01*
X54541800Y-42972000D01*
X54512800Y-43122000D01*
X54489800Y-43261000D01*
X54472800Y-43400000D01*
X54463800Y-43473000D01*
X54456800Y-43545000D01*
X54449800Y-43581000D01*
X54435800Y-43598000D01*
X54404800Y-43626000D01*
X54395800Y-43628000D01*
X54381800Y-43610000D01*
X54372800Y-43584000D01*
X54362800Y-43551000D01*
X54345800Y-43490000D01*
X54328800Y-43426000D01*
X54309800Y-43362000D01*
X54291800Y-43278000D01*
X54290800Y-43212000D01*
X54287800Y-43129000D01*
X54297800Y-43058000D01*
X54309800Y-42985000D01*
X54332800Y-42888000D01*
X54359800Y-42809000D01*
X54391800Y-42726000D01*
X54428800Y-42650000D01*
X54481800Y-42556000D01*
X54545800Y-42455000D01*
X54628800Y-42343000D01*
X54724800Y-42238000D01*
X54793800Y-42169000D01*
X54892800Y-42070000D01*
X55023800Y-41968000D01*
X55127800Y-41885000D01*
X55232800Y-41819000D01*
X55464800Y-41695000D01*
X55711800Y-41612000D01*
X55802800Y-41583000D01*
X55949800Y-41539000D01*
X56327800Y-41436000D01*
X56880800Y-41315000D01*
X57548800Y-41185000D01*
X58455800Y-41037000D01*
X59165800Y-40940000D01*
X59615800Y-40889000D01*
X59945800Y-40860000D01*
X60479800Y-40803000D01*
X60700800Y-40777000D01*
X60912800Y-40730000D01*
X61092800Y-40684000D01*
X61212800Y-40643000D01*
X61390800Y-40555000D01*
X61522800Y-40457000D01*
X61601800Y-40378000D01*
X61679800Y-40285000D01*
X61746800Y-40179000D01*
X61791800Y-40067000D01*
X61808800Y-39973000D01*
X61810800Y-39884000D01*
X61803800Y-39799000D01*
X61781800Y-39699000D01*
X61748800Y-39612000D01*
X61664800Y-39460000D01*
X61620800Y-39399000D01*
X61569800Y-39332000D01*
X61534800Y-39288000D01*
X61482800Y-39237000D01*
X61397800Y-39146000D01*
X61321800Y-39086000D01*
X61233800Y-39029000D01*
X61102800Y-38942000D01*
X60966800Y-38858000D01*
X60801800Y-38766000D01*
X60693800Y-38711000D01*
X60469800Y-38596000D01*
X60122800Y-38420000D01*
X59859800Y-38285000D01*
X59709800Y-38211000D01*
X59684800Y-38199000D01*
X59666800Y-38198000D01*
X59335800Y-38204000D01*
X58932800Y-38213000D01*
X58568800Y-38229000D01*
X58361800Y-38240000D01*
X58187800Y-38270000D01*
X58109800Y-38282000D01*
X58026800Y-38310000D01*
X57930800Y-38348000D01*
X57870800Y-38382000D01*
X57804800Y-38409000D01*
X57741800Y-38429000D01*
X57649800Y-38437000D01*
X57552800Y-38450000D01*
X57480800Y-38460000D01*
X57449800Y-38477000D01*
X57395800Y-38512000D01*
X57346800Y-38527000D01*
X57303800Y-38534000D01*
X57246800Y-38535000D01*
X57200800Y-38534000D01*
X57139800Y-38513000D01*
X57093800Y-38501000D01*
X57017800Y-38473000D01*
X56924800Y-38448000D01*
X56796800Y-38426000D01*
X56528800Y-38396000D01*
X56390800Y-38389000D01*
X56194800Y-38375000D01*
X55992800Y-38372000D01*
X55798800Y-38380000D01*
X55608800Y-38402000D01*
X55446800Y-38430000D01*
X55286800Y-38474000D01*
X55179800Y-38498000D01*
X55058800Y-38516000D01*
X54926800Y-38527000D01*
X54769800Y-38529000D01*
X54580800Y-38527000D01*
X54498800Y-38518000D01*
X54445800Y-38504000D01*
X54418800Y-38488000D01*
X54400800Y-38467000D01*
X54388800Y-38438000D01*
X54381800Y-38403000D01*
X54376800Y-38358000D01*
X54375800Y-38307000D01*
X54380800Y-38255000D01*
X54389800Y-38206000D01*
X54413800Y-38136000D01*
X54450800Y-38069000D01*
X54508800Y-37989000D01*
X54563800Y-37948000D01*
X54625800Y-37921000D01*
X54764800Y-37879000D01*
X55040800Y-37807000D01*
X55187800Y-37766000D01*
X55272800Y-37712000D01*
X55315800Y-37679000D01*
X55328800Y-37656000D01*
X55306800Y-37620000D01*
X55252800Y-37583000D01*
X55173800Y-37542000D01*
X55045800Y-37468000D01*
X54752800Y-37323000D01*
X54561800Y-37250000D01*
X54523800Y-37235000D01*
X54415800Y-37205000D01*
X54273800Y-37182000D01*
X54064800Y-37167000D01*
X53910800Y-37167000D01*
X53624800Y-37173000D01*
X53479800Y-37193000D01*
X53357800Y-37221000D01*
X53248800Y-37263000D01*
X53130800Y-37313000D01*
X53069800Y-37346000D01*
X53001800Y-37397000D01*
X52946800Y-37449000D01*
X52876800Y-37534000D01*
X52824800Y-37602000D01*
X52774800Y-37710000D01*
X52731800Y-37811000D01*
X52679800Y-37935000D01*
X52645800Y-38007000D01*
X52609800Y-38062000D01*
X52582800Y-38101000D01*
X52565800Y-38122000D01*
X52532800Y-38154000D01*
X52492800Y-38184000D01*
X52380800Y-38255000D01*
X52253800Y-38304000D01*
X52037800Y-38331000D01*
X51834800Y-38365000D01*
X51570800Y-38388000D01*
X51408800Y-38411000D01*
X51375800Y-38424000D01*
X51347800Y-38420000D01*
X51309800Y-38398000D01*
X51271800Y-38350000D01*
X51243800Y-38314000D01*
X51200800Y-38260000D01*
X51157800Y-38186000D01*
X51132800Y-38124000D01*
X51115800Y-38059000D01*
X51116800Y-37991000D01*
X51148800Y-37920000D01*
X51196800Y-37864000D01*
X51247800Y-37834000D01*
X51313800Y-37802000D01*
X51422800Y-37778000D01*
X51583800Y-37747000D01*
X51691800Y-37713000D01*
X51760800Y-37663000D01*
X51803800Y-37620000D01*
X51832800Y-37564000D01*
X51845800Y-37515000D01*
X51848800Y-37470000D01*
X51839800Y-37419000D01*
X51830800Y-37391000D01*
X51813800Y-37373000D01*
X51790800Y-37359000D01*
X51760800Y-37340000D01*
X51685800Y-37312000D01*
X51535800Y-37259000D01*
X51360800Y-37192000D01*
X51291800Y-37163000D01*
X51197800Y-37113000D01*
X51087800Y-37054000D01*
X50787800Y-36875000D01*
X50676800Y-36825000D01*
X50491800Y-36772000D01*
X50333800Y-36761000D01*
X50228800Y-36775000D01*
X50017800Y-36790000D01*
X49574800Y-36831000D01*
X49316800Y-36865000D01*
X49056800Y-36899000D01*
X48820800Y-36931000D01*
X48555800Y-36976000D01*
X48132800Y-37031000D01*
X48002800Y-37053000D01*
X47799800Y-37071000D01*
X47638800Y-37075000D01*
X47526800Y-37065000D01*
X47434800Y-37047000D01*
X47168800Y-36971000D01*
X46965800Y-36911000D01*
X46881800Y-36882000D01*
X46758800Y-36848000D01*
X46621800Y-36824000D01*
X46556800Y-36804000D01*
X46508800Y-36778000D01*
X46476800Y-36745000D01*
X46464800Y-36700000D01*
X46462800Y-36647000D01*
X46495800Y-36564000D01*
X46552800Y-36433000D01*
X46675800Y-36196000D01*
X46813800Y-35965000D01*
X46984800Y-35721000D01*
X47106800Y-35559000D01*
X47333800Y-35299000D01*
X47498800Y-35118000D01*
X47730800Y-34900000D01*
X47973800Y-34704000D01*
X48121800Y-34601000D01*
X48261800Y-34518000D01*
X48361800Y-34458000D01*
X48442800Y-34411000D01*
D11*
X67433000Y-21760400D03*
D12*
X67433000Y-24300400D03*
X67433000Y-26840400D03*
X67433000Y-42080400D03*
X67433000Y-31920400D03*
X67433000Y-29380400D03*
X67433000Y-37000400D03*
X67433000Y-54780400D03*
X67433000Y-49700400D03*
X67433000Y-57320400D03*
X67433000Y-62400400D03*
X67433000Y-64940400D03*
X67433000Y-52240400D03*
X67433000Y-67480400D03*
X67433000Y-39540400D03*
X67433000Y-44620400D03*
X67433000Y-47160400D03*
X67433000Y-59860400D03*
X67433000Y-34460400D03*
D13*
X42040500Y-21768600D03*
D12*
X42040500Y-24308600D03*
X42040500Y-26848600D03*
X42040500Y-42088600D03*
X42040500Y-31928600D03*
X42040500Y-29388600D03*
X42040500Y-37008600D03*
X42040500Y-54788600D03*
X42040500Y-49708600D03*
X42040500Y-57328600D03*
X42040500Y-62408600D03*
X42040500Y-64948600D03*
X42040500Y-52248600D03*
D11*
X42040500Y-67488600D03*
D12*
X42040500Y-39548600D03*
X42040500Y-44628600D03*
X42040500Y-47168600D03*
X42040500Y-59868600D03*
X42040500Y-34468600D03*
D14*
X34925000Y-40640000D03*
D15*
X34925000Y-44450000D03*
X34925000Y-48260000D03*
D14*
X34925000Y-57150000D03*
D15*
X34925000Y-60960000D03*
X34925000Y-64770000D03*
D14*
X34925000Y-24765000D03*
D15*
X34925000Y-28575000D03*
X34925000Y-32385000D03*
D14*
X74295000Y-32385000D03*
D15*
X74295000Y-28575000D03*
X74295000Y-24765000D03*
D14*
X74295000Y-48260000D03*
D15*
X74295000Y-44450000D03*
X74295000Y-40640000D03*
D14*
X74295000Y-64770000D03*
D15*
X74295000Y-60960000D03*
X74295000Y-57150000D03*
D16*
X60960000Y-72390000D03*
D17*
X62960000Y-72390000D03*
X64960000Y-72390000D03*
X66960000Y-72390000D03*
X68960000Y-72390000D03*
D18*
X52070000Y-22215000D03*
X54610000Y-22225000D03*
X57155800Y-22215000D03*
X43853800Y-67470000D03*
X43853800Y-64930000D03*
X43853800Y-62390000D03*
X43853800Y-59850000D03*
X43853800Y-57310000D03*
X43853800Y-54770000D03*
X43853800Y-52230000D03*
X43853800Y-49690000D03*
X43853800Y-47150000D03*
X43853800Y-44610000D03*
X43853800Y-42070000D03*
X43853800Y-39530000D03*
X43853800Y-36990000D03*
X43853800Y-34450000D03*
X43853800Y-31910000D03*
X43853800Y-29370000D03*
X43853800Y-26830000D03*
X43853800Y-24290000D03*
X43853800Y-21750000D03*
X65520000Y-21750000D03*
X65520000Y-24290000D03*
X65520000Y-26830000D03*
X65520000Y-29370000D03*
X65520000Y-31910000D03*
X65520000Y-34450000D03*
X65520000Y-36990000D03*
X65520000Y-39530000D03*
X65520000Y-42070000D03*
X65520000Y-44610000D03*
X65520000Y-47150000D03*
X65520000Y-49690000D03*
X65520000Y-52230000D03*
X65520000Y-54770000D03*
X65520000Y-57310000D03*
X65520000Y-59850000D03*
X65520000Y-62390000D03*
X65520000Y-64930000D03*
X65520000Y-67470000D03*
D16*
X40005000Y-72390000D03*
D17*
X42005000Y-72390000D03*
X44005000Y-72390000D03*
X46005000Y-72390000D03*
X48005000Y-72390000D03*
G04 #@! TA.AperFunction,SMDPad,CuDef*
D19*
G36*
X39010000Y-28575000D02*
G01*
X38510000Y-29325000D01*
X37510000Y-29325000D01*
X37510000Y-27825000D01*
X38510000Y-27825000D01*
X39010000Y-28575000D01*
G37*
G04 #@! TD.AperFunction*
G04 #@! TA.AperFunction,SMDPad,CuDef*
G36*
X39960000Y-29325000D02*
G01*
X38810000Y-29325000D01*
X39310000Y-28575000D01*
X38810000Y-27825000D01*
X39960000Y-27825000D01*
X39960000Y-29325000D01*
G37*
G04 #@! TD.AperFunction*
D20*
X33625000Y-22225000D03*
X34925000Y-22225000D03*
X36225000Y-22225000D03*
X75595000Y-50800000D03*
X74295000Y-50800000D03*
X72995000Y-50800000D03*
X75595000Y-67310000D03*
X74295000Y-67310000D03*
X72995000Y-67310000D03*
X33625000Y-54610000D03*
X34925000Y-54610000D03*
X36225000Y-54610000D03*
X75625000Y-34925000D03*
X74325000Y-34925000D03*
X73025000Y-34925000D03*
X33625000Y-38100000D03*
X34925000Y-38100000D03*
X36225000Y-38100000D03*
G04 #@! TA.AperFunction,SMDPad,CuDef*
D19*
G36*
X70760000Y-60960000D02*
G01*
X70260000Y-61710000D01*
X69260000Y-61710000D01*
X69260000Y-60210000D01*
X70260000Y-60210000D01*
X70760000Y-60960000D01*
G37*
G04 #@! TD.AperFunction*
G04 #@! TA.AperFunction,SMDPad,CuDef*
G36*
X71710000Y-61710000D02*
G01*
X70560000Y-61710000D01*
X71060000Y-60960000D01*
X70560000Y-60210000D01*
X71710000Y-60210000D01*
X71710000Y-61710000D01*
G37*
G04 #@! TD.AperFunction*
G04 #@! TA.AperFunction,SMDPad,CuDef*
G36*
X70760000Y-44450000D02*
G01*
X70260000Y-45200000D01*
X69260000Y-45200000D01*
X69260000Y-43700000D01*
X70260000Y-43700000D01*
X70760000Y-44450000D01*
G37*
G04 #@! TD.AperFunction*
G04 #@! TA.AperFunction,SMDPad,CuDef*
G36*
X71710000Y-45200000D02*
G01*
X70560000Y-45200000D01*
X71060000Y-44450000D01*
X70560000Y-43700000D01*
X71710000Y-43700000D01*
X71710000Y-45200000D01*
G37*
G04 #@! TD.AperFunction*
G04 #@! TA.AperFunction,SMDPad,CuDef*
G36*
X70760000Y-28575000D02*
G01*
X70260000Y-29325000D01*
X69260000Y-29325000D01*
X69260000Y-27825000D01*
X70260000Y-27825000D01*
X70760000Y-28575000D01*
G37*
G04 #@! TD.AperFunction*
G04 #@! TA.AperFunction,SMDPad,CuDef*
G36*
X71710000Y-29325000D02*
G01*
X70560000Y-29325000D01*
X71060000Y-28575000D01*
X70560000Y-27825000D01*
X71710000Y-27825000D01*
X71710000Y-29325000D01*
G37*
G04 #@! TD.AperFunction*
G04 #@! TA.AperFunction,SMDPad,CuDef*
G36*
X39010000Y-60960000D02*
G01*
X38510000Y-61710000D01*
X37510000Y-61710000D01*
X37510000Y-60210000D01*
X38510000Y-60210000D01*
X39010000Y-60960000D01*
G37*
G04 #@! TD.AperFunction*
G04 #@! TA.AperFunction,SMDPad,CuDef*
G36*
X39960000Y-61710000D02*
G01*
X38810000Y-61710000D01*
X39310000Y-60960000D01*
X38810000Y-60210000D01*
X39960000Y-60210000D01*
X39960000Y-61710000D01*
G37*
G04 #@! TD.AperFunction*
G04 #@! TA.AperFunction,SMDPad,CuDef*
G36*
X39010000Y-44450000D02*
G01*
X38510000Y-45200000D01*
X37510000Y-45200000D01*
X37510000Y-43700000D01*
X38510000Y-43700000D01*
X39010000Y-44450000D01*
G37*
G04 #@! TD.AperFunction*
G04 #@! TA.AperFunction,SMDPad,CuDef*
G36*
X39960000Y-45200000D02*
G01*
X38810000Y-45200000D01*
X39310000Y-44450000D01*
X38810000Y-43700000D01*
X39960000Y-43700000D01*
X39960000Y-45200000D01*
G37*
G04 #@! TD.AperFunction*
D21*
X48933800Y-35023000D03*
D22*
X75565000Y-74295000D03*
D23*
X77965000Y-74295000D03*
X77262056Y-75992056D03*
X75565000Y-76695000D03*
X73867944Y-75992056D03*
X73165000Y-74295000D03*
X73867944Y-72597944D03*
X75565000Y-71895000D03*
X77262056Y-72597944D03*
D22*
X33655000Y-74295000D03*
D23*
X36055000Y-74295000D03*
X35352056Y-75992056D03*
X33655000Y-76695000D03*
X31957944Y-75992056D03*
X31255000Y-74295000D03*
X31957944Y-72597944D03*
X33655000Y-71895000D03*
X35352056Y-72597944D03*
D22*
X75565000Y-15240000D03*
D23*
X77965000Y-15240000D03*
X77262056Y-16937056D03*
X75565000Y-17640000D03*
X73867944Y-16937056D03*
X73165000Y-15240000D03*
X73867944Y-13542944D03*
X75565000Y-12840000D03*
X77262056Y-13542944D03*
D22*
X33655000Y-15240000D03*
D23*
X36055000Y-15240000D03*
X35352056Y-16937056D03*
X33655000Y-17640000D03*
X31957944Y-16937056D03*
X31255000Y-15240000D03*
X31957944Y-13542944D03*
X33655000Y-12840000D03*
X35352056Y-13542944D03*
D24*
X73660000Y-55245000D03*
X74930000Y-55245000D03*
X76200000Y-55245000D03*
X72390000Y-55245000D03*
X72390000Y-38735000D03*
X73660000Y-38735000D03*
X74930000Y-38735000D03*
X76200000Y-38735000D03*
X46990000Y-47625000D03*
X46990000Y-31750000D03*
X62230000Y-31750000D03*
X62230000Y-24130000D03*
X46990000Y-24130000D03*
X62230000Y-63500000D03*
X62230000Y-66675000D03*
X33020000Y-66675000D03*
X34290000Y-66675000D03*
X35560000Y-66675000D03*
X36830000Y-66675000D03*
X33020000Y-50165000D03*
X34290000Y-50165000D03*
X35560000Y-50165000D03*
X36830000Y-50165000D03*
X72390000Y-22860000D03*
X73660000Y-22860000D03*
X74930000Y-22860000D03*
X76200000Y-22860000D03*
X59690000Y-63500000D03*
X69215000Y-20320000D03*
X69215000Y-24130000D03*
X33020000Y-34290000D03*
X34290000Y-34290000D03*
X35560000Y-34290000D03*
X36830000Y-34290000D03*
X57155800Y-66665000D03*
X59695800Y-69840000D03*
X62235800Y-69840000D03*
X57155800Y-69840000D03*
X54615800Y-69840000D03*
X52075800Y-69840000D03*
X46995800Y-57140000D03*
X46995800Y-50790000D03*
X46995800Y-53965000D03*
X54615800Y-60315000D03*
X59695800Y-66665000D03*
X49530000Y-50800000D03*
X49530000Y-47625000D03*
X69215000Y-31750000D03*
X59690000Y-50800000D03*
X59690000Y-47625000D03*
D25*
X71755022Y-18415000D03*
D24*
X55880000Y-64135000D03*
X53340000Y-66675000D03*
D26*
X38100000Y-36830000D03*
X38100000Y-53340000D03*
X70485000Y-36195000D03*
X70485000Y-52070000D03*
X70485000Y-67945000D03*
D25*
X57150000Y-22225000D03*
D24*
X62865000Y-54610000D03*
X57785000Y-19685000D03*
X62357000Y-20955000D03*
D25*
X54610000Y-22225004D03*
D24*
X39370000Y-59689988D03*
X60960000Y-46990000D03*
X60960000Y-44450000D03*
X62230000Y-46990000D03*
X62230000Y-43815000D03*
D25*
X52070000Y-22225000D03*
D24*
X50165000Y-44450000D03*
X62230000Y-41275000D03*
X53340000Y-44450000D03*
X62865000Y-52070000D03*
X62865000Y-22860000D03*
X50800000Y-18415000D03*
D27*
X67422600Y-36990000D02*
X67433000Y-37000400D01*
X65520000Y-36990000D02*
X67422600Y-36990000D01*
X67422600Y-21750000D02*
X67433000Y-21760400D01*
X65520000Y-21750000D02*
X67422600Y-21750000D01*
X42059100Y-54770000D02*
X42040500Y-54788600D01*
X43853800Y-54770000D02*
X42059100Y-54770000D01*
X31115000Y-33655000D02*
X31115000Y-36830000D01*
X31115000Y-33655000D02*
X31115000Y-38735000D01*
X31115000Y-52070000D02*
X31115000Y-53340000D01*
X31115000Y-38735000D02*
X31115000Y-52070000D01*
X33020000Y-69215000D02*
X31115000Y-67310000D01*
X31115000Y-55245000D02*
X31115000Y-52070000D01*
X31115000Y-67310000D02*
X31115000Y-55245000D01*
D28*
X31750000Y-54610000D02*
X31115000Y-55245000D01*
X33625000Y-54610000D02*
X31750000Y-54610000D01*
X31750000Y-38100000D02*
X31115000Y-38735000D01*
X33625000Y-38100000D02*
X31750000Y-38100000D01*
D27*
X31115000Y-23524998D02*
X31115000Y-33655000D01*
D28*
X32414998Y-22225000D02*
X31115000Y-23524998D01*
X33625000Y-22225000D02*
X32414998Y-22225000D01*
X76835000Y-50800000D02*
X78105000Y-49530000D01*
X75595000Y-50800000D02*
X76835000Y-50800000D01*
D27*
X78105000Y-49530000D02*
X78105000Y-65405000D01*
D28*
X76835000Y-34925000D02*
X78105000Y-33655000D01*
X75625000Y-34925000D02*
X76835000Y-34925000D01*
D27*
X78105000Y-33655000D02*
X78105000Y-49530000D01*
D28*
X76200000Y-67310000D02*
X78105000Y-65405000D01*
X75595000Y-67310000D02*
X76200000Y-67310000D01*
D27*
X41910000Y-67619100D02*
X42040500Y-67488600D01*
X40005000Y-69524100D02*
X40005000Y-72390000D01*
X40314100Y-69215000D02*
X40842050Y-68687050D01*
X33020000Y-69215000D02*
X40314100Y-69215000D01*
X40842050Y-68687050D02*
X40005000Y-69524100D01*
X42040500Y-67488600D02*
X40842050Y-68687050D01*
X43835200Y-67488600D02*
X43853800Y-67470000D01*
X42040500Y-67488600D02*
X43835200Y-67488600D01*
X78105000Y-33655000D02*
X78105000Y-22225000D01*
X78105000Y-22225000D02*
X75629999Y-19749999D01*
X75629999Y-19749999D02*
X73090021Y-19749999D01*
X73090021Y-19749999D02*
X71755022Y-18415000D01*
X31115000Y-22225000D02*
X33625002Y-19714998D01*
X36165002Y-19714998D02*
X38799973Y-17080027D01*
X31115000Y-23524998D02*
X31115000Y-22225000D01*
X33625002Y-19714998D02*
X36165002Y-19714998D01*
X38799973Y-17080027D02*
X70420049Y-17080027D01*
X70420049Y-17080027D02*
X71755022Y-18415000D01*
X67422600Y-34450000D02*
X67433000Y-34460400D01*
X65520000Y-34450000D02*
X67422600Y-34450000D01*
D29*
X55244980Y-64770020D02*
X55880000Y-64135000D01*
X53340000Y-66675000D02*
X55244980Y-64770020D01*
D27*
X67422600Y-26830000D02*
X67433000Y-26840400D01*
X65520000Y-26830000D02*
X67422600Y-26830000D01*
D28*
X36830000Y-38100000D02*
X38100000Y-36830000D01*
X36225000Y-38100000D02*
X36830000Y-38100000D01*
X36830000Y-54610000D02*
X38100000Y-53340000D01*
X36225000Y-54610000D02*
X36830000Y-54610000D01*
X71755000Y-34925000D02*
X70485000Y-36195000D01*
X73025000Y-34925000D02*
X71755000Y-34925000D01*
X71755000Y-50800000D02*
X70485000Y-52070000D01*
X72995000Y-50800000D02*
X71755000Y-50800000D01*
X41584100Y-22225000D02*
X42040500Y-21768600D01*
X36225000Y-22225000D02*
X41584100Y-22225000D01*
X72995000Y-67310000D02*
X72995000Y-67340000D01*
X71120000Y-67310000D02*
X70485000Y-67945000D01*
X72995000Y-67310000D02*
X71120000Y-67310000D01*
D27*
X42059100Y-21750000D02*
X42040500Y-21768600D01*
X43853800Y-21750000D02*
X42059100Y-21750000D01*
D30*
X57150000Y-22220800D02*
X57150000Y-22225000D01*
X57155800Y-22215000D02*
X57150000Y-22220800D01*
D27*
X42059100Y-36990000D02*
X42040500Y-37008600D01*
X43853800Y-36990000D02*
X42059100Y-36990000D01*
D29*
X44036000Y-36990000D02*
X43853800Y-36990000D01*
X69600000Y-61120000D02*
X64295000Y-61120000D01*
X69760000Y-60960000D02*
X69600000Y-61120000D01*
X64295000Y-61120000D02*
X62865000Y-59690000D01*
X62865000Y-59690000D02*
X62865000Y-54610000D01*
X43853800Y-36990000D02*
X44925000Y-36990000D01*
X44925000Y-36990000D02*
X45720000Y-36195000D01*
X45720000Y-36195000D02*
X45720000Y-21590000D01*
X47625000Y-19685000D02*
X57785000Y-19685000D01*
X45720000Y-21590000D02*
X47625000Y-19685000D01*
X62357000Y-20955000D02*
X61087000Y-19685000D01*
X61087000Y-19685000D02*
X57785000Y-19685000D01*
D30*
X54610000Y-22225000D02*
X54610000Y-22225004D01*
D28*
X34925000Y-38100000D02*
X34925000Y-40640000D01*
D27*
X34925000Y-60960000D02*
X38010000Y-60960000D01*
D28*
X34925000Y-24765000D02*
X34925000Y-22225000D01*
D27*
X42059100Y-39530000D02*
X42040500Y-39548600D01*
X43853800Y-39530000D02*
X42059100Y-39530000D01*
D29*
X69760000Y-44450000D02*
X68224601Y-45985399D01*
X68224601Y-45985399D02*
X52843399Y-45985399D01*
X52843399Y-45985399D02*
X46355000Y-39497000D01*
X46355000Y-39497000D02*
X42092100Y-39497000D01*
X42092100Y-39497000D02*
X42040500Y-39548600D01*
D30*
X74325000Y-32415000D02*
X74295000Y-32385000D01*
D28*
X74325000Y-34925000D02*
X74325000Y-32415000D01*
D29*
X39370000Y-60325000D02*
X39460000Y-60960000D01*
X39370000Y-59689988D02*
X39370000Y-60325000D01*
D27*
X42059100Y-42070000D02*
X42040500Y-42088600D01*
X43853800Y-42070000D02*
X42059100Y-42070000D01*
D28*
X74295000Y-50800000D02*
X74295000Y-48260000D01*
D27*
X67422600Y-29370000D02*
X67433000Y-29380400D01*
X65520000Y-29370000D02*
X67422600Y-29370000D01*
D29*
X62960801Y-72389199D02*
X62960000Y-72390000D01*
X63684990Y-70935010D02*
X63684990Y-62416400D01*
X62960000Y-71660000D02*
X63684990Y-70935010D01*
X62960000Y-72390000D02*
X62960000Y-71660000D01*
X60960000Y-59691410D02*
X60960000Y-46990000D01*
X63684990Y-62416400D02*
X60960000Y-59691410D01*
X63684990Y-31205010D02*
X63684990Y-41159325D01*
X65520000Y-29370000D02*
X63684990Y-31205010D01*
X63684990Y-41159325D02*
X60960000Y-43884315D01*
X60960000Y-43884315D02*
X60960000Y-44450000D01*
D27*
X67422600Y-31910000D02*
X67433000Y-31920400D01*
X65520000Y-31910000D02*
X67422600Y-31910000D01*
D29*
X64135000Y-71120000D02*
X64135000Y-62230000D01*
X64960000Y-71945000D02*
X64135000Y-71120000D01*
X64960000Y-72390000D02*
X64960000Y-71945000D01*
X62139999Y-60234999D02*
X62139999Y-47080001D01*
X62139999Y-47080001D02*
X62230000Y-46990000D01*
X64135000Y-62230000D02*
X62139999Y-60234999D01*
X65520000Y-31910000D02*
X64135000Y-33295000D01*
X64135000Y-41910000D02*
X62230000Y-43815000D01*
X64135000Y-33295000D02*
X64135000Y-41910000D01*
X66504600Y-54780400D02*
X67433000Y-54780400D01*
D27*
X65530400Y-54780400D02*
X65520000Y-54770000D01*
X67433000Y-54780400D02*
X65530400Y-54780400D01*
X65530400Y-24300400D02*
X65520000Y-24290000D01*
X67433000Y-24300400D02*
X65530400Y-24300400D01*
X67422600Y-42070000D02*
X67433000Y-42080400D01*
X65520000Y-42070000D02*
X67422600Y-42070000D01*
X65530400Y-49700400D02*
X65520000Y-49690000D01*
X67433000Y-49700400D02*
X65530400Y-49700400D01*
X65530400Y-57320400D02*
X65520000Y-57310000D01*
X67433000Y-57320400D02*
X65530400Y-57320400D01*
X67422600Y-62390000D02*
X67433000Y-62400400D01*
X65520000Y-62390000D02*
X67422600Y-62390000D01*
X67422600Y-64930000D02*
X67433000Y-64940400D01*
X65520000Y-64930000D02*
X67422600Y-64930000D01*
X67422600Y-67470000D02*
X67433000Y-67480400D01*
X65520000Y-67470000D02*
X67422600Y-67470000D01*
X67422600Y-39530000D02*
X67433000Y-39540400D01*
X65520000Y-39530000D02*
X67422600Y-39530000D01*
X65530400Y-47160400D02*
X65520000Y-47150000D01*
X67433000Y-47160400D02*
X65530400Y-47160400D01*
X42059100Y-24290000D02*
X42040500Y-24308600D01*
X43853800Y-24290000D02*
X42059100Y-24290000D01*
X42059100Y-26830000D02*
X42040500Y-26848600D01*
X43853800Y-26830000D02*
X42059100Y-26830000D01*
X42059100Y-31910000D02*
X42040500Y-31928600D01*
X43853800Y-31910000D02*
X42059100Y-31910000D01*
X42059100Y-29370000D02*
X42040500Y-29388600D01*
X43853800Y-29370000D02*
X42059100Y-29370000D01*
X43835200Y-49708600D02*
X43853800Y-49690000D01*
X42040500Y-49708600D02*
X43835200Y-49708600D01*
X42059100Y-57310000D02*
X42040500Y-57328600D01*
X43853800Y-57310000D02*
X42059100Y-57310000D01*
X43835200Y-62408600D02*
X43853800Y-62390000D01*
X42040500Y-62408600D02*
X43835200Y-62408600D01*
X43835200Y-64948600D02*
X43853800Y-64930000D01*
X42040500Y-64948600D02*
X43835200Y-64948600D01*
X42059100Y-52230000D02*
X42040500Y-52248600D01*
X43853800Y-52230000D02*
X42059100Y-52230000D01*
X42059100Y-44610000D02*
X42040500Y-44628600D01*
X43853800Y-44610000D02*
X42059100Y-44610000D01*
X43835200Y-47168600D02*
X43853800Y-47150000D01*
X42040500Y-47168600D02*
X43835200Y-47168600D01*
X43835200Y-59868600D02*
X43853800Y-59850000D01*
X42040500Y-59868600D02*
X43835200Y-59868600D01*
X42059100Y-34450000D02*
X42040500Y-34468600D01*
X43853800Y-34450000D02*
X42059100Y-34450000D01*
X34925000Y-44450000D02*
X38010000Y-44450000D01*
X34925000Y-28575000D02*
X38010000Y-28575000D01*
X74295000Y-28575000D02*
X71755000Y-28575000D01*
X74295000Y-44450000D02*
X71660010Y-44450000D01*
D28*
X34925000Y-54610000D02*
X34925000Y-57150000D01*
X74295000Y-67310000D02*
X74295000Y-64770000D01*
D27*
X74295000Y-60960000D02*
X71660010Y-60960000D01*
D30*
X52070000Y-22215000D02*
X52070000Y-22225000D01*
D29*
X69760000Y-28575000D02*
X69760000Y-27428398D01*
X69760000Y-27428398D02*
X67997001Y-25665399D01*
X67997001Y-25665399D02*
X64599599Y-25665399D01*
X64599599Y-25665399D02*
X63234980Y-27030018D01*
X63234980Y-27030018D02*
X63234980Y-40270020D01*
X63234980Y-40270020D02*
X62230000Y-41275000D01*
X59055000Y-44450000D02*
X53340000Y-44450000D01*
X62230000Y-41275000D02*
X59055000Y-44450000D01*
X44013800Y-44450000D02*
X43853800Y-44610000D01*
X50165000Y-44450000D02*
X44013800Y-44450000D01*
D27*
X67422600Y-44610000D02*
X67433000Y-44620400D01*
X65520000Y-44610000D02*
X67422600Y-44610000D01*
D29*
X62832000Y-44610000D02*
X65520000Y-44610000D01*
X61906611Y-45535389D02*
X62832000Y-44610000D01*
X53029799Y-45535389D02*
X61906611Y-45535389D01*
X45769410Y-38275000D02*
X53029799Y-45535389D01*
X40815000Y-38275000D02*
X45769410Y-38275000D01*
X39460000Y-36920000D02*
X40815000Y-38275000D01*
X39460000Y-28575000D02*
X39460000Y-36920000D01*
D27*
X65530400Y-52240400D02*
X65520000Y-52230000D01*
X67433000Y-52240400D02*
X65530400Y-52240400D01*
D29*
X63025000Y-52230000D02*
X62865000Y-52070000D01*
X65520000Y-52230000D02*
X63025000Y-52230000D01*
X62865000Y-22860000D02*
X63500000Y-22225000D01*
X63500000Y-22225000D02*
X63500000Y-20955000D01*
X63500000Y-20955000D02*
X60960000Y-18415000D01*
X60960000Y-18415000D02*
X50800000Y-18415000D01*
D27*
X65530400Y-59860400D02*
X65520000Y-59850000D01*
X67433000Y-59860400D02*
X65530400Y-59860400D01*
D31*
X70857405Y-19405358D02*
X70857410Y-19405362D01*
X72099659Y-20647612D01*
X72141466Y-20698554D01*
X72344746Y-20865381D01*
X72576667Y-20989346D01*
X72828315Y-21065682D01*
X73024442Y-21084999D01*
X73090021Y-21091458D01*
X73155600Y-21084999D01*
X75077025Y-21084999D01*
X76770001Y-22777976D01*
X76770000Y-33384868D01*
X76710111Y-33444757D01*
X76720812Y-33409482D01*
X76733072Y-33285000D01*
X76733072Y-31485000D01*
X76720812Y-31360518D01*
X76684502Y-31240820D01*
X76625537Y-31130506D01*
X76546185Y-31033815D01*
X76449494Y-30954463D01*
X76339180Y-30895498D01*
X76219482Y-30859188D01*
X76095000Y-30846928D01*
X72495000Y-30846928D01*
X72370518Y-30859188D01*
X72250820Y-30895498D01*
X72140506Y-30954463D01*
X72043815Y-31033815D01*
X71964463Y-31130506D01*
X71905498Y-31240820D01*
X71869188Y-31360518D01*
X71856928Y-31485000D01*
X71856928Y-33285000D01*
X71869188Y-33409482D01*
X71905498Y-33529180D01*
X71964463Y-33639494D01*
X72043815Y-33736185D01*
X72055675Y-33745918D01*
X72019499Y-33790000D01*
X71810743Y-33790000D01*
X71754999Y-33784510D01*
X71699255Y-33790000D01*
X71699248Y-33790000D01*
X71557854Y-33803926D01*
X71532500Y-33806423D01*
X71492633Y-33818517D01*
X71318553Y-33871324D01*
X71121377Y-33976716D01*
X70948551Y-34118551D01*
X70913011Y-34161857D01*
X70180442Y-34894427D01*
X70095595Y-34911304D01*
X69852641Y-35011939D01*
X69633987Y-35158038D01*
X69448038Y-35343987D01*
X69301939Y-35562641D01*
X69201304Y-35805595D01*
X69150000Y-36063514D01*
X69150000Y-36326486D01*
X69201304Y-36584405D01*
X69301939Y-36827359D01*
X69448038Y-37046013D01*
X69633987Y-37231962D01*
X69852641Y-37378061D01*
X70095595Y-37478696D01*
X70353514Y-37530000D01*
X70616486Y-37530000D01*
X70874405Y-37478696D01*
X71117359Y-37378061D01*
X71336013Y-37231962D01*
X71521962Y-37046013D01*
X71668061Y-36827359D01*
X71768696Y-36584405D01*
X71785573Y-36499558D01*
X72120573Y-36164558D01*
X72170506Y-36205537D01*
X72280820Y-36264502D01*
X72400518Y-36300812D01*
X72525000Y-36313072D01*
X73525000Y-36313072D01*
X73649482Y-36300812D01*
X73675000Y-36293071D01*
X73700518Y-36300812D01*
X73825000Y-36313072D01*
X74825000Y-36313072D01*
X74949482Y-36300812D01*
X74975000Y-36293071D01*
X75000518Y-36300812D01*
X75125000Y-36313072D01*
X76125000Y-36313072D01*
X76249482Y-36300812D01*
X76369180Y-36264502D01*
X76479494Y-36205537D01*
X76576185Y-36126185D01*
X76630501Y-36060000D01*
X76770000Y-36060000D01*
X76770001Y-49259867D01*
X76710111Y-49319757D01*
X76720812Y-49284482D01*
X76733072Y-49160000D01*
X76733072Y-47360000D01*
X76720812Y-47235518D01*
X76684502Y-47115820D01*
X76625537Y-47005506D01*
X76546185Y-46908815D01*
X76449494Y-46829463D01*
X76339180Y-46770498D01*
X76219482Y-46734188D01*
X76095000Y-46721928D01*
X72495000Y-46721928D01*
X72370518Y-46734188D01*
X72250820Y-46770498D01*
X72140506Y-46829463D01*
X72043815Y-46908815D01*
X71964463Y-47005506D01*
X71905498Y-47115820D01*
X71869188Y-47235518D01*
X71856928Y-47360000D01*
X71856928Y-49160000D01*
X71869188Y-49284482D01*
X71905498Y-49404180D01*
X71964463Y-49514494D01*
X72038739Y-49605000D01*
X71989499Y-49665000D01*
X71810743Y-49665000D01*
X71754999Y-49659510D01*
X71699255Y-49665000D01*
X71699248Y-49665000D01*
X71553493Y-49679356D01*
X71532500Y-49681423D01*
X71504223Y-49690001D01*
X71318553Y-49746324D01*
X71121377Y-49851716D01*
X70948551Y-49993551D01*
X70913011Y-50036857D01*
X70180442Y-50769427D01*
X70095595Y-50786304D01*
X69852641Y-50886939D01*
X69633987Y-51033038D01*
X69448038Y-51218987D01*
X69301939Y-51437641D01*
X69201304Y-51680595D01*
X69150000Y-51938514D01*
X69150000Y-52201486D01*
X69201304Y-52459405D01*
X69301939Y-52702359D01*
X69448038Y-52921013D01*
X69633987Y-53106962D01*
X69852641Y-53253061D01*
X70095595Y-53353696D01*
X70353514Y-53405000D01*
X70616486Y-53405000D01*
X70874405Y-53353696D01*
X71117359Y-53253061D01*
X71336013Y-53106962D01*
X71521962Y-52921013D01*
X71668061Y-52702359D01*
X71768696Y-52459405D01*
X71785573Y-52374558D01*
X72107051Y-52053081D01*
X72140506Y-52080537D01*
X72250820Y-52139502D01*
X72370518Y-52175812D01*
X72495000Y-52188072D01*
X73495000Y-52188072D01*
X73619482Y-52175812D01*
X73645000Y-52168071D01*
X73670518Y-52175812D01*
X73795000Y-52188072D01*
X74795000Y-52188072D01*
X74919482Y-52175812D01*
X74945000Y-52168071D01*
X74970518Y-52175812D01*
X75095000Y-52188072D01*
X76095000Y-52188072D01*
X76219482Y-52175812D01*
X76339180Y-52139502D01*
X76449494Y-52080537D01*
X76546185Y-52001185D01*
X76600501Y-51935000D01*
X76770000Y-51935000D01*
X76770001Y-65134867D01*
X76733072Y-65171796D01*
X76733072Y-63870000D01*
X76720812Y-63745518D01*
X76684502Y-63625820D01*
X76625537Y-63515506D01*
X76546185Y-63418815D01*
X76449494Y-63339463D01*
X76339180Y-63280498D01*
X76219482Y-63244188D01*
X76095000Y-63231928D01*
X72495000Y-63231928D01*
X72370518Y-63244188D01*
X72250820Y-63280498D01*
X72140506Y-63339463D01*
X72043815Y-63418815D01*
X71964463Y-63515506D01*
X71905498Y-63625820D01*
X71869188Y-63745518D01*
X71856928Y-63870000D01*
X71856928Y-65670000D01*
X71869188Y-65794482D01*
X71905498Y-65914180D01*
X71964463Y-66024494D01*
X72038739Y-66115000D01*
X71989499Y-66175000D01*
X71175752Y-66175000D01*
X71120000Y-66169509D01*
X71064248Y-66175000D01*
X70897501Y-66191423D01*
X70683553Y-66256324D01*
X70486377Y-66361716D01*
X70313551Y-66503551D01*
X70278011Y-66546857D01*
X70180442Y-66644427D01*
X70095595Y-66661304D01*
X69852641Y-66761939D01*
X69633987Y-66908038D01*
X69448038Y-67093987D01*
X69301939Y-67312641D01*
X69201304Y-67555595D01*
X69150000Y-67813514D01*
X69150000Y-68076486D01*
X69201304Y-68334405D01*
X69301939Y-68577359D01*
X69448038Y-68796013D01*
X69633987Y-68981962D01*
X69852641Y-69128061D01*
X70095595Y-69228696D01*
X70353514Y-69280000D01*
X70616486Y-69280000D01*
X70874405Y-69228696D01*
X71117359Y-69128061D01*
X71336013Y-68981962D01*
X71521962Y-68796013D01*
X71668061Y-68577359D01*
X71722886Y-68445000D01*
X71989499Y-68445000D01*
X72043815Y-68511185D01*
X72140506Y-68590537D01*
X72250820Y-68649502D01*
X72370518Y-68685812D01*
X72495000Y-68698072D01*
X73495000Y-68698072D01*
X73619482Y-68685812D01*
X73645000Y-68678071D01*
X73670518Y-68685812D01*
X73795000Y-68698072D01*
X74795000Y-68698072D01*
X74919482Y-68685812D01*
X74945000Y-68678071D01*
X74970518Y-68685812D01*
X75095000Y-68698072D01*
X76095000Y-68698072D01*
X76219482Y-68685812D01*
X76339180Y-68649502D01*
X76449494Y-68590537D01*
X76546185Y-68511185D01*
X76625537Y-68414494D01*
X76659201Y-68351514D01*
X76833623Y-68258284D01*
X77006449Y-68116449D01*
X77041996Y-68073135D01*
X78406529Y-66708603D01*
X78618354Y-66644347D01*
X78850275Y-66520382D01*
X79053555Y-66353555D01*
X79220382Y-66150275D01*
X79344347Y-65918354D01*
X79350000Y-65899718D01*
X79350000Y-73399272D01*
X79324486Y-73483777D01*
X79134452Y-72842792D01*
X78782555Y-72174330D01*
X78755548Y-72133912D01*
X78265881Y-71773724D01*
X75744605Y-74295000D01*
X75758748Y-74309143D01*
X75579143Y-74488748D01*
X75565000Y-74474605D01*
X73043724Y-76995881D01*
X73403912Y-77485548D01*
X74067882Y-77845849D01*
X74744048Y-78055628D01*
X74675225Y-78080000D01*
X34550728Y-78080000D01*
X34466223Y-78054486D01*
X35107208Y-77864452D01*
X35775670Y-77512555D01*
X35816088Y-77485548D01*
X36176276Y-76995881D01*
X33655000Y-74474605D01*
X33640858Y-74488748D01*
X33461253Y-74309143D01*
X33475395Y-74295000D01*
X33834605Y-74295000D01*
X36355881Y-76816276D01*
X36845548Y-76456088D01*
X37205849Y-75792118D01*
X37429694Y-75070615D01*
X37508480Y-74319305D01*
X37504002Y-74270695D01*
X71711520Y-74270695D01*
X71780822Y-75022938D01*
X71995548Y-75747208D01*
X72347445Y-76415670D01*
X72374452Y-76456088D01*
X72864119Y-76816276D01*
X75385395Y-74295000D01*
X72864119Y-71773724D01*
X72374452Y-72133912D01*
X72014151Y-72797882D01*
X71790306Y-73519385D01*
X71711520Y-74270695D01*
X37504002Y-74270695D01*
X37439178Y-73567062D01*
X37224452Y-72842792D01*
X36872555Y-72174330D01*
X36845548Y-72133912D01*
X36355881Y-71773724D01*
X33834605Y-74295000D01*
X33475395Y-74295000D01*
X30954119Y-71773724D01*
X30464452Y-72133912D01*
X30104151Y-72797882D01*
X29894372Y-73474048D01*
X29870000Y-73405225D01*
X29870000Y-67804717D01*
X29875653Y-67823353D01*
X29999618Y-68055274D01*
X30166445Y-68258555D01*
X30217391Y-68300365D01*
X32029643Y-70112619D01*
X32071445Y-70163555D01*
X32122381Y-70205357D01*
X32122383Y-70205359D01*
X32200386Y-70269374D01*
X32274725Y-70330382D01*
X32506646Y-70454347D01*
X32758294Y-70530683D01*
X32834691Y-70538207D01*
X32202792Y-70725548D01*
X31534330Y-71077445D01*
X31493912Y-71104452D01*
X31133724Y-71594119D01*
X33655000Y-74115395D01*
X36176276Y-71594119D01*
X35816088Y-71104452D01*
X35152118Y-70744151D01*
X34526325Y-70550000D01*
X38670000Y-70550000D01*
X38670001Y-72455579D01*
X38689318Y-72651706D01*
X38765654Y-72903354D01*
X38766928Y-72905737D01*
X38766928Y-73240000D01*
X38779188Y-73364482D01*
X38815498Y-73484180D01*
X38874463Y-73594494D01*
X38953815Y-73691185D01*
X39050506Y-73770537D01*
X39160820Y-73829502D01*
X39280518Y-73865812D01*
X39405000Y-73878072D01*
X40605000Y-73878072D01*
X40729482Y-73865812D01*
X40849180Y-73829502D01*
X40959494Y-73770537D01*
X41056185Y-73691185D01*
X41135537Y-73594494D01*
X41157962Y-73552540D01*
X41175872Y-73571938D01*
X41373616Y-73715786D01*
X41595623Y-73818292D01*
X41687391Y-73833462D01*
X41878000Y-73708731D01*
X41878000Y-72517000D01*
X41858000Y-72517000D01*
X41858000Y-72263000D01*
X41878000Y-72263000D01*
X41878000Y-71071269D01*
X42132000Y-71071269D01*
X42132000Y-72263000D01*
X42152000Y-72263000D01*
X42152000Y-72517000D01*
X42132000Y-72517000D01*
X42132000Y-73708731D01*
X42322609Y-73833462D01*
X42414377Y-73818292D01*
X42636384Y-73715786D01*
X42834128Y-73571938D01*
X43000009Y-73392276D01*
X43010568Y-73375022D01*
X43127499Y-73517502D01*
X43315552Y-73671833D01*
X43530100Y-73786511D01*
X43762899Y-73857130D01*
X44005000Y-73880975D01*
X44247102Y-73857130D01*
X44479901Y-73786511D01*
X44694449Y-73671833D01*
X44882502Y-73517502D01*
X45005001Y-73368237D01*
X45127499Y-73517502D01*
X45315552Y-73671833D01*
X45530100Y-73786511D01*
X45762899Y-73857130D01*
X46005000Y-73880975D01*
X46247102Y-73857130D01*
X46479901Y-73786511D01*
X46694449Y-73671833D01*
X46882502Y-73517502D01*
X47005001Y-73368237D01*
X47127499Y-73517502D01*
X47315552Y-73671833D01*
X47530100Y-73786511D01*
X47762899Y-73857130D01*
X48005000Y-73880975D01*
X48247102Y-73857130D01*
X48479901Y-73786511D01*
X48694449Y-73671833D01*
X48882502Y-73517502D01*
X49036833Y-73329449D01*
X49151511Y-73114900D01*
X49222130Y-72882101D01*
X49240000Y-72700664D01*
X49240000Y-72079335D01*
X49222130Y-71897898D01*
X49151511Y-71665099D01*
X49036833Y-71450551D01*
X48882502Y-71262498D01*
X48694448Y-71108167D01*
X48479900Y-70993489D01*
X48247101Y-70922870D01*
X48005000Y-70899025D01*
X47762898Y-70922870D01*
X47530099Y-70993489D01*
X47315551Y-71108167D01*
X47127498Y-71262498D01*
X47005000Y-71411763D01*
X46882502Y-71262498D01*
X46694448Y-71108167D01*
X46479900Y-70993489D01*
X46247101Y-70922870D01*
X46005000Y-70899025D01*
X45762898Y-70922870D01*
X45530099Y-70993489D01*
X45315551Y-71108167D01*
X45127498Y-71262498D01*
X45005000Y-71411763D01*
X44882502Y-71262498D01*
X44694448Y-71108167D01*
X44479900Y-70993489D01*
X44247101Y-70922870D01*
X44005000Y-70899025D01*
X43762898Y-70922870D01*
X43530099Y-70993489D01*
X43315551Y-71108167D01*
X43127498Y-71262498D01*
X43010568Y-71404978D01*
X43000009Y-71387724D01*
X42834128Y-71208062D01*
X42636384Y-71064214D01*
X42414377Y-70961708D01*
X42322609Y-70946538D01*
X42132000Y-71071269D01*
X41878000Y-71071269D01*
X41687391Y-70946538D01*
X41595623Y-70961708D01*
X41373616Y-71064214D01*
X41340000Y-71088668D01*
X41340000Y-70077074D01*
X41832408Y-69584666D01*
X42440403Y-68976672D01*
X42890500Y-68976672D01*
X43014982Y-68964412D01*
X43134680Y-68928102D01*
X43244994Y-68869137D01*
X43258477Y-68858072D01*
X44603800Y-68858072D01*
X44728282Y-68845812D01*
X44847980Y-68809502D01*
X44958294Y-68750537D01*
X45054985Y-68671185D01*
X45134337Y-68574494D01*
X45193302Y-68464180D01*
X45229612Y-68344482D01*
X45241872Y-68220000D01*
X45241872Y-66720000D01*
X45229612Y-66595518D01*
X45222800Y-66573061D01*
X52305000Y-66573061D01*
X52305000Y-66776939D01*
X52344774Y-66976898D01*
X52422795Y-67165256D01*
X52536063Y-67334774D01*
X52680226Y-67478937D01*
X52849744Y-67592205D01*
X53038102Y-67670226D01*
X53238061Y-67710000D01*
X53441939Y-67710000D01*
X53641898Y-67670226D01*
X53830256Y-67592205D01*
X53999774Y-67478937D01*
X54143937Y-67334774D01*
X54257205Y-67165256D01*
X54335226Y-66976898D01*
X54375000Y-66776939D01*
X54375000Y-66714801D01*
X55808779Y-65281023D01*
X55808783Y-65281018D01*
X55919801Y-65170000D01*
X55981939Y-65170000D01*
X56181898Y-65130226D01*
X56370256Y-65052205D01*
X56539774Y-64938937D01*
X56683937Y-64794774D01*
X56797205Y-64625256D01*
X56875226Y-64436898D01*
X56915000Y-64236939D01*
X56915000Y-64033061D01*
X56875226Y-63833102D01*
X56797205Y-63644744D01*
X56683937Y-63475226D01*
X56539774Y-63331063D01*
X56370256Y-63217795D01*
X56181898Y-63139774D01*
X55981939Y-63100000D01*
X55778061Y-63100000D01*
X55578102Y-63139774D01*
X55389744Y-63217795D01*
X55220226Y-63331063D01*
X55076063Y-63475226D01*
X54962795Y-63644744D01*
X54884774Y-63833102D01*
X54845000Y-64033061D01*
X54845000Y-64095199D01*
X54733982Y-64206217D01*
X54733977Y-64206221D01*
X53300199Y-65640000D01*
X53238061Y-65640000D01*
X53038102Y-65679774D01*
X52849744Y-65757795D01*
X52680226Y-65871063D01*
X52536063Y-66015226D01*
X52422795Y-66184744D01*
X52344774Y-66373102D01*
X52305000Y-66573061D01*
X45222800Y-66573061D01*
X45193302Y-66475820D01*
X45134337Y-66365506D01*
X45054985Y-66268815D01*
X44971133Y-66200000D01*
X45054985Y-66131185D01*
X45134337Y-66034494D01*
X45193302Y-65924180D01*
X45229612Y-65804482D01*
X45241872Y-65680000D01*
X45241872Y-64180000D01*
X45229612Y-64055518D01*
X45193302Y-63935820D01*
X45134337Y-63825506D01*
X45054985Y-63728815D01*
X44971133Y-63660000D01*
X45054985Y-63591185D01*
X45134337Y-63494494D01*
X45193302Y-63384180D01*
X45229612Y-63264482D01*
X45241872Y-63140000D01*
X45241872Y-61640000D01*
X45229612Y-61515518D01*
X45193302Y-61395820D01*
X45134337Y-61285506D01*
X45054985Y-61188815D01*
X44971133Y-61120000D01*
X45054985Y-61051185D01*
X45134337Y-60954494D01*
X45193302Y-60844180D01*
X45229612Y-60724482D01*
X45241872Y-60600000D01*
X45241872Y-59100000D01*
X45229612Y-58975518D01*
X45193302Y-58855820D01*
X45134337Y-58745506D01*
X45054985Y-58648815D01*
X44971133Y-58580000D01*
X45054985Y-58511185D01*
X45134337Y-58414494D01*
X45193302Y-58304180D01*
X45229612Y-58184482D01*
X45241872Y-58060000D01*
X45241872Y-56560000D01*
X45229612Y-56435518D01*
X45193302Y-56315820D01*
X45134337Y-56205506D01*
X45054985Y-56108815D01*
X44971133Y-56040000D01*
X45054985Y-55971185D01*
X45134337Y-55874494D01*
X45193302Y-55764180D01*
X45229612Y-55644482D01*
X45241872Y-55520000D01*
X45238800Y-55055750D01*
X45080050Y-54897000D01*
X43980800Y-54897000D01*
X43980800Y-54917000D01*
X43726800Y-54917000D01*
X43726800Y-54897000D01*
X42627550Y-54897000D01*
X42608950Y-54915600D01*
X42167500Y-54915600D01*
X42167500Y-54935600D01*
X41913500Y-54935600D01*
X41913500Y-54915600D01*
X40720345Y-54915600D01*
X40599024Y-55145490D01*
X40643675Y-55292699D01*
X40768859Y-55555520D01*
X40942912Y-55788869D01*
X41159145Y-55983778D01*
X41276034Y-56053405D01*
X41093868Y-56175125D01*
X40887025Y-56381968D01*
X40724510Y-56625189D01*
X40612568Y-56895442D01*
X40555500Y-57182340D01*
X40555500Y-57474860D01*
X40612568Y-57761758D01*
X40724510Y-58032011D01*
X40887025Y-58275232D01*
X41093868Y-58482075D01*
X41268260Y-58598600D01*
X41093868Y-58715125D01*
X40887025Y-58921968D01*
X40724510Y-59165189D01*
X40612568Y-59435442D01*
X40555500Y-59722340D01*
X40555500Y-59985593D01*
X40549502Y-59965820D01*
X40490537Y-59855506D01*
X40411185Y-59758815D01*
X40405000Y-59753739D01*
X40405000Y-59588049D01*
X40365226Y-59388090D01*
X40287205Y-59199732D01*
X40173937Y-59030214D01*
X40029774Y-58886051D01*
X39860256Y-58772783D01*
X39671898Y-58694762D01*
X39471939Y-58654988D01*
X39268061Y-58654988D01*
X39068102Y-58694762D01*
X38879744Y-58772783D01*
X38710226Y-58886051D01*
X38566063Y-59030214D01*
X38452795Y-59199732D01*
X38374774Y-59388090D01*
X38338207Y-59571928D01*
X37510000Y-59571928D01*
X37385518Y-59584188D01*
X37265820Y-59620498D01*
X37257397Y-59625000D01*
X36583671Y-59625000D01*
X36415261Y-59534983D01*
X36125913Y-59447210D01*
X35900408Y-59425000D01*
X33949592Y-59425000D01*
X33724087Y-59447210D01*
X33434739Y-59534983D01*
X33168073Y-59677519D01*
X32934339Y-59869339D01*
X32742519Y-60103073D01*
X32599983Y-60369739D01*
X32512210Y-60659087D01*
X32482573Y-60960000D01*
X32512210Y-61260913D01*
X32599983Y-61550261D01*
X32742519Y-61816927D01*
X32934339Y-62050661D01*
X33168073Y-62242481D01*
X33434739Y-62385017D01*
X33724087Y-62472790D01*
X33949592Y-62495000D01*
X35900408Y-62495000D01*
X36125913Y-62472790D01*
X36415261Y-62385017D01*
X36583671Y-62295000D01*
X37257397Y-62295000D01*
X37265820Y-62299502D01*
X37385518Y-62335812D01*
X37510000Y-62348072D01*
X38510000Y-62348072D01*
X38635136Y-62335681D01*
X38660064Y-62328091D01*
X38685518Y-62335812D01*
X38810000Y-62348072D01*
X39960000Y-62348072D01*
X40084482Y-62335812D01*
X40204180Y-62299502D01*
X40314494Y-62240537D01*
X40411185Y-62161185D01*
X40490537Y-62064494D01*
X40549502Y-61954180D01*
X40585812Y-61834482D01*
X40598072Y-61710000D01*
X40598072Y-60228882D01*
X40612568Y-60301758D01*
X40724510Y-60572011D01*
X40887025Y-60815232D01*
X41093868Y-61022075D01*
X41268260Y-61138600D01*
X41093868Y-61255125D01*
X40887025Y-61461968D01*
X40724510Y-61705189D01*
X40612568Y-61975442D01*
X40555500Y-62262340D01*
X40555500Y-62554860D01*
X40612568Y-62841758D01*
X40724510Y-63112011D01*
X40887025Y-63355232D01*
X41093868Y-63562075D01*
X41268260Y-63678600D01*
X41093868Y-63795125D01*
X40887025Y-64001968D01*
X40724510Y-64245189D01*
X40612568Y-64515442D01*
X40555500Y-64802340D01*
X40555500Y-65094860D01*
X40612568Y-65381758D01*
X40724510Y-65652011D01*
X40887025Y-65895232D01*
X41018880Y-66027087D01*
X40946320Y-66049098D01*
X40836006Y-66108063D01*
X40739315Y-66187415D01*
X40659963Y-66284106D01*
X40600998Y-66394420D01*
X40564688Y-66514118D01*
X40552428Y-66638600D01*
X40552428Y-67088697D01*
X39944434Y-67696692D01*
X39761126Y-67880000D01*
X33572976Y-67880000D01*
X32450000Y-66757026D01*
X32450000Y-65134740D01*
X32533964Y-65134740D01*
X32558245Y-65240087D01*
X32678138Y-65517204D01*
X32849790Y-65765606D01*
X33066604Y-65975748D01*
X33320249Y-66139554D01*
X33600977Y-66250729D01*
X33898000Y-66305000D01*
X34798000Y-66305000D01*
X34798000Y-64897000D01*
X35052000Y-64897000D01*
X35052000Y-66305000D01*
X35952000Y-66305000D01*
X36249023Y-66250729D01*
X36529751Y-66139554D01*
X36783396Y-65975748D01*
X37000210Y-65765606D01*
X37171862Y-65517204D01*
X37291755Y-65240087D01*
X37316036Y-65134740D01*
X37195378Y-64897000D01*
X35052000Y-64897000D01*
X34798000Y-64897000D01*
X32654622Y-64897000D01*
X32533964Y-65134740D01*
X32450000Y-65134740D01*
X32450000Y-64405260D01*
X32533964Y-64405260D01*
X32654622Y-64643000D01*
X34798000Y-64643000D01*
X34798000Y-63235000D01*
X35052000Y-63235000D01*
X35052000Y-64643000D01*
X37195378Y-64643000D01*
X37316036Y-64405260D01*
X37291755Y-64299913D01*
X37171862Y-64022796D01*
X37000210Y-63774394D01*
X36783396Y-63564252D01*
X36529751Y-63400446D01*
X36249023Y-63289271D01*
X35952000Y-63235000D01*
X35052000Y-63235000D01*
X34798000Y-63235000D01*
X33898000Y-63235000D01*
X33600977Y-63289271D01*
X33320249Y-63400446D01*
X33066604Y-63564252D01*
X32849790Y-63774394D01*
X32678138Y-64022796D01*
X32558245Y-64299913D01*
X32533964Y-64405260D01*
X32450000Y-64405260D01*
X32450000Y-55745000D01*
X32619499Y-55745000D01*
X32668739Y-55805000D01*
X32594463Y-55895506D01*
X32535498Y-56005820D01*
X32499188Y-56125518D01*
X32486928Y-56250000D01*
X32486928Y-58050000D01*
X32499188Y-58174482D01*
X32535498Y-58294180D01*
X32594463Y-58404494D01*
X32673815Y-58501185D01*
X32770506Y-58580537D01*
X32880820Y-58639502D01*
X33000518Y-58675812D01*
X33125000Y-58688072D01*
X36725000Y-58688072D01*
X36849482Y-58675812D01*
X36969180Y-58639502D01*
X37079494Y-58580537D01*
X37176185Y-58501185D01*
X37255537Y-58404494D01*
X37314502Y-58294180D01*
X37350812Y-58174482D01*
X37363072Y-58050000D01*
X37363072Y-56250000D01*
X37350812Y-56125518D01*
X37314502Y-56005820D01*
X37255537Y-55895506D01*
X37181261Y-55805000D01*
X37255537Y-55714494D01*
X37289201Y-55651514D01*
X37463623Y-55558284D01*
X37636449Y-55416449D01*
X37671996Y-55373135D01*
X38404558Y-54640573D01*
X38489405Y-54623696D01*
X38732359Y-54523061D01*
X38951013Y-54376962D01*
X39136962Y-54191013D01*
X39283061Y-53972359D01*
X39383696Y-53729405D01*
X39435000Y-53471486D01*
X39435000Y-53208514D01*
X39383696Y-52950595D01*
X39283061Y-52707641D01*
X39136962Y-52488987D01*
X38951013Y-52303038D01*
X38732359Y-52156939D01*
X38489405Y-52056304D01*
X38231486Y-52005000D01*
X37968514Y-52005000D01*
X37710595Y-52056304D01*
X37467641Y-52156939D01*
X37248987Y-52303038D01*
X37063038Y-52488987D01*
X36916939Y-52707641D01*
X36816304Y-52950595D01*
X36799427Y-53035442D01*
X36612941Y-53221928D01*
X35725000Y-53221928D01*
X35600518Y-53234188D01*
X35575000Y-53241929D01*
X35549482Y-53234188D01*
X35425000Y-53221928D01*
X34425000Y-53221928D01*
X34300518Y-53234188D01*
X34275000Y-53241929D01*
X34249482Y-53234188D01*
X34125000Y-53221928D01*
X33125000Y-53221928D01*
X33000518Y-53234188D01*
X32880820Y-53270498D01*
X32770506Y-53329463D01*
X32673815Y-53408815D01*
X32619499Y-53475000D01*
X32450000Y-53475000D01*
X32450000Y-48624740D01*
X32533964Y-48624740D01*
X32558245Y-48730087D01*
X32678138Y-49007204D01*
X32849790Y-49255606D01*
X33066604Y-49465748D01*
X33320249Y-49629554D01*
X33600977Y-49740729D01*
X33898000Y-49795000D01*
X34798000Y-49795000D01*
X34798000Y-48387000D01*
X35052000Y-48387000D01*
X35052000Y-49795000D01*
X35952000Y-49795000D01*
X36249023Y-49740729D01*
X36529751Y-49629554D01*
X36783396Y-49465748D01*
X37000210Y-49255606D01*
X37171862Y-49007204D01*
X37291755Y-48730087D01*
X37316036Y-48624740D01*
X37195378Y-48387000D01*
X35052000Y-48387000D01*
X34798000Y-48387000D01*
X32654622Y-48387000D01*
X32533964Y-48624740D01*
X32450000Y-48624740D01*
X32450000Y-47895260D01*
X32533964Y-47895260D01*
X32654622Y-48133000D01*
X34798000Y-48133000D01*
X34798000Y-46725000D01*
X35052000Y-46725000D01*
X35052000Y-48133000D01*
X37195378Y-48133000D01*
X37316036Y-47895260D01*
X37291755Y-47789913D01*
X37171862Y-47512796D01*
X37000210Y-47264394D01*
X36783396Y-47054252D01*
X36529751Y-46890446D01*
X36249023Y-46779271D01*
X35952000Y-46725000D01*
X35052000Y-46725000D01*
X34798000Y-46725000D01*
X33898000Y-46725000D01*
X33600977Y-46779271D01*
X33320249Y-46890446D01*
X33066604Y-47054252D01*
X32849790Y-47264394D01*
X32678138Y-47512796D01*
X32558245Y-47789913D01*
X32533964Y-47895260D01*
X32450000Y-47895260D01*
X32450000Y-39235000D01*
X32619499Y-39235000D01*
X32668739Y-39295000D01*
X32594463Y-39385506D01*
X32535498Y-39495820D01*
X32499188Y-39615518D01*
X32486928Y-39740000D01*
X32486928Y-41540000D01*
X32499188Y-41664482D01*
X32535498Y-41784180D01*
X32594463Y-41894494D01*
X32673815Y-41991185D01*
X32770506Y-42070537D01*
X32880820Y-42129502D01*
X33000518Y-42165812D01*
X33125000Y-42178072D01*
X36725000Y-42178072D01*
X36849482Y-42165812D01*
X36969180Y-42129502D01*
X37079494Y-42070537D01*
X37176185Y-41991185D01*
X37255537Y-41894494D01*
X37314502Y-41784180D01*
X37350812Y-41664482D01*
X37363072Y-41540000D01*
X37363072Y-39740000D01*
X37350812Y-39615518D01*
X37314502Y-39495820D01*
X37255537Y-39385506D01*
X37181261Y-39295000D01*
X37255537Y-39204494D01*
X37289201Y-39141514D01*
X37463623Y-39048284D01*
X37636449Y-38906449D01*
X37671996Y-38863135D01*
X38404558Y-38130573D01*
X38489405Y-38113696D01*
X38732359Y-38013061D01*
X38951013Y-37866962D01*
X39136962Y-37681013D01*
X39140667Y-37675468D01*
X40251205Y-38786008D01*
X40274999Y-38815001D01*
X40303992Y-38838795D01*
X40303996Y-38838799D01*
X40371752Y-38894404D01*
X40390724Y-38909974D01*
X40522753Y-38980546D01*
X40652181Y-39019807D01*
X40612568Y-39115442D01*
X40555500Y-39402340D01*
X40555500Y-39694860D01*
X40612568Y-39981758D01*
X40724510Y-40252011D01*
X40887025Y-40495232D01*
X41093868Y-40702075D01*
X41268260Y-40818600D01*
X41093868Y-40935125D01*
X40887025Y-41141968D01*
X40724510Y-41385189D01*
X40612568Y-41655442D01*
X40555500Y-41942340D01*
X40555500Y-42234860D01*
X40612568Y-42521758D01*
X40724510Y-42792011D01*
X40887025Y-43035232D01*
X41093868Y-43242075D01*
X41268260Y-43358600D01*
X41093868Y-43475125D01*
X40887025Y-43681968D01*
X40724510Y-43925189D01*
X40612568Y-44195442D01*
X40598072Y-44268318D01*
X40598072Y-43700000D01*
X40585812Y-43575518D01*
X40549502Y-43455820D01*
X40490537Y-43345506D01*
X40411185Y-43248815D01*
X40314494Y-43169463D01*
X40204180Y-43110498D01*
X40084482Y-43074188D01*
X39960000Y-43061928D01*
X38810000Y-43061928D01*
X38686173Y-43074059D01*
X38660065Y-43081949D01*
X38634482Y-43074188D01*
X38510000Y-43061928D01*
X37510000Y-43061928D01*
X37385518Y-43074188D01*
X37265820Y-43110498D01*
X37257397Y-43115000D01*
X36583671Y-43115000D01*
X36415261Y-43024983D01*
X36125913Y-42937210D01*
X35900408Y-42915000D01*
X33949592Y-42915000D01*
X33724087Y-42937210D01*
X33434739Y-43024983D01*
X33168073Y-43167519D01*
X32934339Y-43359339D01*
X32742519Y-43593073D01*
X32599983Y-43859739D01*
X32512210Y-44149087D01*
X32482573Y-44450000D01*
X32512210Y-44750913D01*
X32599983Y-45040261D01*
X32742519Y-45306927D01*
X32934339Y-45540661D01*
X33168073Y-45732481D01*
X33434739Y-45875017D01*
X33724087Y-45962790D01*
X33949592Y-45985000D01*
X35900408Y-45985000D01*
X36125913Y-45962790D01*
X36415261Y-45875017D01*
X36583671Y-45785000D01*
X37257397Y-45785000D01*
X37265820Y-45789502D01*
X37385518Y-45825812D01*
X37510000Y-45838072D01*
X38510000Y-45838072D01*
X38635136Y-45825681D01*
X38660064Y-45818091D01*
X38685518Y-45825812D01*
X38810000Y-45838072D01*
X39960000Y-45838072D01*
X40084482Y-45825812D01*
X40204180Y-45789502D01*
X40314494Y-45730537D01*
X40411185Y-45651185D01*
X40490537Y-45554494D01*
X40549502Y-45444180D01*
X40585812Y-45324482D01*
X40598072Y-45200000D01*
X40598072Y-44988882D01*
X40612568Y-45061758D01*
X40724510Y-45332011D01*
X40887025Y-45575232D01*
X41093868Y-45782075D01*
X41268260Y-45898600D01*
X41093868Y-46015125D01*
X40887025Y-46221968D01*
X40724510Y-46465189D01*
X40612568Y-46735442D01*
X40555500Y-47022340D01*
X40555500Y-47314860D01*
X40612568Y-47601758D01*
X40724510Y-47872011D01*
X40887025Y-48115232D01*
X41093868Y-48322075D01*
X41268260Y-48438600D01*
X41093868Y-48555125D01*
X40887025Y-48761968D01*
X40724510Y-49005189D01*
X40612568Y-49275442D01*
X40555500Y-49562340D01*
X40555500Y-49854860D01*
X40612568Y-50141758D01*
X40724510Y-50412011D01*
X40887025Y-50655232D01*
X41093868Y-50862075D01*
X41268260Y-50978600D01*
X41093868Y-51095125D01*
X40887025Y-51301968D01*
X40724510Y-51545189D01*
X40612568Y-51815442D01*
X40555500Y-52102340D01*
X40555500Y-52394860D01*
X40612568Y-52681758D01*
X40724510Y-52952011D01*
X40887025Y-53195232D01*
X41093868Y-53402075D01*
X41276034Y-53523795D01*
X41159145Y-53593422D01*
X40942912Y-53788331D01*
X40768859Y-54021680D01*
X40643675Y-54284501D01*
X40599024Y-54431710D01*
X40720345Y-54661600D01*
X41913500Y-54661600D01*
X41913500Y-54641600D01*
X42167500Y-54641600D01*
X42167500Y-54661600D01*
X43360655Y-54661600D01*
X43370471Y-54643000D01*
X43726800Y-54643000D01*
X43726800Y-54623000D01*
X43980800Y-54623000D01*
X43980800Y-54643000D01*
X45080050Y-54643000D01*
X45238800Y-54484250D01*
X45241872Y-54020000D01*
X45229612Y-53895518D01*
X45193302Y-53775820D01*
X45134337Y-53665506D01*
X45054985Y-53568815D01*
X44971133Y-53500000D01*
X45054985Y-53431185D01*
X45134337Y-53334494D01*
X45193302Y-53224180D01*
X45229612Y-53104482D01*
X45241872Y-52980000D01*
X45241872Y-51480000D01*
X45229612Y-51355518D01*
X45193302Y-51235820D01*
X45134337Y-51125506D01*
X45054985Y-51028815D01*
X44971133Y-50960000D01*
X45054985Y-50891185D01*
X45134337Y-50794494D01*
X45193302Y-50684180D01*
X45229612Y-50564482D01*
X45241872Y-50440000D01*
X45241872Y-48940000D01*
X45229612Y-48815518D01*
X45193302Y-48695820D01*
X45134337Y-48585506D01*
X45054985Y-48488815D01*
X44971133Y-48420000D01*
X45054985Y-48351185D01*
X45134337Y-48254494D01*
X45193302Y-48144180D01*
X45229612Y-48024482D01*
X45241872Y-47900000D01*
X45241872Y-46400000D01*
X45229612Y-46275518D01*
X45193302Y-46155820D01*
X45134337Y-46045506D01*
X45054985Y-45948815D01*
X44971133Y-45880000D01*
X45054985Y-45811185D01*
X45134337Y-45714494D01*
X45193302Y-45604180D01*
X45229612Y-45484482D01*
X45241872Y-45360000D01*
X45241872Y-45210000D01*
X49461289Y-45210000D01*
X49505226Y-45253937D01*
X49674744Y-45367205D01*
X49863102Y-45445226D01*
X50063061Y-45485000D01*
X50266939Y-45485000D01*
X50466898Y-45445226D01*
X50655256Y-45367205D01*
X50824774Y-45253937D01*
X50930955Y-45147756D01*
X52279600Y-46496402D01*
X52303398Y-46525400D01*
X52419123Y-46620373D01*
X52551152Y-46690945D01*
X52694413Y-46734402D01*
X52806066Y-46745399D01*
X52806076Y-46745399D01*
X52843399Y-46749075D01*
X52880722Y-46745399D01*
X59953377Y-46745399D01*
X59925000Y-46888061D01*
X59925000Y-47091939D01*
X59964774Y-47291898D01*
X60042795Y-47480256D01*
X60156063Y-47649774D01*
X60200001Y-47693712D01*
X60200000Y-59654088D01*
X60196324Y-59691410D01*
X60200000Y-59728732D01*
X60200000Y-59728742D01*
X60210997Y-59840395D01*
X60248857Y-59965204D01*
X60254454Y-59983656D01*
X60325026Y-60115686D01*
X60340593Y-60134654D01*
X60419999Y-60231411D01*
X60449003Y-60255214D01*
X62924991Y-62731203D01*
X62924990Y-70620208D01*
X62580714Y-70964484D01*
X62485099Y-70993489D01*
X62270551Y-71108167D01*
X62116691Y-71234436D01*
X62090537Y-71185506D01*
X62011185Y-71088815D01*
X61914494Y-71009463D01*
X61804180Y-70950498D01*
X61684482Y-70914188D01*
X61560000Y-70901928D01*
X60360000Y-70901928D01*
X60235518Y-70914188D01*
X60115820Y-70950498D01*
X60005506Y-71009463D01*
X59908815Y-71088815D01*
X59829463Y-71185506D01*
X59770498Y-71295820D01*
X59734188Y-71415518D01*
X59721928Y-71540000D01*
X59721928Y-73240000D01*
X59734188Y-73364482D01*
X59770498Y-73484180D01*
X59829463Y-73594494D01*
X59908815Y-73691185D01*
X60005506Y-73770537D01*
X60115820Y-73829502D01*
X60235518Y-73865812D01*
X60360000Y-73878072D01*
X61560000Y-73878072D01*
X61684482Y-73865812D01*
X61804180Y-73829502D01*
X61914494Y-73770537D01*
X62011185Y-73691185D01*
X62090537Y-73594494D01*
X62116692Y-73545563D01*
X62270552Y-73671833D01*
X62485100Y-73786511D01*
X62717899Y-73857130D01*
X62960000Y-73880975D01*
X63202102Y-73857130D01*
X63434901Y-73786511D01*
X63649449Y-73671833D01*
X63837502Y-73517502D01*
X63960001Y-73368237D01*
X64082499Y-73517502D01*
X64270552Y-73671833D01*
X64485100Y-73786511D01*
X64717899Y-73857130D01*
X64960000Y-73880975D01*
X65202102Y-73857130D01*
X65434901Y-73786511D01*
X65649449Y-73671833D01*
X65837502Y-73517502D01*
X65960001Y-73368237D01*
X66082499Y-73517502D01*
X66270552Y-73671833D01*
X66485100Y-73786511D01*
X66717899Y-73857130D01*
X66960000Y-73880975D01*
X67202102Y-73857130D01*
X67434901Y-73786511D01*
X67649449Y-73671833D01*
X67837502Y-73517502D01*
X67954432Y-73375022D01*
X67964991Y-73392276D01*
X68130872Y-73571938D01*
X68328616Y-73715786D01*
X68550623Y-73818292D01*
X68642391Y-73833462D01*
X68833000Y-73708731D01*
X68833000Y-72517000D01*
X69087000Y-72517000D01*
X69087000Y-73708731D01*
X69277609Y-73833462D01*
X69369377Y-73818292D01*
X69591384Y-73715786D01*
X69789128Y-73571938D01*
X69955009Y-73392276D01*
X70082652Y-73183705D01*
X70167152Y-72954239D01*
X70205262Y-72712697D01*
X70042553Y-72517000D01*
X69087000Y-72517000D01*
X68833000Y-72517000D01*
X68813000Y-72517000D01*
X68813000Y-72263000D01*
X68833000Y-72263000D01*
X68833000Y-71071269D01*
X69087000Y-71071269D01*
X69087000Y-72263000D01*
X70042553Y-72263000D01*
X70205262Y-72067303D01*
X70167152Y-71825761D01*
X70082652Y-71596295D01*
X70081321Y-71594119D01*
X73043724Y-71594119D01*
X75565000Y-74115395D01*
X78086276Y-71594119D01*
X77726088Y-71104452D01*
X77062118Y-70744151D01*
X76340615Y-70520306D01*
X75589305Y-70441520D01*
X74837062Y-70510822D01*
X74112792Y-70725548D01*
X73444330Y-71077445D01*
X73403912Y-71104452D01*
X73043724Y-71594119D01*
X70081321Y-71594119D01*
X69955009Y-71387724D01*
X69789128Y-71208062D01*
X69591384Y-71064214D01*
X69369377Y-70961708D01*
X69277609Y-70946538D01*
X69087000Y-71071269D01*
X68833000Y-71071269D01*
X68642391Y-70946538D01*
X68550623Y-70961708D01*
X68328616Y-71064214D01*
X68130872Y-71208062D01*
X67964991Y-71387724D01*
X67954432Y-71404978D01*
X67837502Y-71262498D01*
X67649448Y-71108167D01*
X67434900Y-70993489D01*
X67202101Y-70922870D01*
X66960000Y-70899025D01*
X66717898Y-70922870D01*
X66485099Y-70993489D01*
X66270551Y-71108167D01*
X66082498Y-71262498D01*
X65960000Y-71411763D01*
X65837502Y-71262498D01*
X65649448Y-71108167D01*
X65434900Y-70993489D01*
X65202101Y-70922870D01*
X64991976Y-70902174D01*
X64895000Y-70805199D01*
X64895000Y-68858072D01*
X66270000Y-68858072D01*
X66394482Y-68845812D01*
X66514180Y-68809502D01*
X66522603Y-68805000D01*
X66750375Y-68805000D01*
X66999842Y-68908332D01*
X67286740Y-68965400D01*
X67579260Y-68965400D01*
X67866158Y-68908332D01*
X68136411Y-68796390D01*
X68379632Y-68633875D01*
X68586475Y-68427032D01*
X68748990Y-68183811D01*
X68860932Y-67913558D01*
X68918000Y-67626660D01*
X68918000Y-67334140D01*
X68860932Y-67047242D01*
X68748990Y-66776989D01*
X68586475Y-66533768D01*
X68379632Y-66326925D01*
X68205240Y-66210400D01*
X68379632Y-66093875D01*
X68586475Y-65887032D01*
X68748990Y-65643811D01*
X68860932Y-65373558D01*
X68918000Y-65086660D01*
X68918000Y-64794140D01*
X68860932Y-64507242D01*
X68748990Y-64236989D01*
X68586475Y-63993768D01*
X68379632Y-63786925D01*
X68205240Y-63670400D01*
X68379632Y-63553875D01*
X68586475Y-63347032D01*
X68748990Y-63103811D01*
X68860932Y-62833558D01*
X68918000Y-62546660D01*
X68918000Y-62254140D01*
X68916459Y-62246391D01*
X69015820Y-62299502D01*
X69135518Y-62335812D01*
X69260000Y-62348072D01*
X70260000Y-62348072D01*
X70385136Y-62335681D01*
X70410064Y-62328091D01*
X70435518Y-62335812D01*
X70560000Y-62348072D01*
X71710000Y-62348072D01*
X71834482Y-62335812D01*
X71954180Y-62299502D01*
X71962603Y-62295000D01*
X72636329Y-62295000D01*
X72804739Y-62385017D01*
X73094087Y-62472790D01*
X73319592Y-62495000D01*
X75270408Y-62495000D01*
X75495913Y-62472790D01*
X75785261Y-62385017D01*
X76051927Y-62242481D01*
X76285661Y-62050661D01*
X76477481Y-61816927D01*
X76620017Y-61550261D01*
X76707790Y-61260913D01*
X76737427Y-60960000D01*
X76707790Y-60659087D01*
X76620017Y-60369739D01*
X76477481Y-60103073D01*
X76285661Y-59869339D01*
X76051927Y-59677519D01*
X75785261Y-59534983D01*
X75495913Y-59447210D01*
X75270408Y-59425000D01*
X73319592Y-59425000D01*
X73094087Y-59447210D01*
X72804739Y-59534983D01*
X72636329Y-59625000D01*
X71962603Y-59625000D01*
X71954180Y-59620498D01*
X71834482Y-59584188D01*
X71710000Y-59571928D01*
X70560000Y-59571928D01*
X70436173Y-59584059D01*
X70410065Y-59591949D01*
X70384482Y-59584188D01*
X70260000Y-59571928D01*
X69260000Y-59571928D01*
X69135518Y-59584188D01*
X69015820Y-59620498D01*
X68910564Y-59676759D01*
X68860932Y-59427242D01*
X68748990Y-59156989D01*
X68586475Y-58913768D01*
X68379632Y-58706925D01*
X68205240Y-58590400D01*
X68379632Y-58473875D01*
X68586475Y-58267032D01*
X68748990Y-58023811D01*
X68860932Y-57753558D01*
X68908436Y-57514740D01*
X71903964Y-57514740D01*
X71928245Y-57620087D01*
X72048138Y-57897204D01*
X72219790Y-58145606D01*
X72436604Y-58355748D01*
X72690249Y-58519554D01*
X72970977Y-58630729D01*
X73268000Y-58685000D01*
X74168000Y-58685000D01*
X74168000Y-57277000D01*
X74422000Y-57277000D01*
X74422000Y-58685000D01*
X75322000Y-58685000D01*
X75619023Y-58630729D01*
X75899751Y-58519554D01*
X76153396Y-58355748D01*
X76370210Y-58145606D01*
X76541862Y-57897204D01*
X76661755Y-57620087D01*
X76686036Y-57514740D01*
X76565378Y-57277000D01*
X74422000Y-57277000D01*
X74168000Y-57277000D01*
X72024622Y-57277000D01*
X71903964Y-57514740D01*
X68908436Y-57514740D01*
X68918000Y-57466660D01*
X68918000Y-57174140D01*
X68860932Y-56887242D01*
X68818690Y-56785260D01*
X71903964Y-56785260D01*
X72024622Y-57023000D01*
X74168000Y-57023000D01*
X74168000Y-55615000D01*
X74422000Y-55615000D01*
X74422000Y-57023000D01*
X76565378Y-57023000D01*
X76686036Y-56785260D01*
X76661755Y-56679913D01*
X76541862Y-56402796D01*
X76370210Y-56154394D01*
X76153396Y-55944252D01*
X75899751Y-55780446D01*
X75619023Y-55669271D01*
X75322000Y-55615000D01*
X74422000Y-55615000D01*
X74168000Y-55615000D01*
X73268000Y-55615000D01*
X72970977Y-55669271D01*
X72690249Y-55780446D01*
X72436604Y-55944252D01*
X72219790Y-56154394D01*
X72048138Y-56402796D01*
X71928245Y-56679913D01*
X71903964Y-56785260D01*
X68818690Y-56785260D01*
X68748990Y-56616989D01*
X68586475Y-56373768D01*
X68379632Y-56166925D01*
X68205240Y-56050400D01*
X68379632Y-55933875D01*
X68586475Y-55727032D01*
X68748990Y-55483811D01*
X68860932Y-55213558D01*
X68918000Y-54926660D01*
X68918000Y-54634140D01*
X68860932Y-54347242D01*
X68748990Y-54076989D01*
X68586475Y-53833768D01*
X68379632Y-53626925D01*
X68205240Y-53510400D01*
X68379632Y-53393875D01*
X68586475Y-53187032D01*
X68748990Y-52943811D01*
X68860932Y-52673558D01*
X68918000Y-52386660D01*
X68918000Y-52094140D01*
X68860932Y-51807242D01*
X68748990Y-51536989D01*
X68586475Y-51293768D01*
X68379632Y-51086925D01*
X68205240Y-50970400D01*
X68379632Y-50853875D01*
X68586475Y-50647032D01*
X68748990Y-50403811D01*
X68860932Y-50133558D01*
X68918000Y-49846660D01*
X68918000Y-49554140D01*
X68860932Y-49267242D01*
X68748990Y-48996989D01*
X68586475Y-48753768D01*
X68379632Y-48546925D01*
X68205240Y-48430400D01*
X68379632Y-48313875D01*
X68586475Y-48107032D01*
X68748990Y-47863811D01*
X68860932Y-47593558D01*
X68918000Y-47306660D01*
X68918000Y-47014140D01*
X68860932Y-46727242D01*
X68773058Y-46515096D01*
X68788405Y-46496396D01*
X69446729Y-45838072D01*
X70260000Y-45838072D01*
X70385136Y-45825681D01*
X70410064Y-45818091D01*
X70435518Y-45825812D01*
X70560000Y-45838072D01*
X71710000Y-45838072D01*
X71834482Y-45825812D01*
X71954180Y-45789502D01*
X71962603Y-45785000D01*
X72636329Y-45785000D01*
X72804739Y-45875017D01*
X73094087Y-45962790D01*
X73319592Y-45985000D01*
X75270408Y-45985000D01*
X75495913Y-45962790D01*
X75785261Y-45875017D01*
X76051927Y-45732481D01*
X76285661Y-45540661D01*
X76477481Y-45306927D01*
X76620017Y-45040261D01*
X76707790Y-44750913D01*
X76737427Y-44450000D01*
X76707790Y-44149087D01*
X76620017Y-43859739D01*
X76477481Y-43593073D01*
X76285661Y-43359339D01*
X76051927Y-43167519D01*
X75785261Y-43024983D01*
X75495913Y-42937210D01*
X75270408Y-42915000D01*
X73319592Y-42915000D01*
X73094087Y-42937210D01*
X72804739Y-43024983D01*
X72636329Y-43115000D01*
X71962603Y-43115000D01*
X71954180Y-43110498D01*
X71834482Y-43074188D01*
X71710000Y-43061928D01*
X70560000Y-43061928D01*
X70436173Y-43074059D01*
X70410065Y-43081949D01*
X70384482Y-43074188D01*
X70260000Y-43061928D01*
X69260000Y-43061928D01*
X69135518Y-43074188D01*
X69015820Y-43110498D01*
X68905506Y-43169463D01*
X68808815Y-43248815D01*
X68729463Y-43345506D01*
X68670498Y-43455820D01*
X68634188Y-43575518D01*
X68621928Y-43700000D01*
X68621928Y-43726827D01*
X68586475Y-43673768D01*
X68379632Y-43466925D01*
X68205240Y-43350400D01*
X68379632Y-43233875D01*
X68586475Y-43027032D01*
X68748990Y-42783811D01*
X68860932Y-42513558D01*
X68918000Y-42226660D01*
X68918000Y-41934140D01*
X68860932Y-41647242D01*
X68748990Y-41376989D01*
X68586475Y-41133768D01*
X68457447Y-41004740D01*
X71903964Y-41004740D01*
X71928245Y-41110087D01*
X72048138Y-41387204D01*
X72219790Y-41635606D01*
X72436604Y-41845748D01*
X72690249Y-42009554D01*
X72970977Y-42120729D01*
X73268000Y-42175000D01*
X74168000Y-42175000D01*
X74168000Y-40767000D01*
X74422000Y-40767000D01*
X74422000Y-42175000D01*
X75322000Y-42175000D01*
X75619023Y-42120729D01*
X75899751Y-42009554D01*
X76153396Y-41845748D01*
X76370210Y-41635606D01*
X76541862Y-41387204D01*
X76661755Y-41110087D01*
X76686036Y-41004740D01*
X76565378Y-40767000D01*
X74422000Y-40767000D01*
X74168000Y-40767000D01*
X72024622Y-40767000D01*
X71903964Y-41004740D01*
X68457447Y-41004740D01*
X68379632Y-40926925D01*
X68205240Y-40810400D01*
X68379632Y-40693875D01*
X68586475Y-40487032D01*
X68727976Y-40275260D01*
X71903964Y-40275260D01*
X72024622Y-40513000D01*
X74168000Y-40513000D01*
X74168000Y-39105000D01*
X74422000Y-39105000D01*
X74422000Y-40513000D01*
X76565378Y-40513000D01*
X76686036Y-40275260D01*
X76661755Y-40169913D01*
X76541862Y-39892796D01*
X76370210Y-39644394D01*
X76153396Y-39434252D01*
X75899751Y-39270446D01*
X75619023Y-39159271D01*
X75322000Y-39105000D01*
X74422000Y-39105000D01*
X74168000Y-39105000D01*
X73268000Y-39105000D01*
X72970977Y-39159271D01*
X72690249Y-39270446D01*
X72436604Y-39434252D01*
X72219790Y-39644394D01*
X72048138Y-39892796D01*
X71928245Y-40169913D01*
X71903964Y-40275260D01*
X68727976Y-40275260D01*
X68748990Y-40243811D01*
X68860932Y-39973558D01*
X68918000Y-39686660D01*
X68918000Y-39394140D01*
X68860932Y-39107242D01*
X68748990Y-38836989D01*
X68586475Y-38593768D01*
X68379632Y-38386925D01*
X68197466Y-38265205D01*
X68314355Y-38195578D01*
X68530588Y-38000669D01*
X68704641Y-37767320D01*
X68829825Y-37504499D01*
X68874476Y-37357290D01*
X68753155Y-37127400D01*
X67560000Y-37127400D01*
X67560000Y-37147400D01*
X67306000Y-37147400D01*
X67306000Y-37127400D01*
X66756650Y-37127400D01*
X66746250Y-37117000D01*
X65647000Y-37117000D01*
X65647000Y-37137000D01*
X65393000Y-37137000D01*
X65393000Y-37117000D01*
X65373000Y-37117000D01*
X65373000Y-36863000D01*
X65393000Y-36863000D01*
X65393000Y-36843000D01*
X65647000Y-36843000D01*
X65647000Y-36863000D01*
X66107357Y-36863000D01*
X66112845Y-36873400D01*
X67306000Y-36873400D01*
X67306000Y-36853400D01*
X67560000Y-36853400D01*
X67560000Y-36873400D01*
X68753155Y-36873400D01*
X68874476Y-36643510D01*
X68829825Y-36496301D01*
X68704641Y-36233480D01*
X68530588Y-36000131D01*
X68314355Y-35805222D01*
X68197466Y-35735595D01*
X68379632Y-35613875D01*
X68586475Y-35407032D01*
X68748990Y-35163811D01*
X68860932Y-34893558D01*
X68918000Y-34606660D01*
X68918000Y-34314140D01*
X68860932Y-34027242D01*
X68748990Y-33756989D01*
X68586475Y-33513768D01*
X68379632Y-33306925D01*
X68205240Y-33190400D01*
X68379632Y-33073875D01*
X68586475Y-32867032D01*
X68748990Y-32623811D01*
X68860932Y-32353558D01*
X68918000Y-32066660D01*
X68918000Y-31774140D01*
X68860932Y-31487242D01*
X68748990Y-31216989D01*
X68586475Y-30973768D01*
X68379632Y-30766925D01*
X68205240Y-30650400D01*
X68379632Y-30533875D01*
X68586475Y-30327032D01*
X68748990Y-30083811D01*
X68859263Y-29817587D01*
X68905506Y-29855537D01*
X69015820Y-29914502D01*
X69135518Y-29950812D01*
X69260000Y-29963072D01*
X70260000Y-29963072D01*
X70385136Y-29950681D01*
X70410064Y-29943091D01*
X70435518Y-29950812D01*
X70560000Y-29963072D01*
X71710000Y-29963072D01*
X71834482Y-29950812D01*
X71954180Y-29914502D01*
X71962603Y-29910000D01*
X72636329Y-29910000D01*
X72804739Y-30000017D01*
X73094087Y-30087790D01*
X73319592Y-30110000D01*
X75270408Y-30110000D01*
X75495913Y-30087790D01*
X75785261Y-30000017D01*
X76051927Y-29857481D01*
X76285661Y-29665661D01*
X76477481Y-29431927D01*
X76620017Y-29165261D01*
X76707790Y-28875913D01*
X76737427Y-28575000D01*
X76707790Y-28274087D01*
X76620017Y-27984739D01*
X76477481Y-27718073D01*
X76285661Y-27484339D01*
X76051927Y-27292519D01*
X75785261Y-27149983D01*
X75495913Y-27062210D01*
X75270408Y-27040000D01*
X73319592Y-27040000D01*
X73094087Y-27062210D01*
X72804739Y-27149983D01*
X72636329Y-27240000D01*
X71962603Y-27240000D01*
X71954180Y-27235498D01*
X71834482Y-27199188D01*
X71710000Y-27186928D01*
X70560000Y-27186928D01*
X70483230Y-27194449D01*
X70465546Y-27136151D01*
X70426023Y-27062210D01*
X70394974Y-27004121D01*
X70323799Y-26917395D01*
X70300001Y-26888397D01*
X70271003Y-26864599D01*
X68613295Y-25206892D01*
X68664846Y-25129740D01*
X71903964Y-25129740D01*
X71928245Y-25235087D01*
X72048138Y-25512204D01*
X72219790Y-25760606D01*
X72436604Y-25970748D01*
X72690249Y-26134554D01*
X72970977Y-26245729D01*
X73268000Y-26300000D01*
X74168000Y-26300000D01*
X74168000Y-24892000D01*
X74422000Y-24892000D01*
X74422000Y-26300000D01*
X75322000Y-26300000D01*
X75619023Y-26245729D01*
X75899751Y-26134554D01*
X76153396Y-25970748D01*
X76370210Y-25760606D01*
X76541862Y-25512204D01*
X76661755Y-25235087D01*
X76686036Y-25129740D01*
X76565378Y-24892000D01*
X74422000Y-24892000D01*
X74168000Y-24892000D01*
X72024622Y-24892000D01*
X71903964Y-25129740D01*
X68664846Y-25129740D01*
X68748990Y-25003811D01*
X68860932Y-24733558D01*
X68918000Y-24446660D01*
X68918000Y-24400260D01*
X71903964Y-24400260D01*
X72024622Y-24638000D01*
X74168000Y-24638000D01*
X74168000Y-23230000D01*
X74422000Y-23230000D01*
X74422000Y-24638000D01*
X76565378Y-24638000D01*
X76686036Y-24400260D01*
X76661755Y-24294913D01*
X76541862Y-24017796D01*
X76370210Y-23769394D01*
X76153396Y-23559252D01*
X75899751Y-23395446D01*
X75619023Y-23284271D01*
X75322000Y-23230000D01*
X74422000Y-23230000D01*
X74168000Y-23230000D01*
X73268000Y-23230000D01*
X72970977Y-23284271D01*
X72690249Y-23395446D01*
X72436604Y-23559252D01*
X72219790Y-23769394D01*
X72048138Y-24017796D01*
X71928245Y-24294913D01*
X71903964Y-24400260D01*
X68918000Y-24400260D01*
X68918000Y-24154140D01*
X68860932Y-23867242D01*
X68748990Y-23596989D01*
X68586475Y-23353768D01*
X68454620Y-23221913D01*
X68527180Y-23199902D01*
X68637494Y-23140937D01*
X68734185Y-23061585D01*
X68813537Y-22964894D01*
X68872502Y-22854580D01*
X68908812Y-22734882D01*
X68921072Y-22610400D01*
X68918000Y-22046150D01*
X68759250Y-21887400D01*
X67560000Y-21887400D01*
X67560000Y-21907400D01*
X67306000Y-21907400D01*
X67306000Y-21887400D01*
X66756650Y-21887400D01*
X66746250Y-21877000D01*
X65647000Y-21877000D01*
X65647000Y-21897000D01*
X65393000Y-21897000D01*
X65393000Y-21877000D01*
X65373000Y-21877000D01*
X65373000Y-21623000D01*
X65393000Y-21623000D01*
X65393000Y-20523750D01*
X65647000Y-20523750D01*
X65647000Y-21623000D01*
X66096350Y-21623000D01*
X66106750Y-21633400D01*
X67306000Y-21633400D01*
X67306000Y-20434150D01*
X67560000Y-20434150D01*
X67560000Y-21633400D01*
X68759250Y-21633400D01*
X68918000Y-21474650D01*
X68921072Y-20910400D01*
X68908812Y-20785918D01*
X68872502Y-20666220D01*
X68813537Y-20555906D01*
X68734185Y-20459215D01*
X68637494Y-20379863D01*
X68527180Y-20320898D01*
X68407482Y-20284588D01*
X68283000Y-20272328D01*
X67718750Y-20275400D01*
X67560000Y-20434150D01*
X67306000Y-20434150D01*
X67147250Y-20275400D01*
X66583000Y-20272328D01*
X66458518Y-20284588D01*
X66338820Y-20320898D01*
X66261960Y-20361981D01*
X65805750Y-20365000D01*
X65647000Y-20523750D01*
X65393000Y-20523750D01*
X65234250Y-20365000D01*
X64770000Y-20361928D01*
X64645518Y-20374188D01*
X64525820Y-20410498D01*
X64415506Y-20469463D01*
X64318815Y-20548815D01*
X64239463Y-20645506D01*
X64214488Y-20692231D01*
X64205546Y-20662753D01*
X64134974Y-20530724D01*
X64105880Y-20495273D01*
X64063799Y-20443996D01*
X64063795Y-20443992D01*
X64040001Y-20414999D01*
X64011008Y-20391205D01*
X62034828Y-18415027D01*
X69867075Y-18415027D01*
X70857405Y-19405358D01*
G04 #@! TA.AperFunction,Conductor*
D32*
G36*
X70857405Y-19405358D02*
G01*
X70857410Y-19405362D01*
X72099659Y-20647612D01*
X72141466Y-20698554D01*
X72344746Y-20865381D01*
X72576667Y-20989346D01*
X72828315Y-21065682D01*
X73024442Y-21084999D01*
X73090021Y-21091458D01*
X73155600Y-21084999D01*
X75077025Y-21084999D01*
X76770001Y-22777976D01*
X76770000Y-33384868D01*
X76710111Y-33444757D01*
X76720812Y-33409482D01*
X76733072Y-33285000D01*
X76733072Y-31485000D01*
X76720812Y-31360518D01*
X76684502Y-31240820D01*
X76625537Y-31130506D01*
X76546185Y-31033815D01*
X76449494Y-30954463D01*
X76339180Y-30895498D01*
X76219482Y-30859188D01*
X76095000Y-30846928D01*
X72495000Y-30846928D01*
X72370518Y-30859188D01*
X72250820Y-30895498D01*
X72140506Y-30954463D01*
X72043815Y-31033815D01*
X71964463Y-31130506D01*
X71905498Y-31240820D01*
X71869188Y-31360518D01*
X71856928Y-31485000D01*
X71856928Y-33285000D01*
X71869188Y-33409482D01*
X71905498Y-33529180D01*
X71964463Y-33639494D01*
X72043815Y-33736185D01*
X72055675Y-33745918D01*
X72019499Y-33790000D01*
X71810743Y-33790000D01*
X71754999Y-33784510D01*
X71699255Y-33790000D01*
X71699248Y-33790000D01*
X71557854Y-33803926D01*
X71532500Y-33806423D01*
X71492633Y-33818517D01*
X71318553Y-33871324D01*
X71121377Y-33976716D01*
X70948551Y-34118551D01*
X70913011Y-34161857D01*
X70180442Y-34894427D01*
X70095595Y-34911304D01*
X69852641Y-35011939D01*
X69633987Y-35158038D01*
X69448038Y-35343987D01*
X69301939Y-35562641D01*
X69201304Y-35805595D01*
X69150000Y-36063514D01*
X69150000Y-36326486D01*
X69201304Y-36584405D01*
X69301939Y-36827359D01*
X69448038Y-37046013D01*
X69633987Y-37231962D01*
X69852641Y-37378061D01*
X70095595Y-37478696D01*
X70353514Y-37530000D01*
X70616486Y-37530000D01*
X70874405Y-37478696D01*
X71117359Y-37378061D01*
X71336013Y-37231962D01*
X71521962Y-37046013D01*
X71668061Y-36827359D01*
X71768696Y-36584405D01*
X71785573Y-36499558D01*
X72120573Y-36164558D01*
X72170506Y-36205537D01*
X72280820Y-36264502D01*
X72400518Y-36300812D01*
X72525000Y-36313072D01*
X73525000Y-36313072D01*
X73649482Y-36300812D01*
X73675000Y-36293071D01*
X73700518Y-36300812D01*
X73825000Y-36313072D01*
X74825000Y-36313072D01*
X74949482Y-36300812D01*
X74975000Y-36293071D01*
X75000518Y-36300812D01*
X75125000Y-36313072D01*
X76125000Y-36313072D01*
X76249482Y-36300812D01*
X76369180Y-36264502D01*
X76479494Y-36205537D01*
X76576185Y-36126185D01*
X76630501Y-36060000D01*
X76770000Y-36060000D01*
X76770001Y-49259867D01*
X76710111Y-49319757D01*
X76720812Y-49284482D01*
X76733072Y-49160000D01*
X76733072Y-47360000D01*
X76720812Y-47235518D01*
X76684502Y-47115820D01*
X76625537Y-47005506D01*
X76546185Y-46908815D01*
X76449494Y-46829463D01*
X76339180Y-46770498D01*
X76219482Y-46734188D01*
X76095000Y-46721928D01*
X72495000Y-46721928D01*
X72370518Y-46734188D01*
X72250820Y-46770498D01*
X72140506Y-46829463D01*
X72043815Y-46908815D01*
X71964463Y-47005506D01*
X71905498Y-47115820D01*
X71869188Y-47235518D01*
X71856928Y-47360000D01*
X71856928Y-49160000D01*
X71869188Y-49284482D01*
X71905498Y-49404180D01*
X71964463Y-49514494D01*
X72038739Y-49605000D01*
X71989499Y-49665000D01*
X71810743Y-49665000D01*
X71754999Y-49659510D01*
X71699255Y-49665000D01*
X71699248Y-49665000D01*
X71553493Y-49679356D01*
X71532500Y-49681423D01*
X71504223Y-49690001D01*
X71318553Y-49746324D01*
X71121377Y-49851716D01*
X70948551Y-49993551D01*
X70913011Y-50036857D01*
X70180442Y-50769427D01*
X70095595Y-50786304D01*
X69852641Y-50886939D01*
X69633987Y-51033038D01*
X69448038Y-51218987D01*
X69301939Y-51437641D01*
X69201304Y-51680595D01*
X69150000Y-51938514D01*
X69150000Y-52201486D01*
X69201304Y-52459405D01*
X69301939Y-52702359D01*
X69448038Y-52921013D01*
X69633987Y-53106962D01*
X69852641Y-53253061D01*
X70095595Y-53353696D01*
X70353514Y-53405000D01*
X70616486Y-53405000D01*
X70874405Y-53353696D01*
X71117359Y-53253061D01*
X71336013Y-53106962D01*
X71521962Y-52921013D01*
X71668061Y-52702359D01*
X71768696Y-52459405D01*
X71785573Y-52374558D01*
X72107051Y-52053081D01*
X72140506Y-52080537D01*
X72250820Y-52139502D01*
X72370518Y-52175812D01*
X72495000Y-52188072D01*
X73495000Y-52188072D01*
X73619482Y-52175812D01*
X73645000Y-52168071D01*
X73670518Y-52175812D01*
X73795000Y-52188072D01*
X74795000Y-52188072D01*
X74919482Y-52175812D01*
X74945000Y-52168071D01*
X74970518Y-52175812D01*
X75095000Y-52188072D01*
X76095000Y-52188072D01*
X76219482Y-52175812D01*
X76339180Y-52139502D01*
X76449494Y-52080537D01*
X76546185Y-52001185D01*
X76600501Y-51935000D01*
X76770000Y-51935000D01*
X76770001Y-65134867D01*
X76733072Y-65171796D01*
X76733072Y-63870000D01*
X76720812Y-63745518D01*
X76684502Y-63625820D01*
X76625537Y-63515506D01*
X76546185Y-63418815D01*
X76449494Y-63339463D01*
X76339180Y-63280498D01*
X76219482Y-63244188D01*
X76095000Y-63231928D01*
X72495000Y-63231928D01*
X72370518Y-63244188D01*
X72250820Y-63280498D01*
X72140506Y-63339463D01*
X72043815Y-63418815D01*
X71964463Y-63515506D01*
X71905498Y-63625820D01*
X71869188Y-63745518D01*
X71856928Y-63870000D01*
X71856928Y-65670000D01*
X71869188Y-65794482D01*
X71905498Y-65914180D01*
X71964463Y-66024494D01*
X72038739Y-66115000D01*
X71989499Y-66175000D01*
X71175752Y-66175000D01*
X71120000Y-66169509D01*
X71064248Y-66175000D01*
X70897501Y-66191423D01*
X70683553Y-66256324D01*
X70486377Y-66361716D01*
X70313551Y-66503551D01*
X70278011Y-66546857D01*
X70180442Y-66644427D01*
X70095595Y-66661304D01*
X69852641Y-66761939D01*
X69633987Y-66908038D01*
X69448038Y-67093987D01*
X69301939Y-67312641D01*
X69201304Y-67555595D01*
X69150000Y-67813514D01*
X69150000Y-68076486D01*
X69201304Y-68334405D01*
X69301939Y-68577359D01*
X69448038Y-68796013D01*
X69633987Y-68981962D01*
X69852641Y-69128061D01*
X70095595Y-69228696D01*
X70353514Y-69280000D01*
X70616486Y-69280000D01*
X70874405Y-69228696D01*
X71117359Y-69128061D01*
X71336013Y-68981962D01*
X71521962Y-68796013D01*
X71668061Y-68577359D01*
X71722886Y-68445000D01*
X71989499Y-68445000D01*
X72043815Y-68511185D01*
X72140506Y-68590537D01*
X72250820Y-68649502D01*
X72370518Y-68685812D01*
X72495000Y-68698072D01*
X73495000Y-68698072D01*
X73619482Y-68685812D01*
X73645000Y-68678071D01*
X73670518Y-68685812D01*
X73795000Y-68698072D01*
X74795000Y-68698072D01*
X74919482Y-68685812D01*
X74945000Y-68678071D01*
X74970518Y-68685812D01*
X75095000Y-68698072D01*
X76095000Y-68698072D01*
X76219482Y-68685812D01*
X76339180Y-68649502D01*
X76449494Y-68590537D01*
X76546185Y-68511185D01*
X76625537Y-68414494D01*
X76659201Y-68351514D01*
X76833623Y-68258284D01*
X77006449Y-68116449D01*
X77041996Y-68073135D01*
X78406529Y-66708603D01*
X78618354Y-66644347D01*
X78850275Y-66520382D01*
X79053555Y-66353555D01*
X79220382Y-66150275D01*
X79344347Y-65918354D01*
X79350000Y-65899718D01*
X79350000Y-73399272D01*
X79324486Y-73483777D01*
X79134452Y-72842792D01*
X78782555Y-72174330D01*
X78755548Y-72133912D01*
X78265881Y-71773724D01*
X75744605Y-74295000D01*
X75758748Y-74309143D01*
X75579143Y-74488748D01*
X75565000Y-74474605D01*
X73043724Y-76995881D01*
X73403912Y-77485548D01*
X74067882Y-77845849D01*
X74744048Y-78055628D01*
X74675225Y-78080000D01*
X34550728Y-78080000D01*
X34466223Y-78054486D01*
X35107208Y-77864452D01*
X35775670Y-77512555D01*
X35816088Y-77485548D01*
X36176276Y-76995881D01*
X33655000Y-74474605D01*
X33640858Y-74488748D01*
X33461253Y-74309143D01*
X33475395Y-74295000D01*
X33834605Y-74295000D01*
X36355881Y-76816276D01*
X36845548Y-76456088D01*
X37205849Y-75792118D01*
X37429694Y-75070615D01*
X37508480Y-74319305D01*
X37504002Y-74270695D01*
X71711520Y-74270695D01*
X71780822Y-75022938D01*
X71995548Y-75747208D01*
X72347445Y-76415670D01*
X72374452Y-76456088D01*
X72864119Y-76816276D01*
X75385395Y-74295000D01*
X72864119Y-71773724D01*
X72374452Y-72133912D01*
X72014151Y-72797882D01*
X71790306Y-73519385D01*
X71711520Y-74270695D01*
X37504002Y-74270695D01*
X37439178Y-73567062D01*
X37224452Y-72842792D01*
X36872555Y-72174330D01*
X36845548Y-72133912D01*
X36355881Y-71773724D01*
X33834605Y-74295000D01*
X33475395Y-74295000D01*
X30954119Y-71773724D01*
X30464452Y-72133912D01*
X30104151Y-72797882D01*
X29894372Y-73474048D01*
X29870000Y-73405225D01*
X29870000Y-67804717D01*
X29875653Y-67823353D01*
X29999618Y-68055274D01*
X30166445Y-68258555D01*
X30217391Y-68300365D01*
X32029643Y-70112619D01*
X32071445Y-70163555D01*
X32122381Y-70205357D01*
X32122383Y-70205359D01*
X32200386Y-70269374D01*
X32274725Y-70330382D01*
X32506646Y-70454347D01*
X32758294Y-70530683D01*
X32834691Y-70538207D01*
X32202792Y-70725548D01*
X31534330Y-71077445D01*
X31493912Y-71104452D01*
X31133724Y-71594119D01*
X33655000Y-74115395D01*
X36176276Y-71594119D01*
X35816088Y-71104452D01*
X35152118Y-70744151D01*
X34526325Y-70550000D01*
X38670000Y-70550000D01*
X38670001Y-72455579D01*
X38689318Y-72651706D01*
X38765654Y-72903354D01*
X38766928Y-72905737D01*
X38766928Y-73240000D01*
X38779188Y-73364482D01*
X38815498Y-73484180D01*
X38874463Y-73594494D01*
X38953815Y-73691185D01*
X39050506Y-73770537D01*
X39160820Y-73829502D01*
X39280518Y-73865812D01*
X39405000Y-73878072D01*
X40605000Y-73878072D01*
X40729482Y-73865812D01*
X40849180Y-73829502D01*
X40959494Y-73770537D01*
X41056185Y-73691185D01*
X41135537Y-73594494D01*
X41157962Y-73552540D01*
X41175872Y-73571938D01*
X41373616Y-73715786D01*
X41595623Y-73818292D01*
X41687391Y-73833462D01*
X41878000Y-73708731D01*
X41878000Y-72517000D01*
X41858000Y-72517000D01*
X41858000Y-72263000D01*
X41878000Y-72263000D01*
X41878000Y-71071269D01*
X42132000Y-71071269D01*
X42132000Y-72263000D01*
X42152000Y-72263000D01*
X42152000Y-72517000D01*
X42132000Y-72517000D01*
X42132000Y-73708731D01*
X42322609Y-73833462D01*
X42414377Y-73818292D01*
X42636384Y-73715786D01*
X42834128Y-73571938D01*
X43000009Y-73392276D01*
X43010568Y-73375022D01*
X43127499Y-73517502D01*
X43315552Y-73671833D01*
X43530100Y-73786511D01*
X43762899Y-73857130D01*
X44005000Y-73880975D01*
X44247102Y-73857130D01*
X44479901Y-73786511D01*
X44694449Y-73671833D01*
X44882502Y-73517502D01*
X45005001Y-73368237D01*
X45127499Y-73517502D01*
X45315552Y-73671833D01*
X45530100Y-73786511D01*
X45762899Y-73857130D01*
X46005000Y-73880975D01*
X46247102Y-73857130D01*
X46479901Y-73786511D01*
X46694449Y-73671833D01*
X46882502Y-73517502D01*
X47005001Y-73368237D01*
X47127499Y-73517502D01*
X47315552Y-73671833D01*
X47530100Y-73786511D01*
X47762899Y-73857130D01*
X48005000Y-73880975D01*
X48247102Y-73857130D01*
X48479901Y-73786511D01*
X48694449Y-73671833D01*
X48882502Y-73517502D01*
X49036833Y-73329449D01*
X49151511Y-73114900D01*
X49222130Y-72882101D01*
X49240000Y-72700664D01*
X49240000Y-72079335D01*
X49222130Y-71897898D01*
X49151511Y-71665099D01*
X49036833Y-71450551D01*
X48882502Y-71262498D01*
X48694448Y-71108167D01*
X48479900Y-70993489D01*
X48247101Y-70922870D01*
X48005000Y-70899025D01*
X47762898Y-70922870D01*
X47530099Y-70993489D01*
X47315551Y-71108167D01*
X47127498Y-71262498D01*
X47005000Y-71411763D01*
X46882502Y-71262498D01*
X46694448Y-71108167D01*
X46479900Y-70993489D01*
X46247101Y-70922870D01*
X46005000Y-70899025D01*
X45762898Y-70922870D01*
X45530099Y-70993489D01*
X45315551Y-71108167D01*
X45127498Y-71262498D01*
X45005000Y-71411763D01*
X44882502Y-71262498D01*
X44694448Y-71108167D01*
X44479900Y-70993489D01*
X44247101Y-70922870D01*
X44005000Y-70899025D01*
X43762898Y-70922870D01*
X43530099Y-70993489D01*
X43315551Y-71108167D01*
X43127498Y-71262498D01*
X43010568Y-71404978D01*
X43000009Y-71387724D01*
X42834128Y-71208062D01*
X42636384Y-71064214D01*
X42414377Y-70961708D01*
X42322609Y-70946538D01*
X42132000Y-71071269D01*
X41878000Y-71071269D01*
X41687391Y-70946538D01*
X41595623Y-70961708D01*
X41373616Y-71064214D01*
X41340000Y-71088668D01*
X41340000Y-70077074D01*
X41832408Y-69584666D01*
X42440403Y-68976672D01*
X42890500Y-68976672D01*
X43014982Y-68964412D01*
X43134680Y-68928102D01*
X43244994Y-68869137D01*
X43258477Y-68858072D01*
X44603800Y-68858072D01*
X44728282Y-68845812D01*
X44847980Y-68809502D01*
X44958294Y-68750537D01*
X45054985Y-68671185D01*
X45134337Y-68574494D01*
X45193302Y-68464180D01*
X45229612Y-68344482D01*
X45241872Y-68220000D01*
X45241872Y-66720000D01*
X45229612Y-66595518D01*
X45222800Y-66573061D01*
X52305000Y-66573061D01*
X52305000Y-66776939D01*
X52344774Y-66976898D01*
X52422795Y-67165256D01*
X52536063Y-67334774D01*
X52680226Y-67478937D01*
X52849744Y-67592205D01*
X53038102Y-67670226D01*
X53238061Y-67710000D01*
X53441939Y-67710000D01*
X53641898Y-67670226D01*
X53830256Y-67592205D01*
X53999774Y-67478937D01*
X54143937Y-67334774D01*
X54257205Y-67165256D01*
X54335226Y-66976898D01*
X54375000Y-66776939D01*
X54375000Y-66714801D01*
X55808779Y-65281023D01*
X55808783Y-65281018D01*
X55919801Y-65170000D01*
X55981939Y-65170000D01*
X56181898Y-65130226D01*
X56370256Y-65052205D01*
X56539774Y-64938937D01*
X56683937Y-64794774D01*
X56797205Y-64625256D01*
X56875226Y-64436898D01*
X56915000Y-64236939D01*
X56915000Y-64033061D01*
X56875226Y-63833102D01*
X56797205Y-63644744D01*
X56683937Y-63475226D01*
X56539774Y-63331063D01*
X56370256Y-63217795D01*
X56181898Y-63139774D01*
X55981939Y-63100000D01*
X55778061Y-63100000D01*
X55578102Y-63139774D01*
X55389744Y-63217795D01*
X55220226Y-63331063D01*
X55076063Y-63475226D01*
X54962795Y-63644744D01*
X54884774Y-63833102D01*
X54845000Y-64033061D01*
X54845000Y-64095199D01*
X54733982Y-64206217D01*
X54733977Y-64206221D01*
X53300199Y-65640000D01*
X53238061Y-65640000D01*
X53038102Y-65679774D01*
X52849744Y-65757795D01*
X52680226Y-65871063D01*
X52536063Y-66015226D01*
X52422795Y-66184744D01*
X52344774Y-66373102D01*
X52305000Y-66573061D01*
X45222800Y-66573061D01*
X45193302Y-66475820D01*
X45134337Y-66365506D01*
X45054985Y-66268815D01*
X44971133Y-66200000D01*
X45054985Y-66131185D01*
X45134337Y-66034494D01*
X45193302Y-65924180D01*
X45229612Y-65804482D01*
X45241872Y-65680000D01*
X45241872Y-64180000D01*
X45229612Y-64055518D01*
X45193302Y-63935820D01*
X45134337Y-63825506D01*
X45054985Y-63728815D01*
X44971133Y-63660000D01*
X45054985Y-63591185D01*
X45134337Y-63494494D01*
X45193302Y-63384180D01*
X45229612Y-63264482D01*
X45241872Y-63140000D01*
X45241872Y-61640000D01*
X45229612Y-61515518D01*
X45193302Y-61395820D01*
X45134337Y-61285506D01*
X45054985Y-61188815D01*
X44971133Y-61120000D01*
X45054985Y-61051185D01*
X45134337Y-60954494D01*
X45193302Y-60844180D01*
X45229612Y-60724482D01*
X45241872Y-60600000D01*
X45241872Y-59100000D01*
X45229612Y-58975518D01*
X45193302Y-58855820D01*
X45134337Y-58745506D01*
X45054985Y-58648815D01*
X44971133Y-58580000D01*
X45054985Y-58511185D01*
X45134337Y-58414494D01*
X45193302Y-58304180D01*
X45229612Y-58184482D01*
X45241872Y-58060000D01*
X45241872Y-56560000D01*
X45229612Y-56435518D01*
X45193302Y-56315820D01*
X45134337Y-56205506D01*
X45054985Y-56108815D01*
X44971133Y-56040000D01*
X45054985Y-55971185D01*
X45134337Y-55874494D01*
X45193302Y-55764180D01*
X45229612Y-55644482D01*
X45241872Y-55520000D01*
X45238800Y-55055750D01*
X45080050Y-54897000D01*
X43980800Y-54897000D01*
X43980800Y-54917000D01*
X43726800Y-54917000D01*
X43726800Y-54897000D01*
X42627550Y-54897000D01*
X42608950Y-54915600D01*
X42167500Y-54915600D01*
X42167500Y-54935600D01*
X41913500Y-54935600D01*
X41913500Y-54915600D01*
X40720345Y-54915600D01*
X40599024Y-55145490D01*
X40643675Y-55292699D01*
X40768859Y-55555520D01*
X40942912Y-55788869D01*
X41159145Y-55983778D01*
X41276034Y-56053405D01*
X41093868Y-56175125D01*
X40887025Y-56381968D01*
X40724510Y-56625189D01*
X40612568Y-56895442D01*
X40555500Y-57182340D01*
X40555500Y-57474860D01*
X40612568Y-57761758D01*
X40724510Y-58032011D01*
X40887025Y-58275232D01*
X41093868Y-58482075D01*
X41268260Y-58598600D01*
X41093868Y-58715125D01*
X40887025Y-58921968D01*
X40724510Y-59165189D01*
X40612568Y-59435442D01*
X40555500Y-59722340D01*
X40555500Y-59985593D01*
X40549502Y-59965820D01*
X40490537Y-59855506D01*
X40411185Y-59758815D01*
X40405000Y-59753739D01*
X40405000Y-59588049D01*
X40365226Y-59388090D01*
X40287205Y-59199732D01*
X40173937Y-59030214D01*
X40029774Y-58886051D01*
X39860256Y-58772783D01*
X39671898Y-58694762D01*
X39471939Y-58654988D01*
X39268061Y-58654988D01*
X39068102Y-58694762D01*
X38879744Y-58772783D01*
X38710226Y-58886051D01*
X38566063Y-59030214D01*
X38452795Y-59199732D01*
X38374774Y-59388090D01*
X38338207Y-59571928D01*
X37510000Y-59571928D01*
X37385518Y-59584188D01*
X37265820Y-59620498D01*
X37257397Y-59625000D01*
X36583671Y-59625000D01*
X36415261Y-59534983D01*
X36125913Y-59447210D01*
X35900408Y-59425000D01*
X33949592Y-59425000D01*
X33724087Y-59447210D01*
X33434739Y-59534983D01*
X33168073Y-59677519D01*
X32934339Y-59869339D01*
X32742519Y-60103073D01*
X32599983Y-60369739D01*
X32512210Y-60659087D01*
X32482573Y-60960000D01*
X32512210Y-61260913D01*
X32599983Y-61550261D01*
X32742519Y-61816927D01*
X32934339Y-62050661D01*
X33168073Y-62242481D01*
X33434739Y-62385017D01*
X33724087Y-62472790D01*
X33949592Y-62495000D01*
X35900408Y-62495000D01*
X36125913Y-62472790D01*
X36415261Y-62385017D01*
X36583671Y-62295000D01*
X37257397Y-62295000D01*
X37265820Y-62299502D01*
X37385518Y-62335812D01*
X37510000Y-62348072D01*
X38510000Y-62348072D01*
X38635136Y-62335681D01*
X38660064Y-62328091D01*
X38685518Y-62335812D01*
X38810000Y-62348072D01*
X39960000Y-62348072D01*
X40084482Y-62335812D01*
X40204180Y-62299502D01*
X40314494Y-62240537D01*
X40411185Y-62161185D01*
X40490537Y-62064494D01*
X40549502Y-61954180D01*
X40585812Y-61834482D01*
X40598072Y-61710000D01*
X40598072Y-60228882D01*
X40612568Y-60301758D01*
X40724510Y-60572011D01*
X40887025Y-60815232D01*
X41093868Y-61022075D01*
X41268260Y-61138600D01*
X41093868Y-61255125D01*
X40887025Y-61461968D01*
X40724510Y-61705189D01*
X40612568Y-61975442D01*
X40555500Y-62262340D01*
X40555500Y-62554860D01*
X40612568Y-62841758D01*
X40724510Y-63112011D01*
X40887025Y-63355232D01*
X41093868Y-63562075D01*
X41268260Y-63678600D01*
X41093868Y-63795125D01*
X40887025Y-64001968D01*
X40724510Y-64245189D01*
X40612568Y-64515442D01*
X40555500Y-64802340D01*
X40555500Y-65094860D01*
X40612568Y-65381758D01*
X40724510Y-65652011D01*
X40887025Y-65895232D01*
X41018880Y-66027087D01*
X40946320Y-66049098D01*
X40836006Y-66108063D01*
X40739315Y-66187415D01*
X40659963Y-66284106D01*
X40600998Y-66394420D01*
X40564688Y-66514118D01*
X40552428Y-66638600D01*
X40552428Y-67088697D01*
X39944434Y-67696692D01*
X39761126Y-67880000D01*
X33572976Y-67880000D01*
X32450000Y-66757026D01*
X32450000Y-65134740D01*
X32533964Y-65134740D01*
X32558245Y-65240087D01*
X32678138Y-65517204D01*
X32849790Y-65765606D01*
X33066604Y-65975748D01*
X33320249Y-66139554D01*
X33600977Y-66250729D01*
X33898000Y-66305000D01*
X34798000Y-66305000D01*
X34798000Y-64897000D01*
X35052000Y-64897000D01*
X35052000Y-66305000D01*
X35952000Y-66305000D01*
X36249023Y-66250729D01*
X36529751Y-66139554D01*
X36783396Y-65975748D01*
X37000210Y-65765606D01*
X37171862Y-65517204D01*
X37291755Y-65240087D01*
X37316036Y-65134740D01*
X37195378Y-64897000D01*
X35052000Y-64897000D01*
X34798000Y-64897000D01*
X32654622Y-64897000D01*
X32533964Y-65134740D01*
X32450000Y-65134740D01*
X32450000Y-64405260D01*
X32533964Y-64405260D01*
X32654622Y-64643000D01*
X34798000Y-64643000D01*
X34798000Y-63235000D01*
X35052000Y-63235000D01*
X35052000Y-64643000D01*
X37195378Y-64643000D01*
X37316036Y-64405260D01*
X37291755Y-64299913D01*
X37171862Y-64022796D01*
X37000210Y-63774394D01*
X36783396Y-63564252D01*
X36529751Y-63400446D01*
X36249023Y-63289271D01*
X35952000Y-63235000D01*
X35052000Y-63235000D01*
X34798000Y-63235000D01*
X33898000Y-63235000D01*
X33600977Y-63289271D01*
X33320249Y-63400446D01*
X33066604Y-63564252D01*
X32849790Y-63774394D01*
X32678138Y-64022796D01*
X32558245Y-64299913D01*
X32533964Y-64405260D01*
X32450000Y-64405260D01*
X32450000Y-55745000D01*
X32619499Y-55745000D01*
X32668739Y-55805000D01*
X32594463Y-55895506D01*
X32535498Y-56005820D01*
X32499188Y-56125518D01*
X32486928Y-56250000D01*
X32486928Y-58050000D01*
X32499188Y-58174482D01*
X32535498Y-58294180D01*
X32594463Y-58404494D01*
X32673815Y-58501185D01*
X32770506Y-58580537D01*
X32880820Y-58639502D01*
X33000518Y-58675812D01*
X33125000Y-58688072D01*
X36725000Y-58688072D01*
X36849482Y-58675812D01*
X36969180Y-58639502D01*
X37079494Y-58580537D01*
X37176185Y-58501185D01*
X37255537Y-58404494D01*
X37314502Y-58294180D01*
X37350812Y-58174482D01*
X37363072Y-58050000D01*
X37363072Y-56250000D01*
X37350812Y-56125518D01*
X37314502Y-56005820D01*
X37255537Y-55895506D01*
X37181261Y-55805000D01*
X37255537Y-55714494D01*
X37289201Y-55651514D01*
X37463623Y-55558284D01*
X37636449Y-55416449D01*
X37671996Y-55373135D01*
X38404558Y-54640573D01*
X38489405Y-54623696D01*
X38732359Y-54523061D01*
X38951013Y-54376962D01*
X39136962Y-54191013D01*
X39283061Y-53972359D01*
X39383696Y-53729405D01*
X39435000Y-53471486D01*
X39435000Y-53208514D01*
X39383696Y-52950595D01*
X39283061Y-52707641D01*
X39136962Y-52488987D01*
X38951013Y-52303038D01*
X38732359Y-52156939D01*
X38489405Y-52056304D01*
X38231486Y-52005000D01*
X37968514Y-52005000D01*
X37710595Y-52056304D01*
X37467641Y-52156939D01*
X37248987Y-52303038D01*
X37063038Y-52488987D01*
X36916939Y-52707641D01*
X36816304Y-52950595D01*
X36799427Y-53035442D01*
X36612941Y-53221928D01*
X35725000Y-53221928D01*
X35600518Y-53234188D01*
X35575000Y-53241929D01*
X35549482Y-53234188D01*
X35425000Y-53221928D01*
X34425000Y-53221928D01*
X34300518Y-53234188D01*
X34275000Y-53241929D01*
X34249482Y-53234188D01*
X34125000Y-53221928D01*
X33125000Y-53221928D01*
X33000518Y-53234188D01*
X32880820Y-53270498D01*
X32770506Y-53329463D01*
X32673815Y-53408815D01*
X32619499Y-53475000D01*
X32450000Y-53475000D01*
X32450000Y-48624740D01*
X32533964Y-48624740D01*
X32558245Y-48730087D01*
X32678138Y-49007204D01*
X32849790Y-49255606D01*
X33066604Y-49465748D01*
X33320249Y-49629554D01*
X33600977Y-49740729D01*
X33898000Y-49795000D01*
X34798000Y-49795000D01*
X34798000Y-48387000D01*
X35052000Y-48387000D01*
X35052000Y-49795000D01*
X35952000Y-49795000D01*
X36249023Y-49740729D01*
X36529751Y-49629554D01*
X36783396Y-49465748D01*
X37000210Y-49255606D01*
X37171862Y-49007204D01*
X37291755Y-48730087D01*
X37316036Y-48624740D01*
X37195378Y-48387000D01*
X35052000Y-48387000D01*
X34798000Y-48387000D01*
X32654622Y-48387000D01*
X32533964Y-48624740D01*
X32450000Y-48624740D01*
X32450000Y-47895260D01*
X32533964Y-47895260D01*
X32654622Y-48133000D01*
X34798000Y-48133000D01*
X34798000Y-46725000D01*
X35052000Y-46725000D01*
X35052000Y-48133000D01*
X37195378Y-48133000D01*
X37316036Y-47895260D01*
X37291755Y-47789913D01*
X37171862Y-47512796D01*
X37000210Y-47264394D01*
X36783396Y-47054252D01*
X36529751Y-46890446D01*
X36249023Y-46779271D01*
X35952000Y-46725000D01*
X35052000Y-46725000D01*
X34798000Y-46725000D01*
X33898000Y-46725000D01*
X33600977Y-46779271D01*
X33320249Y-46890446D01*
X33066604Y-47054252D01*
X32849790Y-47264394D01*
X32678138Y-47512796D01*
X32558245Y-47789913D01*
X32533964Y-47895260D01*
X32450000Y-47895260D01*
X32450000Y-39235000D01*
X32619499Y-39235000D01*
X32668739Y-39295000D01*
X32594463Y-39385506D01*
X32535498Y-39495820D01*
X32499188Y-39615518D01*
X32486928Y-39740000D01*
X32486928Y-41540000D01*
X32499188Y-41664482D01*
X32535498Y-41784180D01*
X32594463Y-41894494D01*
X32673815Y-41991185D01*
X32770506Y-42070537D01*
X32880820Y-42129502D01*
X33000518Y-42165812D01*
X33125000Y-42178072D01*
X36725000Y-42178072D01*
X36849482Y-42165812D01*
X36969180Y-42129502D01*
X37079494Y-42070537D01*
X37176185Y-41991185D01*
X37255537Y-41894494D01*
X37314502Y-41784180D01*
X37350812Y-41664482D01*
X37363072Y-41540000D01*
X37363072Y-39740000D01*
X37350812Y-39615518D01*
X37314502Y-39495820D01*
X37255537Y-39385506D01*
X37181261Y-39295000D01*
X37255537Y-39204494D01*
X37289201Y-39141514D01*
X37463623Y-39048284D01*
X37636449Y-38906449D01*
X37671996Y-38863135D01*
X38404558Y-38130573D01*
X38489405Y-38113696D01*
X38732359Y-38013061D01*
X38951013Y-37866962D01*
X39136962Y-37681013D01*
X39140667Y-37675468D01*
X40251205Y-38786008D01*
X40274999Y-38815001D01*
X40303992Y-38838795D01*
X40303996Y-38838799D01*
X40371752Y-38894404D01*
X40390724Y-38909974D01*
X40522753Y-38980546D01*
X40652181Y-39019807D01*
X40612568Y-39115442D01*
X40555500Y-39402340D01*
X40555500Y-39694860D01*
X40612568Y-39981758D01*
X40724510Y-40252011D01*
X40887025Y-40495232D01*
X41093868Y-40702075D01*
X41268260Y-40818600D01*
X41093868Y-40935125D01*
X40887025Y-41141968D01*
X40724510Y-41385189D01*
X40612568Y-41655442D01*
X40555500Y-41942340D01*
X40555500Y-42234860D01*
X40612568Y-42521758D01*
X40724510Y-42792011D01*
X40887025Y-43035232D01*
X41093868Y-43242075D01*
X41268260Y-43358600D01*
X41093868Y-43475125D01*
X40887025Y-43681968D01*
X40724510Y-43925189D01*
X40612568Y-44195442D01*
X40598072Y-44268318D01*
X40598072Y-43700000D01*
X40585812Y-43575518D01*
X40549502Y-43455820D01*
X40490537Y-43345506D01*
X40411185Y-43248815D01*
X40314494Y-43169463D01*
X40204180Y-43110498D01*
X40084482Y-43074188D01*
X39960000Y-43061928D01*
X38810000Y-43061928D01*
X38686173Y-43074059D01*
X38660065Y-43081949D01*
X38634482Y-43074188D01*
X38510000Y-43061928D01*
X37510000Y-43061928D01*
X37385518Y-43074188D01*
X37265820Y-43110498D01*
X37257397Y-43115000D01*
X36583671Y-43115000D01*
X36415261Y-43024983D01*
X36125913Y-42937210D01*
X35900408Y-42915000D01*
X33949592Y-42915000D01*
X33724087Y-42937210D01*
X33434739Y-43024983D01*
X33168073Y-43167519D01*
X32934339Y-43359339D01*
X32742519Y-43593073D01*
X32599983Y-43859739D01*
X32512210Y-44149087D01*
X32482573Y-44450000D01*
X32512210Y-44750913D01*
X32599983Y-45040261D01*
X32742519Y-45306927D01*
X32934339Y-45540661D01*
X33168073Y-45732481D01*
X33434739Y-45875017D01*
X33724087Y-45962790D01*
X33949592Y-45985000D01*
X35900408Y-45985000D01*
X36125913Y-45962790D01*
X36415261Y-45875017D01*
X36583671Y-45785000D01*
X37257397Y-45785000D01*
X37265820Y-45789502D01*
X37385518Y-45825812D01*
X37510000Y-45838072D01*
X38510000Y-45838072D01*
X38635136Y-45825681D01*
X38660064Y-45818091D01*
X38685518Y-45825812D01*
X38810000Y-45838072D01*
X39960000Y-45838072D01*
X40084482Y-45825812D01*
X40204180Y-45789502D01*
X40314494Y-45730537D01*
X40411185Y-45651185D01*
X40490537Y-45554494D01*
X40549502Y-45444180D01*
X40585812Y-45324482D01*
X40598072Y-45200000D01*
X40598072Y-44988882D01*
X40612568Y-45061758D01*
X40724510Y-45332011D01*
X40887025Y-45575232D01*
X41093868Y-45782075D01*
X41268260Y-45898600D01*
X41093868Y-46015125D01*
X40887025Y-46221968D01*
X40724510Y-46465189D01*
X40612568Y-46735442D01*
X40555500Y-47022340D01*
X40555500Y-47314860D01*
X40612568Y-47601758D01*
X40724510Y-47872011D01*
X40887025Y-48115232D01*
X41093868Y-48322075D01*
X41268260Y-48438600D01*
X41093868Y-48555125D01*
X40887025Y-48761968D01*
X40724510Y-49005189D01*
X40612568Y-49275442D01*
X40555500Y-49562340D01*
X40555500Y-49854860D01*
X40612568Y-50141758D01*
X40724510Y-50412011D01*
X40887025Y-50655232D01*
X41093868Y-50862075D01*
X41268260Y-50978600D01*
X41093868Y-51095125D01*
X40887025Y-51301968D01*
X40724510Y-51545189D01*
X40612568Y-51815442D01*
X40555500Y-52102340D01*
X40555500Y-52394860D01*
X40612568Y-52681758D01*
X40724510Y-52952011D01*
X40887025Y-53195232D01*
X41093868Y-53402075D01*
X41276034Y-53523795D01*
X41159145Y-53593422D01*
X40942912Y-53788331D01*
X40768859Y-54021680D01*
X40643675Y-54284501D01*
X40599024Y-54431710D01*
X40720345Y-54661600D01*
X41913500Y-54661600D01*
X41913500Y-54641600D01*
X42167500Y-54641600D01*
X42167500Y-54661600D01*
X43360655Y-54661600D01*
X43370471Y-54643000D01*
X43726800Y-54643000D01*
X43726800Y-54623000D01*
X43980800Y-54623000D01*
X43980800Y-54643000D01*
X45080050Y-54643000D01*
X45238800Y-54484250D01*
X45241872Y-54020000D01*
X45229612Y-53895518D01*
X45193302Y-53775820D01*
X45134337Y-53665506D01*
X45054985Y-53568815D01*
X44971133Y-53500000D01*
X45054985Y-53431185D01*
X45134337Y-53334494D01*
X45193302Y-53224180D01*
X45229612Y-53104482D01*
X45241872Y-52980000D01*
X45241872Y-51480000D01*
X45229612Y-51355518D01*
X45193302Y-51235820D01*
X45134337Y-51125506D01*
X45054985Y-51028815D01*
X44971133Y-50960000D01*
X45054985Y-50891185D01*
X45134337Y-50794494D01*
X45193302Y-50684180D01*
X45229612Y-50564482D01*
X45241872Y-50440000D01*
X45241872Y-48940000D01*
X45229612Y-48815518D01*
X45193302Y-48695820D01*
X45134337Y-48585506D01*
X45054985Y-48488815D01*
X44971133Y-48420000D01*
X45054985Y-48351185D01*
X45134337Y-48254494D01*
X45193302Y-48144180D01*
X45229612Y-48024482D01*
X45241872Y-47900000D01*
X45241872Y-46400000D01*
X45229612Y-46275518D01*
X45193302Y-46155820D01*
X45134337Y-46045506D01*
X45054985Y-45948815D01*
X44971133Y-45880000D01*
X45054985Y-45811185D01*
X45134337Y-45714494D01*
X45193302Y-45604180D01*
X45229612Y-45484482D01*
X45241872Y-45360000D01*
X45241872Y-45210000D01*
X49461289Y-45210000D01*
X49505226Y-45253937D01*
X49674744Y-45367205D01*
X49863102Y-45445226D01*
X50063061Y-45485000D01*
X50266939Y-45485000D01*
X50466898Y-45445226D01*
X50655256Y-45367205D01*
X50824774Y-45253937D01*
X50930955Y-45147756D01*
X52279600Y-46496402D01*
X52303398Y-46525400D01*
X52419123Y-46620373D01*
X52551152Y-46690945D01*
X52694413Y-46734402D01*
X52806066Y-46745399D01*
X52806076Y-46745399D01*
X52843399Y-46749075D01*
X52880722Y-46745399D01*
X59953377Y-46745399D01*
X59925000Y-46888061D01*
X59925000Y-47091939D01*
X59964774Y-47291898D01*
X60042795Y-47480256D01*
X60156063Y-47649774D01*
X60200001Y-47693712D01*
X60200000Y-59654088D01*
X60196324Y-59691410D01*
X60200000Y-59728732D01*
X60200000Y-59728742D01*
X60210997Y-59840395D01*
X60248857Y-59965204D01*
X60254454Y-59983656D01*
X60325026Y-60115686D01*
X60340593Y-60134654D01*
X60419999Y-60231411D01*
X60449003Y-60255214D01*
X62924991Y-62731203D01*
X62924990Y-70620208D01*
X62580714Y-70964484D01*
X62485099Y-70993489D01*
X62270551Y-71108167D01*
X62116691Y-71234436D01*
X62090537Y-71185506D01*
X62011185Y-71088815D01*
X61914494Y-71009463D01*
X61804180Y-70950498D01*
X61684482Y-70914188D01*
X61560000Y-70901928D01*
X60360000Y-70901928D01*
X60235518Y-70914188D01*
X60115820Y-70950498D01*
X60005506Y-71009463D01*
X59908815Y-71088815D01*
X59829463Y-71185506D01*
X59770498Y-71295820D01*
X59734188Y-71415518D01*
X59721928Y-71540000D01*
X59721928Y-73240000D01*
X59734188Y-73364482D01*
X59770498Y-73484180D01*
X59829463Y-73594494D01*
X59908815Y-73691185D01*
X60005506Y-73770537D01*
X60115820Y-73829502D01*
X60235518Y-73865812D01*
X60360000Y-73878072D01*
X61560000Y-73878072D01*
X61684482Y-73865812D01*
X61804180Y-73829502D01*
X61914494Y-73770537D01*
X62011185Y-73691185D01*
X62090537Y-73594494D01*
X62116692Y-73545563D01*
X62270552Y-73671833D01*
X62485100Y-73786511D01*
X62717899Y-73857130D01*
X62960000Y-73880975D01*
X63202102Y-73857130D01*
X63434901Y-73786511D01*
X63649449Y-73671833D01*
X63837502Y-73517502D01*
X63960001Y-73368237D01*
X64082499Y-73517502D01*
X64270552Y-73671833D01*
X64485100Y-73786511D01*
X64717899Y-73857130D01*
X64960000Y-73880975D01*
X65202102Y-73857130D01*
X65434901Y-73786511D01*
X65649449Y-73671833D01*
X65837502Y-73517502D01*
X65960001Y-73368237D01*
X66082499Y-73517502D01*
X66270552Y-73671833D01*
X66485100Y-73786511D01*
X66717899Y-73857130D01*
X66960000Y-73880975D01*
X67202102Y-73857130D01*
X67434901Y-73786511D01*
X67649449Y-73671833D01*
X67837502Y-73517502D01*
X67954432Y-73375022D01*
X67964991Y-73392276D01*
X68130872Y-73571938D01*
X68328616Y-73715786D01*
X68550623Y-73818292D01*
X68642391Y-73833462D01*
X68833000Y-73708731D01*
X68833000Y-72517000D01*
X69087000Y-72517000D01*
X69087000Y-73708731D01*
X69277609Y-73833462D01*
X69369377Y-73818292D01*
X69591384Y-73715786D01*
X69789128Y-73571938D01*
X69955009Y-73392276D01*
X70082652Y-73183705D01*
X70167152Y-72954239D01*
X70205262Y-72712697D01*
X70042553Y-72517000D01*
X69087000Y-72517000D01*
X68833000Y-72517000D01*
X68813000Y-72517000D01*
X68813000Y-72263000D01*
X68833000Y-72263000D01*
X68833000Y-71071269D01*
X69087000Y-71071269D01*
X69087000Y-72263000D01*
X70042553Y-72263000D01*
X70205262Y-72067303D01*
X70167152Y-71825761D01*
X70082652Y-71596295D01*
X70081321Y-71594119D01*
X73043724Y-71594119D01*
X75565000Y-74115395D01*
X78086276Y-71594119D01*
X77726088Y-71104452D01*
X77062118Y-70744151D01*
X76340615Y-70520306D01*
X75589305Y-70441520D01*
X74837062Y-70510822D01*
X74112792Y-70725548D01*
X73444330Y-71077445D01*
X73403912Y-71104452D01*
X73043724Y-71594119D01*
X70081321Y-71594119D01*
X69955009Y-71387724D01*
X69789128Y-71208062D01*
X69591384Y-71064214D01*
X69369377Y-70961708D01*
X69277609Y-70946538D01*
X69087000Y-71071269D01*
X68833000Y-71071269D01*
X68642391Y-70946538D01*
X68550623Y-70961708D01*
X68328616Y-71064214D01*
X68130872Y-71208062D01*
X67964991Y-71387724D01*
X67954432Y-71404978D01*
X67837502Y-71262498D01*
X67649448Y-71108167D01*
X67434900Y-70993489D01*
X67202101Y-70922870D01*
X66960000Y-70899025D01*
X66717898Y-70922870D01*
X66485099Y-70993489D01*
X66270551Y-71108167D01*
X66082498Y-71262498D01*
X65960000Y-71411763D01*
X65837502Y-71262498D01*
X65649448Y-71108167D01*
X65434900Y-70993489D01*
X65202101Y-70922870D01*
X64991976Y-70902174D01*
X64895000Y-70805199D01*
X64895000Y-68858072D01*
X66270000Y-68858072D01*
X66394482Y-68845812D01*
X66514180Y-68809502D01*
X66522603Y-68805000D01*
X66750375Y-68805000D01*
X66999842Y-68908332D01*
X67286740Y-68965400D01*
X67579260Y-68965400D01*
X67866158Y-68908332D01*
X68136411Y-68796390D01*
X68379632Y-68633875D01*
X68586475Y-68427032D01*
X68748990Y-68183811D01*
X68860932Y-67913558D01*
X68918000Y-67626660D01*
X68918000Y-67334140D01*
X68860932Y-67047242D01*
X68748990Y-66776989D01*
X68586475Y-66533768D01*
X68379632Y-66326925D01*
X68205240Y-66210400D01*
X68379632Y-66093875D01*
X68586475Y-65887032D01*
X68748990Y-65643811D01*
X68860932Y-65373558D01*
X68918000Y-65086660D01*
X68918000Y-64794140D01*
X68860932Y-64507242D01*
X68748990Y-64236989D01*
X68586475Y-63993768D01*
X68379632Y-63786925D01*
X68205240Y-63670400D01*
X68379632Y-63553875D01*
X68586475Y-63347032D01*
X68748990Y-63103811D01*
X68860932Y-62833558D01*
X68918000Y-62546660D01*
X68918000Y-62254140D01*
X68916459Y-62246391D01*
X69015820Y-62299502D01*
X69135518Y-62335812D01*
X69260000Y-62348072D01*
X70260000Y-62348072D01*
X70385136Y-62335681D01*
X70410064Y-62328091D01*
X70435518Y-62335812D01*
X70560000Y-62348072D01*
X71710000Y-62348072D01*
X71834482Y-62335812D01*
X71954180Y-62299502D01*
X71962603Y-62295000D01*
X72636329Y-62295000D01*
X72804739Y-62385017D01*
X73094087Y-62472790D01*
X73319592Y-62495000D01*
X75270408Y-62495000D01*
X75495913Y-62472790D01*
X75785261Y-62385017D01*
X76051927Y-62242481D01*
X76285661Y-62050661D01*
X76477481Y-61816927D01*
X76620017Y-61550261D01*
X76707790Y-61260913D01*
X76737427Y-60960000D01*
X76707790Y-60659087D01*
X76620017Y-60369739D01*
X76477481Y-60103073D01*
X76285661Y-59869339D01*
X76051927Y-59677519D01*
X75785261Y-59534983D01*
X75495913Y-59447210D01*
X75270408Y-59425000D01*
X73319592Y-59425000D01*
X73094087Y-59447210D01*
X72804739Y-59534983D01*
X72636329Y-59625000D01*
X71962603Y-59625000D01*
X71954180Y-59620498D01*
X71834482Y-59584188D01*
X71710000Y-59571928D01*
X70560000Y-59571928D01*
X70436173Y-59584059D01*
X70410065Y-59591949D01*
X70384482Y-59584188D01*
X70260000Y-59571928D01*
X69260000Y-59571928D01*
X69135518Y-59584188D01*
X69015820Y-59620498D01*
X68910564Y-59676759D01*
X68860932Y-59427242D01*
X68748990Y-59156989D01*
X68586475Y-58913768D01*
X68379632Y-58706925D01*
X68205240Y-58590400D01*
X68379632Y-58473875D01*
X68586475Y-58267032D01*
X68748990Y-58023811D01*
X68860932Y-57753558D01*
X68908436Y-57514740D01*
X71903964Y-57514740D01*
X71928245Y-57620087D01*
X72048138Y-57897204D01*
X72219790Y-58145606D01*
X72436604Y-58355748D01*
X72690249Y-58519554D01*
X72970977Y-58630729D01*
X73268000Y-58685000D01*
X74168000Y-58685000D01*
X74168000Y-57277000D01*
X74422000Y-57277000D01*
X74422000Y-58685000D01*
X75322000Y-58685000D01*
X75619023Y-58630729D01*
X75899751Y-58519554D01*
X76153396Y-58355748D01*
X76370210Y-58145606D01*
X76541862Y-57897204D01*
X76661755Y-57620087D01*
X76686036Y-57514740D01*
X76565378Y-57277000D01*
X74422000Y-57277000D01*
X74168000Y-57277000D01*
X72024622Y-57277000D01*
X71903964Y-57514740D01*
X68908436Y-57514740D01*
X68918000Y-57466660D01*
X68918000Y-57174140D01*
X68860932Y-56887242D01*
X68818690Y-56785260D01*
X71903964Y-56785260D01*
X72024622Y-57023000D01*
X74168000Y-57023000D01*
X74168000Y-55615000D01*
X74422000Y-55615000D01*
X74422000Y-57023000D01*
X76565378Y-57023000D01*
X76686036Y-56785260D01*
X76661755Y-56679913D01*
X76541862Y-56402796D01*
X76370210Y-56154394D01*
X76153396Y-55944252D01*
X75899751Y-55780446D01*
X75619023Y-55669271D01*
X75322000Y-55615000D01*
X74422000Y-55615000D01*
X74168000Y-55615000D01*
X73268000Y-55615000D01*
X72970977Y-55669271D01*
X72690249Y-55780446D01*
X72436604Y-55944252D01*
X72219790Y-56154394D01*
X72048138Y-56402796D01*
X71928245Y-56679913D01*
X71903964Y-56785260D01*
X68818690Y-56785260D01*
X68748990Y-56616989D01*
X68586475Y-56373768D01*
X68379632Y-56166925D01*
X68205240Y-56050400D01*
X68379632Y-55933875D01*
X68586475Y-55727032D01*
X68748990Y-55483811D01*
X68860932Y-55213558D01*
X68918000Y-54926660D01*
X68918000Y-54634140D01*
X68860932Y-54347242D01*
X68748990Y-54076989D01*
X68586475Y-53833768D01*
X68379632Y-53626925D01*
X68205240Y-53510400D01*
X68379632Y-53393875D01*
X68586475Y-53187032D01*
X68748990Y-52943811D01*
X68860932Y-52673558D01*
X68918000Y-52386660D01*
X68918000Y-52094140D01*
X68860932Y-51807242D01*
X68748990Y-51536989D01*
X68586475Y-51293768D01*
X68379632Y-51086925D01*
X68205240Y-50970400D01*
X68379632Y-50853875D01*
X68586475Y-50647032D01*
X68748990Y-50403811D01*
X68860932Y-50133558D01*
X68918000Y-49846660D01*
X68918000Y-49554140D01*
X68860932Y-49267242D01*
X68748990Y-48996989D01*
X68586475Y-48753768D01*
X68379632Y-48546925D01*
X68205240Y-48430400D01*
X68379632Y-48313875D01*
X68586475Y-48107032D01*
X68748990Y-47863811D01*
X68860932Y-47593558D01*
X68918000Y-47306660D01*
X68918000Y-47014140D01*
X68860932Y-46727242D01*
X68773058Y-46515096D01*
X68788405Y-46496396D01*
X69446729Y-45838072D01*
X70260000Y-45838072D01*
X70385136Y-45825681D01*
X70410064Y-45818091D01*
X70435518Y-45825812D01*
X70560000Y-45838072D01*
X71710000Y-45838072D01*
X71834482Y-45825812D01*
X71954180Y-45789502D01*
X71962603Y-45785000D01*
X72636329Y-45785000D01*
X72804739Y-45875017D01*
X73094087Y-45962790D01*
X73319592Y-45985000D01*
X75270408Y-45985000D01*
X75495913Y-45962790D01*
X75785261Y-45875017D01*
X76051927Y-45732481D01*
X76285661Y-45540661D01*
X76477481Y-45306927D01*
X76620017Y-45040261D01*
X76707790Y-44750913D01*
X76737427Y-44450000D01*
X76707790Y-44149087D01*
X76620017Y-43859739D01*
X76477481Y-43593073D01*
X76285661Y-43359339D01*
X76051927Y-43167519D01*
X75785261Y-43024983D01*
X75495913Y-42937210D01*
X75270408Y-42915000D01*
X73319592Y-42915000D01*
X73094087Y-42937210D01*
X72804739Y-43024983D01*
X72636329Y-43115000D01*
X71962603Y-43115000D01*
X71954180Y-43110498D01*
X71834482Y-43074188D01*
X71710000Y-43061928D01*
X70560000Y-43061928D01*
X70436173Y-43074059D01*
X70410065Y-43081949D01*
X70384482Y-43074188D01*
X70260000Y-43061928D01*
X69260000Y-43061928D01*
X69135518Y-43074188D01*
X69015820Y-43110498D01*
X68905506Y-43169463D01*
X68808815Y-43248815D01*
X68729463Y-43345506D01*
X68670498Y-43455820D01*
X68634188Y-43575518D01*
X68621928Y-43700000D01*
X68621928Y-43726827D01*
X68586475Y-43673768D01*
X68379632Y-43466925D01*
X68205240Y-43350400D01*
X68379632Y-43233875D01*
X68586475Y-43027032D01*
X68748990Y-42783811D01*
X68860932Y-42513558D01*
X68918000Y-42226660D01*
X68918000Y-41934140D01*
X68860932Y-41647242D01*
X68748990Y-41376989D01*
X68586475Y-41133768D01*
X68457447Y-41004740D01*
X71903964Y-41004740D01*
X71928245Y-41110087D01*
X72048138Y-41387204D01*
X72219790Y-41635606D01*
X72436604Y-41845748D01*
X72690249Y-42009554D01*
X72970977Y-42120729D01*
X73268000Y-42175000D01*
X74168000Y-42175000D01*
X74168000Y-40767000D01*
X74422000Y-40767000D01*
X74422000Y-42175000D01*
X75322000Y-42175000D01*
X75619023Y-42120729D01*
X75899751Y-42009554D01*
X76153396Y-41845748D01*
X76370210Y-41635606D01*
X76541862Y-41387204D01*
X76661755Y-41110087D01*
X76686036Y-41004740D01*
X76565378Y-40767000D01*
X74422000Y-40767000D01*
X74168000Y-40767000D01*
X72024622Y-40767000D01*
X71903964Y-41004740D01*
X68457447Y-41004740D01*
X68379632Y-40926925D01*
X68205240Y-40810400D01*
X68379632Y-40693875D01*
X68586475Y-40487032D01*
X68727976Y-40275260D01*
X71903964Y-40275260D01*
X72024622Y-40513000D01*
X74168000Y-40513000D01*
X74168000Y-39105000D01*
X74422000Y-39105000D01*
X74422000Y-40513000D01*
X76565378Y-40513000D01*
X76686036Y-40275260D01*
X76661755Y-40169913D01*
X76541862Y-39892796D01*
X76370210Y-39644394D01*
X76153396Y-39434252D01*
X75899751Y-39270446D01*
X75619023Y-39159271D01*
X75322000Y-39105000D01*
X74422000Y-39105000D01*
X74168000Y-39105000D01*
X73268000Y-39105000D01*
X72970977Y-39159271D01*
X72690249Y-39270446D01*
X72436604Y-39434252D01*
X72219790Y-39644394D01*
X72048138Y-39892796D01*
X71928245Y-40169913D01*
X71903964Y-40275260D01*
X68727976Y-40275260D01*
X68748990Y-40243811D01*
X68860932Y-39973558D01*
X68918000Y-39686660D01*
X68918000Y-39394140D01*
X68860932Y-39107242D01*
X68748990Y-38836989D01*
X68586475Y-38593768D01*
X68379632Y-38386925D01*
X68197466Y-38265205D01*
X68314355Y-38195578D01*
X68530588Y-38000669D01*
X68704641Y-37767320D01*
X68829825Y-37504499D01*
X68874476Y-37357290D01*
X68753155Y-37127400D01*
X67560000Y-37127400D01*
X67560000Y-37147400D01*
X67306000Y-37147400D01*
X67306000Y-37127400D01*
X66756650Y-37127400D01*
X66746250Y-37117000D01*
X65647000Y-37117000D01*
X65647000Y-37137000D01*
X65393000Y-37137000D01*
X65393000Y-37117000D01*
X65373000Y-37117000D01*
X65373000Y-36863000D01*
X65393000Y-36863000D01*
X65393000Y-36843000D01*
X65647000Y-36843000D01*
X65647000Y-36863000D01*
X66107357Y-36863000D01*
X66112845Y-36873400D01*
X67306000Y-36873400D01*
X67306000Y-36853400D01*
X67560000Y-36853400D01*
X67560000Y-36873400D01*
X68753155Y-36873400D01*
X68874476Y-36643510D01*
X68829825Y-36496301D01*
X68704641Y-36233480D01*
X68530588Y-36000131D01*
X68314355Y-35805222D01*
X68197466Y-35735595D01*
X68379632Y-35613875D01*
X68586475Y-35407032D01*
X68748990Y-35163811D01*
X68860932Y-34893558D01*
X68918000Y-34606660D01*
X68918000Y-34314140D01*
X68860932Y-34027242D01*
X68748990Y-33756989D01*
X68586475Y-33513768D01*
X68379632Y-33306925D01*
X68205240Y-33190400D01*
X68379632Y-33073875D01*
X68586475Y-32867032D01*
X68748990Y-32623811D01*
X68860932Y-32353558D01*
X68918000Y-32066660D01*
X68918000Y-31774140D01*
X68860932Y-31487242D01*
X68748990Y-31216989D01*
X68586475Y-30973768D01*
X68379632Y-30766925D01*
X68205240Y-30650400D01*
X68379632Y-30533875D01*
X68586475Y-30327032D01*
X68748990Y-30083811D01*
X68859263Y-29817587D01*
X68905506Y-29855537D01*
X69015820Y-29914502D01*
X69135518Y-29950812D01*
X69260000Y-29963072D01*
X70260000Y-29963072D01*
X70385136Y-29950681D01*
X70410064Y-29943091D01*
X70435518Y-29950812D01*
X70560000Y-29963072D01*
X71710000Y-29963072D01*
X71834482Y-29950812D01*
X71954180Y-29914502D01*
X71962603Y-29910000D01*
X72636329Y-29910000D01*
X72804739Y-30000017D01*
X73094087Y-30087790D01*
X73319592Y-30110000D01*
X75270408Y-30110000D01*
X75495913Y-30087790D01*
X75785261Y-30000017D01*
X76051927Y-29857481D01*
X76285661Y-29665661D01*
X76477481Y-29431927D01*
X76620017Y-29165261D01*
X76707790Y-28875913D01*
X76737427Y-28575000D01*
X76707790Y-28274087D01*
X76620017Y-27984739D01*
X76477481Y-27718073D01*
X76285661Y-27484339D01*
X76051927Y-27292519D01*
X75785261Y-27149983D01*
X75495913Y-27062210D01*
X75270408Y-27040000D01*
X73319592Y-27040000D01*
X73094087Y-27062210D01*
X72804739Y-27149983D01*
X72636329Y-27240000D01*
X71962603Y-27240000D01*
X71954180Y-27235498D01*
X71834482Y-27199188D01*
X71710000Y-27186928D01*
X70560000Y-27186928D01*
X70483230Y-27194449D01*
X70465546Y-27136151D01*
X70426023Y-27062210D01*
X70394974Y-27004121D01*
X70323799Y-26917395D01*
X70300001Y-26888397D01*
X70271003Y-26864599D01*
X68613295Y-25206892D01*
X68664846Y-25129740D01*
X71903964Y-25129740D01*
X71928245Y-25235087D01*
X72048138Y-25512204D01*
X72219790Y-25760606D01*
X72436604Y-25970748D01*
X72690249Y-26134554D01*
X72970977Y-26245729D01*
X73268000Y-26300000D01*
X74168000Y-26300000D01*
X74168000Y-24892000D01*
X74422000Y-24892000D01*
X74422000Y-26300000D01*
X75322000Y-26300000D01*
X75619023Y-26245729D01*
X75899751Y-26134554D01*
X76153396Y-25970748D01*
X76370210Y-25760606D01*
X76541862Y-25512204D01*
X76661755Y-25235087D01*
X76686036Y-25129740D01*
X76565378Y-24892000D01*
X74422000Y-24892000D01*
X74168000Y-24892000D01*
X72024622Y-24892000D01*
X71903964Y-25129740D01*
X68664846Y-25129740D01*
X68748990Y-25003811D01*
X68860932Y-24733558D01*
X68918000Y-24446660D01*
X68918000Y-24400260D01*
X71903964Y-24400260D01*
X72024622Y-24638000D01*
X74168000Y-24638000D01*
X74168000Y-23230000D01*
X74422000Y-23230000D01*
X74422000Y-24638000D01*
X76565378Y-24638000D01*
X76686036Y-24400260D01*
X76661755Y-24294913D01*
X76541862Y-24017796D01*
X76370210Y-23769394D01*
X76153396Y-23559252D01*
X75899751Y-23395446D01*
X75619023Y-23284271D01*
X75322000Y-23230000D01*
X74422000Y-23230000D01*
X74168000Y-23230000D01*
X73268000Y-23230000D01*
X72970977Y-23284271D01*
X72690249Y-23395446D01*
X72436604Y-23559252D01*
X72219790Y-23769394D01*
X72048138Y-24017796D01*
X71928245Y-24294913D01*
X71903964Y-24400260D01*
X68918000Y-24400260D01*
X68918000Y-24154140D01*
X68860932Y-23867242D01*
X68748990Y-23596989D01*
X68586475Y-23353768D01*
X68454620Y-23221913D01*
X68527180Y-23199902D01*
X68637494Y-23140937D01*
X68734185Y-23061585D01*
X68813537Y-22964894D01*
X68872502Y-22854580D01*
X68908812Y-22734882D01*
X68921072Y-22610400D01*
X68918000Y-22046150D01*
X68759250Y-21887400D01*
X67560000Y-21887400D01*
X67560000Y-21907400D01*
X67306000Y-21907400D01*
X67306000Y-21887400D01*
X66756650Y-21887400D01*
X66746250Y-21877000D01*
X65647000Y-21877000D01*
X65647000Y-21897000D01*
X65393000Y-21897000D01*
X65393000Y-21877000D01*
X65373000Y-21877000D01*
X65373000Y-21623000D01*
X65393000Y-21623000D01*
X65393000Y-20523750D01*
X65647000Y-20523750D01*
X65647000Y-21623000D01*
X66096350Y-21623000D01*
X66106750Y-21633400D01*
X67306000Y-21633400D01*
X67306000Y-20434150D01*
X67560000Y-20434150D01*
X67560000Y-21633400D01*
X68759250Y-21633400D01*
X68918000Y-21474650D01*
X68921072Y-20910400D01*
X68908812Y-20785918D01*
X68872502Y-20666220D01*
X68813537Y-20555906D01*
X68734185Y-20459215D01*
X68637494Y-20379863D01*
X68527180Y-20320898D01*
X68407482Y-20284588D01*
X68283000Y-20272328D01*
X67718750Y-20275400D01*
X67560000Y-20434150D01*
X67306000Y-20434150D01*
X67147250Y-20275400D01*
X66583000Y-20272328D01*
X66458518Y-20284588D01*
X66338820Y-20320898D01*
X66261960Y-20361981D01*
X65805750Y-20365000D01*
X65647000Y-20523750D01*
X65393000Y-20523750D01*
X65234250Y-20365000D01*
X64770000Y-20361928D01*
X64645518Y-20374188D01*
X64525820Y-20410498D01*
X64415506Y-20469463D01*
X64318815Y-20548815D01*
X64239463Y-20645506D01*
X64214488Y-20692231D01*
X64205546Y-20662753D01*
X64134974Y-20530724D01*
X64105880Y-20495273D01*
X64063799Y-20443996D01*
X64063795Y-20443992D01*
X64040001Y-20414999D01*
X64011008Y-20391205D01*
X62034828Y-18415027D01*
X69867075Y-18415027D01*
X70857405Y-19405358D01*
G37*
G04 #@! TD.AperFunction*
D31*
X57125226Y-20488937D02*
X57294744Y-20602205D01*
X57483102Y-20680226D01*
X57683061Y-20720000D01*
X57886939Y-20720000D01*
X58086898Y-20680226D01*
X58275256Y-20602205D01*
X58444774Y-20488937D01*
X58488711Y-20445000D01*
X60772199Y-20445000D01*
X61322000Y-20994802D01*
X61322000Y-21056939D01*
X61361774Y-21256898D01*
X61439795Y-21445256D01*
X61553063Y-21614774D01*
X61697226Y-21758937D01*
X61866744Y-21872205D01*
X62055102Y-21950226D01*
X62255061Y-21990000D01*
X62304097Y-21990000D01*
X62205226Y-22056063D01*
X62061063Y-22200226D01*
X61947795Y-22369744D01*
X61869774Y-22558102D01*
X61830000Y-22758061D01*
X61830000Y-22961939D01*
X61869774Y-23161898D01*
X61947795Y-23350256D01*
X62061063Y-23519774D01*
X62205226Y-23663937D01*
X62374744Y-23777205D01*
X62563102Y-23855226D01*
X62763061Y-23895000D01*
X62966939Y-23895000D01*
X63166898Y-23855226D01*
X63355256Y-23777205D01*
X63524774Y-23663937D01*
X63668937Y-23519774D01*
X63782205Y-23350256D01*
X63860226Y-23161898D01*
X63900000Y-22961939D01*
X63900000Y-22899802D01*
X64011004Y-22788798D01*
X64040001Y-22765001D01*
X64134974Y-22649276D01*
X64145650Y-22629302D01*
X64180498Y-22744180D01*
X64239463Y-22854494D01*
X64318815Y-22951185D01*
X64402667Y-23020000D01*
X64318815Y-23088815D01*
X64239463Y-23185506D01*
X64180498Y-23295820D01*
X64144188Y-23415518D01*
X64131928Y-23540000D01*
X64131928Y-25040000D01*
X64134301Y-25064091D01*
X64059598Y-25125398D01*
X64035800Y-25154396D01*
X62723983Y-26466214D01*
X62694979Y-26490017D01*
X62639851Y-26557192D01*
X62600006Y-26605742D01*
X62552756Y-26694140D01*
X62529434Y-26737772D01*
X62485977Y-26881033D01*
X62474980Y-26992686D01*
X62474980Y-26992696D01*
X62471304Y-27030018D01*
X62474980Y-27067340D01*
X62474981Y-38731562D01*
X62448766Y-38693114D01*
X62442977Y-38686187D01*
X62438441Y-38678391D01*
X62432794Y-38670672D01*
X62334793Y-38538672D01*
X62303368Y-38504004D01*
X62274022Y-38467535D01*
X62267280Y-38460751D01*
X62138280Y-38332751D01*
X62130282Y-38326234D01*
X62123470Y-38318491D01*
X62116436Y-38312010D01*
X61941437Y-38153010D01*
X61921283Y-38138011D01*
X61903108Y-38120666D01*
X61895537Y-38114822D01*
X61732536Y-37990822D01*
X61721512Y-37984023D01*
X61711697Y-37975581D01*
X61703835Y-37970136D01*
X61467835Y-37809136D01*
X61449550Y-37799124D01*
X61432778Y-37786749D01*
X61424530Y-37781906D01*
X60936531Y-37499906D01*
X60918602Y-37491765D01*
X60901969Y-37481235D01*
X60893397Y-37476991D01*
X60492488Y-37282008D01*
X60342834Y-37207934D01*
X60338769Y-36777530D01*
X60338007Y-36770445D01*
X60338488Y-36763331D01*
X60338133Y-36753773D01*
X60313133Y-36187773D01*
X60311539Y-36176612D01*
X60311773Y-36165348D01*
X60310972Y-36155818D01*
X60276972Y-35782818D01*
X60274853Y-35771719D01*
X60274559Y-35760431D01*
X60273313Y-35750949D01*
X60231313Y-35447949D01*
X60228833Y-35437614D01*
X60228081Y-35427022D01*
X60226410Y-35417605D01*
X60173410Y-35130605D01*
X60171944Y-35125514D01*
X60171413Y-35120236D01*
X60169466Y-35110872D01*
X60087466Y-34729872D01*
X60084263Y-34719864D01*
X60082748Y-34709475D01*
X60080387Y-34700207D01*
X60016387Y-34456207D01*
X60013553Y-34448544D01*
X60012071Y-34440517D01*
X60009362Y-34431345D01*
X59949362Y-34233345D01*
X59948708Y-34231764D01*
X59948367Y-34230092D01*
X59923211Y-34170081D01*
X59898291Y-34109795D01*
X59897343Y-34108371D01*
X59896683Y-34106797D01*
X59892084Y-34098411D01*
X59800084Y-33933411D01*
X59797023Y-33928997D01*
X59794801Y-33924108D01*
X59789956Y-33915862D01*
X59709956Y-33781862D01*
X59702646Y-33771960D01*
X59697004Y-33761025D01*
X59691755Y-33753031D01*
X59623754Y-33651030D01*
X59584676Y-33603269D01*
X59546324Y-33554928D01*
X59539629Y-33548097D01*
X59374629Y-33382097D01*
X59362784Y-33372308D01*
X59352549Y-33360856D01*
X59345465Y-33354430D01*
X58843465Y-32905430D01*
X58831715Y-32896827D01*
X58821416Y-32886535D01*
X58813982Y-32880518D01*
X58546982Y-32667518D01*
X58515875Y-32647332D01*
X58486653Y-32624516D01*
X58478540Y-32619450D01*
X58356540Y-32544450D01*
X58345828Y-32539230D01*
X58336096Y-32532366D01*
X58327747Y-32527700D01*
X57914747Y-32300700D01*
X57905632Y-32296794D01*
X57897296Y-32291434D01*
X57888755Y-32287130D01*
X57373755Y-32032130D01*
X57346666Y-32021871D01*
X57320885Y-32008677D01*
X57311962Y-32005233D01*
X57012963Y-31892233D01*
X57012842Y-31892200D01*
X57006004Y-31889646D01*
X56820005Y-31821646D01*
X56799936Y-31816463D01*
X56780757Y-31808627D01*
X56771573Y-31805955D01*
X56524574Y-31735955D01*
X56524544Y-31735950D01*
X56515718Y-31733509D01*
X56370718Y-31694509D01*
X56364137Y-31693413D01*
X56357857Y-31691184D01*
X56348559Y-31688944D01*
X56151559Y-31642944D01*
X56144978Y-31642073D01*
X56138651Y-31640061D01*
X56129283Y-31638132D01*
X55978284Y-31608132D01*
X55973201Y-31607630D01*
X55968292Y-31606224D01*
X55958873Y-31604565D01*
X55733873Y-31566565D01*
X55729268Y-31566244D01*
X55724798Y-31565095D01*
X55715336Y-31563695D01*
X55573336Y-31543695D01*
X55564461Y-31543320D01*
X55555777Y-31541453D01*
X55546268Y-31540430D01*
X55327268Y-31518430D01*
X55327170Y-31518430D01*
X55325544Y-31518259D01*
X55182544Y-31504259D01*
X55168322Y-31504261D01*
X55154271Y-31502081D01*
X55144718Y-31501611D01*
X55002718Y-31495611D01*
X54996570Y-31495953D01*
X54990460Y-31495203D01*
X54980898Y-31495037D01*
X54787898Y-31493037D01*
X54787850Y-31493041D01*
X54787027Y-31493028D01*
X54677027Y-31492028D01*
X54663913Y-31493194D01*
X54650787Y-31492293D01*
X54641229Y-31492639D01*
X54479229Y-31499639D01*
X54479174Y-31499647D01*
X54470539Y-31500069D01*
X54327538Y-31508069D01*
X54309041Y-31510933D01*
X54290335Y-31511170D01*
X54280836Y-31512290D01*
X54120836Y-31532290D01*
X54091790Y-31538849D01*
X54062199Y-31542221D01*
X54052862Y-31544291D01*
X53873861Y-31585291D01*
X53853110Y-31592235D01*
X53831631Y-31596392D01*
X53822482Y-31599181D01*
X53662482Y-31649181D01*
X53643202Y-31657347D01*
X53623010Y-31662851D01*
X53614096Y-31666317D01*
X53420096Y-31743317D01*
X53397428Y-31754991D01*
X53373513Y-31763841D01*
X53364940Y-31768079D01*
X53205171Y-31848459D01*
X52783034Y-32058546D01*
X52335641Y-32269598D01*
X52097495Y-32376258D01*
X51737732Y-32517499D01*
X51559346Y-32568654D01*
X51541756Y-32554362D01*
X51505750Y-32530536D01*
X51471492Y-32504276D01*
X51463335Y-32499282D01*
X51385335Y-32452282D01*
X51327129Y-32424554D01*
X51269118Y-32396423D01*
X51264797Y-32394861D01*
X51264641Y-32394787D01*
X51264474Y-32394744D01*
X51260123Y-32393172D01*
X51161123Y-32358172D01*
X51140595Y-32353103D01*
X51124130Y-32346604D01*
X51068875Y-32305308D01*
X51030697Y-32282211D01*
X50994095Y-32256671D01*
X50985723Y-32252048D01*
X50869722Y-32189048D01*
X50839324Y-32176203D01*
X50810344Y-32160409D01*
X50801513Y-32156735D01*
X50725513Y-32125735D01*
X50719419Y-32123919D01*
X50713735Y-32121057D01*
X50655422Y-32104852D01*
X50597390Y-32087563D01*
X50591052Y-32086965D01*
X50584927Y-32085263D01*
X50575495Y-32083679D01*
X50519494Y-32074679D01*
X50487506Y-32072706D01*
X50455879Y-32067485D01*
X50420945Y-32068599D01*
X50386059Y-32066447D01*
X50354291Y-32070725D01*
X50322258Y-32071747D01*
X50312783Y-32073049D01*
X50229783Y-32085049D01*
X50199361Y-32092537D01*
X50168317Y-32096824D01*
X50134601Y-32108475D01*
X50099968Y-32116999D01*
X50071576Y-32130254D01*
X50041959Y-32140489D01*
X50033295Y-32144541D01*
X49928295Y-32194541D01*
X49908985Y-32206173D01*
X49888333Y-32215207D01*
X49880019Y-32219935D01*
X49771019Y-32282935D01*
X49740261Y-32304978D01*
X49707738Y-32324331D01*
X49700075Y-32330054D01*
X49572075Y-32427054D01*
X49538366Y-32458220D01*
X49502815Y-32487253D01*
X49496080Y-32494043D01*
X49407080Y-32585043D01*
X49395077Y-32599991D01*
X49381117Y-32613117D01*
X49374872Y-32620361D01*
X49255872Y-32760361D01*
X49248232Y-32771368D01*
X49238972Y-32781048D01*
X49233119Y-32788612D01*
X49082119Y-32986612D01*
X49076173Y-32996228D01*
X49068749Y-33004755D01*
X49063257Y-33012585D01*
X48942424Y-33187449D01*
X48807736Y-33377808D01*
X48717203Y-33489291D01*
X48679368Y-33529352D01*
X48658393Y-33544217D01*
X48617116Y-33567913D01*
X48437974Y-33642013D01*
X48412617Y-33655537D01*
X48385917Y-33666147D01*
X48377447Y-33670588D01*
X48212447Y-33758588D01*
X48209866Y-33760307D01*
X48128281Y-33802475D01*
X48118256Y-33808968D01*
X48107319Y-33813775D01*
X48099013Y-33818517D01*
X48018014Y-33865517D01*
X48017821Y-33865656D01*
X48017606Y-33865754D01*
X48009370Y-33870617D01*
X47910790Y-33929765D01*
X47772470Y-34011769D01*
X47756173Y-34023723D01*
X47738398Y-34033349D01*
X47730510Y-34038757D01*
X47582510Y-34141757D01*
X47567675Y-34154398D01*
X47551233Y-34164869D01*
X47543747Y-34170822D01*
X47300747Y-34366822D01*
X47285667Y-34381636D01*
X47268744Y-34394304D01*
X47261728Y-34400804D01*
X47029728Y-34618804D01*
X47015410Y-34635170D01*
X46999067Y-34649501D01*
X46992574Y-34656524D01*
X46827574Y-34837524D01*
X46826033Y-34839587D01*
X46824134Y-34841326D01*
X46817794Y-34848486D01*
X46590794Y-35108487D01*
X46579167Y-35124773D01*
X46565418Y-35139321D01*
X46559611Y-35146920D01*
X46480000Y-35252634D01*
X46480000Y-21904801D01*
X46919801Y-21465000D01*
X50681928Y-21465000D01*
X50681928Y-22965000D01*
X50694188Y-23089482D01*
X50730498Y-23209180D01*
X50789463Y-23319494D01*
X50868815Y-23416185D01*
X50965506Y-23495537D01*
X51075820Y-23554502D01*
X51195518Y-23590812D01*
X51320000Y-23603072D01*
X52820000Y-23603072D01*
X52944482Y-23590812D01*
X53064180Y-23554502D01*
X53174494Y-23495537D01*
X53271185Y-23416185D01*
X53335897Y-23337333D01*
X53408815Y-23426185D01*
X53505506Y-23505537D01*
X53615820Y-23564502D01*
X53735518Y-23600812D01*
X53860000Y-23613072D01*
X55360000Y-23613072D01*
X55484482Y-23600812D01*
X55604180Y-23564502D01*
X55714494Y-23505537D01*
X55811185Y-23426185D01*
X55887003Y-23333800D01*
X55954615Y-23416185D01*
X56051306Y-23495537D01*
X56161620Y-23554502D01*
X56281318Y-23590812D01*
X56405800Y-23603072D01*
X57905800Y-23603072D01*
X58030282Y-23590812D01*
X58149980Y-23554502D01*
X58260294Y-23495537D01*
X58356985Y-23416185D01*
X58436337Y-23319494D01*
X58495302Y-23209180D01*
X58531612Y-23089482D01*
X58543872Y-22965000D01*
X58543872Y-21465000D01*
X58531612Y-21340518D01*
X58495302Y-21220820D01*
X58436337Y-21110506D01*
X58356985Y-21013815D01*
X58260294Y-20934463D01*
X58149980Y-20875498D01*
X58030282Y-20839188D01*
X57905800Y-20826928D01*
X56405800Y-20826928D01*
X56281318Y-20839188D01*
X56161620Y-20875498D01*
X56051306Y-20934463D01*
X55954615Y-21013815D01*
X55878797Y-21106200D01*
X55811185Y-21023815D01*
X55714494Y-20944463D01*
X55604180Y-20885498D01*
X55484482Y-20849188D01*
X55360000Y-20836928D01*
X53860000Y-20836928D01*
X53735518Y-20849188D01*
X53615820Y-20885498D01*
X53505506Y-20944463D01*
X53408815Y-21023815D01*
X53344103Y-21102667D01*
X53271185Y-21013815D01*
X53174494Y-20934463D01*
X53064180Y-20875498D01*
X52944482Y-20839188D01*
X52820000Y-20826928D01*
X51320000Y-20826928D01*
X51195518Y-20839188D01*
X51075820Y-20875498D01*
X50965506Y-20934463D01*
X50868815Y-21013815D01*
X50789463Y-21110506D01*
X50730498Y-21220820D01*
X50694188Y-21340518D01*
X50681928Y-21465000D01*
X46919801Y-21465000D01*
X47939802Y-20445000D01*
X57081289Y-20445000D01*
X57125226Y-20488937D01*
G04 #@! TA.AperFunction,Conductor*
D32*
G36*
X57125226Y-20488937D02*
G01*
X57294744Y-20602205D01*
X57483102Y-20680226D01*
X57683061Y-20720000D01*
X57886939Y-20720000D01*
X58086898Y-20680226D01*
X58275256Y-20602205D01*
X58444774Y-20488937D01*
X58488711Y-20445000D01*
X60772199Y-20445000D01*
X61322000Y-20994802D01*
X61322000Y-21056939D01*
X61361774Y-21256898D01*
X61439795Y-21445256D01*
X61553063Y-21614774D01*
X61697226Y-21758937D01*
X61866744Y-21872205D01*
X62055102Y-21950226D01*
X62255061Y-21990000D01*
X62304097Y-21990000D01*
X62205226Y-22056063D01*
X62061063Y-22200226D01*
X61947795Y-22369744D01*
X61869774Y-22558102D01*
X61830000Y-22758061D01*
X61830000Y-22961939D01*
X61869774Y-23161898D01*
X61947795Y-23350256D01*
X62061063Y-23519774D01*
X62205226Y-23663937D01*
X62374744Y-23777205D01*
X62563102Y-23855226D01*
X62763061Y-23895000D01*
X62966939Y-23895000D01*
X63166898Y-23855226D01*
X63355256Y-23777205D01*
X63524774Y-23663937D01*
X63668937Y-23519774D01*
X63782205Y-23350256D01*
X63860226Y-23161898D01*
X63900000Y-22961939D01*
X63900000Y-22899802D01*
X64011004Y-22788798D01*
X64040001Y-22765001D01*
X64134974Y-22649276D01*
X64145650Y-22629302D01*
X64180498Y-22744180D01*
X64239463Y-22854494D01*
X64318815Y-22951185D01*
X64402667Y-23020000D01*
X64318815Y-23088815D01*
X64239463Y-23185506D01*
X64180498Y-23295820D01*
X64144188Y-23415518D01*
X64131928Y-23540000D01*
X64131928Y-25040000D01*
X64134301Y-25064091D01*
X64059598Y-25125398D01*
X64035800Y-25154396D01*
X62723983Y-26466214D01*
X62694979Y-26490017D01*
X62639851Y-26557192D01*
X62600006Y-26605742D01*
X62552756Y-26694140D01*
X62529434Y-26737772D01*
X62485977Y-26881033D01*
X62474980Y-26992686D01*
X62474980Y-26992696D01*
X62471304Y-27030018D01*
X62474980Y-27067340D01*
X62474981Y-38731562D01*
X62448766Y-38693114D01*
X62442977Y-38686187D01*
X62438441Y-38678391D01*
X62432794Y-38670672D01*
X62334793Y-38538672D01*
X62303368Y-38504004D01*
X62274022Y-38467535D01*
X62267280Y-38460751D01*
X62138280Y-38332751D01*
X62130282Y-38326234D01*
X62123470Y-38318491D01*
X62116436Y-38312010D01*
X61941437Y-38153010D01*
X61921283Y-38138011D01*
X61903108Y-38120666D01*
X61895537Y-38114822D01*
X61732536Y-37990822D01*
X61721512Y-37984023D01*
X61711697Y-37975581D01*
X61703835Y-37970136D01*
X61467835Y-37809136D01*
X61449550Y-37799124D01*
X61432778Y-37786749D01*
X61424530Y-37781906D01*
X60936531Y-37499906D01*
X60918602Y-37491765D01*
X60901969Y-37481235D01*
X60893397Y-37476991D01*
X60492488Y-37282008D01*
X60342834Y-37207934D01*
X60338769Y-36777530D01*
X60338007Y-36770445D01*
X60338488Y-36763331D01*
X60338133Y-36753773D01*
X60313133Y-36187773D01*
X60311539Y-36176612D01*
X60311773Y-36165348D01*
X60310972Y-36155818D01*
X60276972Y-35782818D01*
X60274853Y-35771719D01*
X60274559Y-35760431D01*
X60273313Y-35750949D01*
X60231313Y-35447949D01*
X60228833Y-35437614D01*
X60228081Y-35427022D01*
X60226410Y-35417605D01*
X60173410Y-35130605D01*
X60171944Y-35125514D01*
X60171413Y-35120236D01*
X60169466Y-35110872D01*
X60087466Y-34729872D01*
X60084263Y-34719864D01*
X60082748Y-34709475D01*
X60080387Y-34700207D01*
X60016387Y-34456207D01*
X60013553Y-34448544D01*
X60012071Y-34440517D01*
X60009362Y-34431345D01*
X59949362Y-34233345D01*
X59948708Y-34231764D01*
X59948367Y-34230092D01*
X59923211Y-34170081D01*
X59898291Y-34109795D01*
X59897343Y-34108371D01*
X59896683Y-34106797D01*
X59892084Y-34098411D01*
X59800084Y-33933411D01*
X59797023Y-33928997D01*
X59794801Y-33924108D01*
X59789956Y-33915862D01*
X59709956Y-33781862D01*
X59702646Y-33771960D01*
X59697004Y-33761025D01*
X59691755Y-33753031D01*
X59623754Y-33651030D01*
X59584676Y-33603269D01*
X59546324Y-33554928D01*
X59539629Y-33548097D01*
X59374629Y-33382097D01*
X59362784Y-33372308D01*
X59352549Y-33360856D01*
X59345465Y-33354430D01*
X58843465Y-32905430D01*
X58831715Y-32896827D01*
X58821416Y-32886535D01*
X58813982Y-32880518D01*
X58546982Y-32667518D01*
X58515875Y-32647332D01*
X58486653Y-32624516D01*
X58478540Y-32619450D01*
X58356540Y-32544450D01*
X58345828Y-32539230D01*
X58336096Y-32532366D01*
X58327747Y-32527700D01*
X57914747Y-32300700D01*
X57905632Y-32296794D01*
X57897296Y-32291434D01*
X57888755Y-32287130D01*
X57373755Y-32032130D01*
X57346666Y-32021871D01*
X57320885Y-32008677D01*
X57311962Y-32005233D01*
X57012963Y-31892233D01*
X57012842Y-31892200D01*
X57006004Y-31889646D01*
X56820005Y-31821646D01*
X56799936Y-31816463D01*
X56780757Y-31808627D01*
X56771573Y-31805955D01*
X56524574Y-31735955D01*
X56524544Y-31735950D01*
X56515718Y-31733509D01*
X56370718Y-31694509D01*
X56364137Y-31693413D01*
X56357857Y-31691184D01*
X56348559Y-31688944D01*
X56151559Y-31642944D01*
X56144978Y-31642073D01*
X56138651Y-31640061D01*
X56129283Y-31638132D01*
X55978284Y-31608132D01*
X55973201Y-31607630D01*
X55968292Y-31606224D01*
X55958873Y-31604565D01*
X55733873Y-31566565D01*
X55729268Y-31566244D01*
X55724798Y-31565095D01*
X55715336Y-31563695D01*
X55573336Y-31543695D01*
X55564461Y-31543320D01*
X55555777Y-31541453D01*
X55546268Y-31540430D01*
X55327268Y-31518430D01*
X55327170Y-31518430D01*
X55325544Y-31518259D01*
X55182544Y-31504259D01*
X55168322Y-31504261D01*
X55154271Y-31502081D01*
X55144718Y-31501611D01*
X55002718Y-31495611D01*
X54996570Y-31495953D01*
X54990460Y-31495203D01*
X54980898Y-31495037D01*
X54787898Y-31493037D01*
X54787850Y-31493041D01*
X54787027Y-31493028D01*
X54677027Y-31492028D01*
X54663913Y-31493194D01*
X54650787Y-31492293D01*
X54641229Y-31492639D01*
X54479229Y-31499639D01*
X54479174Y-31499647D01*
X54470539Y-31500069D01*
X54327538Y-31508069D01*
X54309041Y-31510933D01*
X54290335Y-31511170D01*
X54280836Y-31512290D01*
X54120836Y-31532290D01*
X54091790Y-31538849D01*
X54062199Y-31542221D01*
X54052862Y-31544291D01*
X53873861Y-31585291D01*
X53853110Y-31592235D01*
X53831631Y-31596392D01*
X53822482Y-31599181D01*
X53662482Y-31649181D01*
X53643202Y-31657347D01*
X53623010Y-31662851D01*
X53614096Y-31666317D01*
X53420096Y-31743317D01*
X53397428Y-31754991D01*
X53373513Y-31763841D01*
X53364940Y-31768079D01*
X53205171Y-31848459D01*
X52783034Y-32058546D01*
X52335641Y-32269598D01*
X52097495Y-32376258D01*
X51737732Y-32517499D01*
X51559346Y-32568654D01*
X51541756Y-32554362D01*
X51505750Y-32530536D01*
X51471492Y-32504276D01*
X51463335Y-32499282D01*
X51385335Y-32452282D01*
X51327129Y-32424554D01*
X51269118Y-32396423D01*
X51264797Y-32394861D01*
X51264641Y-32394787D01*
X51264474Y-32394744D01*
X51260123Y-32393172D01*
X51161123Y-32358172D01*
X51140595Y-32353103D01*
X51124130Y-32346604D01*
X51068875Y-32305308D01*
X51030697Y-32282211D01*
X50994095Y-32256671D01*
X50985723Y-32252048D01*
X50869722Y-32189048D01*
X50839324Y-32176203D01*
X50810344Y-32160409D01*
X50801513Y-32156735D01*
X50725513Y-32125735D01*
X50719419Y-32123919D01*
X50713735Y-32121057D01*
X50655422Y-32104852D01*
X50597390Y-32087563D01*
X50591052Y-32086965D01*
X50584927Y-32085263D01*
X50575495Y-32083679D01*
X50519494Y-32074679D01*
X50487506Y-32072706D01*
X50455879Y-32067485D01*
X50420945Y-32068599D01*
X50386059Y-32066447D01*
X50354291Y-32070725D01*
X50322258Y-32071747D01*
X50312783Y-32073049D01*
X50229783Y-32085049D01*
X50199361Y-32092537D01*
X50168317Y-32096824D01*
X50134601Y-32108475D01*
X50099968Y-32116999D01*
X50071576Y-32130254D01*
X50041959Y-32140489D01*
X50033295Y-32144541D01*
X49928295Y-32194541D01*
X49908985Y-32206173D01*
X49888333Y-32215207D01*
X49880019Y-32219935D01*
X49771019Y-32282935D01*
X49740261Y-32304978D01*
X49707738Y-32324331D01*
X49700075Y-32330054D01*
X49572075Y-32427054D01*
X49538366Y-32458220D01*
X49502815Y-32487253D01*
X49496080Y-32494043D01*
X49407080Y-32585043D01*
X49395077Y-32599991D01*
X49381117Y-32613117D01*
X49374872Y-32620361D01*
X49255872Y-32760361D01*
X49248232Y-32771368D01*
X49238972Y-32781048D01*
X49233119Y-32788612D01*
X49082119Y-32986612D01*
X49076173Y-32996228D01*
X49068749Y-33004755D01*
X49063257Y-33012585D01*
X48942424Y-33187449D01*
X48807736Y-33377808D01*
X48717203Y-33489291D01*
X48679368Y-33529352D01*
X48658393Y-33544217D01*
X48617116Y-33567913D01*
X48437974Y-33642013D01*
X48412617Y-33655537D01*
X48385917Y-33666147D01*
X48377447Y-33670588D01*
X48212447Y-33758588D01*
X48209866Y-33760307D01*
X48128281Y-33802475D01*
X48118256Y-33808968D01*
X48107319Y-33813775D01*
X48099013Y-33818517D01*
X48018014Y-33865517D01*
X48017821Y-33865656D01*
X48017606Y-33865754D01*
X48009370Y-33870617D01*
X47910790Y-33929765D01*
X47772470Y-34011769D01*
X47756173Y-34023723D01*
X47738398Y-34033349D01*
X47730510Y-34038757D01*
X47582510Y-34141757D01*
X47567675Y-34154398D01*
X47551233Y-34164869D01*
X47543747Y-34170822D01*
X47300747Y-34366822D01*
X47285667Y-34381636D01*
X47268744Y-34394304D01*
X47261728Y-34400804D01*
X47029728Y-34618804D01*
X47015410Y-34635170D01*
X46999067Y-34649501D01*
X46992574Y-34656524D01*
X46827574Y-34837524D01*
X46826033Y-34839587D01*
X46824134Y-34841326D01*
X46817794Y-34848486D01*
X46590794Y-35108487D01*
X46579167Y-35124773D01*
X46565418Y-35139321D01*
X46559611Y-35146920D01*
X46480000Y-35252634D01*
X46480000Y-21904801D01*
X46919801Y-21465000D01*
X50681928Y-21465000D01*
X50681928Y-22965000D01*
X50694188Y-23089482D01*
X50730498Y-23209180D01*
X50789463Y-23319494D01*
X50868815Y-23416185D01*
X50965506Y-23495537D01*
X51075820Y-23554502D01*
X51195518Y-23590812D01*
X51320000Y-23603072D01*
X52820000Y-23603072D01*
X52944482Y-23590812D01*
X53064180Y-23554502D01*
X53174494Y-23495537D01*
X53271185Y-23416185D01*
X53335897Y-23337333D01*
X53408815Y-23426185D01*
X53505506Y-23505537D01*
X53615820Y-23564502D01*
X53735518Y-23600812D01*
X53860000Y-23613072D01*
X55360000Y-23613072D01*
X55484482Y-23600812D01*
X55604180Y-23564502D01*
X55714494Y-23505537D01*
X55811185Y-23426185D01*
X55887003Y-23333800D01*
X55954615Y-23416185D01*
X56051306Y-23495537D01*
X56161620Y-23554502D01*
X56281318Y-23590812D01*
X56405800Y-23603072D01*
X57905800Y-23603072D01*
X58030282Y-23590812D01*
X58149980Y-23554502D01*
X58260294Y-23495537D01*
X58356985Y-23416185D01*
X58436337Y-23319494D01*
X58495302Y-23209180D01*
X58531612Y-23089482D01*
X58543872Y-22965000D01*
X58543872Y-21465000D01*
X58531612Y-21340518D01*
X58495302Y-21220820D01*
X58436337Y-21110506D01*
X58356985Y-21013815D01*
X58260294Y-20934463D01*
X58149980Y-20875498D01*
X58030282Y-20839188D01*
X57905800Y-20826928D01*
X56405800Y-20826928D01*
X56281318Y-20839188D01*
X56161620Y-20875498D01*
X56051306Y-20934463D01*
X55954615Y-21013815D01*
X55878797Y-21106200D01*
X55811185Y-21023815D01*
X55714494Y-20944463D01*
X55604180Y-20885498D01*
X55484482Y-20849188D01*
X55360000Y-20836928D01*
X53860000Y-20836928D01*
X53735518Y-20849188D01*
X53615820Y-20885498D01*
X53505506Y-20944463D01*
X53408815Y-21023815D01*
X53344103Y-21102667D01*
X53271185Y-21013815D01*
X53174494Y-20934463D01*
X53064180Y-20875498D01*
X52944482Y-20839188D01*
X52820000Y-20826928D01*
X51320000Y-20826928D01*
X51195518Y-20839188D01*
X51075820Y-20875498D01*
X50965506Y-20934463D01*
X50868815Y-21013815D01*
X50789463Y-21110506D01*
X50730498Y-21220820D01*
X50694188Y-21340518D01*
X50681928Y-21465000D01*
X46919801Y-21465000D01*
X47939802Y-20445000D01*
X57081289Y-20445000D01*
X57125226Y-20488937D01*
G37*
G04 #@! TD.AperFunction*
D31*
X40887025Y-23361968D02*
X40724510Y-23605189D01*
X40612568Y-23875442D01*
X40555500Y-24162340D01*
X40555500Y-24454860D01*
X40612568Y-24741758D01*
X40724510Y-25012011D01*
X40887025Y-25255232D01*
X41093868Y-25462075D01*
X41268260Y-25578600D01*
X41093868Y-25695125D01*
X40887025Y-25901968D01*
X40724510Y-26145189D01*
X40612568Y-26415442D01*
X40555500Y-26702340D01*
X40555500Y-26994860D01*
X40612568Y-27281758D01*
X40724510Y-27552011D01*
X40887025Y-27795232D01*
X41093868Y-28002075D01*
X41268260Y-28118600D01*
X41093868Y-28235125D01*
X40887025Y-28441968D01*
X40724510Y-28685189D01*
X40612568Y-28955442D01*
X40598072Y-29028318D01*
X40598072Y-27825000D01*
X40585812Y-27700518D01*
X40549502Y-27580820D01*
X40490537Y-27470506D01*
X40411185Y-27373815D01*
X40314494Y-27294463D01*
X40204180Y-27235498D01*
X40084482Y-27199188D01*
X39960000Y-27186928D01*
X38810000Y-27186928D01*
X38686173Y-27199059D01*
X38660065Y-27206949D01*
X38634482Y-27199188D01*
X38510000Y-27186928D01*
X37510000Y-27186928D01*
X37385518Y-27199188D01*
X37265820Y-27235498D01*
X37257397Y-27240000D01*
X36583671Y-27240000D01*
X36415261Y-27149983D01*
X36125913Y-27062210D01*
X35900408Y-27040000D01*
X33949592Y-27040000D01*
X33724087Y-27062210D01*
X33434739Y-27149983D01*
X33168073Y-27292519D01*
X32934339Y-27484339D01*
X32742519Y-27718073D01*
X32599983Y-27984739D01*
X32512210Y-28274087D01*
X32482573Y-28575000D01*
X32512210Y-28875913D01*
X32599983Y-29165261D01*
X32742519Y-29431927D01*
X32934339Y-29665661D01*
X33168073Y-29857481D01*
X33434739Y-30000017D01*
X33724087Y-30087790D01*
X33949592Y-30110000D01*
X35900408Y-30110000D01*
X36125913Y-30087790D01*
X36415261Y-30000017D01*
X36583671Y-29910000D01*
X37257397Y-29910000D01*
X37265820Y-29914502D01*
X37385518Y-29950812D01*
X37510000Y-29963072D01*
X38510000Y-29963072D01*
X38635136Y-29950681D01*
X38660064Y-29943091D01*
X38685518Y-29950812D01*
X38700000Y-29952238D01*
X38700001Y-35633536D01*
X38489405Y-35546304D01*
X38231486Y-35495000D01*
X37968514Y-35495000D01*
X37710595Y-35546304D01*
X37467641Y-35646939D01*
X37248987Y-35793038D01*
X37063038Y-35978987D01*
X36916939Y-36197641D01*
X36816304Y-36440595D01*
X36799427Y-36525442D01*
X36612941Y-36711928D01*
X35725000Y-36711928D01*
X35600518Y-36724188D01*
X35575000Y-36731929D01*
X35549482Y-36724188D01*
X35425000Y-36711928D01*
X34425000Y-36711928D01*
X34300518Y-36724188D01*
X34275000Y-36731929D01*
X34249482Y-36724188D01*
X34125000Y-36711928D01*
X33125000Y-36711928D01*
X33000518Y-36724188D01*
X32880820Y-36760498D01*
X32770506Y-36819463D01*
X32673815Y-36898815D01*
X32619499Y-36965000D01*
X32450000Y-36965000D01*
X32450000Y-32749740D01*
X32533964Y-32749740D01*
X32558245Y-32855087D01*
X32678138Y-33132204D01*
X32849790Y-33380606D01*
X33066604Y-33590748D01*
X33320249Y-33754554D01*
X33600977Y-33865729D01*
X33898000Y-33920000D01*
X34798000Y-33920000D01*
X34798000Y-32512000D01*
X35052000Y-32512000D01*
X35052000Y-33920000D01*
X35952000Y-33920000D01*
X36249023Y-33865729D01*
X36529751Y-33754554D01*
X36783396Y-33590748D01*
X37000210Y-33380606D01*
X37171862Y-33132204D01*
X37291755Y-32855087D01*
X37316036Y-32749740D01*
X37195378Y-32512000D01*
X35052000Y-32512000D01*
X34798000Y-32512000D01*
X32654622Y-32512000D01*
X32533964Y-32749740D01*
X32450000Y-32749740D01*
X32450000Y-32020260D01*
X32533964Y-32020260D01*
X32654622Y-32258000D01*
X34798000Y-32258000D01*
X34798000Y-30850000D01*
X35052000Y-30850000D01*
X35052000Y-32258000D01*
X37195378Y-32258000D01*
X37316036Y-32020260D01*
X37291755Y-31914913D01*
X37171862Y-31637796D01*
X37000210Y-31389394D01*
X36783396Y-31179252D01*
X36529751Y-31015446D01*
X36249023Y-30904271D01*
X35952000Y-30850000D01*
X35052000Y-30850000D01*
X34798000Y-30850000D01*
X33898000Y-30850000D01*
X33600977Y-30904271D01*
X33320249Y-31015446D01*
X33066604Y-31179252D01*
X32849790Y-31389394D01*
X32678138Y-31637796D01*
X32558245Y-31914913D01*
X32533964Y-32020260D01*
X32450000Y-32020260D01*
X32450000Y-23795129D01*
X32498596Y-23746534D01*
X32486928Y-23865000D01*
X32486928Y-25665000D01*
X32499188Y-25789482D01*
X32535498Y-25909180D01*
X32594463Y-26019494D01*
X32673815Y-26116185D01*
X32770506Y-26195537D01*
X32880820Y-26254502D01*
X33000518Y-26290812D01*
X33125000Y-26303072D01*
X36725000Y-26303072D01*
X36849482Y-26290812D01*
X36969180Y-26254502D01*
X37079494Y-26195537D01*
X37176185Y-26116185D01*
X37255537Y-26019494D01*
X37314502Y-25909180D01*
X37350812Y-25789482D01*
X37363072Y-25665000D01*
X37363072Y-23865000D01*
X37350812Y-23740518D01*
X37314502Y-23620820D01*
X37255537Y-23510506D01*
X37181261Y-23420000D01*
X37230501Y-23360000D01*
X40888993Y-23360000D01*
X40887025Y-23361968D01*
G04 #@! TA.AperFunction,Conductor*
D32*
G36*
X40887025Y-23361968D02*
G01*
X40724510Y-23605189D01*
X40612568Y-23875442D01*
X40555500Y-24162340D01*
X40555500Y-24454860D01*
X40612568Y-24741758D01*
X40724510Y-25012011D01*
X40887025Y-25255232D01*
X41093868Y-25462075D01*
X41268260Y-25578600D01*
X41093868Y-25695125D01*
X40887025Y-25901968D01*
X40724510Y-26145189D01*
X40612568Y-26415442D01*
X40555500Y-26702340D01*
X40555500Y-26994860D01*
X40612568Y-27281758D01*
X40724510Y-27552011D01*
X40887025Y-27795232D01*
X41093868Y-28002075D01*
X41268260Y-28118600D01*
X41093868Y-28235125D01*
X40887025Y-28441968D01*
X40724510Y-28685189D01*
X40612568Y-28955442D01*
X40598072Y-29028318D01*
X40598072Y-27825000D01*
X40585812Y-27700518D01*
X40549502Y-27580820D01*
X40490537Y-27470506D01*
X40411185Y-27373815D01*
X40314494Y-27294463D01*
X40204180Y-27235498D01*
X40084482Y-27199188D01*
X39960000Y-27186928D01*
X38810000Y-27186928D01*
X38686173Y-27199059D01*
X38660065Y-27206949D01*
X38634482Y-27199188D01*
X38510000Y-27186928D01*
X37510000Y-27186928D01*
X37385518Y-27199188D01*
X37265820Y-27235498D01*
X37257397Y-27240000D01*
X36583671Y-27240000D01*
X36415261Y-27149983D01*
X36125913Y-27062210D01*
X35900408Y-27040000D01*
X33949592Y-27040000D01*
X33724087Y-27062210D01*
X33434739Y-27149983D01*
X33168073Y-27292519D01*
X32934339Y-27484339D01*
X32742519Y-27718073D01*
X32599983Y-27984739D01*
X32512210Y-28274087D01*
X32482573Y-28575000D01*
X32512210Y-28875913D01*
X32599983Y-29165261D01*
X32742519Y-29431927D01*
X32934339Y-29665661D01*
X33168073Y-29857481D01*
X33434739Y-30000017D01*
X33724087Y-30087790D01*
X33949592Y-30110000D01*
X35900408Y-30110000D01*
X36125913Y-30087790D01*
X36415261Y-30000017D01*
X36583671Y-29910000D01*
X37257397Y-29910000D01*
X37265820Y-29914502D01*
X37385518Y-29950812D01*
X37510000Y-29963072D01*
X38510000Y-29963072D01*
X38635136Y-29950681D01*
X38660064Y-29943091D01*
X38685518Y-29950812D01*
X38700000Y-29952238D01*
X38700001Y-35633536D01*
X38489405Y-35546304D01*
X38231486Y-35495000D01*
X37968514Y-35495000D01*
X37710595Y-35546304D01*
X37467641Y-35646939D01*
X37248987Y-35793038D01*
X37063038Y-35978987D01*
X36916939Y-36197641D01*
X36816304Y-36440595D01*
X36799427Y-36525442D01*
X36612941Y-36711928D01*
X35725000Y-36711928D01*
X35600518Y-36724188D01*
X35575000Y-36731929D01*
X35549482Y-36724188D01*
X35425000Y-36711928D01*
X34425000Y-36711928D01*
X34300518Y-36724188D01*
X34275000Y-36731929D01*
X34249482Y-36724188D01*
X34125000Y-36711928D01*
X33125000Y-36711928D01*
X33000518Y-36724188D01*
X32880820Y-36760498D01*
X32770506Y-36819463D01*
X32673815Y-36898815D01*
X32619499Y-36965000D01*
X32450000Y-36965000D01*
X32450000Y-32749740D01*
X32533964Y-32749740D01*
X32558245Y-32855087D01*
X32678138Y-33132204D01*
X32849790Y-33380606D01*
X33066604Y-33590748D01*
X33320249Y-33754554D01*
X33600977Y-33865729D01*
X33898000Y-33920000D01*
X34798000Y-33920000D01*
X34798000Y-32512000D01*
X35052000Y-32512000D01*
X35052000Y-33920000D01*
X35952000Y-33920000D01*
X36249023Y-33865729D01*
X36529751Y-33754554D01*
X36783396Y-33590748D01*
X37000210Y-33380606D01*
X37171862Y-33132204D01*
X37291755Y-32855087D01*
X37316036Y-32749740D01*
X37195378Y-32512000D01*
X35052000Y-32512000D01*
X34798000Y-32512000D01*
X32654622Y-32512000D01*
X32533964Y-32749740D01*
X32450000Y-32749740D01*
X32450000Y-32020260D01*
X32533964Y-32020260D01*
X32654622Y-32258000D01*
X34798000Y-32258000D01*
X34798000Y-30850000D01*
X35052000Y-30850000D01*
X35052000Y-32258000D01*
X37195378Y-32258000D01*
X37316036Y-32020260D01*
X37291755Y-31914913D01*
X37171862Y-31637796D01*
X37000210Y-31389394D01*
X36783396Y-31179252D01*
X36529751Y-31015446D01*
X36249023Y-30904271D01*
X35952000Y-30850000D01*
X35052000Y-30850000D01*
X34798000Y-30850000D01*
X33898000Y-30850000D01*
X33600977Y-30904271D01*
X33320249Y-31015446D01*
X33066604Y-31179252D01*
X32849790Y-31389394D01*
X32678138Y-31637796D01*
X32558245Y-31914913D01*
X32533964Y-32020260D01*
X32450000Y-32020260D01*
X32450000Y-23795129D01*
X32498596Y-23746534D01*
X32486928Y-23865000D01*
X32486928Y-25665000D01*
X32499188Y-25789482D01*
X32535498Y-25909180D01*
X32594463Y-26019494D01*
X32673815Y-26116185D01*
X32770506Y-26195537D01*
X32880820Y-26254502D01*
X33000518Y-26290812D01*
X33125000Y-26303072D01*
X36725000Y-26303072D01*
X36849482Y-26290812D01*
X36969180Y-26254502D01*
X37079494Y-26195537D01*
X37176185Y-26116185D01*
X37255537Y-26019494D01*
X37314502Y-25909180D01*
X37350812Y-25789482D01*
X37363072Y-25665000D01*
X37363072Y-23865000D01*
X37350812Y-23740518D01*
X37314502Y-23620820D01*
X37255537Y-23510506D01*
X37181261Y-23420000D01*
X37230501Y-23360000D01*
X40888993Y-23360000D01*
X40887025Y-23361968D01*
G37*
G04 #@! TD.AperFunction*
D31*
X74112792Y-11670548D02*
X73444330Y-12022445D01*
X73403912Y-12049452D01*
X73043724Y-12539119D01*
X75565000Y-15060395D01*
X75579143Y-15046253D01*
X75758748Y-15225858D01*
X75744605Y-15240000D01*
X78265881Y-17761276D01*
X78755548Y-17401088D01*
X79115849Y-16737118D01*
X79325628Y-16060952D01*
X79350001Y-16129777D01*
X79350001Y-21730285D01*
X79344347Y-21711646D01*
X79220382Y-21479725D01*
X79053555Y-21276445D01*
X79002614Y-21234639D01*
X76677994Y-18910020D01*
X77017208Y-18809452D01*
X77685670Y-18457555D01*
X77726088Y-18430548D01*
X78086276Y-17940881D01*
X75565000Y-15419605D01*
X75550858Y-15433748D01*
X75371253Y-15254143D01*
X75385395Y-15240000D01*
X72864119Y-12718724D01*
X72374452Y-13078912D01*
X72014151Y-13742882D01*
X71790306Y-14464385D01*
X71711520Y-15215695D01*
X71780822Y-15967938D01*
X71995548Y-16692208D01*
X72079301Y-16851304D01*
X71410415Y-16182419D01*
X71368604Y-16131472D01*
X71165324Y-15964645D01*
X70933403Y-15840680D01*
X70681755Y-15764344D01*
X70485628Y-15745027D01*
X70420049Y-15738568D01*
X70354470Y-15745027D01*
X38865552Y-15745027D01*
X38799973Y-15738568D01*
X38734394Y-15745027D01*
X38538267Y-15764344D01*
X38286619Y-15840680D01*
X38105653Y-15937409D01*
X38054698Y-15964645D01*
X37935644Y-16062350D01*
X37851418Y-16131472D01*
X37809616Y-16182408D01*
X37147643Y-16844382D01*
X37205849Y-16737118D01*
X37429694Y-16015615D01*
X37508480Y-15264305D01*
X37439178Y-14512062D01*
X37224452Y-13787792D01*
X36872555Y-13119330D01*
X36845548Y-13078912D01*
X36355881Y-12718724D01*
X33834605Y-15240000D01*
X33848748Y-15254143D01*
X33669143Y-15433748D01*
X33655000Y-15419605D01*
X31133724Y-17940881D01*
X31493912Y-18430548D01*
X32157882Y-18790849D01*
X32542002Y-18910022D01*
X30217387Y-21234639D01*
X30166446Y-21276445D01*
X30108549Y-21346993D01*
X29999618Y-21479726D01*
X29987988Y-21501484D01*
X29875653Y-21711646D01*
X29870000Y-21730282D01*
X29870000Y-16135728D01*
X29895514Y-16051223D01*
X30085548Y-16692208D01*
X30437445Y-17360670D01*
X30464452Y-17401088D01*
X30954119Y-17761276D01*
X33475395Y-15240000D01*
X33461253Y-15225858D01*
X33640858Y-15046253D01*
X33655000Y-15060395D01*
X36176276Y-12539119D01*
X35816088Y-12049452D01*
X35152118Y-11689151D01*
X34558558Y-11505000D01*
X74671185Y-11505000D01*
X74112792Y-11670548D01*
G04 #@! TA.AperFunction,Conductor*
D32*
G36*
X74112792Y-11670548D02*
G01*
X73444330Y-12022445D01*
X73403912Y-12049452D01*
X73043724Y-12539119D01*
X75565000Y-15060395D01*
X75579143Y-15046253D01*
X75758748Y-15225858D01*
X75744605Y-15240000D01*
X78265881Y-17761276D01*
X78755548Y-17401088D01*
X79115849Y-16737118D01*
X79325628Y-16060952D01*
X79350001Y-16129777D01*
X79350001Y-21730285D01*
X79344347Y-21711646D01*
X79220382Y-21479725D01*
X79053555Y-21276445D01*
X79002614Y-21234639D01*
X76677994Y-18910020D01*
X77017208Y-18809452D01*
X77685670Y-18457555D01*
X77726088Y-18430548D01*
X78086276Y-17940881D01*
X75565000Y-15419605D01*
X75550858Y-15433748D01*
X75371253Y-15254143D01*
X75385395Y-15240000D01*
X72864119Y-12718724D01*
X72374452Y-13078912D01*
X72014151Y-13742882D01*
X71790306Y-14464385D01*
X71711520Y-15215695D01*
X71780822Y-15967938D01*
X71995548Y-16692208D01*
X72079301Y-16851304D01*
X71410415Y-16182419D01*
X71368604Y-16131472D01*
X71165324Y-15964645D01*
X70933403Y-15840680D01*
X70681755Y-15764344D01*
X70485628Y-15745027D01*
X70420049Y-15738568D01*
X70354470Y-15745027D01*
X38865552Y-15745027D01*
X38799973Y-15738568D01*
X38734394Y-15745027D01*
X38538267Y-15764344D01*
X38286619Y-15840680D01*
X38105653Y-15937409D01*
X38054698Y-15964645D01*
X37935644Y-16062350D01*
X37851418Y-16131472D01*
X37809616Y-16182408D01*
X37147643Y-16844382D01*
X37205849Y-16737118D01*
X37429694Y-16015615D01*
X37508480Y-15264305D01*
X37439178Y-14512062D01*
X37224452Y-13787792D01*
X36872555Y-13119330D01*
X36845548Y-13078912D01*
X36355881Y-12718724D01*
X33834605Y-15240000D01*
X33848748Y-15254143D01*
X33669143Y-15433748D01*
X33655000Y-15419605D01*
X31133724Y-17940881D01*
X31493912Y-18430548D01*
X32157882Y-18790849D01*
X32542002Y-18910022D01*
X30217387Y-21234639D01*
X30166446Y-21276445D01*
X30108549Y-21346993D01*
X29999618Y-21479726D01*
X29987988Y-21501484D01*
X29875653Y-21711646D01*
X29870000Y-21730282D01*
X29870000Y-16135728D01*
X29895514Y-16051223D01*
X30085548Y-16692208D01*
X30437445Y-17360670D01*
X30464452Y-17401088D01*
X30954119Y-17761276D01*
X33475395Y-15240000D01*
X33461253Y-15225858D01*
X33640858Y-15046253D01*
X33655000Y-15060395D01*
X36176276Y-12539119D01*
X35816088Y-12049452D01*
X35152118Y-11689151D01*
X34558558Y-11505000D01*
X74671185Y-11505000D01*
X74112792Y-11670548D01*
G37*
G04 #@! TD.AperFunction*
M02*
