G04 #@! TF.GenerationSoftware,KiCad,Pcbnew,(5.1.7)-1*
G04 #@! TF.CreationDate,2021-01-23T01:49:41+01:00*
G04 #@! TF.ProjectId,espbreakout,65737062-7265-4616-9b6f-75742e6b6963,rev?*
G04 #@! TF.SameCoordinates,Original*
G04 #@! TF.FileFunction,Legend,Top*
G04 #@! TF.FilePolarity,Positive*
%FSLAX46Y46*%
G04 Gerber Fmt 4.6, Leading zero omitted, Abs format (unit mm)*
G04 Created by KiCad (PCBNEW (5.1.7)-1) date 2021-01-23 01:49:41*
%MOMM*%
%LPD*%
G01*
G04 APERTURE LIST*
%ADD10C,0.150000*%
%ADD11C,0.300000*%
%ADD12C,0.120000*%
%ADD13C,0.100000*%
%ADD14C,0.010000*%
%ADD15C,0.200000*%
%ADD16C,0.050000*%
G04 APERTURE END LIST*
D10*
X47403571Y-27233571D02*
X47736904Y-27233571D01*
X47879761Y-27757380D02*
X47403571Y-27757380D01*
X47403571Y-26757380D01*
X47879761Y-26757380D01*
X48260714Y-27709761D02*
X48403571Y-27757380D01*
X48641666Y-27757380D01*
X48736904Y-27709761D01*
X48784523Y-27662142D01*
X48832142Y-27566904D01*
X48832142Y-27471666D01*
X48784523Y-27376428D01*
X48736904Y-27328809D01*
X48641666Y-27281190D01*
X48451190Y-27233571D01*
X48355952Y-27185952D01*
X48308333Y-27138333D01*
X48260714Y-27043095D01*
X48260714Y-26947857D01*
X48308333Y-26852619D01*
X48355952Y-26805000D01*
X48451190Y-26757380D01*
X48689285Y-26757380D01*
X48832142Y-26805000D01*
X49260714Y-27757380D02*
X49260714Y-26757380D01*
X49641666Y-26757380D01*
X49736904Y-26805000D01*
X49784523Y-26852619D01*
X49832142Y-26947857D01*
X49832142Y-27090714D01*
X49784523Y-27185952D01*
X49736904Y-27233571D01*
X49641666Y-27281190D01*
X49260714Y-27281190D01*
X50165476Y-26757380D02*
X50784523Y-26757380D01*
X50451190Y-27138333D01*
X50594047Y-27138333D01*
X50689285Y-27185952D01*
X50736904Y-27233571D01*
X50784523Y-27328809D01*
X50784523Y-27566904D01*
X50736904Y-27662142D01*
X50689285Y-27709761D01*
X50594047Y-27757380D01*
X50308333Y-27757380D01*
X50213095Y-27709761D01*
X50165476Y-27662142D01*
X51165476Y-26852619D02*
X51213095Y-26805000D01*
X51308333Y-26757380D01*
X51546428Y-26757380D01*
X51641666Y-26805000D01*
X51689285Y-26852619D01*
X51736904Y-26947857D01*
X51736904Y-27043095D01*
X51689285Y-27185952D01*
X51117857Y-27757380D01*
X51736904Y-27757380D01*
X52165476Y-27376428D02*
X52927380Y-27376428D01*
X53736904Y-27233571D02*
X53879761Y-27281190D01*
X53927380Y-27328809D01*
X53974999Y-27424047D01*
X53974999Y-27566904D01*
X53927380Y-27662142D01*
X53879761Y-27709761D01*
X53784523Y-27757380D01*
X53403571Y-27757380D01*
X53403571Y-26757380D01*
X53736904Y-26757380D01*
X53832142Y-26805000D01*
X53879761Y-26852619D01*
X53927380Y-26947857D01*
X53927380Y-27043095D01*
X53879761Y-27138333D01*
X53832142Y-27185952D01*
X53736904Y-27233571D01*
X53403571Y-27233571D01*
X54974999Y-27757380D02*
X54641666Y-27281190D01*
X54403571Y-27757380D02*
X54403571Y-26757380D01*
X54784523Y-26757380D01*
X54879761Y-26805000D01*
X54927380Y-26852619D01*
X54974999Y-26947857D01*
X54974999Y-27090714D01*
X54927380Y-27185952D01*
X54879761Y-27233571D01*
X54784523Y-27281190D01*
X54403571Y-27281190D01*
X55403571Y-27233571D02*
X55736904Y-27233571D01*
X55879761Y-27757380D02*
X55403571Y-27757380D01*
X55403571Y-26757380D01*
X55879761Y-26757380D01*
X56260714Y-27471666D02*
X56736904Y-27471666D01*
X56165476Y-27757380D02*
X56498809Y-26757380D01*
X56832142Y-27757380D01*
X57165476Y-27757380D02*
X57165476Y-26757380D01*
X57736904Y-27757380D02*
X57308333Y-27185952D01*
X57736904Y-26757380D02*
X57165476Y-27328809D01*
X58355952Y-26757380D02*
X58546428Y-26757380D01*
X58641666Y-26805000D01*
X58736904Y-26900238D01*
X58784523Y-27090714D01*
X58784523Y-27424047D01*
X58736904Y-27614523D01*
X58641666Y-27709761D01*
X58546428Y-27757380D01*
X58355952Y-27757380D01*
X58260714Y-27709761D01*
X58165476Y-27614523D01*
X58117857Y-27424047D01*
X58117857Y-27090714D01*
X58165476Y-26900238D01*
X58260714Y-26805000D01*
X58355952Y-26757380D01*
X59213095Y-26757380D02*
X59213095Y-27566904D01*
X59260714Y-27662142D01*
X59308333Y-27709761D01*
X59403571Y-27757380D01*
X59594047Y-27757380D01*
X59689285Y-27709761D01*
X59736904Y-27662142D01*
X59784523Y-27566904D01*
X59784523Y-26757380D01*
X60117857Y-26757380D02*
X60689285Y-26757380D01*
X60403571Y-27757380D02*
X60403571Y-26757380D01*
X53308809Y-40457380D02*
X53308809Y-39457380D01*
X53546904Y-39457380D01*
X53689761Y-39505000D01*
X53785000Y-39600238D01*
X53832619Y-39695476D01*
X53880238Y-39885952D01*
X53880238Y-40028809D01*
X53832619Y-40219285D01*
X53785000Y-40314523D01*
X53689761Y-40409761D01*
X53546904Y-40457380D01*
X53308809Y-40457380D01*
X54308809Y-40457380D02*
X54308809Y-39790714D01*
X54308809Y-39981190D02*
X54356428Y-39885952D01*
X54404047Y-39838333D01*
X54499285Y-39790714D01*
X54594523Y-39790714D01*
X54832619Y-39457380D02*
X55499285Y-39457380D01*
X54832619Y-40457380D01*
X55499285Y-40457380D01*
X56023095Y-40457380D02*
X55927857Y-40409761D01*
X55880238Y-40362142D01*
X55832619Y-40266904D01*
X55832619Y-39981190D01*
X55880238Y-39885952D01*
X55927857Y-39838333D01*
X56023095Y-39790714D01*
X56165952Y-39790714D01*
X56261190Y-39838333D01*
X56308809Y-39885952D01*
X56356428Y-39981190D01*
X56356428Y-40266904D01*
X56308809Y-40362142D01*
X56261190Y-40409761D01*
X56165952Y-40457380D01*
X56023095Y-40457380D01*
X56785000Y-40457380D02*
X56785000Y-39790714D01*
X56785000Y-39457380D02*
X56737380Y-39505000D01*
X56785000Y-39552619D01*
X56832619Y-39505000D01*
X56785000Y-39457380D01*
X56785000Y-39552619D01*
X57689761Y-40457380D02*
X57689761Y-39457380D01*
X57689761Y-40409761D02*
X57594523Y-40457380D01*
X57404047Y-40457380D01*
X57308809Y-40409761D01*
X57261190Y-40362142D01*
X57213571Y-40266904D01*
X57213571Y-39981190D01*
X57261190Y-39885952D01*
X57308809Y-39838333D01*
X57404047Y-39790714D01*
X57594523Y-39790714D01*
X57689761Y-39838333D01*
X58880238Y-39552619D02*
X58927857Y-39505000D01*
X59023095Y-39457380D01*
X59261190Y-39457380D01*
X59356428Y-39505000D01*
X59404047Y-39552619D01*
X59451666Y-39647857D01*
X59451666Y-39743095D01*
X59404047Y-39885952D01*
X58832619Y-40457380D01*
X59451666Y-40457380D01*
X60070714Y-39457380D02*
X60165952Y-39457380D01*
X60261190Y-39505000D01*
X60308809Y-39552619D01*
X60356428Y-39647857D01*
X60404047Y-39838333D01*
X60404047Y-40076428D01*
X60356428Y-40266904D01*
X60308809Y-40362142D01*
X60261190Y-40409761D01*
X60165952Y-40457380D01*
X60070714Y-40457380D01*
X59975476Y-40409761D01*
X59927857Y-40362142D01*
X59880238Y-40266904D01*
X59832619Y-40076428D01*
X59832619Y-39838333D01*
X59880238Y-39647857D01*
X59927857Y-39552619D01*
X59975476Y-39505000D01*
X60070714Y-39457380D01*
X60785000Y-39552619D02*
X60832619Y-39505000D01*
X60927857Y-39457380D01*
X61165952Y-39457380D01*
X61261190Y-39505000D01*
X61308809Y-39552619D01*
X61356428Y-39647857D01*
X61356428Y-39743095D01*
X61308809Y-39885952D01*
X60737380Y-40457380D01*
X61356428Y-40457380D01*
X62308809Y-40457380D02*
X61737380Y-40457380D01*
X62023095Y-40457380D02*
X62023095Y-39457380D01*
X61927857Y-39600238D01*
X61832619Y-39695476D01*
X61737380Y-39743095D01*
D11*
X51832142Y-29523571D02*
X52189285Y-30523571D01*
X52546428Y-29523571D01*
X53903571Y-30523571D02*
X53046428Y-30523571D01*
X53475000Y-30523571D02*
X53475000Y-29023571D01*
X53332142Y-29237857D01*
X53189285Y-29380714D01*
X53046428Y-29452142D01*
X54546428Y-30380714D02*
X54617857Y-30452142D01*
X54546428Y-30523571D01*
X54475000Y-30452142D01*
X54546428Y-30380714D01*
X54546428Y-30523571D01*
X56046428Y-30523571D02*
X55189285Y-30523571D01*
X55617857Y-30523571D02*
X55617857Y-29023571D01*
X55475000Y-29237857D01*
X55332142Y-29380714D01*
X55189285Y-29452142D01*
X44377142Y-12607857D02*
X43805714Y-12607857D01*
X43805714Y-11407857D01*
X44777142Y-11979285D02*
X45177142Y-11979285D01*
X45348571Y-12607857D02*
X44777142Y-12607857D01*
X44777142Y-11407857D01*
X45348571Y-11407857D01*
X45862857Y-12607857D02*
X45862857Y-11407857D01*
X46148571Y-11407857D01*
X46320000Y-11465000D01*
X46434285Y-11579285D01*
X46491428Y-11693571D01*
X46548571Y-11922142D01*
X46548571Y-12093571D01*
X46491428Y-12322142D01*
X46434285Y-12436428D01*
X46320000Y-12550714D01*
X46148571Y-12607857D01*
X45862857Y-12607857D01*
X46948571Y-11407857D02*
X47691428Y-11407857D01*
X47291428Y-11865000D01*
X47462857Y-11865000D01*
X47577142Y-11922142D01*
X47634285Y-11979285D01*
X47691428Y-12093571D01*
X47691428Y-12379285D01*
X47634285Y-12493571D01*
X47577142Y-12550714D01*
X47462857Y-12607857D01*
X47120000Y-12607857D01*
X47005714Y-12550714D01*
X46948571Y-12493571D01*
D10*
X37795238Y-32442142D02*
X38404761Y-32442142D01*
X37838095Y-29027380D02*
X37838095Y-28027380D01*
X38076190Y-28027380D01*
X38219047Y-28075000D01*
X38314285Y-28170238D01*
X38361904Y-28265476D01*
X38409523Y-28455952D01*
X38409523Y-28598809D01*
X38361904Y-28789285D01*
X38314285Y-28884523D01*
X38219047Y-28979761D01*
X38076190Y-29027380D01*
X37838095Y-29027380D01*
X38404761Y-24707857D02*
X37795238Y-24707857D01*
X38100000Y-24403095D02*
X38100000Y-25012619D01*
X70858095Y-29027380D02*
X70858095Y-28027380D01*
X71096190Y-28027380D01*
X71239047Y-28075000D01*
X71334285Y-28170238D01*
X71381904Y-28265476D01*
X71429523Y-28455952D01*
X71429523Y-28598809D01*
X71381904Y-28789285D01*
X71334285Y-28884523D01*
X71239047Y-28979761D01*
X71096190Y-29027380D01*
X70858095Y-29027380D01*
X71424761Y-48202857D02*
X70815238Y-48202857D01*
X71120000Y-47898095D02*
X71120000Y-48507619D01*
X38404761Y-57092857D02*
X37795238Y-57092857D01*
X38100000Y-56788095D02*
X38100000Y-57397619D01*
X37838095Y-44902380D02*
X37838095Y-43902380D01*
X38076190Y-43902380D01*
X38219047Y-43950000D01*
X38314285Y-44045238D01*
X38361904Y-44140476D01*
X38409523Y-44330952D01*
X38409523Y-44473809D01*
X38361904Y-44664285D01*
X38314285Y-44759523D01*
X38219047Y-44854761D01*
X38076190Y-44902380D01*
X37838095Y-44902380D01*
X37838095Y-61412380D02*
X37838095Y-60412380D01*
X38076190Y-60412380D01*
X38219047Y-60460000D01*
X38314285Y-60555238D01*
X38361904Y-60650476D01*
X38409523Y-60840952D01*
X38409523Y-60983809D01*
X38361904Y-61174285D01*
X38314285Y-61269523D01*
X38219047Y-61364761D01*
X38076190Y-61412380D01*
X37838095Y-61412380D01*
X38404761Y-40582857D02*
X37795238Y-40582857D01*
X38100000Y-40278095D02*
X38100000Y-40887619D01*
X71424761Y-64712857D02*
X70815238Y-64712857D01*
X71120000Y-64408095D02*
X71120000Y-65017619D01*
X71424761Y-32327857D02*
X70815238Y-32327857D01*
X71120000Y-32023095D02*
X71120000Y-32632619D01*
X70858095Y-61412380D02*
X70858095Y-60412380D01*
X71096190Y-60412380D01*
X71239047Y-60460000D01*
X71334285Y-60555238D01*
X71381904Y-60650476D01*
X71429523Y-60840952D01*
X71429523Y-60983809D01*
X71381904Y-61174285D01*
X71334285Y-61269523D01*
X71239047Y-61364761D01*
X71096190Y-61412380D01*
X70858095Y-61412380D01*
X70858095Y-44902380D02*
X70858095Y-43902380D01*
X71096190Y-43902380D01*
X71239047Y-43950000D01*
X71334285Y-44045238D01*
X71381904Y-44140476D01*
X71429523Y-44330952D01*
X71429523Y-44473809D01*
X71381904Y-44664285D01*
X71334285Y-44759523D01*
X71239047Y-44854761D01*
X71096190Y-44902380D01*
X70858095Y-44902380D01*
X71424761Y-24707857D02*
X70815238Y-24707857D01*
X71424761Y-40582857D02*
X70815238Y-40582857D01*
X71424761Y-57092857D02*
X70815238Y-57092857D01*
X37795238Y-64827142D02*
X38404761Y-64827142D01*
X37795238Y-48317142D02*
X38404761Y-48317142D01*
D11*
X62157142Y-12607857D02*
X61585714Y-12607857D01*
X61585714Y-11407857D01*
X62557142Y-11979285D02*
X62957142Y-11979285D01*
X63128571Y-12607857D02*
X62557142Y-12607857D01*
X62557142Y-11407857D01*
X63128571Y-11407857D01*
X63642857Y-12607857D02*
X63642857Y-11407857D01*
X63928571Y-11407857D01*
X64100000Y-11465000D01*
X64214285Y-11579285D01*
X64271428Y-11693571D01*
X64328571Y-11922142D01*
X64328571Y-12093571D01*
X64271428Y-12322142D01*
X64214285Y-12436428D01*
X64100000Y-12550714D01*
X63928571Y-12607857D01*
X63642857Y-12607857D01*
X65471428Y-12607857D02*
X64785714Y-12607857D01*
X65128571Y-12607857D02*
X65128571Y-11407857D01*
X65014285Y-11579285D01*
X64900000Y-11693571D01*
X64785714Y-11750714D01*
X53267142Y-12607857D02*
X52695714Y-12607857D01*
X52695714Y-11407857D01*
X53667142Y-11979285D02*
X54067142Y-11979285D01*
X54238571Y-12607857D02*
X53667142Y-12607857D01*
X53667142Y-11407857D01*
X54238571Y-11407857D01*
X54752857Y-12607857D02*
X54752857Y-11407857D01*
X55038571Y-11407857D01*
X55210000Y-11465000D01*
X55324285Y-11579285D01*
X55381428Y-11693571D01*
X55438571Y-11922142D01*
X55438571Y-12093571D01*
X55381428Y-12322142D01*
X55324285Y-12436428D01*
X55210000Y-12550714D01*
X55038571Y-12607857D01*
X54752857Y-12607857D01*
X55895714Y-11522142D02*
X55952857Y-11465000D01*
X56067142Y-11407857D01*
X56352857Y-11407857D01*
X56467142Y-11465000D01*
X56524285Y-11522142D01*
X56581428Y-11636428D01*
X56581428Y-11750714D01*
X56524285Y-11922142D01*
X55838571Y-12607857D01*
X56581428Y-12607857D01*
D12*
X43370500Y-23038600D02*
X43370500Y-68818600D01*
X40710500Y-20438600D02*
X42040500Y-20438600D01*
X40710500Y-23038600D02*
X43370500Y-23038600D01*
X40710500Y-68818600D02*
X43370500Y-68818600D01*
X40710500Y-23038600D02*
X40710500Y-68818600D01*
X40710500Y-21768600D02*
X40710500Y-20438600D01*
X68763000Y-23030400D02*
X68763000Y-68810400D01*
X66103000Y-20430400D02*
X67433000Y-20430400D01*
X66103000Y-23030400D02*
X68763000Y-23030400D01*
X66103000Y-68810400D02*
X68763000Y-68810400D01*
X66103000Y-23030400D02*
X66103000Y-68810400D01*
X66103000Y-21760400D02*
X66103000Y-20430400D01*
X39310000Y-15825000D02*
X69790000Y-15825000D01*
X69790000Y-15825000D02*
X69790000Y-72975000D01*
X69790000Y-72975000D02*
X39310000Y-72975000D01*
X39310000Y-72975000D02*
X39310000Y-15825000D01*
D13*
G36*
X57090000Y-74245000D02*
G01*
X52010000Y-74245000D01*
X52010000Y-69165000D01*
X57090000Y-69165000D01*
X57090000Y-74245000D01*
G37*
X57090000Y-74245000D02*
X52010000Y-74245000D01*
X52010000Y-69165000D01*
X57090000Y-69165000D01*
X57090000Y-74245000D01*
D12*
X64075000Y-15825000D02*
X64075000Y-42495000D01*
X64075000Y-42495000D02*
X45025000Y-42495000D01*
X45025000Y-42495000D02*
X45025000Y-15825000D01*
X37525000Y-40340000D02*
X37525000Y-40940000D01*
X36925000Y-40640000D02*
X37525000Y-40340000D01*
X37525000Y-40940000D02*
X36925000Y-40640000D01*
X30125000Y-37960000D02*
X30125000Y-50940000D01*
X36205000Y-45500000D02*
X36205000Y-47210000D01*
X36205000Y-41690000D02*
X36205000Y-43400000D01*
X36205000Y-50940000D02*
X36205000Y-49310000D01*
X36205000Y-37960000D02*
X36205000Y-39590000D01*
X26845000Y-50940000D02*
X36205000Y-50940000D01*
X26845000Y-37960000D02*
X26845000Y-50940000D01*
X36205000Y-37960000D02*
X26845000Y-37960000D01*
X37525000Y-56850000D02*
X37525000Y-57450000D01*
X36925000Y-57150000D02*
X37525000Y-56850000D01*
X37525000Y-57450000D02*
X36925000Y-57150000D01*
X30125000Y-54470000D02*
X30125000Y-67450000D01*
X36205000Y-62010000D02*
X36205000Y-63720000D01*
X36205000Y-58200000D02*
X36205000Y-59910000D01*
X36205000Y-67450000D02*
X36205000Y-65820000D01*
X36205000Y-54470000D02*
X36205000Y-56100000D01*
X26845000Y-67450000D02*
X36205000Y-67450000D01*
X26845000Y-54470000D02*
X26845000Y-67450000D01*
X36205000Y-54470000D02*
X26845000Y-54470000D01*
X37525000Y-24465000D02*
X37525000Y-25065000D01*
X36925000Y-24765000D02*
X37525000Y-24465000D01*
X37525000Y-25065000D02*
X36925000Y-24765000D01*
X30125000Y-22085000D02*
X30125000Y-35065000D01*
X36205000Y-29625000D02*
X36205000Y-31335000D01*
X36205000Y-25815000D02*
X36205000Y-27525000D01*
X36205000Y-35065000D02*
X36205000Y-33435000D01*
X36205000Y-22085000D02*
X36205000Y-23715000D01*
X26845000Y-35065000D02*
X36205000Y-35065000D01*
X26845000Y-22085000D02*
X26845000Y-35065000D01*
X36205000Y-22085000D02*
X26845000Y-22085000D01*
X71695000Y-32685000D02*
X71695000Y-32085000D01*
X72295000Y-32385000D02*
X71695000Y-32685000D01*
X71695000Y-32085000D02*
X72295000Y-32385000D01*
X79095000Y-35065000D02*
X79095000Y-22085000D01*
X73015000Y-27525000D02*
X73015000Y-25815000D01*
X73015000Y-31335000D02*
X73015000Y-29625000D01*
X73015000Y-22085000D02*
X73015000Y-23715000D01*
X73015000Y-35065000D02*
X73015000Y-33435000D01*
X82375000Y-22085000D02*
X73015000Y-22085000D01*
X82375000Y-35065000D02*
X82375000Y-22085000D01*
X73015000Y-35065000D02*
X82375000Y-35065000D01*
X71695000Y-48560000D02*
X71695000Y-47960000D01*
X72295000Y-48260000D02*
X71695000Y-48560000D01*
X71695000Y-47960000D02*
X72295000Y-48260000D01*
X79095000Y-50940000D02*
X79095000Y-37960000D01*
X73015000Y-43400000D02*
X73015000Y-41690000D01*
X73015000Y-47210000D02*
X73015000Y-45500000D01*
X73015000Y-37960000D02*
X73015000Y-39590000D01*
X73015000Y-50940000D02*
X73015000Y-49310000D01*
X82375000Y-37960000D02*
X73015000Y-37960000D01*
X82375000Y-50940000D02*
X82375000Y-37960000D01*
X73015000Y-50940000D02*
X82375000Y-50940000D01*
X71695000Y-65070000D02*
X71695000Y-64470000D01*
X72295000Y-64770000D02*
X71695000Y-65070000D01*
X71695000Y-64470000D02*
X72295000Y-64770000D01*
X79095000Y-67450000D02*
X79095000Y-54470000D01*
X73015000Y-59910000D02*
X73015000Y-58200000D01*
X73015000Y-63720000D02*
X73015000Y-62010000D01*
X73015000Y-54470000D02*
X73015000Y-56100000D01*
X73015000Y-67450000D02*
X73015000Y-65820000D01*
X82375000Y-54470000D02*
X73015000Y-54470000D01*
X82375000Y-67450000D02*
X82375000Y-54470000D01*
X73015000Y-67450000D02*
X82375000Y-67450000D01*
X60160000Y-72540000D02*
X60160000Y-71340000D01*
X60160000Y-76490000D02*
X60160000Y-78740000D01*
X60660000Y-76490000D02*
X60660000Y-78740000D01*
X69260000Y-74890000D02*
X70260000Y-74890000D01*
X69260000Y-76490000D02*
X69260000Y-74890000D01*
X70260000Y-76490000D02*
X69260000Y-76490000D01*
X70260000Y-74890000D02*
X70260000Y-76490000D01*
X60660000Y-74890000D02*
X59660000Y-74890000D01*
X60660000Y-76490000D02*
X60660000Y-74890000D01*
X59660000Y-76490000D02*
X60660000Y-76490000D01*
X59660000Y-74890000D02*
X59660000Y-76490000D01*
X71010000Y-72540000D02*
X70110000Y-72540000D01*
X58910000Y-72540000D02*
X59810000Y-72540000D01*
X70110000Y-72540000D02*
X69760000Y-72540000D01*
X70110000Y-70940000D02*
X70110000Y-72540000D01*
X71010000Y-70940000D02*
X70110000Y-70940000D01*
X71010000Y-78740000D02*
X71010000Y-70940000D01*
X58910000Y-78740000D02*
X71010000Y-78740000D01*
X58910000Y-70940000D02*
X58910000Y-78740000D01*
X59810000Y-70940000D02*
X58910000Y-70940000D01*
X59810000Y-72540000D02*
X59810000Y-70940000D01*
X60160000Y-72540000D02*
X59810000Y-72540000D01*
X68460000Y-74390000D02*
X68460000Y-78740000D01*
X61460000Y-74390000D02*
X68460000Y-74390000D01*
X61460000Y-78740000D02*
X61460000Y-74390000D01*
X46320000Y-17380000D02*
X45120000Y-17380000D01*
X45120000Y-15620000D02*
X46320000Y-15620000D01*
X49230000Y-16395000D02*
X49830000Y-16395000D01*
X48530000Y-18495000D02*
X48530000Y-17095000D01*
X49830000Y-19195000D02*
X49230000Y-19195000D01*
X50530000Y-17095000D02*
X50530000Y-18495000D01*
X49830000Y-16395000D02*
G75*
G02*
X50530000Y-17095000I0J-700000D01*
G01*
X48530000Y-17095000D02*
G75*
G02*
X49230000Y-16395000I700000J0D01*
G01*
X49230000Y-19195000D02*
G75*
G02*
X48530000Y-18495000I0J700000D01*
G01*
X50530000Y-18495000D02*
G75*
G02*
X49830000Y-19195000I-700000J0D01*
G01*
X44120000Y-15105000D02*
X48180000Y-15105000D01*
X48180000Y-15105000D02*
X48180000Y-12835000D01*
X48180000Y-12835000D02*
X44120000Y-12835000D01*
X39205000Y-72540000D02*
X39205000Y-71340000D01*
X39205000Y-76490000D02*
X39205000Y-78740000D01*
X39705000Y-76490000D02*
X39705000Y-78740000D01*
X48305000Y-74890000D02*
X49305000Y-74890000D01*
X48305000Y-76490000D02*
X48305000Y-74890000D01*
X49305000Y-76490000D02*
X48305000Y-76490000D01*
X49305000Y-74890000D02*
X49305000Y-76490000D01*
X39705000Y-74890000D02*
X38705000Y-74890000D01*
X39705000Y-76490000D02*
X39705000Y-74890000D01*
X38705000Y-76490000D02*
X39705000Y-76490000D01*
X38705000Y-74890000D02*
X38705000Y-76490000D01*
X50055000Y-72540000D02*
X49155000Y-72540000D01*
X37955000Y-72540000D02*
X38855000Y-72540000D01*
X49155000Y-72540000D02*
X48805000Y-72540000D01*
X49155000Y-70940000D02*
X49155000Y-72540000D01*
X50055000Y-70940000D02*
X49155000Y-70940000D01*
X50055000Y-78740000D02*
X50055000Y-70940000D01*
X37955000Y-78740000D02*
X50055000Y-78740000D01*
X37955000Y-70940000D02*
X37955000Y-78740000D01*
X38855000Y-70940000D02*
X37955000Y-70940000D01*
X38855000Y-72540000D02*
X38855000Y-70940000D01*
X39205000Y-72540000D02*
X38855000Y-72540000D01*
X47505000Y-74390000D02*
X47505000Y-78740000D01*
X40505000Y-74390000D02*
X47505000Y-74390000D01*
X40505000Y-78740000D02*
X40505000Y-74390000D01*
X55210000Y-17390000D02*
X54010000Y-17390000D01*
X54010000Y-15630000D02*
X55210000Y-15630000D01*
X58120000Y-16380000D02*
X58720000Y-16380000D01*
X57420000Y-18480000D02*
X57420000Y-17080000D01*
X58720000Y-19180000D02*
X58120000Y-19180000D01*
X59420000Y-17080000D02*
X59420000Y-18480000D01*
X58720000Y-16380000D02*
G75*
G02*
X59420000Y-17080000I0J-700000D01*
G01*
X57420000Y-17080000D02*
G75*
G02*
X58120000Y-16380000I700000J0D01*
G01*
X58120000Y-19180000D02*
G75*
G02*
X57420000Y-18480000I0J700000D01*
G01*
X59420000Y-18480000D02*
G75*
G02*
X58720000Y-19180000I-700000J0D01*
G01*
X53010000Y-15105000D02*
X57070000Y-15105000D01*
X57070000Y-15105000D02*
X57070000Y-12835000D01*
X57070000Y-12835000D02*
X53010000Y-12835000D01*
D14*
G36*
X55171614Y-46988931D02*
G01*
X55255435Y-47433555D01*
X55564720Y-47561053D01*
X55874006Y-47688551D01*
X56245046Y-47436246D01*
X56348957Y-47365996D01*
X56442887Y-47303272D01*
X56522452Y-47250938D01*
X56583270Y-47211857D01*
X56620957Y-47188893D01*
X56631221Y-47183942D01*
X56649710Y-47196676D01*
X56689220Y-47231882D01*
X56745322Y-47285062D01*
X56813587Y-47351718D01*
X56889586Y-47427354D01*
X56968892Y-47507472D01*
X57047075Y-47587574D01*
X57119707Y-47663164D01*
X57182359Y-47729745D01*
X57230603Y-47782818D01*
X57260010Y-47817887D01*
X57267041Y-47829623D01*
X57256923Y-47851260D01*
X57228559Y-47898662D01*
X57184929Y-47967193D01*
X57129018Y-48052215D01*
X57063806Y-48149093D01*
X57026019Y-48204350D01*
X56957143Y-48305248D01*
X56895940Y-48396299D01*
X56845378Y-48472970D01*
X56808428Y-48530728D01*
X56788058Y-48565043D01*
X56784997Y-48572254D01*
X56791936Y-48592748D01*
X56810851Y-48640513D01*
X56838887Y-48708832D01*
X56873191Y-48790989D01*
X56910909Y-48880270D01*
X56949187Y-48969958D01*
X56985170Y-49053338D01*
X57016006Y-49123694D01*
X57038839Y-49174310D01*
X57050817Y-49198471D01*
X57051524Y-49199422D01*
X57070331Y-49204036D01*
X57120418Y-49214328D01*
X57196593Y-49229287D01*
X57293665Y-49247901D01*
X57406443Y-49269159D01*
X57472242Y-49281418D01*
X57592750Y-49304362D01*
X57701597Y-49326195D01*
X57793276Y-49345722D01*
X57862281Y-49361748D01*
X57903104Y-49373079D01*
X57911311Y-49376674D01*
X57919348Y-49401006D01*
X57925833Y-49455959D01*
X57930770Y-49535108D01*
X57934164Y-49632026D01*
X57936018Y-49740287D01*
X57936338Y-49853465D01*
X57935127Y-49965135D01*
X57932390Y-50068868D01*
X57928131Y-50158241D01*
X57922355Y-50226826D01*
X57915067Y-50268197D01*
X57910695Y-50276810D01*
X57884564Y-50287133D01*
X57829193Y-50301892D01*
X57751907Y-50319352D01*
X57660030Y-50337780D01*
X57627958Y-50343741D01*
X57473324Y-50372066D01*
X57351175Y-50394876D01*
X57257473Y-50413080D01*
X57188184Y-50427583D01*
X57139271Y-50439292D01*
X57106697Y-50449115D01*
X57086428Y-50457956D01*
X57074426Y-50466724D01*
X57072747Y-50468457D01*
X57055984Y-50496371D01*
X57030414Y-50550695D01*
X56998588Y-50624777D01*
X56963060Y-50711965D01*
X56926383Y-50805608D01*
X56891111Y-50899052D01*
X56859796Y-50985647D01*
X56834993Y-51058740D01*
X56819254Y-51111678D01*
X56815132Y-51137811D01*
X56815476Y-51138726D01*
X56829441Y-51160086D01*
X56861122Y-51207084D01*
X56907191Y-51274827D01*
X56964318Y-51358423D01*
X57029173Y-51452982D01*
X57047643Y-51479854D01*
X57113499Y-51577275D01*
X57171450Y-51666163D01*
X57218338Y-51741412D01*
X57251007Y-51797920D01*
X57266300Y-51830581D01*
X57267041Y-51834593D01*
X57254192Y-51855684D01*
X57218688Y-51897464D01*
X57165093Y-51955445D01*
X57097971Y-52025135D01*
X57021887Y-52102045D01*
X56941404Y-52181683D01*
X56861087Y-52259561D01*
X56785499Y-52331186D01*
X56719205Y-52392070D01*
X56666769Y-52437721D01*
X56632755Y-52463650D01*
X56623345Y-52467883D01*
X56601443Y-52457912D01*
X56556600Y-52431020D01*
X56496121Y-52391736D01*
X56449589Y-52360117D01*
X56365275Y-52302098D01*
X56265426Y-52233784D01*
X56165273Y-52165579D01*
X56111427Y-52129075D01*
X55929171Y-52005800D01*
X55776181Y-52088520D01*
X55706482Y-52124759D01*
X55647214Y-52152926D01*
X55607111Y-52168991D01*
X55596903Y-52171226D01*
X55584629Y-52154722D01*
X55560413Y-52108082D01*
X55526063Y-52035609D01*
X55483388Y-51941606D01*
X55434194Y-51830374D01*
X55380290Y-51706215D01*
X55323484Y-51573432D01*
X55265582Y-51436327D01*
X55208393Y-51299202D01*
X55153724Y-51166358D01*
X55103384Y-51042098D01*
X55059180Y-50930725D01*
X55022919Y-50836539D01*
X54996409Y-50763844D01*
X54981458Y-50716941D01*
X54979054Y-50700833D01*
X54998111Y-50680286D01*
X55039836Y-50646933D01*
X55095506Y-50607702D01*
X55100178Y-50604599D01*
X55244064Y-50489423D01*
X55360083Y-50355053D01*
X55447230Y-50205784D01*
X55504499Y-50045913D01*
X55530886Y-49879737D01*
X55525385Y-49711552D01*
X55486990Y-49545655D01*
X55414695Y-49386342D01*
X55393426Y-49351487D01*
X55282796Y-49210737D01*
X55152102Y-49097714D01*
X55005864Y-49013003D01*
X54848608Y-48957194D01*
X54684857Y-48930874D01*
X54519133Y-48934630D01*
X54355962Y-48969050D01*
X54199865Y-49034723D01*
X54055367Y-49132235D01*
X54010669Y-49171813D01*
X53896912Y-49295703D01*
X53814018Y-49426124D01*
X53757156Y-49572315D01*
X53725487Y-49717088D01*
X53717669Y-49879860D01*
X53743738Y-50043440D01*
X53801045Y-50202298D01*
X53886944Y-50350906D01*
X53998786Y-50483735D01*
X54133923Y-50595256D01*
X54151683Y-50607011D01*
X54207950Y-50645508D01*
X54250723Y-50678863D01*
X54271172Y-50700160D01*
X54271469Y-50700833D01*
X54267079Y-50723871D01*
X54249676Y-50776157D01*
X54221068Y-50853390D01*
X54183065Y-50951268D01*
X54137474Y-51065491D01*
X54086103Y-51191758D01*
X54030762Y-51325767D01*
X53973258Y-51463218D01*
X53915401Y-51599808D01*
X53858998Y-51731237D01*
X53805858Y-51853205D01*
X53757790Y-51961409D01*
X53716601Y-52051549D01*
X53684101Y-52119323D01*
X53662097Y-52160430D01*
X53653236Y-52171226D01*
X53626160Y-52162819D01*
X53575497Y-52140272D01*
X53509983Y-52107613D01*
X53473959Y-52088520D01*
X53320968Y-52005800D01*
X53138712Y-52129075D01*
X53045675Y-52192228D01*
X52943815Y-52261727D01*
X52848362Y-52327165D01*
X52800550Y-52360117D01*
X52733305Y-52405273D01*
X52676364Y-52441057D01*
X52637154Y-52462938D01*
X52624419Y-52467563D01*
X52605883Y-52455085D01*
X52564859Y-52420252D01*
X52505325Y-52366678D01*
X52431258Y-52297983D01*
X52346635Y-52217781D01*
X52293115Y-52166286D01*
X52199481Y-52074286D01*
X52118559Y-51991999D01*
X52053623Y-51922945D01*
X52007942Y-51870644D01*
X51984789Y-51838616D01*
X51982568Y-51832116D01*
X51992876Y-51807394D01*
X52021361Y-51757405D01*
X52064863Y-51687212D01*
X52120223Y-51601875D01*
X52184280Y-51506456D01*
X52202497Y-51479854D01*
X52268873Y-51383167D01*
X52328422Y-51296117D01*
X52377816Y-51223595D01*
X52413725Y-51170493D01*
X52432819Y-51141703D01*
X52434664Y-51138726D01*
X52431905Y-51115782D01*
X52417262Y-51065336D01*
X52393287Y-50994041D01*
X52362534Y-50908547D01*
X52327556Y-50815507D01*
X52290907Y-50721574D01*
X52255139Y-50633399D01*
X52222806Y-50557634D01*
X52196462Y-50500931D01*
X52178658Y-50469943D01*
X52177393Y-50468457D01*
X52166506Y-50459601D01*
X52148118Y-50450843D01*
X52118194Y-50441277D01*
X52072697Y-50429996D01*
X52007591Y-50416093D01*
X51918839Y-50398663D01*
X51802407Y-50376798D01*
X51654258Y-50349591D01*
X51622182Y-50343741D01*
X51527114Y-50325374D01*
X51444235Y-50307405D01*
X51380870Y-50291569D01*
X51344342Y-50279600D01*
X51339444Y-50276810D01*
X51331373Y-50252072D01*
X51324813Y-50196790D01*
X51319767Y-50117389D01*
X51316241Y-50020296D01*
X51314239Y-49911938D01*
X51313764Y-49798740D01*
X51314823Y-49687128D01*
X51317418Y-49583529D01*
X51321554Y-49494368D01*
X51327237Y-49426072D01*
X51334469Y-49385066D01*
X51338829Y-49376674D01*
X51363102Y-49368208D01*
X51418374Y-49354435D01*
X51499138Y-49336550D01*
X51599888Y-49315748D01*
X51715117Y-49293223D01*
X51777898Y-49281418D01*
X51897013Y-49259151D01*
X52003235Y-49238979D01*
X52091373Y-49221915D01*
X52156234Y-49208969D01*
X52192626Y-49201155D01*
X52198616Y-49199422D01*
X52208739Y-49179890D01*
X52230138Y-49132843D01*
X52259961Y-49065003D01*
X52295355Y-48983091D01*
X52333468Y-48893828D01*
X52371447Y-48803935D01*
X52406440Y-48720135D01*
X52435594Y-48649147D01*
X52456057Y-48597694D01*
X52464977Y-48572497D01*
X52465143Y-48571396D01*
X52455031Y-48551519D01*
X52426683Y-48505777D01*
X52383077Y-48438717D01*
X52327194Y-48354884D01*
X52262013Y-48258826D01*
X52224121Y-48203650D01*
X52155075Y-48102481D01*
X52093750Y-48010630D01*
X52043137Y-47932744D01*
X52006229Y-47873469D01*
X51986018Y-47837451D01*
X51983099Y-47829377D01*
X51995647Y-47810584D01*
X52030337Y-47770457D01*
X52082737Y-47713493D01*
X52148416Y-47644185D01*
X52222944Y-47567031D01*
X52301887Y-47486525D01*
X52380817Y-47407163D01*
X52455300Y-47333440D01*
X52520906Y-47269852D01*
X52573204Y-47220894D01*
X52607761Y-47191061D01*
X52619322Y-47183942D01*
X52638146Y-47193953D01*
X52683169Y-47222078D01*
X52750013Y-47265454D01*
X52834301Y-47321218D01*
X52931656Y-47386506D01*
X53005093Y-47436246D01*
X53376133Y-47688551D01*
X53994705Y-47433555D01*
X54078525Y-46988931D01*
X54162346Y-46544307D01*
X55087794Y-46544307D01*
X55171614Y-46988931D01*
G37*
X55171614Y-46988931D02*
X55255435Y-47433555D01*
X55564720Y-47561053D01*
X55874006Y-47688551D01*
X56245046Y-47436246D01*
X56348957Y-47365996D01*
X56442887Y-47303272D01*
X56522452Y-47250938D01*
X56583270Y-47211857D01*
X56620957Y-47188893D01*
X56631221Y-47183942D01*
X56649710Y-47196676D01*
X56689220Y-47231882D01*
X56745322Y-47285062D01*
X56813587Y-47351718D01*
X56889586Y-47427354D01*
X56968892Y-47507472D01*
X57047075Y-47587574D01*
X57119707Y-47663164D01*
X57182359Y-47729745D01*
X57230603Y-47782818D01*
X57260010Y-47817887D01*
X57267041Y-47829623D01*
X57256923Y-47851260D01*
X57228559Y-47898662D01*
X57184929Y-47967193D01*
X57129018Y-48052215D01*
X57063806Y-48149093D01*
X57026019Y-48204350D01*
X56957143Y-48305248D01*
X56895940Y-48396299D01*
X56845378Y-48472970D01*
X56808428Y-48530728D01*
X56788058Y-48565043D01*
X56784997Y-48572254D01*
X56791936Y-48592748D01*
X56810851Y-48640513D01*
X56838887Y-48708832D01*
X56873191Y-48790989D01*
X56910909Y-48880270D01*
X56949187Y-48969958D01*
X56985170Y-49053338D01*
X57016006Y-49123694D01*
X57038839Y-49174310D01*
X57050817Y-49198471D01*
X57051524Y-49199422D01*
X57070331Y-49204036D01*
X57120418Y-49214328D01*
X57196593Y-49229287D01*
X57293665Y-49247901D01*
X57406443Y-49269159D01*
X57472242Y-49281418D01*
X57592750Y-49304362D01*
X57701597Y-49326195D01*
X57793276Y-49345722D01*
X57862281Y-49361748D01*
X57903104Y-49373079D01*
X57911311Y-49376674D01*
X57919348Y-49401006D01*
X57925833Y-49455959D01*
X57930770Y-49535108D01*
X57934164Y-49632026D01*
X57936018Y-49740287D01*
X57936338Y-49853465D01*
X57935127Y-49965135D01*
X57932390Y-50068868D01*
X57928131Y-50158241D01*
X57922355Y-50226826D01*
X57915067Y-50268197D01*
X57910695Y-50276810D01*
X57884564Y-50287133D01*
X57829193Y-50301892D01*
X57751907Y-50319352D01*
X57660030Y-50337780D01*
X57627958Y-50343741D01*
X57473324Y-50372066D01*
X57351175Y-50394876D01*
X57257473Y-50413080D01*
X57188184Y-50427583D01*
X57139271Y-50439292D01*
X57106697Y-50449115D01*
X57086428Y-50457956D01*
X57074426Y-50466724D01*
X57072747Y-50468457D01*
X57055984Y-50496371D01*
X57030414Y-50550695D01*
X56998588Y-50624777D01*
X56963060Y-50711965D01*
X56926383Y-50805608D01*
X56891111Y-50899052D01*
X56859796Y-50985647D01*
X56834993Y-51058740D01*
X56819254Y-51111678D01*
X56815132Y-51137811D01*
X56815476Y-51138726D01*
X56829441Y-51160086D01*
X56861122Y-51207084D01*
X56907191Y-51274827D01*
X56964318Y-51358423D01*
X57029173Y-51452982D01*
X57047643Y-51479854D01*
X57113499Y-51577275D01*
X57171450Y-51666163D01*
X57218338Y-51741412D01*
X57251007Y-51797920D01*
X57266300Y-51830581D01*
X57267041Y-51834593D01*
X57254192Y-51855684D01*
X57218688Y-51897464D01*
X57165093Y-51955445D01*
X57097971Y-52025135D01*
X57021887Y-52102045D01*
X56941404Y-52181683D01*
X56861087Y-52259561D01*
X56785499Y-52331186D01*
X56719205Y-52392070D01*
X56666769Y-52437721D01*
X56632755Y-52463650D01*
X56623345Y-52467883D01*
X56601443Y-52457912D01*
X56556600Y-52431020D01*
X56496121Y-52391736D01*
X56449589Y-52360117D01*
X56365275Y-52302098D01*
X56265426Y-52233784D01*
X56165273Y-52165579D01*
X56111427Y-52129075D01*
X55929171Y-52005800D01*
X55776181Y-52088520D01*
X55706482Y-52124759D01*
X55647214Y-52152926D01*
X55607111Y-52168991D01*
X55596903Y-52171226D01*
X55584629Y-52154722D01*
X55560413Y-52108082D01*
X55526063Y-52035609D01*
X55483388Y-51941606D01*
X55434194Y-51830374D01*
X55380290Y-51706215D01*
X55323484Y-51573432D01*
X55265582Y-51436327D01*
X55208393Y-51299202D01*
X55153724Y-51166358D01*
X55103384Y-51042098D01*
X55059180Y-50930725D01*
X55022919Y-50836539D01*
X54996409Y-50763844D01*
X54981458Y-50716941D01*
X54979054Y-50700833D01*
X54998111Y-50680286D01*
X55039836Y-50646933D01*
X55095506Y-50607702D01*
X55100178Y-50604599D01*
X55244064Y-50489423D01*
X55360083Y-50355053D01*
X55447230Y-50205784D01*
X55504499Y-50045913D01*
X55530886Y-49879737D01*
X55525385Y-49711552D01*
X55486990Y-49545655D01*
X55414695Y-49386342D01*
X55393426Y-49351487D01*
X55282796Y-49210737D01*
X55152102Y-49097714D01*
X55005864Y-49013003D01*
X54848608Y-48957194D01*
X54684857Y-48930874D01*
X54519133Y-48934630D01*
X54355962Y-48969050D01*
X54199865Y-49034723D01*
X54055367Y-49132235D01*
X54010669Y-49171813D01*
X53896912Y-49295703D01*
X53814018Y-49426124D01*
X53757156Y-49572315D01*
X53725487Y-49717088D01*
X53717669Y-49879860D01*
X53743738Y-50043440D01*
X53801045Y-50202298D01*
X53886944Y-50350906D01*
X53998786Y-50483735D01*
X54133923Y-50595256D01*
X54151683Y-50607011D01*
X54207950Y-50645508D01*
X54250723Y-50678863D01*
X54271172Y-50700160D01*
X54271469Y-50700833D01*
X54267079Y-50723871D01*
X54249676Y-50776157D01*
X54221068Y-50853390D01*
X54183065Y-50951268D01*
X54137474Y-51065491D01*
X54086103Y-51191758D01*
X54030762Y-51325767D01*
X53973258Y-51463218D01*
X53915401Y-51599808D01*
X53858998Y-51731237D01*
X53805858Y-51853205D01*
X53757790Y-51961409D01*
X53716601Y-52051549D01*
X53684101Y-52119323D01*
X53662097Y-52160430D01*
X53653236Y-52171226D01*
X53626160Y-52162819D01*
X53575497Y-52140272D01*
X53509983Y-52107613D01*
X53473959Y-52088520D01*
X53320968Y-52005800D01*
X53138712Y-52129075D01*
X53045675Y-52192228D01*
X52943815Y-52261727D01*
X52848362Y-52327165D01*
X52800550Y-52360117D01*
X52733305Y-52405273D01*
X52676364Y-52441057D01*
X52637154Y-52462938D01*
X52624419Y-52467563D01*
X52605883Y-52455085D01*
X52564859Y-52420252D01*
X52505325Y-52366678D01*
X52431258Y-52297983D01*
X52346635Y-52217781D01*
X52293115Y-52166286D01*
X52199481Y-52074286D01*
X52118559Y-51991999D01*
X52053623Y-51922945D01*
X52007942Y-51870644D01*
X51984789Y-51838616D01*
X51982568Y-51832116D01*
X51992876Y-51807394D01*
X52021361Y-51757405D01*
X52064863Y-51687212D01*
X52120223Y-51601875D01*
X52184280Y-51506456D01*
X52202497Y-51479854D01*
X52268873Y-51383167D01*
X52328422Y-51296117D01*
X52377816Y-51223595D01*
X52413725Y-51170493D01*
X52432819Y-51141703D01*
X52434664Y-51138726D01*
X52431905Y-51115782D01*
X52417262Y-51065336D01*
X52393287Y-50994041D01*
X52362534Y-50908547D01*
X52327556Y-50815507D01*
X52290907Y-50721574D01*
X52255139Y-50633399D01*
X52222806Y-50557634D01*
X52196462Y-50500931D01*
X52178658Y-50469943D01*
X52177393Y-50468457D01*
X52166506Y-50459601D01*
X52148118Y-50450843D01*
X52118194Y-50441277D01*
X52072697Y-50429996D01*
X52007591Y-50416093D01*
X51918839Y-50398663D01*
X51802407Y-50376798D01*
X51654258Y-50349591D01*
X51622182Y-50343741D01*
X51527114Y-50325374D01*
X51444235Y-50307405D01*
X51380870Y-50291569D01*
X51344342Y-50279600D01*
X51339444Y-50276810D01*
X51331373Y-50252072D01*
X51324813Y-50196790D01*
X51319767Y-50117389D01*
X51316241Y-50020296D01*
X51314239Y-49911938D01*
X51313764Y-49798740D01*
X51314823Y-49687128D01*
X51317418Y-49583529D01*
X51321554Y-49494368D01*
X51327237Y-49426072D01*
X51334469Y-49385066D01*
X51338829Y-49376674D01*
X51363102Y-49368208D01*
X51418374Y-49354435D01*
X51499138Y-49336550D01*
X51599888Y-49315748D01*
X51715117Y-49293223D01*
X51777898Y-49281418D01*
X51897013Y-49259151D01*
X52003235Y-49238979D01*
X52091373Y-49221915D01*
X52156234Y-49208969D01*
X52192626Y-49201155D01*
X52198616Y-49199422D01*
X52208739Y-49179890D01*
X52230138Y-49132843D01*
X52259961Y-49065003D01*
X52295355Y-48983091D01*
X52333468Y-48893828D01*
X52371447Y-48803935D01*
X52406440Y-48720135D01*
X52435594Y-48649147D01*
X52456057Y-48597694D01*
X52464977Y-48572497D01*
X52465143Y-48571396D01*
X52455031Y-48551519D01*
X52426683Y-48505777D01*
X52383077Y-48438717D01*
X52327194Y-48354884D01*
X52262013Y-48258826D01*
X52224121Y-48203650D01*
X52155075Y-48102481D01*
X52093750Y-48010630D01*
X52043137Y-47932744D01*
X52006229Y-47873469D01*
X51986018Y-47837451D01*
X51983099Y-47829377D01*
X51995647Y-47810584D01*
X52030337Y-47770457D01*
X52082737Y-47713493D01*
X52148416Y-47644185D01*
X52222944Y-47567031D01*
X52301887Y-47486525D01*
X52380817Y-47407163D01*
X52455300Y-47333440D01*
X52520906Y-47269852D01*
X52573204Y-47220894D01*
X52607761Y-47191061D01*
X52619322Y-47183942D01*
X52638146Y-47193953D01*
X52683169Y-47222078D01*
X52750013Y-47265454D01*
X52834301Y-47321218D01*
X52931656Y-47386506D01*
X53005093Y-47436246D01*
X53376133Y-47688551D01*
X53994705Y-47433555D01*
X54078525Y-46988931D01*
X54162346Y-46544307D01*
X55087794Y-46544307D01*
X55171614Y-46988931D01*
G36*
X48494429Y-58139066D02*
G01*
X48533911Y-58139467D01*
X48649600Y-58142259D01*
X48746489Y-58150550D01*
X48827881Y-58165232D01*
X48897077Y-58187193D01*
X48957380Y-58217322D01*
X49012092Y-58256510D01*
X49031633Y-58273532D01*
X49064050Y-58313363D01*
X49093280Y-58367413D01*
X49115809Y-58427323D01*
X49128121Y-58484739D01*
X49129400Y-58505956D01*
X49121383Y-58564769D01*
X49099901Y-58629013D01*
X49068801Y-58689821D01*
X49031934Y-58738330D01*
X49025946Y-58744182D01*
X48975221Y-58785321D01*
X48919675Y-58817435D01*
X48856104Y-58841365D01*
X48781306Y-58857953D01*
X48692078Y-58868041D01*
X48585218Y-58872469D01*
X48536272Y-58872845D01*
X48474038Y-58872545D01*
X48430272Y-58871292D01*
X48400869Y-58868554D01*
X48381721Y-58863801D01*
X48368723Y-58856501D01*
X48361755Y-58850267D01*
X48355174Y-58842694D01*
X48350012Y-58832924D01*
X48346097Y-58818340D01*
X48343257Y-58796326D01*
X48341320Y-58764264D01*
X48340116Y-58719536D01*
X48339472Y-58659526D01*
X48339217Y-58581617D01*
X48339178Y-58505956D01*
X48338930Y-58405041D01*
X48338983Y-58324427D01*
X48339943Y-58285822D01*
X48485933Y-58285822D01*
X48485933Y-58726089D01*
X48579066Y-58726004D01*
X48635107Y-58724396D01*
X48693801Y-58720256D01*
X48742772Y-58714464D01*
X48744262Y-58714226D01*
X48823408Y-58695090D01*
X48884798Y-58665287D01*
X48931495Y-58622878D01*
X48961165Y-58576961D01*
X48979447Y-58526026D01*
X48978029Y-58478200D01*
X48956812Y-58426933D01*
X48915311Y-58373899D01*
X48857802Y-58334600D01*
X48783050Y-58308331D01*
X48733092Y-58299035D01*
X48676384Y-58292507D01*
X48616281Y-58287782D01*
X48565161Y-58285817D01*
X48562133Y-58285808D01*
X48485933Y-58285822D01*
X48339943Y-58285822D01*
X48340540Y-58261851D01*
X48344802Y-58215055D01*
X48352970Y-58181778D01*
X48366244Y-58159759D01*
X48385826Y-58146739D01*
X48412917Y-58140457D01*
X48448718Y-58138653D01*
X48494429Y-58139066D01*
G37*
X48494429Y-58139066D02*
X48533911Y-58139467D01*
X48649600Y-58142259D01*
X48746489Y-58150550D01*
X48827881Y-58165232D01*
X48897077Y-58187193D01*
X48957380Y-58217322D01*
X49012092Y-58256510D01*
X49031633Y-58273532D01*
X49064050Y-58313363D01*
X49093280Y-58367413D01*
X49115809Y-58427323D01*
X49128121Y-58484739D01*
X49129400Y-58505956D01*
X49121383Y-58564769D01*
X49099901Y-58629013D01*
X49068801Y-58689821D01*
X49031934Y-58738330D01*
X49025946Y-58744182D01*
X48975221Y-58785321D01*
X48919675Y-58817435D01*
X48856104Y-58841365D01*
X48781306Y-58857953D01*
X48692078Y-58868041D01*
X48585218Y-58872469D01*
X48536272Y-58872845D01*
X48474038Y-58872545D01*
X48430272Y-58871292D01*
X48400869Y-58868554D01*
X48381721Y-58863801D01*
X48368723Y-58856501D01*
X48361755Y-58850267D01*
X48355174Y-58842694D01*
X48350012Y-58832924D01*
X48346097Y-58818340D01*
X48343257Y-58796326D01*
X48341320Y-58764264D01*
X48340116Y-58719536D01*
X48339472Y-58659526D01*
X48339217Y-58581617D01*
X48339178Y-58505956D01*
X48338930Y-58405041D01*
X48338983Y-58324427D01*
X48339943Y-58285822D01*
X48485933Y-58285822D01*
X48485933Y-58726089D01*
X48579066Y-58726004D01*
X48635107Y-58724396D01*
X48693801Y-58720256D01*
X48742772Y-58714464D01*
X48744262Y-58714226D01*
X48823408Y-58695090D01*
X48884798Y-58665287D01*
X48931495Y-58622878D01*
X48961165Y-58576961D01*
X48979447Y-58526026D01*
X48978029Y-58478200D01*
X48956812Y-58426933D01*
X48915311Y-58373899D01*
X48857802Y-58334600D01*
X48783050Y-58308331D01*
X48733092Y-58299035D01*
X48676384Y-58292507D01*
X48616281Y-58287782D01*
X48565161Y-58285817D01*
X48562133Y-58285808D01*
X48485933Y-58285822D01*
X48339943Y-58285822D01*
X48340540Y-58261851D01*
X48344802Y-58215055D01*
X48352970Y-58181778D01*
X48366244Y-58159759D01*
X48385826Y-58146739D01*
X48412917Y-58140457D01*
X48448718Y-58138653D01*
X48494429Y-58139066D01*
G36*
X49903006Y-58139146D02*
G01*
X49972414Y-58139518D01*
X50024803Y-58140385D01*
X50062953Y-58141946D01*
X50089641Y-58144403D01*
X50107647Y-58147957D01*
X50119751Y-58152810D01*
X50128731Y-58159161D01*
X50131982Y-58162084D01*
X50151757Y-58193142D01*
X50155318Y-58228828D01*
X50142309Y-58260510D01*
X50136294Y-58266913D01*
X50126565Y-58273121D01*
X50110899Y-58277910D01*
X50086392Y-58281514D01*
X50050139Y-58284164D01*
X49999235Y-58286095D01*
X49930774Y-58287539D01*
X49868183Y-58288418D01*
X49620466Y-58291467D01*
X49617081Y-58356378D01*
X49613695Y-58421289D01*
X49781842Y-58421289D01*
X49854841Y-58421919D01*
X49908283Y-58424553D01*
X49945172Y-58430309D01*
X49968512Y-58440304D01*
X49981306Y-58455656D01*
X49986558Y-58477482D01*
X49987355Y-58497738D01*
X49984877Y-58522592D01*
X49975523Y-58540906D01*
X49956417Y-58553637D01*
X49924682Y-58561741D01*
X49877441Y-58566176D01*
X49811817Y-58567899D01*
X49775999Y-58568045D01*
X49614822Y-58568045D01*
X49614822Y-58726089D01*
X49863178Y-58726089D01*
X49944587Y-58726202D01*
X50006458Y-58726712D01*
X50051832Y-58727870D01*
X50083746Y-58729930D01*
X50105241Y-58733146D01*
X50119357Y-58737772D01*
X50129132Y-58744059D01*
X50134111Y-58748667D01*
X50151190Y-58775560D01*
X50156689Y-58799467D01*
X50148837Y-58828667D01*
X50134111Y-58850267D01*
X50126254Y-58857066D01*
X50116112Y-58862346D01*
X50100956Y-58866298D01*
X50078059Y-58869113D01*
X50044691Y-58870982D01*
X49998125Y-58872098D01*
X49935633Y-58872651D01*
X49854486Y-58872833D01*
X49812378Y-58872845D01*
X49722202Y-58872765D01*
X49651876Y-58872398D01*
X49598671Y-58871552D01*
X49559860Y-58870036D01*
X49532713Y-58867659D01*
X49514502Y-58864229D01*
X49502500Y-58859554D01*
X49493978Y-58853444D01*
X49490644Y-58850267D01*
X49484045Y-58842670D01*
X49478873Y-58832870D01*
X49474954Y-58818239D01*
X49472116Y-58796152D01*
X49470185Y-58763982D01*
X49468988Y-58719103D01*
X49468352Y-58658889D01*
X49468103Y-58580713D01*
X49468066Y-58507923D01*
X49468100Y-58414707D01*
X49468335Y-58341431D01*
X49468970Y-58285458D01*
X49470206Y-58244151D01*
X49472244Y-58214872D01*
X49475283Y-58194984D01*
X49479523Y-58181850D01*
X49485165Y-58172832D01*
X49492409Y-58165293D01*
X49494194Y-58163612D01*
X49502855Y-58156172D01*
X49512918Y-58150409D01*
X49527175Y-58146112D01*
X49548417Y-58143064D01*
X49579436Y-58141051D01*
X49623023Y-58139860D01*
X49681969Y-58139275D01*
X49759066Y-58139083D01*
X49813799Y-58139067D01*
X49903006Y-58139146D01*
G37*
X49903006Y-58139146D02*
X49972414Y-58139518D01*
X50024803Y-58140385D01*
X50062953Y-58141946D01*
X50089641Y-58144403D01*
X50107647Y-58147957D01*
X50119751Y-58152810D01*
X50128731Y-58159161D01*
X50131982Y-58162084D01*
X50151757Y-58193142D01*
X50155318Y-58228828D01*
X50142309Y-58260510D01*
X50136294Y-58266913D01*
X50126565Y-58273121D01*
X50110899Y-58277910D01*
X50086392Y-58281514D01*
X50050139Y-58284164D01*
X49999235Y-58286095D01*
X49930774Y-58287539D01*
X49868183Y-58288418D01*
X49620466Y-58291467D01*
X49617081Y-58356378D01*
X49613695Y-58421289D01*
X49781842Y-58421289D01*
X49854841Y-58421919D01*
X49908283Y-58424553D01*
X49945172Y-58430309D01*
X49968512Y-58440304D01*
X49981306Y-58455656D01*
X49986558Y-58477482D01*
X49987355Y-58497738D01*
X49984877Y-58522592D01*
X49975523Y-58540906D01*
X49956417Y-58553637D01*
X49924682Y-58561741D01*
X49877441Y-58566176D01*
X49811817Y-58567899D01*
X49775999Y-58568045D01*
X49614822Y-58568045D01*
X49614822Y-58726089D01*
X49863178Y-58726089D01*
X49944587Y-58726202D01*
X50006458Y-58726712D01*
X50051832Y-58727870D01*
X50083746Y-58729930D01*
X50105241Y-58733146D01*
X50119357Y-58737772D01*
X50129132Y-58744059D01*
X50134111Y-58748667D01*
X50151190Y-58775560D01*
X50156689Y-58799467D01*
X50148837Y-58828667D01*
X50134111Y-58850267D01*
X50126254Y-58857066D01*
X50116112Y-58862346D01*
X50100956Y-58866298D01*
X50078059Y-58869113D01*
X50044691Y-58870982D01*
X49998125Y-58872098D01*
X49935633Y-58872651D01*
X49854486Y-58872833D01*
X49812378Y-58872845D01*
X49722202Y-58872765D01*
X49651876Y-58872398D01*
X49598671Y-58871552D01*
X49559860Y-58870036D01*
X49532713Y-58867659D01*
X49514502Y-58864229D01*
X49502500Y-58859554D01*
X49493978Y-58853444D01*
X49490644Y-58850267D01*
X49484045Y-58842670D01*
X49478873Y-58832870D01*
X49474954Y-58818239D01*
X49472116Y-58796152D01*
X49470185Y-58763982D01*
X49468988Y-58719103D01*
X49468352Y-58658889D01*
X49468103Y-58580713D01*
X49468066Y-58507923D01*
X49468100Y-58414707D01*
X49468335Y-58341431D01*
X49468970Y-58285458D01*
X49470206Y-58244151D01*
X49472244Y-58214872D01*
X49475283Y-58194984D01*
X49479523Y-58181850D01*
X49485165Y-58172832D01*
X49492409Y-58165293D01*
X49494194Y-58163612D01*
X49502855Y-58156172D01*
X49512918Y-58150409D01*
X49527175Y-58146112D01*
X49548417Y-58143064D01*
X49579436Y-58141051D01*
X49623023Y-58139860D01*
X49681969Y-58139275D01*
X49759066Y-58139083D01*
X49813799Y-58139067D01*
X49903006Y-58139146D01*
G36*
X50924097Y-58140351D02*
G01*
X50998912Y-58145581D01*
X51068494Y-58153750D01*
X51128798Y-58164550D01*
X51175780Y-58177673D01*
X51205394Y-58192813D01*
X51209940Y-58197269D01*
X51225746Y-58231850D01*
X51220953Y-58267351D01*
X51196436Y-58297725D01*
X51195266Y-58298596D01*
X51180846Y-58307954D01*
X51165792Y-58312876D01*
X51144795Y-58313473D01*
X51112543Y-58309861D01*
X51063727Y-58302154D01*
X51059800Y-58301505D01*
X50987061Y-58292569D01*
X50908583Y-58288161D01*
X50829873Y-58288119D01*
X50756439Y-58292279D01*
X50693789Y-58300479D01*
X50647430Y-58312557D01*
X50644384Y-58313771D01*
X50610752Y-58332615D01*
X50598936Y-58351685D01*
X50608186Y-58370439D01*
X50637753Y-58388337D01*
X50686889Y-58404837D01*
X50754843Y-58419396D01*
X50800155Y-58426406D01*
X50894344Y-58439889D01*
X50969256Y-58452214D01*
X51028083Y-58464449D01*
X51074015Y-58477661D01*
X51110245Y-58492917D01*
X51139962Y-58511285D01*
X51166358Y-58533831D01*
X51187570Y-58555971D01*
X51212735Y-58586819D01*
X51225119Y-58613345D01*
X51228992Y-58646026D01*
X51229133Y-58657995D01*
X51226224Y-58697712D01*
X51214598Y-58727259D01*
X51194477Y-58753486D01*
X51153584Y-58793576D01*
X51107983Y-58824149D01*
X51054287Y-58846203D01*
X50989108Y-58860735D01*
X50909056Y-58868741D01*
X50810743Y-58871218D01*
X50794511Y-58871177D01*
X50728951Y-58869818D01*
X50663934Y-58866730D01*
X50606548Y-58862356D01*
X50563878Y-58857140D01*
X50560428Y-58856541D01*
X50518004Y-58846491D01*
X50482020Y-58833796D01*
X50461650Y-58822190D01*
X50442693Y-58791572D01*
X50441373Y-58755918D01*
X50457715Y-58724144D01*
X50461371Y-58720551D01*
X50476485Y-58709876D01*
X50495385Y-58705276D01*
X50524638Y-58706059D01*
X50560149Y-58710127D01*
X50599830Y-58713762D01*
X50655455Y-58716828D01*
X50720394Y-58719053D01*
X50788015Y-58720164D01*
X50805800Y-58720237D01*
X50873672Y-58719964D01*
X50923346Y-58718646D01*
X50959190Y-58715827D01*
X50985576Y-58711050D01*
X51006874Y-58703857D01*
X51019674Y-58697867D01*
X51047800Y-58681233D01*
X51065732Y-58666168D01*
X51068353Y-58661897D01*
X51062824Y-58644263D01*
X51036540Y-58627192D01*
X50991322Y-58611458D01*
X50928992Y-58597838D01*
X50910629Y-58594804D01*
X50814710Y-58579738D01*
X50738159Y-58567146D01*
X50678020Y-58556111D01*
X50631340Y-58545720D01*
X50595163Y-58535056D01*
X50566535Y-58523205D01*
X50542502Y-58509251D01*
X50520108Y-58492281D01*
X50496398Y-58471378D01*
X50488420Y-58464049D01*
X50460447Y-58436699D01*
X50445640Y-58415029D01*
X50439848Y-58390232D01*
X50438911Y-58358983D01*
X50449225Y-58297705D01*
X50480048Y-58245640D01*
X50531205Y-58202958D01*
X50602517Y-58169825D01*
X50653400Y-58154964D01*
X50708700Y-58145366D01*
X50774947Y-58139936D01*
X50848094Y-58138367D01*
X50924097Y-58140351D01*
G37*
X50924097Y-58140351D02*
X50998912Y-58145581D01*
X51068494Y-58153750D01*
X51128798Y-58164550D01*
X51175780Y-58177673D01*
X51205394Y-58192813D01*
X51209940Y-58197269D01*
X51225746Y-58231850D01*
X51220953Y-58267351D01*
X51196436Y-58297725D01*
X51195266Y-58298596D01*
X51180846Y-58307954D01*
X51165792Y-58312876D01*
X51144795Y-58313473D01*
X51112543Y-58309861D01*
X51063727Y-58302154D01*
X51059800Y-58301505D01*
X50987061Y-58292569D01*
X50908583Y-58288161D01*
X50829873Y-58288119D01*
X50756439Y-58292279D01*
X50693789Y-58300479D01*
X50647430Y-58312557D01*
X50644384Y-58313771D01*
X50610752Y-58332615D01*
X50598936Y-58351685D01*
X50608186Y-58370439D01*
X50637753Y-58388337D01*
X50686889Y-58404837D01*
X50754843Y-58419396D01*
X50800155Y-58426406D01*
X50894344Y-58439889D01*
X50969256Y-58452214D01*
X51028083Y-58464449D01*
X51074015Y-58477661D01*
X51110245Y-58492917D01*
X51139962Y-58511285D01*
X51166358Y-58533831D01*
X51187570Y-58555971D01*
X51212735Y-58586819D01*
X51225119Y-58613345D01*
X51228992Y-58646026D01*
X51229133Y-58657995D01*
X51226224Y-58697712D01*
X51214598Y-58727259D01*
X51194477Y-58753486D01*
X51153584Y-58793576D01*
X51107983Y-58824149D01*
X51054287Y-58846203D01*
X50989108Y-58860735D01*
X50909056Y-58868741D01*
X50810743Y-58871218D01*
X50794511Y-58871177D01*
X50728951Y-58869818D01*
X50663934Y-58866730D01*
X50606548Y-58862356D01*
X50563878Y-58857140D01*
X50560428Y-58856541D01*
X50518004Y-58846491D01*
X50482020Y-58833796D01*
X50461650Y-58822190D01*
X50442693Y-58791572D01*
X50441373Y-58755918D01*
X50457715Y-58724144D01*
X50461371Y-58720551D01*
X50476485Y-58709876D01*
X50495385Y-58705276D01*
X50524638Y-58706059D01*
X50560149Y-58710127D01*
X50599830Y-58713762D01*
X50655455Y-58716828D01*
X50720394Y-58719053D01*
X50788015Y-58720164D01*
X50805800Y-58720237D01*
X50873672Y-58719964D01*
X50923346Y-58718646D01*
X50959190Y-58715827D01*
X50985576Y-58711050D01*
X51006874Y-58703857D01*
X51019674Y-58697867D01*
X51047800Y-58681233D01*
X51065732Y-58666168D01*
X51068353Y-58661897D01*
X51062824Y-58644263D01*
X51036540Y-58627192D01*
X50991322Y-58611458D01*
X50928992Y-58597838D01*
X50910629Y-58594804D01*
X50814710Y-58579738D01*
X50738159Y-58567146D01*
X50678020Y-58556111D01*
X50631340Y-58545720D01*
X50595163Y-58535056D01*
X50566535Y-58523205D01*
X50542502Y-58509251D01*
X50520108Y-58492281D01*
X50496398Y-58471378D01*
X50488420Y-58464049D01*
X50460447Y-58436699D01*
X50445640Y-58415029D01*
X50439848Y-58390232D01*
X50438911Y-58358983D01*
X50449225Y-58297705D01*
X50480048Y-58245640D01*
X50531205Y-58202958D01*
X50602517Y-58169825D01*
X50653400Y-58154964D01*
X50708700Y-58145366D01*
X50774947Y-58139936D01*
X50848094Y-58138367D01*
X50924097Y-58140351D01*
G36*
X51691978Y-58161645D02*
G01*
X51698558Y-58169218D01*
X51703721Y-58178987D01*
X51707636Y-58193571D01*
X51710476Y-58215585D01*
X51712413Y-58247648D01*
X51713617Y-58292375D01*
X51714261Y-58352385D01*
X51714516Y-58430294D01*
X51714555Y-58505956D01*
X51714486Y-58599802D01*
X51714162Y-58673689D01*
X51713414Y-58730232D01*
X51712068Y-58772049D01*
X51709954Y-58801757D01*
X51706900Y-58821973D01*
X51702734Y-58835314D01*
X51697284Y-58844398D01*
X51691978Y-58850267D01*
X51658974Y-58869947D01*
X51623809Y-58868181D01*
X51592345Y-58846717D01*
X51585116Y-58838337D01*
X51579466Y-58828614D01*
X51575201Y-58814861D01*
X51572127Y-58794389D01*
X51570048Y-58764512D01*
X51568770Y-58722541D01*
X51568099Y-58665789D01*
X51567841Y-58591567D01*
X51567800Y-58507537D01*
X51567800Y-58194485D01*
X51595509Y-58166776D01*
X51629663Y-58143463D01*
X51662794Y-58142623D01*
X51691978Y-58161645D01*
G37*
X51691978Y-58161645D02*
X51698558Y-58169218D01*
X51703721Y-58178987D01*
X51707636Y-58193571D01*
X51710476Y-58215585D01*
X51712413Y-58247648D01*
X51713617Y-58292375D01*
X51714261Y-58352385D01*
X51714516Y-58430294D01*
X51714555Y-58505956D01*
X51714486Y-58599802D01*
X51714162Y-58673689D01*
X51713414Y-58730232D01*
X51712068Y-58772049D01*
X51709954Y-58801757D01*
X51706900Y-58821973D01*
X51702734Y-58835314D01*
X51697284Y-58844398D01*
X51691978Y-58850267D01*
X51658974Y-58869947D01*
X51623809Y-58868181D01*
X51592345Y-58846717D01*
X51585116Y-58838337D01*
X51579466Y-58828614D01*
X51575201Y-58814861D01*
X51572127Y-58794389D01*
X51570048Y-58764512D01*
X51568770Y-58722541D01*
X51568099Y-58665789D01*
X51567841Y-58591567D01*
X51567800Y-58507537D01*
X51567800Y-58194485D01*
X51595509Y-58166776D01*
X51629663Y-58143463D01*
X51662794Y-58142623D01*
X51691978Y-58161645D01*
G36*
X52665719Y-58144599D02*
G01*
X52734235Y-58156095D01*
X52786857Y-58173967D01*
X52821092Y-58197499D01*
X52830421Y-58210924D01*
X52839907Y-58242148D01*
X52833523Y-58270395D01*
X52813370Y-58297182D01*
X52782055Y-58309713D01*
X52736617Y-58308696D01*
X52701474Y-58301906D01*
X52623381Y-58288971D01*
X52543574Y-58287742D01*
X52454245Y-58298241D01*
X52429571Y-58302690D01*
X52346509Y-58326108D01*
X52281527Y-58360945D01*
X52235339Y-58406604D01*
X52208655Y-58462494D01*
X52203137Y-58491388D01*
X52206749Y-58550012D01*
X52230071Y-58601879D01*
X52270976Y-58645978D01*
X52327341Y-58681299D01*
X52397040Y-58706829D01*
X52477948Y-58721559D01*
X52567940Y-58724478D01*
X52664890Y-58714575D01*
X52670364Y-58713641D01*
X52708925Y-58706459D01*
X52730306Y-58699521D01*
X52739573Y-58689227D01*
X52741794Y-58671976D01*
X52741844Y-58662841D01*
X52741844Y-58624489D01*
X52673369Y-58624489D01*
X52612900Y-58620347D01*
X52571635Y-58607147D01*
X52547625Y-58583730D01*
X52538923Y-58548936D01*
X52538817Y-58544394D01*
X52543908Y-58514654D01*
X52561367Y-58493419D01*
X52593861Y-58479366D01*
X52644057Y-58471173D01*
X52692677Y-58468161D01*
X52763344Y-58466433D01*
X52814602Y-58469070D01*
X52849561Y-58478800D01*
X52871330Y-58498353D01*
X52883020Y-58530456D01*
X52887740Y-58577838D01*
X52888600Y-58640071D01*
X52887191Y-58709535D01*
X52882952Y-58756786D01*
X52875864Y-58782012D01*
X52874489Y-58783988D01*
X52835572Y-58815508D01*
X52778514Y-58840470D01*
X52706931Y-58858340D01*
X52624442Y-58868586D01*
X52534661Y-58870673D01*
X52441208Y-58864068D01*
X52386244Y-58855956D01*
X52300034Y-58831554D01*
X52219908Y-58791662D01*
X52152823Y-58739887D01*
X52142627Y-58729539D01*
X52109498Y-58686035D01*
X52079606Y-58632118D01*
X52056443Y-58575592D01*
X52043502Y-58524259D01*
X52041942Y-58504544D01*
X52048582Y-58463419D01*
X52066232Y-58412252D01*
X52091503Y-58358394D01*
X52121011Y-58309195D01*
X52147081Y-58276334D01*
X52208035Y-58227452D01*
X52286831Y-58188545D01*
X52380643Y-58160494D01*
X52486650Y-58144179D01*
X52583800Y-58140192D01*
X52665719Y-58144599D01*
G37*
X52665719Y-58144599D02*
X52734235Y-58156095D01*
X52786857Y-58173967D01*
X52821092Y-58197499D01*
X52830421Y-58210924D01*
X52839907Y-58242148D01*
X52833523Y-58270395D01*
X52813370Y-58297182D01*
X52782055Y-58309713D01*
X52736617Y-58308696D01*
X52701474Y-58301906D01*
X52623381Y-58288971D01*
X52543574Y-58287742D01*
X52454245Y-58298241D01*
X52429571Y-58302690D01*
X52346509Y-58326108D01*
X52281527Y-58360945D01*
X52235339Y-58406604D01*
X52208655Y-58462494D01*
X52203137Y-58491388D01*
X52206749Y-58550012D01*
X52230071Y-58601879D01*
X52270976Y-58645978D01*
X52327341Y-58681299D01*
X52397040Y-58706829D01*
X52477948Y-58721559D01*
X52567940Y-58724478D01*
X52664890Y-58714575D01*
X52670364Y-58713641D01*
X52708925Y-58706459D01*
X52730306Y-58699521D01*
X52739573Y-58689227D01*
X52741794Y-58671976D01*
X52741844Y-58662841D01*
X52741844Y-58624489D01*
X52673369Y-58624489D01*
X52612900Y-58620347D01*
X52571635Y-58607147D01*
X52547625Y-58583730D01*
X52538923Y-58548936D01*
X52538817Y-58544394D01*
X52543908Y-58514654D01*
X52561367Y-58493419D01*
X52593861Y-58479366D01*
X52644057Y-58471173D01*
X52692677Y-58468161D01*
X52763344Y-58466433D01*
X52814602Y-58469070D01*
X52849561Y-58478800D01*
X52871330Y-58498353D01*
X52883020Y-58530456D01*
X52887740Y-58577838D01*
X52888600Y-58640071D01*
X52887191Y-58709535D01*
X52882952Y-58756786D01*
X52875864Y-58782012D01*
X52874489Y-58783988D01*
X52835572Y-58815508D01*
X52778514Y-58840470D01*
X52706931Y-58858340D01*
X52624442Y-58868586D01*
X52534661Y-58870673D01*
X52441208Y-58864068D01*
X52386244Y-58855956D01*
X52300034Y-58831554D01*
X52219908Y-58791662D01*
X52152823Y-58739887D01*
X52142627Y-58729539D01*
X52109498Y-58686035D01*
X52079606Y-58632118D01*
X52056443Y-58575592D01*
X52043502Y-58524259D01*
X52041942Y-58504544D01*
X52048582Y-58463419D01*
X52066232Y-58412252D01*
X52091503Y-58358394D01*
X52121011Y-58309195D01*
X52147081Y-58276334D01*
X52208035Y-58227452D01*
X52286831Y-58188545D01*
X52380643Y-58160494D01*
X52486650Y-58144179D01*
X52583800Y-58140192D01*
X52665719Y-58144599D01*
G36*
X53315686Y-58143448D02*
G01*
X53339252Y-58157273D01*
X53370065Y-58179881D01*
X53409722Y-58212338D01*
X53459820Y-58255708D01*
X53521957Y-58311058D01*
X53597728Y-58379451D01*
X53684466Y-58458084D01*
X53865089Y-58621878D01*
X53870733Y-58402029D01*
X53872771Y-58326351D01*
X53874737Y-58269994D01*
X53877066Y-58229706D01*
X53880194Y-58202235D01*
X53884555Y-58184329D01*
X53890584Y-58172737D01*
X53898716Y-58164208D01*
X53903028Y-58160623D01*
X53937559Y-58141670D01*
X53970417Y-58144441D01*
X53996482Y-58160633D01*
X54023133Y-58182199D01*
X54026448Y-58497151D01*
X54027365Y-58589779D01*
X54027832Y-58662544D01*
X54027687Y-58718161D01*
X54026768Y-58759342D01*
X54024913Y-58788803D01*
X54021961Y-58809255D01*
X54017750Y-58823413D01*
X54012118Y-58833991D01*
X54005873Y-58842474D01*
X53992361Y-58858207D01*
X53978917Y-58868636D01*
X53963676Y-58872639D01*
X53944774Y-58869094D01*
X53920345Y-58856879D01*
X53888527Y-58834871D01*
X53847452Y-58801949D01*
X53795258Y-58756991D01*
X53730078Y-58698875D01*
X53656244Y-58632099D01*
X53390955Y-58391458D01*
X53385311Y-58610589D01*
X53383269Y-58686128D01*
X53381298Y-58742354D01*
X53378961Y-58782524D01*
X53375819Y-58809896D01*
X53371436Y-58827728D01*
X53365376Y-58839279D01*
X53357200Y-58847807D01*
X53353016Y-58851282D01*
X53316035Y-58870372D01*
X53281092Y-58867493D01*
X53250664Y-58843100D01*
X53243703Y-58833286D01*
X53238277Y-58821826D01*
X53234197Y-58805968D01*
X53231271Y-58782963D01*
X53229308Y-58750062D01*
X53228117Y-58704516D01*
X53227508Y-58643573D01*
X53227289Y-58564486D01*
X53227266Y-58505956D01*
X53227340Y-58414407D01*
X53227687Y-58342687D01*
X53228499Y-58288045D01*
X53229967Y-58247732D01*
X53232281Y-58218998D01*
X53235633Y-58199093D01*
X53240212Y-58185268D01*
X53246211Y-58174772D01*
X53250664Y-58168811D01*
X53261950Y-58154691D01*
X53272499Y-58144029D01*
X53283907Y-58137892D01*
X53297770Y-58137343D01*
X53315686Y-58143448D01*
G37*
X53315686Y-58143448D02*
X53339252Y-58157273D01*
X53370065Y-58179881D01*
X53409722Y-58212338D01*
X53459820Y-58255708D01*
X53521957Y-58311058D01*
X53597728Y-58379451D01*
X53684466Y-58458084D01*
X53865089Y-58621878D01*
X53870733Y-58402029D01*
X53872771Y-58326351D01*
X53874737Y-58269994D01*
X53877066Y-58229706D01*
X53880194Y-58202235D01*
X53884555Y-58184329D01*
X53890584Y-58172737D01*
X53898716Y-58164208D01*
X53903028Y-58160623D01*
X53937559Y-58141670D01*
X53970417Y-58144441D01*
X53996482Y-58160633D01*
X54023133Y-58182199D01*
X54026448Y-58497151D01*
X54027365Y-58589779D01*
X54027832Y-58662544D01*
X54027687Y-58718161D01*
X54026768Y-58759342D01*
X54024913Y-58788803D01*
X54021961Y-58809255D01*
X54017750Y-58823413D01*
X54012118Y-58833991D01*
X54005873Y-58842474D01*
X53992361Y-58858207D01*
X53978917Y-58868636D01*
X53963676Y-58872639D01*
X53944774Y-58869094D01*
X53920345Y-58856879D01*
X53888527Y-58834871D01*
X53847452Y-58801949D01*
X53795258Y-58756991D01*
X53730078Y-58698875D01*
X53656244Y-58632099D01*
X53390955Y-58391458D01*
X53385311Y-58610589D01*
X53383269Y-58686128D01*
X53381298Y-58742354D01*
X53378961Y-58782524D01*
X53375819Y-58809896D01*
X53371436Y-58827728D01*
X53365376Y-58839279D01*
X53357200Y-58847807D01*
X53353016Y-58851282D01*
X53316035Y-58870372D01*
X53281092Y-58867493D01*
X53250664Y-58843100D01*
X53243703Y-58833286D01*
X53238277Y-58821826D01*
X53234197Y-58805968D01*
X53231271Y-58782963D01*
X53229308Y-58750062D01*
X53228117Y-58704516D01*
X53227508Y-58643573D01*
X53227289Y-58564486D01*
X53227266Y-58505956D01*
X53227340Y-58414407D01*
X53227687Y-58342687D01*
X53228499Y-58288045D01*
X53229967Y-58247732D01*
X53232281Y-58218998D01*
X53235633Y-58199093D01*
X53240212Y-58185268D01*
X53246211Y-58174772D01*
X53250664Y-58168811D01*
X53261950Y-58154691D01*
X53272499Y-58144029D01*
X53283907Y-58137892D01*
X53297770Y-58137343D01*
X53315686Y-58143448D01*
G36*
X54846143Y-58139260D02*
G01*
X54922501Y-58140174D01*
X54981017Y-58142311D01*
X55024055Y-58146175D01*
X55053983Y-58152267D01*
X55073168Y-58161090D01*
X55083976Y-58173146D01*
X55088773Y-58188939D01*
X55089927Y-58208970D01*
X55089933Y-58211335D01*
X55088931Y-58233992D01*
X55084196Y-58251503D01*
X55073133Y-58264574D01*
X55053148Y-58273913D01*
X55021646Y-58280227D01*
X54976032Y-58284222D01*
X54913713Y-58286606D01*
X54832093Y-58288086D01*
X54807077Y-58288414D01*
X54565000Y-58291467D01*
X54561614Y-58356378D01*
X54558229Y-58421289D01*
X54726376Y-58421289D01*
X54792066Y-58421531D01*
X54838972Y-58422556D01*
X54870883Y-58424811D01*
X54891591Y-58428742D01*
X54904884Y-58434798D01*
X54914555Y-58443424D01*
X54914617Y-58443493D01*
X54932156Y-58477112D01*
X54931522Y-58513448D01*
X54913114Y-58544423D01*
X54909471Y-58547607D01*
X54896541Y-58555812D01*
X54878824Y-58561521D01*
X54852370Y-58565162D01*
X54813232Y-58567167D01*
X54757462Y-58567964D01*
X54721794Y-58568045D01*
X54559355Y-58568045D01*
X54559355Y-58726089D01*
X54805961Y-58726089D01*
X54887380Y-58726231D01*
X54949210Y-58726814D01*
X54994437Y-58728068D01*
X55026048Y-58730227D01*
X55047031Y-58733523D01*
X55060373Y-58738189D01*
X55069061Y-58744457D01*
X55071250Y-58746733D01*
X55087414Y-58778280D01*
X55088597Y-58814168D01*
X55075336Y-58845285D01*
X55064843Y-58855271D01*
X55053929Y-58860769D01*
X55037017Y-58865022D01*
X55011433Y-58868180D01*
X54974501Y-58870392D01*
X54923546Y-58871806D01*
X54855894Y-58872572D01*
X54768869Y-58872838D01*
X54749194Y-58872845D01*
X54660711Y-58872787D01*
X54592027Y-58872467D01*
X54540364Y-58871667D01*
X54502945Y-58870167D01*
X54476990Y-58867749D01*
X54459722Y-58864194D01*
X54448362Y-58859282D01*
X54440132Y-58852795D01*
X54435617Y-58848138D01*
X54428821Y-58839889D01*
X54423512Y-58829669D01*
X54419506Y-58814800D01*
X54416621Y-58792602D01*
X54414674Y-58760393D01*
X54413481Y-58715496D01*
X54412861Y-58655228D01*
X54412629Y-58576911D01*
X54412600Y-58510994D01*
X54412671Y-58418628D01*
X54413008Y-58346117D01*
X54413798Y-58290737D01*
X54415226Y-58249765D01*
X54417479Y-58220478D01*
X54420743Y-58200153D01*
X54425204Y-58186066D01*
X54431048Y-58175495D01*
X54435997Y-58168811D01*
X54459394Y-58139067D01*
X54749574Y-58139067D01*
X54846143Y-58139260D01*
G37*
X54846143Y-58139260D02*
X54922501Y-58140174D01*
X54981017Y-58142311D01*
X55024055Y-58146175D01*
X55053983Y-58152267D01*
X55073168Y-58161090D01*
X55083976Y-58173146D01*
X55088773Y-58188939D01*
X55089927Y-58208970D01*
X55089933Y-58211335D01*
X55088931Y-58233992D01*
X55084196Y-58251503D01*
X55073133Y-58264574D01*
X55053148Y-58273913D01*
X55021646Y-58280227D01*
X54976032Y-58284222D01*
X54913713Y-58286606D01*
X54832093Y-58288086D01*
X54807077Y-58288414D01*
X54565000Y-58291467D01*
X54561614Y-58356378D01*
X54558229Y-58421289D01*
X54726376Y-58421289D01*
X54792066Y-58421531D01*
X54838972Y-58422556D01*
X54870883Y-58424811D01*
X54891591Y-58428742D01*
X54904884Y-58434798D01*
X54914555Y-58443424D01*
X54914617Y-58443493D01*
X54932156Y-58477112D01*
X54931522Y-58513448D01*
X54913114Y-58544423D01*
X54909471Y-58547607D01*
X54896541Y-58555812D01*
X54878824Y-58561521D01*
X54852370Y-58565162D01*
X54813232Y-58567167D01*
X54757462Y-58567964D01*
X54721794Y-58568045D01*
X54559355Y-58568045D01*
X54559355Y-58726089D01*
X54805961Y-58726089D01*
X54887380Y-58726231D01*
X54949210Y-58726814D01*
X54994437Y-58728068D01*
X55026048Y-58730227D01*
X55047031Y-58733523D01*
X55060373Y-58738189D01*
X55069061Y-58744457D01*
X55071250Y-58746733D01*
X55087414Y-58778280D01*
X55088597Y-58814168D01*
X55075336Y-58845285D01*
X55064843Y-58855271D01*
X55053929Y-58860769D01*
X55037017Y-58865022D01*
X55011433Y-58868180D01*
X54974501Y-58870392D01*
X54923546Y-58871806D01*
X54855894Y-58872572D01*
X54768869Y-58872838D01*
X54749194Y-58872845D01*
X54660711Y-58872787D01*
X54592027Y-58872467D01*
X54540364Y-58871667D01*
X54502945Y-58870167D01*
X54476990Y-58867749D01*
X54459722Y-58864194D01*
X54448362Y-58859282D01*
X54440132Y-58852795D01*
X54435617Y-58848138D01*
X54428821Y-58839889D01*
X54423512Y-58829669D01*
X54419506Y-58814800D01*
X54416621Y-58792602D01*
X54414674Y-58760393D01*
X54413481Y-58715496D01*
X54412861Y-58655228D01*
X54412629Y-58576911D01*
X54412600Y-58510994D01*
X54412671Y-58418628D01*
X54413008Y-58346117D01*
X54413798Y-58290737D01*
X54415226Y-58249765D01*
X54417479Y-58220478D01*
X54420743Y-58200153D01*
X54425204Y-58186066D01*
X54431048Y-58175495D01*
X54435997Y-58168811D01*
X54459394Y-58139067D01*
X54749574Y-58139067D01*
X54846143Y-58139260D01*
G36*
X55634109Y-58139275D02*
G01*
X55763088Y-58143636D01*
X55872791Y-58156861D01*
X55965026Y-58179741D01*
X56041602Y-58213070D01*
X56104327Y-58257638D01*
X56155012Y-58314236D01*
X56195463Y-58383658D01*
X56196259Y-58385351D01*
X56220401Y-58447483D01*
X56229003Y-58502509D01*
X56222031Y-58557887D01*
X56199454Y-58621073D01*
X56195172Y-58630689D01*
X56165972Y-58686966D01*
X56133156Y-58730451D01*
X56090802Y-58767417D01*
X56032990Y-58804135D01*
X56029631Y-58806052D01*
X55979304Y-58830227D01*
X55922421Y-58848282D01*
X55855327Y-58860839D01*
X55774365Y-58868522D01*
X55675882Y-58871953D01*
X55641086Y-58872251D01*
X55475394Y-58872845D01*
X55451997Y-58843100D01*
X55445057Y-58833319D01*
X55439642Y-58821897D01*
X55435565Y-58806095D01*
X55432637Y-58783175D01*
X55430667Y-58750396D01*
X55430025Y-58726089D01*
X55586644Y-58726089D01*
X55680526Y-58726089D01*
X55735464Y-58724483D01*
X55791860Y-58720255D01*
X55838145Y-58714292D01*
X55840939Y-58713790D01*
X55923148Y-58691736D01*
X55986914Y-58658600D01*
X56034252Y-58612847D01*
X56067182Y-58552939D01*
X56072908Y-58537061D01*
X56078521Y-58512333D01*
X56076091Y-58487902D01*
X56064267Y-58455400D01*
X56057140Y-58439434D01*
X56033800Y-58397006D01*
X56005680Y-58367240D01*
X55974740Y-58346511D01*
X55912766Y-58319537D01*
X55833451Y-58299998D01*
X55741053Y-58288746D01*
X55674133Y-58286270D01*
X55586644Y-58285822D01*
X55586644Y-58726089D01*
X55430025Y-58726089D01*
X55429468Y-58705021D01*
X55428850Y-58644311D01*
X55428625Y-58565526D01*
X55428600Y-58503920D01*
X55428600Y-58194485D01*
X55456309Y-58166776D01*
X55468606Y-58155544D01*
X55481903Y-58147853D01*
X55500472Y-58143040D01*
X55528586Y-58140446D01*
X55570517Y-58139410D01*
X55630537Y-58139270D01*
X55634109Y-58139275D01*
G37*
X55634109Y-58139275D02*
X55763088Y-58143636D01*
X55872791Y-58156861D01*
X55965026Y-58179741D01*
X56041602Y-58213070D01*
X56104327Y-58257638D01*
X56155012Y-58314236D01*
X56195463Y-58383658D01*
X56196259Y-58385351D01*
X56220401Y-58447483D01*
X56229003Y-58502509D01*
X56222031Y-58557887D01*
X56199454Y-58621073D01*
X56195172Y-58630689D01*
X56165972Y-58686966D01*
X56133156Y-58730451D01*
X56090802Y-58767417D01*
X56032990Y-58804135D01*
X56029631Y-58806052D01*
X55979304Y-58830227D01*
X55922421Y-58848282D01*
X55855327Y-58860839D01*
X55774365Y-58868522D01*
X55675882Y-58871953D01*
X55641086Y-58872251D01*
X55475394Y-58872845D01*
X55451997Y-58843100D01*
X55445057Y-58833319D01*
X55439642Y-58821897D01*
X55435565Y-58806095D01*
X55432637Y-58783175D01*
X55430667Y-58750396D01*
X55430025Y-58726089D01*
X55586644Y-58726089D01*
X55680526Y-58726089D01*
X55735464Y-58724483D01*
X55791860Y-58720255D01*
X55838145Y-58714292D01*
X55840939Y-58713790D01*
X55923148Y-58691736D01*
X55986914Y-58658600D01*
X56034252Y-58612847D01*
X56067182Y-58552939D01*
X56072908Y-58537061D01*
X56078521Y-58512333D01*
X56076091Y-58487902D01*
X56064267Y-58455400D01*
X56057140Y-58439434D01*
X56033800Y-58397006D01*
X56005680Y-58367240D01*
X55974740Y-58346511D01*
X55912766Y-58319537D01*
X55833451Y-58299998D01*
X55741053Y-58288746D01*
X55674133Y-58286270D01*
X55586644Y-58285822D01*
X55586644Y-58726089D01*
X55430025Y-58726089D01*
X55429468Y-58705021D01*
X55428850Y-58644311D01*
X55428625Y-58565526D01*
X55428600Y-58503920D01*
X55428600Y-58194485D01*
X55456309Y-58166776D01*
X55468606Y-58155544D01*
X55481903Y-58147853D01*
X55500472Y-58143040D01*
X55528586Y-58140446D01*
X55570517Y-58139410D01*
X55630537Y-58139270D01*
X55634109Y-58139275D01*
G36*
X58360465Y-58141034D02*
G01*
X58380055Y-58148035D01*
X58380810Y-58148377D01*
X58407413Y-58168678D01*
X58422070Y-58189561D01*
X58424938Y-58199352D01*
X58424796Y-58212361D01*
X58420761Y-58230895D01*
X58411946Y-58257257D01*
X58397469Y-58293752D01*
X58376445Y-58342687D01*
X58347988Y-58406365D01*
X58311215Y-58487093D01*
X58290975Y-58531216D01*
X58254425Y-58609985D01*
X58220115Y-58682423D01*
X58189352Y-58745880D01*
X58163448Y-58797708D01*
X58143710Y-58835259D01*
X58131450Y-58855884D01*
X58129024Y-58858733D01*
X58097983Y-58871302D01*
X58062921Y-58869619D01*
X58034800Y-58854332D01*
X58033654Y-58853089D01*
X58022468Y-58836154D01*
X58003704Y-58803170D01*
X57979675Y-58758380D01*
X57952697Y-58706032D01*
X57943001Y-58686742D01*
X57869814Y-58540150D01*
X57790040Y-58699393D01*
X57761567Y-58754415D01*
X57735150Y-58802132D01*
X57712948Y-58838893D01*
X57697119Y-58861044D01*
X57691754Y-58865741D01*
X57650057Y-58872102D01*
X57615649Y-58858733D01*
X57605528Y-58844446D01*
X57588014Y-58812692D01*
X57564535Y-58766597D01*
X57536520Y-58709285D01*
X57505399Y-58643880D01*
X57472599Y-58573507D01*
X57439550Y-58501291D01*
X57407681Y-58430355D01*
X57378419Y-58363825D01*
X57353195Y-58304826D01*
X57333436Y-58256481D01*
X57320572Y-58221915D01*
X57316031Y-58204253D01*
X57316077Y-58203613D01*
X57327126Y-58181388D01*
X57349210Y-58158753D01*
X57350510Y-58157768D01*
X57377653Y-58142425D01*
X57402758Y-58142574D01*
X57412168Y-58145466D01*
X57423634Y-58151718D01*
X57435810Y-58164014D01*
X57450157Y-58184908D01*
X57468136Y-58216949D01*
X57491207Y-58262688D01*
X57520830Y-58324677D01*
X57547545Y-58381898D01*
X57578280Y-58448226D01*
X57605821Y-58507874D01*
X57628738Y-58557725D01*
X57645598Y-58594664D01*
X57654973Y-58615573D01*
X57656340Y-58618845D01*
X57662489Y-58613497D01*
X57676622Y-58591109D01*
X57696857Y-58554946D01*
X57721315Y-58508277D01*
X57731048Y-58489022D01*
X57764017Y-58424004D01*
X57789443Y-58376654D01*
X57809412Y-58344219D01*
X57826010Y-58323946D01*
X57841324Y-58313082D01*
X57857440Y-58308875D01*
X57867943Y-58308400D01*
X57886470Y-58310042D01*
X57902704Y-58316831D01*
X57918835Y-58331566D01*
X57937051Y-58357044D01*
X57959539Y-58396061D01*
X57988489Y-58451414D01*
X58004462Y-58482903D01*
X58030370Y-58533087D01*
X58052967Y-58574704D01*
X58070258Y-58604242D01*
X58080250Y-58618189D01*
X58081609Y-58618770D01*
X58088061Y-58607793D01*
X58102508Y-58579290D01*
X58123503Y-58536244D01*
X58149597Y-58481638D01*
X58179346Y-58418454D01*
X58193980Y-58387071D01*
X58232050Y-58306078D01*
X58262705Y-58243756D01*
X58287537Y-58198071D01*
X58308137Y-58166989D01*
X58326098Y-58148478D01*
X58343010Y-58140504D01*
X58360465Y-58141034D01*
G37*
X58360465Y-58141034D02*
X58380055Y-58148035D01*
X58380810Y-58148377D01*
X58407413Y-58168678D01*
X58422070Y-58189561D01*
X58424938Y-58199352D01*
X58424796Y-58212361D01*
X58420761Y-58230895D01*
X58411946Y-58257257D01*
X58397469Y-58293752D01*
X58376445Y-58342687D01*
X58347988Y-58406365D01*
X58311215Y-58487093D01*
X58290975Y-58531216D01*
X58254425Y-58609985D01*
X58220115Y-58682423D01*
X58189352Y-58745880D01*
X58163448Y-58797708D01*
X58143710Y-58835259D01*
X58131450Y-58855884D01*
X58129024Y-58858733D01*
X58097983Y-58871302D01*
X58062921Y-58869619D01*
X58034800Y-58854332D01*
X58033654Y-58853089D01*
X58022468Y-58836154D01*
X58003704Y-58803170D01*
X57979675Y-58758380D01*
X57952697Y-58706032D01*
X57943001Y-58686742D01*
X57869814Y-58540150D01*
X57790040Y-58699393D01*
X57761567Y-58754415D01*
X57735150Y-58802132D01*
X57712948Y-58838893D01*
X57697119Y-58861044D01*
X57691754Y-58865741D01*
X57650057Y-58872102D01*
X57615649Y-58858733D01*
X57605528Y-58844446D01*
X57588014Y-58812692D01*
X57564535Y-58766597D01*
X57536520Y-58709285D01*
X57505399Y-58643880D01*
X57472599Y-58573507D01*
X57439550Y-58501291D01*
X57407681Y-58430355D01*
X57378419Y-58363825D01*
X57353195Y-58304826D01*
X57333436Y-58256481D01*
X57320572Y-58221915D01*
X57316031Y-58204253D01*
X57316077Y-58203613D01*
X57327126Y-58181388D01*
X57349210Y-58158753D01*
X57350510Y-58157768D01*
X57377653Y-58142425D01*
X57402758Y-58142574D01*
X57412168Y-58145466D01*
X57423634Y-58151718D01*
X57435810Y-58164014D01*
X57450157Y-58184908D01*
X57468136Y-58216949D01*
X57491207Y-58262688D01*
X57520830Y-58324677D01*
X57547545Y-58381898D01*
X57578280Y-58448226D01*
X57605821Y-58507874D01*
X57628738Y-58557725D01*
X57645598Y-58594664D01*
X57654973Y-58615573D01*
X57656340Y-58618845D01*
X57662489Y-58613497D01*
X57676622Y-58591109D01*
X57696857Y-58554946D01*
X57721315Y-58508277D01*
X57731048Y-58489022D01*
X57764017Y-58424004D01*
X57789443Y-58376654D01*
X57809412Y-58344219D01*
X57826010Y-58323946D01*
X57841324Y-58313082D01*
X57857440Y-58308875D01*
X57867943Y-58308400D01*
X57886470Y-58310042D01*
X57902704Y-58316831D01*
X57918835Y-58331566D01*
X57937051Y-58357044D01*
X57959539Y-58396061D01*
X57988489Y-58451414D01*
X58004462Y-58482903D01*
X58030370Y-58533087D01*
X58052967Y-58574704D01*
X58070258Y-58604242D01*
X58080250Y-58618189D01*
X58081609Y-58618770D01*
X58088061Y-58607793D01*
X58102508Y-58579290D01*
X58123503Y-58536244D01*
X58149597Y-58481638D01*
X58179346Y-58418454D01*
X58193980Y-58387071D01*
X58232050Y-58306078D01*
X58262705Y-58243756D01*
X58287537Y-58198071D01*
X58308137Y-58166989D01*
X58326098Y-58148478D01*
X58343010Y-58140504D01*
X58360465Y-58141034D01*
G36*
X58804414Y-58145877D02*
G01*
X58828127Y-58160647D01*
X58854778Y-58182227D01*
X58854778Y-58503773D01*
X58854693Y-58597830D01*
X58854329Y-58671932D01*
X58853524Y-58728704D01*
X58852113Y-58770768D01*
X58849933Y-58800748D01*
X58846821Y-58821267D01*
X58842614Y-58834949D01*
X58837148Y-58844416D01*
X58833272Y-58849082D01*
X58801834Y-58869575D01*
X58766033Y-58868739D01*
X58734673Y-58851264D01*
X58708022Y-58829684D01*
X58708022Y-58182227D01*
X58734673Y-58160647D01*
X58760394Y-58144949D01*
X58781400Y-58139067D01*
X58804414Y-58145877D01*
G37*
X58804414Y-58145877D02*
X58828127Y-58160647D01*
X58854778Y-58182227D01*
X58854778Y-58503773D01*
X58854693Y-58597830D01*
X58854329Y-58671932D01*
X58853524Y-58728704D01*
X58852113Y-58770768D01*
X58849933Y-58800748D01*
X58846821Y-58821267D01*
X58842614Y-58834949D01*
X58837148Y-58844416D01*
X58833272Y-58849082D01*
X58801834Y-58869575D01*
X58766033Y-58868739D01*
X58734673Y-58851264D01*
X58708022Y-58829684D01*
X58708022Y-58182227D01*
X58734673Y-58160647D01*
X58760394Y-58144949D01*
X58781400Y-58139067D01*
X58804414Y-58145877D01*
G36*
X59578865Y-58139163D02*
G01*
X59657572Y-58139542D01*
X59718663Y-58140333D01*
X59764617Y-58141670D01*
X59797914Y-58143683D01*
X59821036Y-58146506D01*
X59836462Y-58150269D01*
X59846671Y-58155105D01*
X59851613Y-58158822D01*
X59877257Y-58191358D01*
X59880359Y-58225138D01*
X59864511Y-58255826D01*
X59854148Y-58268089D01*
X59842996Y-58276450D01*
X59826835Y-58281657D01*
X59801442Y-58284457D01*
X59762598Y-58285596D01*
X59706080Y-58285821D01*
X59694980Y-58285822D01*
X59549044Y-58285822D01*
X59549044Y-58556756D01*
X59548948Y-58642154D01*
X59548511Y-58707864D01*
X59547512Y-58756774D01*
X59545728Y-58791773D01*
X59542937Y-58815749D01*
X59538917Y-58831593D01*
X59533445Y-58842191D01*
X59526466Y-58850267D01*
X59493534Y-58870112D01*
X59459154Y-58868548D01*
X59427976Y-58845906D01*
X59425686Y-58843100D01*
X59418229Y-58832492D01*
X59412547Y-58820081D01*
X59408401Y-58802850D01*
X59405550Y-58777784D01*
X59403754Y-58741867D01*
X59402772Y-58692083D01*
X59402364Y-58625417D01*
X59402289Y-58549589D01*
X59402289Y-58285822D01*
X59262927Y-58285822D01*
X59203122Y-58285418D01*
X59161718Y-58283840D01*
X59134548Y-58280547D01*
X59117446Y-58274992D01*
X59106243Y-58266631D01*
X59104883Y-58265178D01*
X59088525Y-58231939D01*
X59089972Y-58194362D01*
X59108778Y-58161645D01*
X59116050Y-58155298D01*
X59125427Y-58150266D01*
X59139409Y-58146396D01*
X59160496Y-58143537D01*
X59191189Y-58141535D01*
X59233989Y-58140239D01*
X59291395Y-58139498D01*
X59365910Y-58139158D01*
X59460033Y-58139068D01*
X59480060Y-58139067D01*
X59578865Y-58139163D01*
G37*
X59578865Y-58139163D02*
X59657572Y-58139542D01*
X59718663Y-58140333D01*
X59764617Y-58141670D01*
X59797914Y-58143683D01*
X59821036Y-58146506D01*
X59836462Y-58150269D01*
X59846671Y-58155105D01*
X59851613Y-58158822D01*
X59877257Y-58191358D01*
X59880359Y-58225138D01*
X59864511Y-58255826D01*
X59854148Y-58268089D01*
X59842996Y-58276450D01*
X59826835Y-58281657D01*
X59801442Y-58284457D01*
X59762598Y-58285596D01*
X59706080Y-58285821D01*
X59694980Y-58285822D01*
X59549044Y-58285822D01*
X59549044Y-58556756D01*
X59548948Y-58642154D01*
X59548511Y-58707864D01*
X59547512Y-58756774D01*
X59545728Y-58791773D01*
X59542937Y-58815749D01*
X59538917Y-58831593D01*
X59533445Y-58842191D01*
X59526466Y-58850267D01*
X59493534Y-58870112D01*
X59459154Y-58868548D01*
X59427976Y-58845906D01*
X59425686Y-58843100D01*
X59418229Y-58832492D01*
X59412547Y-58820081D01*
X59408401Y-58802850D01*
X59405550Y-58777784D01*
X59403754Y-58741867D01*
X59402772Y-58692083D01*
X59402364Y-58625417D01*
X59402289Y-58549589D01*
X59402289Y-58285822D01*
X59262927Y-58285822D01*
X59203122Y-58285418D01*
X59161718Y-58283840D01*
X59134548Y-58280547D01*
X59117446Y-58274992D01*
X59106243Y-58266631D01*
X59104883Y-58265178D01*
X59088525Y-58231939D01*
X59089972Y-58194362D01*
X59108778Y-58161645D01*
X59116050Y-58155298D01*
X59125427Y-58150266D01*
X59139409Y-58146396D01*
X59160496Y-58143537D01*
X59191189Y-58141535D01*
X59233989Y-58140239D01*
X59291395Y-58139498D01*
X59365910Y-58139158D01*
X59460033Y-58139068D01*
X59480060Y-58139067D01*
X59578865Y-58139163D01*
G36*
X60844623Y-58144533D02*
G01*
X60876002Y-58166776D01*
X60903711Y-58194485D01*
X60903711Y-58503920D01*
X60903638Y-58595799D01*
X60903295Y-58667840D01*
X60902492Y-58722780D01*
X60901041Y-58763360D01*
X60898752Y-58792317D01*
X60895436Y-58812391D01*
X60890905Y-58826321D01*
X60884969Y-58836845D01*
X60880314Y-58843100D01*
X60849583Y-58867673D01*
X60814296Y-58870341D01*
X60782045Y-58855271D01*
X60771388Y-58846374D01*
X60764264Y-58834557D01*
X60759967Y-58815526D01*
X60757791Y-58784992D01*
X60757028Y-58738662D01*
X60756955Y-58702871D01*
X60756955Y-58568045D01*
X60260244Y-58568045D01*
X60260244Y-58690700D01*
X60259731Y-58746787D01*
X60257676Y-58785333D01*
X60253308Y-58811361D01*
X60245856Y-58829897D01*
X60236847Y-58843100D01*
X60205944Y-58867604D01*
X60170996Y-58870506D01*
X60137538Y-58853089D01*
X60128404Y-58843959D01*
X60121952Y-58831855D01*
X60117697Y-58813001D01*
X60115152Y-58783620D01*
X60113829Y-58739937D01*
X60113243Y-58678175D01*
X60113175Y-58664000D01*
X60112691Y-58547631D01*
X60112441Y-58451727D01*
X60112523Y-58374177D01*
X60113031Y-58312869D01*
X60114062Y-58265690D01*
X60115713Y-58230530D01*
X60118079Y-58205276D01*
X60121257Y-58187817D01*
X60125344Y-58176041D01*
X60130434Y-58167835D01*
X60136066Y-58161645D01*
X60167928Y-58141844D01*
X60201157Y-58144533D01*
X60232535Y-58166776D01*
X60245233Y-58181126D01*
X60253326Y-58196978D01*
X60257842Y-58219554D01*
X60259806Y-58254078D01*
X60260244Y-58305776D01*
X60260244Y-58421289D01*
X60756955Y-58421289D01*
X60756955Y-58302756D01*
X60757462Y-58248148D01*
X60759498Y-58211275D01*
X60763835Y-58187307D01*
X60771247Y-58171415D01*
X60779533Y-58161645D01*
X60811394Y-58141844D01*
X60844623Y-58144533D01*
G37*
X60844623Y-58144533D02*
X60876002Y-58166776D01*
X60903711Y-58194485D01*
X60903711Y-58503920D01*
X60903638Y-58595799D01*
X60903295Y-58667840D01*
X60902492Y-58722780D01*
X60901041Y-58763360D01*
X60898752Y-58792317D01*
X60895436Y-58812391D01*
X60890905Y-58826321D01*
X60884969Y-58836845D01*
X60880314Y-58843100D01*
X60849583Y-58867673D01*
X60814296Y-58870341D01*
X60782045Y-58855271D01*
X60771388Y-58846374D01*
X60764264Y-58834557D01*
X60759967Y-58815526D01*
X60757791Y-58784992D01*
X60757028Y-58738662D01*
X60756955Y-58702871D01*
X60756955Y-58568045D01*
X60260244Y-58568045D01*
X60260244Y-58690700D01*
X60259731Y-58746787D01*
X60257676Y-58785333D01*
X60253308Y-58811361D01*
X60245856Y-58829897D01*
X60236847Y-58843100D01*
X60205944Y-58867604D01*
X60170996Y-58870506D01*
X60137538Y-58853089D01*
X60128404Y-58843959D01*
X60121952Y-58831855D01*
X60117697Y-58813001D01*
X60115152Y-58783620D01*
X60113829Y-58739937D01*
X60113243Y-58678175D01*
X60113175Y-58664000D01*
X60112691Y-58547631D01*
X60112441Y-58451727D01*
X60112523Y-58374177D01*
X60113031Y-58312869D01*
X60114062Y-58265690D01*
X60115713Y-58230530D01*
X60118079Y-58205276D01*
X60121257Y-58187817D01*
X60125344Y-58176041D01*
X60130434Y-58167835D01*
X60136066Y-58161645D01*
X60167928Y-58141844D01*
X60201157Y-58144533D01*
X60232535Y-58166776D01*
X60245233Y-58181126D01*
X60253326Y-58196978D01*
X60257842Y-58219554D01*
X60259806Y-58254078D01*
X60260244Y-58305776D01*
X60260244Y-58421289D01*
X60756955Y-58421289D01*
X60756955Y-58302756D01*
X60757462Y-58248148D01*
X60759498Y-58211275D01*
X60763835Y-58187307D01*
X60771247Y-58171415D01*
X60779533Y-58161645D01*
X60811394Y-58141844D01*
X60844623Y-58144533D01*
G36*
X51669400Y-53359054D02*
G01*
X51680265Y-53472993D01*
X51711882Y-53580616D01*
X51762785Y-53679615D01*
X51831507Y-53767684D01*
X51916581Y-53842516D01*
X52013568Y-53900384D01*
X52119836Y-53940005D01*
X52226850Y-53958573D01*
X52332500Y-53957434D01*
X52434675Y-53937930D01*
X52531266Y-53901406D01*
X52620162Y-53849205D01*
X52699254Y-53782673D01*
X52766431Y-53703152D01*
X52819583Y-53611987D01*
X52856601Y-53510523D01*
X52875373Y-53400102D01*
X52877311Y-53350206D01*
X52877311Y-53262267D01*
X52929240Y-53262267D01*
X52965547Y-53265111D01*
X52992445Y-53276911D01*
X53019551Y-53300649D01*
X53057933Y-53339031D01*
X53057933Y-55530602D01*
X53057924Y-55792739D01*
X53057892Y-56033241D01*
X53057828Y-56253048D01*
X53057724Y-56453101D01*
X53057573Y-56634344D01*
X53057366Y-56797716D01*
X53057094Y-56944160D01*
X53056750Y-57074617D01*
X53056326Y-57190029D01*
X53055813Y-57291338D01*
X53055203Y-57379484D01*
X53054488Y-57455410D01*
X53053660Y-57520057D01*
X53052711Y-57574367D01*
X53051633Y-57619280D01*
X53050417Y-57655740D01*
X53049055Y-57684687D01*
X53047539Y-57707063D01*
X53045862Y-57723809D01*
X53044014Y-57735868D01*
X53041987Y-57744180D01*
X53039775Y-57749687D01*
X53038692Y-57751537D01*
X53034529Y-57758549D01*
X53030995Y-57764996D01*
X53027165Y-57770900D01*
X53022118Y-57776286D01*
X53014929Y-57781178D01*
X53004677Y-57785598D01*
X52990436Y-57789572D01*
X52971286Y-57793121D01*
X52946301Y-57796270D01*
X52914560Y-57799042D01*
X52875138Y-57801461D01*
X52827114Y-57803551D01*
X52769563Y-57805335D01*
X52701563Y-57806837D01*
X52622190Y-57808080D01*
X52530521Y-57809089D01*
X52425634Y-57809885D01*
X52306604Y-57810494D01*
X52172510Y-57810939D01*
X52022427Y-57811243D01*
X51855433Y-57811430D01*
X51670604Y-57811524D01*
X51467017Y-57811548D01*
X51243750Y-57811525D01*
X50999878Y-57811480D01*
X50734479Y-57811437D01*
X50696096Y-57811432D01*
X50429118Y-57811389D01*
X50183798Y-57811318D01*
X49959217Y-57811213D01*
X49754455Y-57811066D01*
X49568594Y-57810869D01*
X49400712Y-57810616D01*
X49249892Y-57810300D01*
X49115213Y-57809913D01*
X48995756Y-57809447D01*
X48890601Y-57808897D01*
X48798829Y-57808253D01*
X48719521Y-57807511D01*
X48651757Y-57806661D01*
X48594618Y-57805697D01*
X48547183Y-57804611D01*
X48508534Y-57803397D01*
X48477751Y-57802047D01*
X48453915Y-57800555D01*
X48436106Y-57798911D01*
X48423405Y-57797111D01*
X48414892Y-57795145D01*
X48410534Y-57793477D01*
X48402072Y-57789906D01*
X48394303Y-57787270D01*
X48387198Y-57784634D01*
X48380727Y-57781062D01*
X48374861Y-57775621D01*
X48369571Y-57767375D01*
X48364826Y-57755390D01*
X48360598Y-57738731D01*
X48356857Y-57716463D01*
X48353573Y-57687652D01*
X48350717Y-57651363D01*
X48348260Y-57606661D01*
X48346171Y-57552611D01*
X48344422Y-57488279D01*
X48342983Y-57412730D01*
X48341824Y-57325030D01*
X48340917Y-57224243D01*
X48340231Y-57109434D01*
X48339737Y-56979670D01*
X48339405Y-56834015D01*
X48339207Y-56671535D01*
X48339113Y-56491295D01*
X48339092Y-56292360D01*
X48339115Y-56073796D01*
X48339154Y-55834668D01*
X48339178Y-55574040D01*
X48339178Y-55531889D01*
X48339164Y-55268992D01*
X48339139Y-55027732D01*
X48339129Y-54807165D01*
X48339158Y-54606352D01*
X48339252Y-54424349D01*
X48339438Y-54260216D01*
X48339741Y-54113011D01*
X48340186Y-53981792D01*
X48340766Y-53871867D01*
X48643603Y-53871867D01*
X48683393Y-53929711D01*
X48694564Y-53945479D01*
X48704634Y-53959441D01*
X48713662Y-53972784D01*
X48721703Y-53986693D01*
X48728814Y-54002356D01*
X48735053Y-54020958D01*
X48740475Y-54043686D01*
X48745138Y-54071727D01*
X48749099Y-54106267D01*
X48752415Y-54148492D01*
X48755141Y-54199589D01*
X48757336Y-54260744D01*
X48759055Y-54333144D01*
X48760356Y-54417975D01*
X48761295Y-54516422D01*
X48761930Y-54629674D01*
X48762316Y-54758916D01*
X48762512Y-54905334D01*
X48762573Y-55070116D01*
X48762557Y-55254447D01*
X48762520Y-55459513D01*
X48762511Y-55582133D01*
X48762535Y-55799082D01*
X48762569Y-55994642D01*
X48762557Y-56169999D01*
X48762442Y-56326341D01*
X48762170Y-56464857D01*
X48761682Y-56586734D01*
X48760924Y-56693160D01*
X48759838Y-56785322D01*
X48758369Y-56864409D01*
X48756460Y-56931608D01*
X48754056Y-56988107D01*
X48751099Y-57035093D01*
X48747534Y-57073755D01*
X48743305Y-57105280D01*
X48738354Y-57130855D01*
X48732627Y-57151670D01*
X48726067Y-57168911D01*
X48718617Y-57183765D01*
X48710221Y-57197422D01*
X48700824Y-57211069D01*
X48690368Y-57225893D01*
X48684277Y-57234783D01*
X48645504Y-57292400D01*
X49177068Y-57292400D01*
X49300317Y-57292365D01*
X49402813Y-57292215D01*
X49486380Y-57291878D01*
X49552844Y-57291286D01*
X49604029Y-57290367D01*
X49641759Y-57289051D01*
X49667860Y-57287269D01*
X49684156Y-57284951D01*
X49692472Y-57282026D01*
X49694632Y-57278424D01*
X49692461Y-57274075D01*
X49691265Y-57272645D01*
X49666115Y-57235573D01*
X49640217Y-57182772D01*
X49616608Y-57120770D01*
X49608339Y-57094357D01*
X49603722Y-57076416D01*
X49599821Y-57055355D01*
X49596552Y-57029089D01*
X49593834Y-56995532D01*
X49591585Y-56952599D01*
X49589723Y-56898204D01*
X49588164Y-56830262D01*
X49586828Y-56746688D01*
X49585631Y-56645395D01*
X49584492Y-56524300D01*
X49584115Y-56479600D01*
X49583098Y-56354449D01*
X49582340Y-56250082D01*
X49581897Y-56164707D01*
X49581830Y-56096533D01*
X49582195Y-56043765D01*
X49583052Y-56004614D01*
X49584459Y-55977285D01*
X49586475Y-55959986D01*
X49589157Y-55950926D01*
X49592564Y-55948312D01*
X49596756Y-55950351D01*
X49601229Y-55954667D01*
X49611584Y-55967602D01*
X49633642Y-55996676D01*
X49665843Y-56039759D01*
X49706626Y-56094718D01*
X49754430Y-56159423D01*
X49807695Y-56231742D01*
X49864860Y-56309544D01*
X49924363Y-56390698D01*
X49984645Y-56473072D01*
X50044145Y-56554536D01*
X50101302Y-56632957D01*
X50154555Y-56706204D01*
X50202343Y-56772147D01*
X50243107Y-56828654D01*
X50275284Y-56873593D01*
X50297315Y-56904834D01*
X50301883Y-56911466D01*
X50324804Y-56948369D01*
X50351612Y-56996359D01*
X50377011Y-57045897D01*
X50380232Y-57052577D01*
X50401910Y-57100772D01*
X50414496Y-57138334D01*
X50420226Y-57174160D01*
X50421344Y-57216200D01*
X50420710Y-57292400D01*
X51575149Y-57292400D01*
X51483985Y-57198669D01*
X51437188Y-57148775D01*
X51386901Y-57092295D01*
X51340856Y-57038026D01*
X51320431Y-57012673D01*
X51289993Y-56973128D01*
X51249938Y-56919916D01*
X51201439Y-56854667D01*
X51145665Y-56779011D01*
X51083789Y-56694577D01*
X51016981Y-56602994D01*
X50946413Y-56505892D01*
X50873255Y-56404901D01*
X50798679Y-56301650D01*
X50723856Y-56197768D01*
X50649957Y-56094885D01*
X50578154Y-55994631D01*
X50509616Y-55898636D01*
X50445516Y-55808527D01*
X50387025Y-55725936D01*
X50335314Y-55652492D01*
X50291553Y-55589824D01*
X50256915Y-55539561D01*
X50232570Y-55503334D01*
X50219689Y-55482771D01*
X50217931Y-55478668D01*
X50225890Y-55467342D01*
X50246685Y-55440162D01*
X50278953Y-55398829D01*
X50321330Y-55345044D01*
X50372453Y-55280506D01*
X50430959Y-55206918D01*
X50495486Y-55125978D01*
X50564669Y-55039388D01*
X50637147Y-54948848D01*
X50711554Y-54856060D01*
X50771283Y-54781702D01*
X51782289Y-54781702D01*
X51788198Y-54794659D01*
X51802528Y-54816908D01*
X51803575Y-54818391D01*
X51822362Y-54848544D01*
X51842009Y-54885375D01*
X51845908Y-54893511D01*
X51849444Y-54901940D01*
X51852570Y-54912059D01*
X51855314Y-54925260D01*
X51857708Y-54942938D01*
X51859781Y-54966484D01*
X51861565Y-54997293D01*
X51863088Y-55036757D01*
X51864381Y-55086269D01*
X51865474Y-55147223D01*
X51866397Y-55221011D01*
X51867181Y-55309028D01*
X51867855Y-55412665D01*
X51868450Y-55533316D01*
X51868995Y-55672374D01*
X51869521Y-55831232D01*
X51870055Y-56010089D01*
X51870594Y-56195207D01*
X51871028Y-56359145D01*
X51871291Y-56503303D01*
X51871316Y-56629079D01*
X51871035Y-56737871D01*
X51870381Y-56831077D01*
X51869286Y-56910097D01*
X51867682Y-56976328D01*
X51865503Y-57031170D01*
X51862681Y-57076021D01*
X51859149Y-57112278D01*
X51854839Y-57141341D01*
X51849683Y-57164609D01*
X51843615Y-57183479D01*
X51836567Y-57199351D01*
X51828471Y-57213622D01*
X51819260Y-57227691D01*
X51810760Y-57240158D01*
X51793624Y-57266452D01*
X51783478Y-57284037D01*
X51782289Y-57287257D01*
X51793196Y-57288334D01*
X51824389Y-57289335D01*
X51873577Y-57290235D01*
X51938467Y-57291010D01*
X52016770Y-57291637D01*
X52106193Y-57292091D01*
X52204444Y-57292349D01*
X52273355Y-57292400D01*
X52378348Y-57292180D01*
X52475190Y-57291548D01*
X52561693Y-57290549D01*
X52635668Y-57289227D01*
X52694926Y-57287626D01*
X52737280Y-57285791D01*
X52760540Y-57283765D01*
X52764422Y-57282493D01*
X52756724Y-57267591D01*
X52748726Y-57259560D01*
X52735554Y-57242434D01*
X52718315Y-57212183D01*
X52706393Y-57187622D01*
X52679755Y-57128711D01*
X52676680Y-55951845D01*
X52673605Y-54774978D01*
X52227947Y-54774978D01*
X52130130Y-54775142D01*
X52039736Y-54775611D01*
X51959170Y-54776347D01*
X51890838Y-54777316D01*
X51837144Y-54778480D01*
X51800495Y-54779803D01*
X51783296Y-54781249D01*
X51782289Y-54781702D01*
X50771283Y-54781702D01*
X50786530Y-54762722D01*
X50860710Y-54670537D01*
X50932731Y-54581204D01*
X51001231Y-54496424D01*
X51064845Y-54417898D01*
X51122212Y-54347326D01*
X51171967Y-54286409D01*
X51212748Y-54236847D01*
X51229912Y-54216178D01*
X51316204Y-54115516D01*
X51392803Y-54032259D01*
X51461617Y-53964438D01*
X51524552Y-53910089D01*
X51533933Y-53902722D01*
X51573444Y-53872117D01*
X50441684Y-53871867D01*
X50446973Y-53919844D01*
X50443670Y-53977188D01*
X50422139Y-54045463D01*
X50382165Y-54125212D01*
X50336857Y-54197495D01*
X50320639Y-54220140D01*
X50292586Y-54257696D01*
X50254370Y-54308021D01*
X50207663Y-54368973D01*
X50154139Y-54438411D01*
X50095469Y-54514194D01*
X50033325Y-54594180D01*
X49969379Y-54676228D01*
X49905305Y-54758196D01*
X49842773Y-54837943D01*
X49783457Y-54913327D01*
X49729029Y-54982207D01*
X49681161Y-55042442D01*
X49641525Y-55091889D01*
X49611794Y-55128408D01*
X49593639Y-55149858D01*
X49590580Y-55153156D01*
X49587721Y-55145149D01*
X49585507Y-55114855D01*
X49583943Y-55062556D01*
X49583033Y-54988531D01*
X49582780Y-54893063D01*
X49583187Y-54776434D01*
X49584096Y-54656445D01*
X49585418Y-54524333D01*
X49586943Y-54412594D01*
X49588919Y-54319025D01*
X49591594Y-54241419D01*
X49595218Y-54177574D01*
X49600039Y-54125283D01*
X49606306Y-54082344D01*
X49614268Y-54046551D01*
X49624173Y-54015700D01*
X49636269Y-53987586D01*
X49650807Y-53960005D01*
X49665489Y-53934966D01*
X49703486Y-53871867D01*
X48643603Y-53871867D01*
X48340766Y-53871867D01*
X48340799Y-53865617D01*
X48341605Y-53763544D01*
X48342630Y-53674633D01*
X48343900Y-53597941D01*
X48345440Y-53532527D01*
X48347276Y-53477449D01*
X48349433Y-53431765D01*
X48351937Y-53394534D01*
X48354813Y-53364813D01*
X48358087Y-53341662D01*
X48361785Y-53324139D01*
X48365931Y-53311301D01*
X48370553Y-53302208D01*
X48375674Y-53295918D01*
X48381322Y-53291488D01*
X48387521Y-53287978D01*
X48394296Y-53284445D01*
X48400292Y-53280876D01*
X48405525Y-53278300D01*
X48413701Y-53275972D01*
X48425914Y-53273878D01*
X48443259Y-53272007D01*
X48466831Y-53270347D01*
X48497723Y-53268884D01*
X48537032Y-53267608D01*
X48585850Y-53266504D01*
X48645273Y-53265561D01*
X48716396Y-53264767D01*
X48800312Y-53264109D01*
X48898117Y-53263575D01*
X49010906Y-53263153D01*
X49139771Y-53262829D01*
X49285809Y-53262592D01*
X49450114Y-53262430D01*
X49633780Y-53262330D01*
X49837903Y-53262280D01*
X50049047Y-53262267D01*
X51669400Y-53262267D01*
X51669400Y-53359054D01*
G37*
X51669400Y-53359054D02*
X51680265Y-53472993D01*
X51711882Y-53580616D01*
X51762785Y-53679615D01*
X51831507Y-53767684D01*
X51916581Y-53842516D01*
X52013568Y-53900384D01*
X52119836Y-53940005D01*
X52226850Y-53958573D01*
X52332500Y-53957434D01*
X52434675Y-53937930D01*
X52531266Y-53901406D01*
X52620162Y-53849205D01*
X52699254Y-53782673D01*
X52766431Y-53703152D01*
X52819583Y-53611987D01*
X52856601Y-53510523D01*
X52875373Y-53400102D01*
X52877311Y-53350206D01*
X52877311Y-53262267D01*
X52929240Y-53262267D01*
X52965547Y-53265111D01*
X52992445Y-53276911D01*
X53019551Y-53300649D01*
X53057933Y-53339031D01*
X53057933Y-55530602D01*
X53057924Y-55792739D01*
X53057892Y-56033241D01*
X53057828Y-56253048D01*
X53057724Y-56453101D01*
X53057573Y-56634344D01*
X53057366Y-56797716D01*
X53057094Y-56944160D01*
X53056750Y-57074617D01*
X53056326Y-57190029D01*
X53055813Y-57291338D01*
X53055203Y-57379484D01*
X53054488Y-57455410D01*
X53053660Y-57520057D01*
X53052711Y-57574367D01*
X53051633Y-57619280D01*
X53050417Y-57655740D01*
X53049055Y-57684687D01*
X53047539Y-57707063D01*
X53045862Y-57723809D01*
X53044014Y-57735868D01*
X53041987Y-57744180D01*
X53039775Y-57749687D01*
X53038692Y-57751537D01*
X53034529Y-57758549D01*
X53030995Y-57764996D01*
X53027165Y-57770900D01*
X53022118Y-57776286D01*
X53014929Y-57781178D01*
X53004677Y-57785598D01*
X52990436Y-57789572D01*
X52971286Y-57793121D01*
X52946301Y-57796270D01*
X52914560Y-57799042D01*
X52875138Y-57801461D01*
X52827114Y-57803551D01*
X52769563Y-57805335D01*
X52701563Y-57806837D01*
X52622190Y-57808080D01*
X52530521Y-57809089D01*
X52425634Y-57809885D01*
X52306604Y-57810494D01*
X52172510Y-57810939D01*
X52022427Y-57811243D01*
X51855433Y-57811430D01*
X51670604Y-57811524D01*
X51467017Y-57811548D01*
X51243750Y-57811525D01*
X50999878Y-57811480D01*
X50734479Y-57811437D01*
X50696096Y-57811432D01*
X50429118Y-57811389D01*
X50183798Y-57811318D01*
X49959217Y-57811213D01*
X49754455Y-57811066D01*
X49568594Y-57810869D01*
X49400712Y-57810616D01*
X49249892Y-57810300D01*
X49115213Y-57809913D01*
X48995756Y-57809447D01*
X48890601Y-57808897D01*
X48798829Y-57808253D01*
X48719521Y-57807511D01*
X48651757Y-57806661D01*
X48594618Y-57805697D01*
X48547183Y-57804611D01*
X48508534Y-57803397D01*
X48477751Y-57802047D01*
X48453915Y-57800555D01*
X48436106Y-57798911D01*
X48423405Y-57797111D01*
X48414892Y-57795145D01*
X48410534Y-57793477D01*
X48402072Y-57789906D01*
X48394303Y-57787270D01*
X48387198Y-57784634D01*
X48380727Y-57781062D01*
X48374861Y-57775621D01*
X48369571Y-57767375D01*
X48364826Y-57755390D01*
X48360598Y-57738731D01*
X48356857Y-57716463D01*
X48353573Y-57687652D01*
X48350717Y-57651363D01*
X48348260Y-57606661D01*
X48346171Y-57552611D01*
X48344422Y-57488279D01*
X48342983Y-57412730D01*
X48341824Y-57325030D01*
X48340917Y-57224243D01*
X48340231Y-57109434D01*
X48339737Y-56979670D01*
X48339405Y-56834015D01*
X48339207Y-56671535D01*
X48339113Y-56491295D01*
X48339092Y-56292360D01*
X48339115Y-56073796D01*
X48339154Y-55834668D01*
X48339178Y-55574040D01*
X48339178Y-55531889D01*
X48339164Y-55268992D01*
X48339139Y-55027732D01*
X48339129Y-54807165D01*
X48339158Y-54606352D01*
X48339252Y-54424349D01*
X48339438Y-54260216D01*
X48339741Y-54113011D01*
X48340186Y-53981792D01*
X48340766Y-53871867D01*
X48643603Y-53871867D01*
X48683393Y-53929711D01*
X48694564Y-53945479D01*
X48704634Y-53959441D01*
X48713662Y-53972784D01*
X48721703Y-53986693D01*
X48728814Y-54002356D01*
X48735053Y-54020958D01*
X48740475Y-54043686D01*
X48745138Y-54071727D01*
X48749099Y-54106267D01*
X48752415Y-54148492D01*
X48755141Y-54199589D01*
X48757336Y-54260744D01*
X48759055Y-54333144D01*
X48760356Y-54417975D01*
X48761295Y-54516422D01*
X48761930Y-54629674D01*
X48762316Y-54758916D01*
X48762512Y-54905334D01*
X48762573Y-55070116D01*
X48762557Y-55254447D01*
X48762520Y-55459513D01*
X48762511Y-55582133D01*
X48762535Y-55799082D01*
X48762569Y-55994642D01*
X48762557Y-56169999D01*
X48762442Y-56326341D01*
X48762170Y-56464857D01*
X48761682Y-56586734D01*
X48760924Y-56693160D01*
X48759838Y-56785322D01*
X48758369Y-56864409D01*
X48756460Y-56931608D01*
X48754056Y-56988107D01*
X48751099Y-57035093D01*
X48747534Y-57073755D01*
X48743305Y-57105280D01*
X48738354Y-57130855D01*
X48732627Y-57151670D01*
X48726067Y-57168911D01*
X48718617Y-57183765D01*
X48710221Y-57197422D01*
X48700824Y-57211069D01*
X48690368Y-57225893D01*
X48684277Y-57234783D01*
X48645504Y-57292400D01*
X49177068Y-57292400D01*
X49300317Y-57292365D01*
X49402813Y-57292215D01*
X49486380Y-57291878D01*
X49552844Y-57291286D01*
X49604029Y-57290367D01*
X49641759Y-57289051D01*
X49667860Y-57287269D01*
X49684156Y-57284951D01*
X49692472Y-57282026D01*
X49694632Y-57278424D01*
X49692461Y-57274075D01*
X49691265Y-57272645D01*
X49666115Y-57235573D01*
X49640217Y-57182772D01*
X49616608Y-57120770D01*
X49608339Y-57094357D01*
X49603722Y-57076416D01*
X49599821Y-57055355D01*
X49596552Y-57029089D01*
X49593834Y-56995532D01*
X49591585Y-56952599D01*
X49589723Y-56898204D01*
X49588164Y-56830262D01*
X49586828Y-56746688D01*
X49585631Y-56645395D01*
X49584492Y-56524300D01*
X49584115Y-56479600D01*
X49583098Y-56354449D01*
X49582340Y-56250082D01*
X49581897Y-56164707D01*
X49581830Y-56096533D01*
X49582195Y-56043765D01*
X49583052Y-56004614D01*
X49584459Y-55977285D01*
X49586475Y-55959986D01*
X49589157Y-55950926D01*
X49592564Y-55948312D01*
X49596756Y-55950351D01*
X49601229Y-55954667D01*
X49611584Y-55967602D01*
X49633642Y-55996676D01*
X49665843Y-56039759D01*
X49706626Y-56094718D01*
X49754430Y-56159423D01*
X49807695Y-56231742D01*
X49864860Y-56309544D01*
X49924363Y-56390698D01*
X49984645Y-56473072D01*
X50044145Y-56554536D01*
X50101302Y-56632957D01*
X50154555Y-56706204D01*
X50202343Y-56772147D01*
X50243107Y-56828654D01*
X50275284Y-56873593D01*
X50297315Y-56904834D01*
X50301883Y-56911466D01*
X50324804Y-56948369D01*
X50351612Y-56996359D01*
X50377011Y-57045897D01*
X50380232Y-57052577D01*
X50401910Y-57100772D01*
X50414496Y-57138334D01*
X50420226Y-57174160D01*
X50421344Y-57216200D01*
X50420710Y-57292400D01*
X51575149Y-57292400D01*
X51483985Y-57198669D01*
X51437188Y-57148775D01*
X51386901Y-57092295D01*
X51340856Y-57038026D01*
X51320431Y-57012673D01*
X51289993Y-56973128D01*
X51249938Y-56919916D01*
X51201439Y-56854667D01*
X51145665Y-56779011D01*
X51083789Y-56694577D01*
X51016981Y-56602994D01*
X50946413Y-56505892D01*
X50873255Y-56404901D01*
X50798679Y-56301650D01*
X50723856Y-56197768D01*
X50649957Y-56094885D01*
X50578154Y-55994631D01*
X50509616Y-55898636D01*
X50445516Y-55808527D01*
X50387025Y-55725936D01*
X50335314Y-55652492D01*
X50291553Y-55589824D01*
X50256915Y-55539561D01*
X50232570Y-55503334D01*
X50219689Y-55482771D01*
X50217931Y-55478668D01*
X50225890Y-55467342D01*
X50246685Y-55440162D01*
X50278953Y-55398829D01*
X50321330Y-55345044D01*
X50372453Y-55280506D01*
X50430959Y-55206918D01*
X50495486Y-55125978D01*
X50564669Y-55039388D01*
X50637147Y-54948848D01*
X50711554Y-54856060D01*
X50771283Y-54781702D01*
X51782289Y-54781702D01*
X51788198Y-54794659D01*
X51802528Y-54816908D01*
X51803575Y-54818391D01*
X51822362Y-54848544D01*
X51842009Y-54885375D01*
X51845908Y-54893511D01*
X51849444Y-54901940D01*
X51852570Y-54912059D01*
X51855314Y-54925260D01*
X51857708Y-54942938D01*
X51859781Y-54966484D01*
X51861565Y-54997293D01*
X51863088Y-55036757D01*
X51864381Y-55086269D01*
X51865474Y-55147223D01*
X51866397Y-55221011D01*
X51867181Y-55309028D01*
X51867855Y-55412665D01*
X51868450Y-55533316D01*
X51868995Y-55672374D01*
X51869521Y-55831232D01*
X51870055Y-56010089D01*
X51870594Y-56195207D01*
X51871028Y-56359145D01*
X51871291Y-56503303D01*
X51871316Y-56629079D01*
X51871035Y-56737871D01*
X51870381Y-56831077D01*
X51869286Y-56910097D01*
X51867682Y-56976328D01*
X51865503Y-57031170D01*
X51862681Y-57076021D01*
X51859149Y-57112278D01*
X51854839Y-57141341D01*
X51849683Y-57164609D01*
X51843615Y-57183479D01*
X51836567Y-57199351D01*
X51828471Y-57213622D01*
X51819260Y-57227691D01*
X51810760Y-57240158D01*
X51793624Y-57266452D01*
X51783478Y-57284037D01*
X51782289Y-57287257D01*
X51793196Y-57288334D01*
X51824389Y-57289335D01*
X51873577Y-57290235D01*
X51938467Y-57291010D01*
X52016770Y-57291637D01*
X52106193Y-57292091D01*
X52204444Y-57292349D01*
X52273355Y-57292400D01*
X52378348Y-57292180D01*
X52475190Y-57291548D01*
X52561693Y-57290549D01*
X52635668Y-57289227D01*
X52694926Y-57287626D01*
X52737280Y-57285791D01*
X52760540Y-57283765D01*
X52764422Y-57282493D01*
X52756724Y-57267591D01*
X52748726Y-57259560D01*
X52735554Y-57242434D01*
X52718315Y-57212183D01*
X52706393Y-57187622D01*
X52679755Y-57128711D01*
X52676680Y-55951845D01*
X52673605Y-54774978D01*
X52227947Y-54774978D01*
X52130130Y-54775142D01*
X52039736Y-54775611D01*
X51959170Y-54776347D01*
X51890838Y-54777316D01*
X51837144Y-54778480D01*
X51800495Y-54779803D01*
X51783296Y-54781249D01*
X51782289Y-54781702D01*
X50771283Y-54781702D01*
X50786530Y-54762722D01*
X50860710Y-54670537D01*
X50932731Y-54581204D01*
X51001231Y-54496424D01*
X51064845Y-54417898D01*
X51122212Y-54347326D01*
X51171967Y-54286409D01*
X51212748Y-54236847D01*
X51229912Y-54216178D01*
X51316204Y-54115516D01*
X51392803Y-54032259D01*
X51461617Y-53964438D01*
X51524552Y-53910089D01*
X51533933Y-53902722D01*
X51573444Y-53872117D01*
X50441684Y-53871867D01*
X50446973Y-53919844D01*
X50443670Y-53977188D01*
X50422139Y-54045463D01*
X50382165Y-54125212D01*
X50336857Y-54197495D01*
X50320639Y-54220140D01*
X50292586Y-54257696D01*
X50254370Y-54308021D01*
X50207663Y-54368973D01*
X50154139Y-54438411D01*
X50095469Y-54514194D01*
X50033325Y-54594180D01*
X49969379Y-54676228D01*
X49905305Y-54758196D01*
X49842773Y-54837943D01*
X49783457Y-54913327D01*
X49729029Y-54982207D01*
X49681161Y-55042442D01*
X49641525Y-55091889D01*
X49611794Y-55128408D01*
X49593639Y-55149858D01*
X49590580Y-55153156D01*
X49587721Y-55145149D01*
X49585507Y-55114855D01*
X49583943Y-55062556D01*
X49583033Y-54988531D01*
X49582780Y-54893063D01*
X49583187Y-54776434D01*
X49584096Y-54656445D01*
X49585418Y-54524333D01*
X49586943Y-54412594D01*
X49588919Y-54319025D01*
X49591594Y-54241419D01*
X49595218Y-54177574D01*
X49600039Y-54125283D01*
X49606306Y-54082344D01*
X49614268Y-54046551D01*
X49624173Y-54015700D01*
X49636269Y-53987586D01*
X49650807Y-53960005D01*
X49665489Y-53934966D01*
X49703486Y-53871867D01*
X48643603Y-53871867D01*
X48340766Y-53871867D01*
X48340799Y-53865617D01*
X48341605Y-53763544D01*
X48342630Y-53674633D01*
X48343900Y-53597941D01*
X48345440Y-53532527D01*
X48347276Y-53477449D01*
X48349433Y-53431765D01*
X48351937Y-53394534D01*
X48354813Y-53364813D01*
X48358087Y-53341662D01*
X48361785Y-53324139D01*
X48365931Y-53311301D01*
X48370553Y-53302208D01*
X48375674Y-53295918D01*
X48381322Y-53291488D01*
X48387521Y-53287978D01*
X48394296Y-53284445D01*
X48400292Y-53280876D01*
X48405525Y-53278300D01*
X48413701Y-53275972D01*
X48425914Y-53273878D01*
X48443259Y-53272007D01*
X48466831Y-53270347D01*
X48497723Y-53268884D01*
X48537032Y-53267608D01*
X48585850Y-53266504D01*
X48645273Y-53265561D01*
X48716396Y-53264767D01*
X48800312Y-53264109D01*
X48898117Y-53263575D01*
X49010906Y-53263153D01*
X49139771Y-53262829D01*
X49285809Y-53262592D01*
X49450114Y-53262430D01*
X49633780Y-53262330D01*
X49837903Y-53262280D01*
X50049047Y-53262267D01*
X51669400Y-53262267D01*
X51669400Y-53359054D01*
G36*
X54944229Y-53819071D02*
G01*
X55104370Y-53840245D01*
X55268310Y-53880385D01*
X55438113Y-53939889D01*
X55615843Y-54019154D01*
X55627110Y-54024699D01*
X55684805Y-54052725D01*
X55736352Y-54076802D01*
X55777991Y-54095249D01*
X55805962Y-54106386D01*
X55815533Y-54108933D01*
X55834750Y-54113941D01*
X55839361Y-54118147D01*
X55834258Y-54128580D01*
X55818218Y-54154868D01*
X55793088Y-54194257D01*
X55760714Y-54243991D01*
X55722943Y-54301315D01*
X55681622Y-54363476D01*
X55638598Y-54427718D01*
X55595717Y-54491285D01*
X55554826Y-54551425D01*
X55517771Y-54605380D01*
X55486400Y-54650397D01*
X55462559Y-54683721D01*
X55448094Y-54702597D01*
X55446109Y-54704787D01*
X55435991Y-54700138D01*
X55413650Y-54682962D01*
X55383080Y-54656440D01*
X55367336Y-54641964D01*
X55270847Y-54566682D01*
X55164136Y-54511241D01*
X55048632Y-54476141D01*
X54925762Y-54461880D01*
X54856361Y-54463051D01*
X54735223Y-54480212D01*
X54626005Y-54516094D01*
X54528382Y-54570959D01*
X54442028Y-54645070D01*
X54366615Y-54738688D01*
X54301818Y-54852076D01*
X54264401Y-54938667D01*
X54220548Y-55074366D01*
X54188228Y-55221850D01*
X54167357Y-55377314D01*
X54157851Y-55536956D01*
X54159627Y-55696973D01*
X54172603Y-55853561D01*
X54196694Y-56002918D01*
X54231818Y-56141240D01*
X54277892Y-56264724D01*
X54294173Y-56298978D01*
X54362420Y-56413064D01*
X54442879Y-56509557D01*
X54534370Y-56587670D01*
X54635711Y-56646617D01*
X54745720Y-56685612D01*
X54863215Y-56703868D01*
X54904683Y-56705211D01*
X55026241Y-56694290D01*
X55146678Y-56661474D01*
X55264466Y-56607439D01*
X55378077Y-56532865D01*
X55469485Y-56454539D01*
X55516015Y-56410008D01*
X55697283Y-56707271D01*
X55742380Y-56781433D01*
X55783619Y-56849646D01*
X55819535Y-56909459D01*
X55848666Y-56958420D01*
X55869550Y-56994079D01*
X55880724Y-57013984D01*
X55882175Y-57017079D01*
X55873946Y-57026718D01*
X55848367Y-57043999D01*
X55808673Y-57067283D01*
X55758097Y-57094934D01*
X55699874Y-57125315D01*
X55637237Y-57156790D01*
X55573421Y-57187722D01*
X55511660Y-57216473D01*
X55455188Y-57241408D01*
X55407238Y-57260889D01*
X55383786Y-57269318D01*
X55250021Y-57307133D01*
X55112127Y-57332136D01*
X54964422Y-57345140D01*
X54837633Y-57347468D01*
X54769678Y-57346373D01*
X54704077Y-57344275D01*
X54646647Y-57341434D01*
X54603203Y-57338106D01*
X54589098Y-57336422D01*
X54450084Y-57307587D01*
X54308557Y-57262468D01*
X54171075Y-57203750D01*
X54044194Y-57134120D01*
X53966689Y-57081441D01*
X53839281Y-56973239D01*
X53720978Y-56846671D01*
X53613972Y-56704866D01*
X53520452Y-56550951D01*
X53442610Y-56388053D01*
X53398756Y-56270756D01*
X53348508Y-56087128D01*
X53315009Y-55892581D01*
X53298249Y-55691325D01*
X53298216Y-55487568D01*
X53314901Y-55285521D01*
X53348293Y-55089392D01*
X53398380Y-54903391D01*
X53402197Y-54891803D01*
X53465081Y-54729750D01*
X53541828Y-54581832D01*
X53635042Y-54443865D01*
X53747327Y-54311661D01*
X53791192Y-54266399D01*
X53927334Y-54142457D01*
X54067291Y-54039915D01*
X54213211Y-53957656D01*
X54367242Y-53894564D01*
X54531532Y-53849523D01*
X54627089Y-53832033D01*
X54785823Y-53816466D01*
X54944229Y-53819071D01*
G37*
X54944229Y-53819071D02*
X55104370Y-53840245D01*
X55268310Y-53880385D01*
X55438113Y-53939889D01*
X55615843Y-54019154D01*
X55627110Y-54024699D01*
X55684805Y-54052725D01*
X55736352Y-54076802D01*
X55777991Y-54095249D01*
X55805962Y-54106386D01*
X55815533Y-54108933D01*
X55834750Y-54113941D01*
X55839361Y-54118147D01*
X55834258Y-54128580D01*
X55818218Y-54154868D01*
X55793088Y-54194257D01*
X55760714Y-54243991D01*
X55722943Y-54301315D01*
X55681622Y-54363476D01*
X55638598Y-54427718D01*
X55595717Y-54491285D01*
X55554826Y-54551425D01*
X55517771Y-54605380D01*
X55486400Y-54650397D01*
X55462559Y-54683721D01*
X55448094Y-54702597D01*
X55446109Y-54704787D01*
X55435991Y-54700138D01*
X55413650Y-54682962D01*
X55383080Y-54656440D01*
X55367336Y-54641964D01*
X55270847Y-54566682D01*
X55164136Y-54511241D01*
X55048632Y-54476141D01*
X54925762Y-54461880D01*
X54856361Y-54463051D01*
X54735223Y-54480212D01*
X54626005Y-54516094D01*
X54528382Y-54570959D01*
X54442028Y-54645070D01*
X54366615Y-54738688D01*
X54301818Y-54852076D01*
X54264401Y-54938667D01*
X54220548Y-55074366D01*
X54188228Y-55221850D01*
X54167357Y-55377314D01*
X54157851Y-55536956D01*
X54159627Y-55696973D01*
X54172603Y-55853561D01*
X54196694Y-56002918D01*
X54231818Y-56141240D01*
X54277892Y-56264724D01*
X54294173Y-56298978D01*
X54362420Y-56413064D01*
X54442879Y-56509557D01*
X54534370Y-56587670D01*
X54635711Y-56646617D01*
X54745720Y-56685612D01*
X54863215Y-56703868D01*
X54904683Y-56705211D01*
X55026241Y-56694290D01*
X55146678Y-56661474D01*
X55264466Y-56607439D01*
X55378077Y-56532865D01*
X55469485Y-56454539D01*
X55516015Y-56410008D01*
X55697283Y-56707271D01*
X55742380Y-56781433D01*
X55783619Y-56849646D01*
X55819535Y-56909459D01*
X55848666Y-56958420D01*
X55869550Y-56994079D01*
X55880724Y-57013984D01*
X55882175Y-57017079D01*
X55873946Y-57026718D01*
X55848367Y-57043999D01*
X55808673Y-57067283D01*
X55758097Y-57094934D01*
X55699874Y-57125315D01*
X55637237Y-57156790D01*
X55573421Y-57187722D01*
X55511660Y-57216473D01*
X55455188Y-57241408D01*
X55407238Y-57260889D01*
X55383786Y-57269318D01*
X55250021Y-57307133D01*
X55112127Y-57332136D01*
X54964422Y-57345140D01*
X54837633Y-57347468D01*
X54769678Y-57346373D01*
X54704077Y-57344275D01*
X54646647Y-57341434D01*
X54603203Y-57338106D01*
X54589098Y-57336422D01*
X54450084Y-57307587D01*
X54308557Y-57262468D01*
X54171075Y-57203750D01*
X54044194Y-57134120D01*
X53966689Y-57081441D01*
X53839281Y-56973239D01*
X53720978Y-56846671D01*
X53613972Y-56704866D01*
X53520452Y-56550951D01*
X53442610Y-56388053D01*
X53398756Y-56270756D01*
X53348508Y-56087128D01*
X53315009Y-55892581D01*
X53298249Y-55691325D01*
X53298216Y-55487568D01*
X53314901Y-55285521D01*
X53348293Y-55089392D01*
X53398380Y-54903391D01*
X53402197Y-54891803D01*
X53465081Y-54729750D01*
X53541828Y-54581832D01*
X53635042Y-54443865D01*
X53747327Y-54311661D01*
X53791192Y-54266399D01*
X53927334Y-54142457D01*
X54067291Y-54039915D01*
X54213211Y-53957656D01*
X54367242Y-53894564D01*
X54531532Y-53849523D01*
X54627089Y-53832033D01*
X54785823Y-53816466D01*
X54944229Y-53819071D01*
G36*
X57289374Y-54736552D02*
G01*
X57441292Y-54756567D01*
X57576556Y-54790202D01*
X57696039Y-54837725D01*
X57800615Y-54899405D01*
X57878224Y-54962965D01*
X57947065Y-55037099D01*
X58000806Y-55116871D01*
X58043710Y-55209091D01*
X58059184Y-55252161D01*
X58072044Y-55291142D01*
X58083246Y-55327289D01*
X58092920Y-55362434D01*
X58101196Y-55398410D01*
X58108203Y-55437050D01*
X58114072Y-55480185D01*
X58118931Y-55529649D01*
X58122910Y-55587273D01*
X58126140Y-55654891D01*
X58128749Y-55734334D01*
X58130867Y-55827436D01*
X58132624Y-55936027D01*
X58134149Y-56061942D01*
X58135572Y-56207012D01*
X58136825Y-56349778D01*
X58138151Y-56505968D01*
X58139356Y-56641239D01*
X58140566Y-56757246D01*
X58141906Y-56855645D01*
X58143500Y-56938093D01*
X58145475Y-57006246D01*
X58147956Y-57061760D01*
X58151069Y-57106292D01*
X58154938Y-57141498D01*
X58159689Y-57169034D01*
X58165448Y-57190556D01*
X58172339Y-57207722D01*
X58180489Y-57222186D01*
X58190023Y-57235606D01*
X58201066Y-57249638D01*
X58205366Y-57255071D01*
X58221186Y-57277910D01*
X58228222Y-57293463D01*
X58228244Y-57293922D01*
X58217367Y-57296121D01*
X58186382Y-57298147D01*
X58137757Y-57299942D01*
X58073963Y-57301451D01*
X57997469Y-57302616D01*
X57910744Y-57303380D01*
X57816257Y-57303686D01*
X57805350Y-57303689D01*
X57382457Y-57303689D01*
X57379195Y-57207622D01*
X57375933Y-57111556D01*
X57313844Y-57162543D01*
X57216514Y-57230057D01*
X57106613Y-57284749D01*
X57020149Y-57314978D01*
X56951078Y-57329666D01*
X56867725Y-57339659D01*
X56777959Y-57344646D01*
X56689645Y-57344313D01*
X56610651Y-57338351D01*
X56574422Y-57332638D01*
X56434403Y-57294776D01*
X56307978Y-57239932D01*
X56196060Y-57168924D01*
X56099562Y-57082568D01*
X56019400Y-56981679D01*
X55956487Y-56867076D01*
X55912112Y-56740984D01*
X55899778Y-56684401D01*
X55892168Y-56622202D01*
X55888539Y-56547363D01*
X55888045Y-56513467D01*
X55888110Y-56510282D01*
X56648048Y-56510282D01*
X56657341Y-56585333D01*
X56685528Y-56649160D01*
X56733997Y-56704798D01*
X56739054Y-56709211D01*
X56787348Y-56744037D01*
X56839057Y-56766620D01*
X56899789Y-56778540D01*
X56975152Y-56781383D01*
X56993259Y-56780978D01*
X57047078Y-56778325D01*
X57087108Y-56772909D01*
X57122124Y-56762745D01*
X57160903Y-56745850D01*
X57171545Y-56740672D01*
X57232196Y-56704844D01*
X57279015Y-56662212D01*
X57291752Y-56646973D01*
X57336422Y-56590462D01*
X57336422Y-56394586D01*
X57335886Y-56315939D01*
X57334196Y-56257988D01*
X57331228Y-56218875D01*
X57326857Y-56196741D01*
X57322772Y-56190274D01*
X57306847Y-56187111D01*
X57273064Y-56184488D01*
X57226140Y-56182655D01*
X57170793Y-56181857D01*
X57161906Y-56181842D01*
X57041130Y-56187096D01*
X56938460Y-56203263D01*
X56851906Y-56230961D01*
X56779481Y-56270808D01*
X56724551Y-56317758D01*
X56680004Y-56375645D01*
X56655280Y-56438693D01*
X56648048Y-56510282D01*
X55888110Y-56510282D01*
X55889978Y-56419712D01*
X55898322Y-56340812D01*
X55914568Y-56269590D01*
X55940205Y-56198864D01*
X55964201Y-56146493D01*
X56022820Y-56051196D01*
X56100917Y-55963170D01*
X56196115Y-55884017D01*
X56306038Y-55815340D01*
X56428310Y-55758741D01*
X56560555Y-55715821D01*
X56625222Y-55700882D01*
X56761404Y-55678777D01*
X56909849Y-55664194D01*
X57061305Y-55657813D01*
X57187864Y-55659445D01*
X57349750Y-55666224D01*
X57342330Y-55607245D01*
X57323038Y-55508092D01*
X57291904Y-55427372D01*
X57248069Y-55364466D01*
X57190671Y-55318756D01*
X57118848Y-55289622D01*
X57031741Y-55276447D01*
X56928486Y-55278611D01*
X56890511Y-55282612D01*
X56749320Y-55307780D01*
X56612507Y-55348814D01*
X56517978Y-55386815D01*
X56472818Y-55406190D01*
X56434385Y-55421760D01*
X56408034Y-55431405D01*
X56400346Y-55433452D01*
X56390602Y-55424374D01*
X56373883Y-55395405D01*
X56350032Y-55346217D01*
X56318893Y-55276484D01*
X56280307Y-55185879D01*
X56273710Y-55170089D01*
X56243653Y-55097772D01*
X56216674Y-55032425D01*
X56193936Y-54976906D01*
X56176606Y-54934072D01*
X56165848Y-54906781D01*
X56162741Y-54897942D01*
X56172740Y-54893187D01*
X56199017Y-54887910D01*
X56227289Y-54884231D01*
X56257446Y-54879474D01*
X56305233Y-54870028D01*
X56366412Y-54856820D01*
X56436746Y-54840776D01*
X56511994Y-54822820D01*
X56540555Y-54815797D01*
X56645616Y-54790209D01*
X56733280Y-54770147D01*
X56807868Y-54754969D01*
X56873703Y-54744035D01*
X56935107Y-54736704D01*
X56996402Y-54732335D01*
X57061910Y-54730287D01*
X57119928Y-54729889D01*
X57289374Y-54736552D01*
G37*
X57289374Y-54736552D02*
X57441292Y-54756567D01*
X57576556Y-54790202D01*
X57696039Y-54837725D01*
X57800615Y-54899405D01*
X57878224Y-54962965D01*
X57947065Y-55037099D01*
X58000806Y-55116871D01*
X58043710Y-55209091D01*
X58059184Y-55252161D01*
X58072044Y-55291142D01*
X58083246Y-55327289D01*
X58092920Y-55362434D01*
X58101196Y-55398410D01*
X58108203Y-55437050D01*
X58114072Y-55480185D01*
X58118931Y-55529649D01*
X58122910Y-55587273D01*
X58126140Y-55654891D01*
X58128749Y-55734334D01*
X58130867Y-55827436D01*
X58132624Y-55936027D01*
X58134149Y-56061942D01*
X58135572Y-56207012D01*
X58136825Y-56349778D01*
X58138151Y-56505968D01*
X58139356Y-56641239D01*
X58140566Y-56757246D01*
X58141906Y-56855645D01*
X58143500Y-56938093D01*
X58145475Y-57006246D01*
X58147956Y-57061760D01*
X58151069Y-57106292D01*
X58154938Y-57141498D01*
X58159689Y-57169034D01*
X58165448Y-57190556D01*
X58172339Y-57207722D01*
X58180489Y-57222186D01*
X58190023Y-57235606D01*
X58201066Y-57249638D01*
X58205366Y-57255071D01*
X58221186Y-57277910D01*
X58228222Y-57293463D01*
X58228244Y-57293922D01*
X58217367Y-57296121D01*
X58186382Y-57298147D01*
X58137757Y-57299942D01*
X58073963Y-57301451D01*
X57997469Y-57302616D01*
X57910744Y-57303380D01*
X57816257Y-57303686D01*
X57805350Y-57303689D01*
X57382457Y-57303689D01*
X57379195Y-57207622D01*
X57375933Y-57111556D01*
X57313844Y-57162543D01*
X57216514Y-57230057D01*
X57106613Y-57284749D01*
X57020149Y-57314978D01*
X56951078Y-57329666D01*
X56867725Y-57339659D01*
X56777959Y-57344646D01*
X56689645Y-57344313D01*
X56610651Y-57338351D01*
X56574422Y-57332638D01*
X56434403Y-57294776D01*
X56307978Y-57239932D01*
X56196060Y-57168924D01*
X56099562Y-57082568D01*
X56019400Y-56981679D01*
X55956487Y-56867076D01*
X55912112Y-56740984D01*
X55899778Y-56684401D01*
X55892168Y-56622202D01*
X55888539Y-56547363D01*
X55888045Y-56513467D01*
X55888110Y-56510282D01*
X56648048Y-56510282D01*
X56657341Y-56585333D01*
X56685528Y-56649160D01*
X56733997Y-56704798D01*
X56739054Y-56709211D01*
X56787348Y-56744037D01*
X56839057Y-56766620D01*
X56899789Y-56778540D01*
X56975152Y-56781383D01*
X56993259Y-56780978D01*
X57047078Y-56778325D01*
X57087108Y-56772909D01*
X57122124Y-56762745D01*
X57160903Y-56745850D01*
X57171545Y-56740672D01*
X57232196Y-56704844D01*
X57279015Y-56662212D01*
X57291752Y-56646973D01*
X57336422Y-56590462D01*
X57336422Y-56394586D01*
X57335886Y-56315939D01*
X57334196Y-56257988D01*
X57331228Y-56218875D01*
X57326857Y-56196741D01*
X57322772Y-56190274D01*
X57306847Y-56187111D01*
X57273064Y-56184488D01*
X57226140Y-56182655D01*
X57170793Y-56181857D01*
X57161906Y-56181842D01*
X57041130Y-56187096D01*
X56938460Y-56203263D01*
X56851906Y-56230961D01*
X56779481Y-56270808D01*
X56724551Y-56317758D01*
X56680004Y-56375645D01*
X56655280Y-56438693D01*
X56648048Y-56510282D01*
X55888110Y-56510282D01*
X55889978Y-56419712D01*
X55898322Y-56340812D01*
X55914568Y-56269590D01*
X55940205Y-56198864D01*
X55964201Y-56146493D01*
X56022820Y-56051196D01*
X56100917Y-55963170D01*
X56196115Y-55884017D01*
X56306038Y-55815340D01*
X56428310Y-55758741D01*
X56560555Y-55715821D01*
X56625222Y-55700882D01*
X56761404Y-55678777D01*
X56909849Y-55664194D01*
X57061305Y-55657813D01*
X57187864Y-55659445D01*
X57349750Y-55666224D01*
X57342330Y-55607245D01*
X57323038Y-55508092D01*
X57291904Y-55427372D01*
X57248069Y-55364466D01*
X57190671Y-55318756D01*
X57118848Y-55289622D01*
X57031741Y-55276447D01*
X56928486Y-55278611D01*
X56890511Y-55282612D01*
X56749320Y-55307780D01*
X56612507Y-55348814D01*
X56517978Y-55386815D01*
X56472818Y-55406190D01*
X56434385Y-55421760D01*
X56408034Y-55431405D01*
X56400346Y-55433452D01*
X56390602Y-55424374D01*
X56373883Y-55395405D01*
X56350032Y-55346217D01*
X56318893Y-55276484D01*
X56280307Y-55185879D01*
X56273710Y-55170089D01*
X56243653Y-55097772D01*
X56216674Y-55032425D01*
X56193936Y-54976906D01*
X56176606Y-54934072D01*
X56165848Y-54906781D01*
X56162741Y-54897942D01*
X56172740Y-54893187D01*
X56199017Y-54887910D01*
X56227289Y-54884231D01*
X56257446Y-54879474D01*
X56305233Y-54870028D01*
X56366412Y-54856820D01*
X56436746Y-54840776D01*
X56511994Y-54822820D01*
X56540555Y-54815797D01*
X56645616Y-54790209D01*
X56733280Y-54770147D01*
X56807868Y-54754969D01*
X56873703Y-54744035D01*
X56935107Y-54736704D01*
X56996402Y-54732335D01*
X57061910Y-54730287D01*
X57119928Y-54729889D01*
X57289374Y-54736552D01*
G36*
X60802307Y-55342245D02*
G01*
X60802326Y-55576662D01*
X60802352Y-55789603D01*
X60802425Y-55982168D01*
X60802582Y-56155459D01*
X60802864Y-56310576D01*
X60803309Y-56448620D01*
X60803956Y-56570692D01*
X60804845Y-56677894D01*
X60806013Y-56771326D01*
X60807501Y-56852090D01*
X60809346Y-56921286D01*
X60811589Y-56980015D01*
X60814269Y-57029379D01*
X60817423Y-57070478D01*
X60821092Y-57104413D01*
X60825313Y-57132286D01*
X60830127Y-57155198D01*
X60835573Y-57174249D01*
X60841688Y-57190540D01*
X60848512Y-57205173D01*
X60856085Y-57219249D01*
X60864445Y-57233868D01*
X60869639Y-57242974D01*
X60903904Y-57303689D01*
X60045755Y-57303689D01*
X60045755Y-57207733D01*
X60045024Y-57164370D01*
X60043072Y-57131205D01*
X60040263Y-57113424D01*
X60039021Y-57111778D01*
X60027599Y-57118662D01*
X60004884Y-57136505D01*
X59982185Y-57155879D01*
X59927600Y-57196614D01*
X59858121Y-57237617D01*
X59781070Y-57275123D01*
X59703765Y-57305364D01*
X59672913Y-57315012D01*
X59604416Y-57329578D01*
X59521564Y-57339539D01*
X59432171Y-57344583D01*
X59344048Y-57344396D01*
X59265007Y-57338666D01*
X59227311Y-57332858D01*
X59089214Y-57294797D01*
X58961913Y-57237073D01*
X58846092Y-57160211D01*
X58742437Y-57064739D01*
X58651633Y-56951179D01*
X58584831Y-56840381D01*
X58529964Y-56723625D01*
X58487963Y-56604276D01*
X58457967Y-56478283D01*
X58439111Y-56341594D01*
X58430532Y-56190158D01*
X58429806Y-56112711D01*
X58431900Y-56055934D01*
X59261017Y-56055934D01*
X59261224Y-56149002D01*
X59264137Y-56236692D01*
X59269800Y-56313772D01*
X59278255Y-56375009D01*
X59280838Y-56387350D01*
X59312640Y-56494633D01*
X59354298Y-56581658D01*
X59406163Y-56648642D01*
X59468581Y-56695805D01*
X59541900Y-56723365D01*
X59626469Y-56731541D01*
X59722635Y-56720551D01*
X59786111Y-56704829D01*
X59835254Y-56686639D01*
X59889383Y-56660791D01*
X59930044Y-56637089D01*
X60000600Y-56590721D01*
X60000600Y-55440530D01*
X59933192Y-55396962D01*
X59854667Y-55356040D01*
X59770481Y-55329389D01*
X59685357Y-55317465D01*
X59604016Y-55320722D01*
X59531180Y-55339615D01*
X59499226Y-55355184D01*
X59441301Y-55398181D01*
X59392344Y-55454953D01*
X59351190Y-55527575D01*
X59316674Y-55618121D01*
X59287633Y-55728666D01*
X59286352Y-55734533D01*
X59276181Y-55796788D01*
X59268539Y-55874594D01*
X59263470Y-55962720D01*
X59261017Y-56055934D01*
X58431900Y-56055934D01*
X58437657Y-55899895D01*
X58459602Y-55704059D01*
X58495586Y-55525332D01*
X58545559Y-55363845D01*
X58609468Y-55219726D01*
X58687262Y-55093106D01*
X58778889Y-54984115D01*
X58884297Y-54892883D01*
X58929462Y-54861932D01*
X59030411Y-54805785D01*
X59133701Y-54766174D01*
X59243789Y-54742014D01*
X59365130Y-54732219D01*
X59457636Y-54733265D01*
X59587290Y-54744231D01*
X59699884Y-54766046D01*
X59798675Y-54799714D01*
X59886921Y-54846236D01*
X59935786Y-54880448D01*
X59965153Y-54902362D01*
X59986843Y-54917333D01*
X59995053Y-54921733D01*
X59996668Y-54910904D01*
X59997959Y-54880251D01*
X59998938Y-54832526D01*
X59999617Y-54770479D01*
X60000010Y-54696862D01*
X60000130Y-54614427D01*
X59999988Y-54525925D01*
X59999597Y-54434107D01*
X59998971Y-54341724D01*
X59998120Y-54251528D01*
X59997060Y-54166271D01*
X59995801Y-54088703D01*
X59994356Y-54021576D01*
X59992738Y-53967641D01*
X59990961Y-53929650D01*
X59990469Y-53922667D01*
X59982892Y-53852251D01*
X59971331Y-53797102D01*
X59953592Y-53749981D01*
X59927482Y-53703647D01*
X59921215Y-53694067D01*
X59896783Y-53657378D01*
X60802111Y-53657378D01*
X60802307Y-55342245D01*
G37*
X60802307Y-55342245D02*
X60802326Y-55576662D01*
X60802352Y-55789603D01*
X60802425Y-55982168D01*
X60802582Y-56155459D01*
X60802864Y-56310576D01*
X60803309Y-56448620D01*
X60803956Y-56570692D01*
X60804845Y-56677894D01*
X60806013Y-56771326D01*
X60807501Y-56852090D01*
X60809346Y-56921286D01*
X60811589Y-56980015D01*
X60814269Y-57029379D01*
X60817423Y-57070478D01*
X60821092Y-57104413D01*
X60825313Y-57132286D01*
X60830127Y-57155198D01*
X60835573Y-57174249D01*
X60841688Y-57190540D01*
X60848512Y-57205173D01*
X60856085Y-57219249D01*
X60864445Y-57233868D01*
X60869639Y-57242974D01*
X60903904Y-57303689D01*
X60045755Y-57303689D01*
X60045755Y-57207733D01*
X60045024Y-57164370D01*
X60043072Y-57131205D01*
X60040263Y-57113424D01*
X60039021Y-57111778D01*
X60027599Y-57118662D01*
X60004884Y-57136505D01*
X59982185Y-57155879D01*
X59927600Y-57196614D01*
X59858121Y-57237617D01*
X59781070Y-57275123D01*
X59703765Y-57305364D01*
X59672913Y-57315012D01*
X59604416Y-57329578D01*
X59521564Y-57339539D01*
X59432171Y-57344583D01*
X59344048Y-57344396D01*
X59265007Y-57338666D01*
X59227311Y-57332858D01*
X59089214Y-57294797D01*
X58961913Y-57237073D01*
X58846092Y-57160211D01*
X58742437Y-57064739D01*
X58651633Y-56951179D01*
X58584831Y-56840381D01*
X58529964Y-56723625D01*
X58487963Y-56604276D01*
X58457967Y-56478283D01*
X58439111Y-56341594D01*
X58430532Y-56190158D01*
X58429806Y-56112711D01*
X58431900Y-56055934D01*
X59261017Y-56055934D01*
X59261224Y-56149002D01*
X59264137Y-56236692D01*
X59269800Y-56313772D01*
X59278255Y-56375009D01*
X59280838Y-56387350D01*
X59312640Y-56494633D01*
X59354298Y-56581658D01*
X59406163Y-56648642D01*
X59468581Y-56695805D01*
X59541900Y-56723365D01*
X59626469Y-56731541D01*
X59722635Y-56720551D01*
X59786111Y-56704829D01*
X59835254Y-56686639D01*
X59889383Y-56660791D01*
X59930044Y-56637089D01*
X60000600Y-56590721D01*
X60000600Y-55440530D01*
X59933192Y-55396962D01*
X59854667Y-55356040D01*
X59770481Y-55329389D01*
X59685357Y-55317465D01*
X59604016Y-55320722D01*
X59531180Y-55339615D01*
X59499226Y-55355184D01*
X59441301Y-55398181D01*
X59392344Y-55454953D01*
X59351190Y-55527575D01*
X59316674Y-55618121D01*
X59287633Y-55728666D01*
X59286352Y-55734533D01*
X59276181Y-55796788D01*
X59268539Y-55874594D01*
X59263470Y-55962720D01*
X59261017Y-56055934D01*
X58431900Y-56055934D01*
X58437657Y-55899895D01*
X58459602Y-55704059D01*
X58495586Y-55525332D01*
X58545559Y-55363845D01*
X58609468Y-55219726D01*
X58687262Y-55093106D01*
X58778889Y-54984115D01*
X58884297Y-54892883D01*
X58929462Y-54861932D01*
X59030411Y-54805785D01*
X59133701Y-54766174D01*
X59243789Y-54742014D01*
X59365130Y-54732219D01*
X59457636Y-54733265D01*
X59587290Y-54744231D01*
X59699884Y-54766046D01*
X59798675Y-54799714D01*
X59886921Y-54846236D01*
X59935786Y-54880448D01*
X59965153Y-54902362D01*
X59986843Y-54917333D01*
X59995053Y-54921733D01*
X59996668Y-54910904D01*
X59997959Y-54880251D01*
X59998938Y-54832526D01*
X59999617Y-54770479D01*
X60000010Y-54696862D01*
X60000130Y-54614427D01*
X59999988Y-54525925D01*
X59999597Y-54434107D01*
X59998971Y-54341724D01*
X59998120Y-54251528D01*
X59997060Y-54166271D01*
X59995801Y-54088703D01*
X59994356Y-54021576D01*
X59992738Y-53967641D01*
X59990961Y-53929650D01*
X59990469Y-53922667D01*
X59982892Y-53852251D01*
X59971331Y-53797102D01*
X59953592Y-53749981D01*
X59927482Y-53703647D01*
X59921215Y-53694067D01*
X59896783Y-53657378D01*
X60802111Y-53657378D01*
X60802307Y-55342245D01*
G36*
X52342757Y-52896571D02*
G01*
X52439032Y-52920809D01*
X52525616Y-52963641D01*
X52600427Y-53023419D01*
X52661382Y-53098494D01*
X52706401Y-53187220D01*
X52732664Y-53283530D01*
X52738514Y-53380795D01*
X52723660Y-53474654D01*
X52689960Y-53562511D01*
X52639272Y-53641770D01*
X52573455Y-53709836D01*
X52494366Y-53764112D01*
X52403866Y-53802002D01*
X52352600Y-53814426D01*
X52308102Y-53821947D01*
X52273801Y-53824919D01*
X52240840Y-53823094D01*
X52200366Y-53816225D01*
X52167269Y-53809250D01*
X52073853Y-53777741D01*
X51990181Y-53726617D01*
X51918135Y-53657429D01*
X51859600Y-53571728D01*
X51845652Y-53544489D01*
X51829214Y-53508122D01*
X51818906Y-53477582D01*
X51813340Y-53445450D01*
X51811131Y-53404307D01*
X51810852Y-53358222D01*
X51814939Y-53273865D01*
X51828354Y-53204586D01*
X51853544Y-53143961D01*
X51892954Y-53085567D01*
X51931502Y-53041302D01*
X52003394Y-52975484D01*
X52078487Y-52930053D01*
X52161238Y-52902850D01*
X52238872Y-52892576D01*
X52342757Y-52896571D01*
G37*
X52342757Y-52896571D02*
X52439032Y-52920809D01*
X52525616Y-52963641D01*
X52600427Y-53023419D01*
X52661382Y-53098494D01*
X52706401Y-53187220D01*
X52732664Y-53283530D01*
X52738514Y-53380795D01*
X52723660Y-53474654D01*
X52689960Y-53562511D01*
X52639272Y-53641770D01*
X52573455Y-53709836D01*
X52494366Y-53764112D01*
X52403866Y-53802002D01*
X52352600Y-53814426D01*
X52308102Y-53821947D01*
X52273801Y-53824919D01*
X52240840Y-53823094D01*
X52200366Y-53816225D01*
X52167269Y-53809250D01*
X52073853Y-53777741D01*
X51990181Y-53726617D01*
X51918135Y-53657429D01*
X51859600Y-53571728D01*
X51845652Y-53544489D01*
X51829214Y-53508122D01*
X51818906Y-53477582D01*
X51813340Y-53445450D01*
X51811131Y-53404307D01*
X51810852Y-53358222D01*
X51814939Y-53273865D01*
X51828354Y-53204586D01*
X51853544Y-53143961D01*
X51892954Y-53085567D01*
X51931502Y-53041302D01*
X52003394Y-52975484D01*
X52078487Y-52930053D01*
X52161238Y-52902850D01*
X52238872Y-52892576D01*
X52342757Y-52896571D01*
D15*
G36*
X60153800Y-34418000D02*
G01*
X60064800Y-34372000D01*
X59800800Y-34795000D01*
X59827800Y-34813000D01*
X59849800Y-34830000D01*
X59872800Y-34852000D01*
X59887800Y-34869000D01*
X59902800Y-34890000D01*
X59914800Y-34910000D01*
X59923800Y-34927000D01*
X59931800Y-34944000D01*
X59936800Y-34958000D01*
X59940800Y-34974000D01*
X59943800Y-34986000D01*
X59947800Y-35005000D01*
X59949800Y-35017000D01*
X59952800Y-35034000D01*
X59953800Y-35046000D01*
X59953800Y-35061000D01*
X59953800Y-35076000D01*
X59952800Y-35092000D01*
X59949800Y-35111000D01*
X59944800Y-35134000D01*
X59939800Y-35150000D01*
X59933800Y-35168000D01*
X59924800Y-35189000D01*
X59910800Y-35214000D01*
X59899800Y-35231000D01*
X59886800Y-35248000D01*
X59873800Y-35264000D01*
X59857800Y-35279000D01*
X59824800Y-35306000D01*
X59803800Y-35319000D01*
X59786800Y-35328000D01*
X59767800Y-35336000D01*
X59746800Y-35344000D01*
X59717800Y-35352000D01*
X59670800Y-35359000D01*
X59632800Y-35359000D01*
X59588800Y-35353000D01*
X59550800Y-35341000D01*
X59517800Y-35327000D01*
X59490800Y-35311000D01*
X59473800Y-35299000D01*
X59443800Y-35274000D01*
X59412800Y-35240000D01*
X59395800Y-35215000D01*
X59375800Y-35177000D01*
X59365800Y-35147000D01*
X59360800Y-35126000D01*
X59355800Y-35099000D01*
X59352800Y-35057000D01*
X59354800Y-35021000D01*
X59363800Y-34978000D01*
X59380800Y-34932000D01*
X59398800Y-34897000D01*
X59424800Y-34863000D01*
X59436800Y-34850000D01*
X59453800Y-34834000D01*
X59463800Y-34825000D01*
X59485800Y-34809000D01*
X59508800Y-34795000D01*
X59520800Y-34789000D01*
X59535800Y-34781000D01*
X59546800Y-34777000D01*
X59565800Y-34771000D01*
X59575800Y-34768000D01*
X59587800Y-34765000D01*
X59597800Y-34763000D01*
X59610800Y-34761000D01*
X59627800Y-34759000D01*
X59645800Y-34758000D01*
X59672800Y-34758000D01*
X59697800Y-34760000D01*
X59733800Y-34766000D01*
X59759800Y-34775000D01*
X59778800Y-34784000D01*
X59793800Y-34792000D01*
X59796800Y-34794000D01*
X60061800Y-34370000D01*
X59896800Y-34282000D01*
X59676800Y-34191000D01*
X59568800Y-34129000D01*
X59465800Y-34056000D01*
X59363800Y-33948000D01*
X59242800Y-33799000D01*
X59092800Y-33587000D01*
X58969800Y-33409000D01*
X58818800Y-33211000D01*
X58699800Y-33071000D01*
X58610800Y-32980000D01*
X58482800Y-32883000D01*
X58373800Y-32820000D01*
X58268800Y-32770000D01*
X58185800Y-32758000D01*
X58129800Y-32767000D01*
X58053800Y-32798000D01*
X57937800Y-32861000D01*
X57842800Y-32932000D01*
X57748800Y-32988000D01*
X57663800Y-33011000D01*
X57564800Y-33046000D01*
X57486800Y-33093000D01*
X57422800Y-33145000D01*
X57319800Y-33225000D01*
X57249800Y-33279000D01*
X57173800Y-33290000D01*
X57059800Y-33288000D01*
X56910800Y-33252000D01*
X56638800Y-33174000D01*
X56233800Y-33015000D01*
X55974800Y-32899000D01*
X55514800Y-32682000D01*
X55084800Y-32468000D01*
X54923800Y-32387000D01*
X54729800Y-32310000D01*
X54569800Y-32260000D01*
X54390800Y-32219000D01*
X54230800Y-32199000D01*
X54087800Y-32191000D01*
X53925800Y-32184000D01*
X53815800Y-32185000D01*
X53622800Y-32187000D01*
X53480800Y-32193000D01*
X53337800Y-32207000D01*
X53118800Y-32229000D01*
X52976800Y-32249000D01*
X52751800Y-32287000D01*
X52600800Y-32317000D01*
X52403800Y-32363000D01*
X52258800Y-32402000D01*
X52011800Y-32472000D01*
X51825800Y-32540000D01*
X51526800Y-32653000D01*
X51011800Y-32908000D01*
X50598800Y-33135000D01*
X50476800Y-33210000D01*
X50209800Y-33423000D01*
X49707800Y-33872000D01*
X49542800Y-34038000D01*
X49474800Y-34140000D01*
X49394800Y-34274000D01*
X49302800Y-34439000D01*
X49242800Y-34637000D01*
X49178800Y-34881000D01*
X49096800Y-35262000D01*
X49043800Y-35549000D01*
X49001800Y-35852000D01*
X48967800Y-36225000D01*
X48942800Y-36791000D01*
X48934800Y-37638000D01*
X48902800Y-37658000D01*
X48405800Y-37904000D01*
X48002800Y-38100000D01*
X47514800Y-38382000D01*
X47278800Y-38543000D01*
X47115800Y-38667000D01*
X46940800Y-38826000D01*
X46811800Y-38954000D01*
X46713800Y-39086000D01*
X46623800Y-39218000D01*
X46540800Y-39353000D01*
X46451800Y-39547000D01*
X46385800Y-39730000D01*
X46359800Y-39884000D01*
X46354800Y-40017000D01*
X46362800Y-40137000D01*
X46386800Y-40249000D01*
X46431800Y-40375000D01*
X46499800Y-40493000D01*
X46579800Y-40607000D01*
X46722800Y-40770000D01*
X46908800Y-40904000D01*
X47063800Y-40987000D01*
X47219800Y-41041000D01*
X47514800Y-41105000D01*
X47871800Y-41144000D01*
X48985800Y-41241000D01*
X49793800Y-41322000D01*
X50146800Y-41360000D01*
X50576800Y-41412000D01*
X50962800Y-41469000D01*
X51403800Y-41552000D01*
X51852800Y-41650000D01*
X52299800Y-41764000D01*
X52634800Y-41871000D01*
X52945800Y-41966000D01*
X53118800Y-42032000D01*
X53307800Y-42127000D01*
X53478800Y-42222000D01*
X53625800Y-42317000D01*
X53736800Y-42414000D01*
X53848800Y-42522000D01*
X53928800Y-42632000D01*
X53985800Y-42756000D01*
X54030800Y-42865000D01*
X54054800Y-42979000D01*
X54083800Y-43129000D01*
X54106800Y-43268000D01*
X54123800Y-43407000D01*
X54132800Y-43480000D01*
X54139800Y-43552000D01*
X54146800Y-43588000D01*
X54160800Y-43605000D01*
X54191800Y-43633000D01*
X54200800Y-43635000D01*
X54214800Y-43617000D01*
X54223800Y-43591000D01*
X54233800Y-43558000D01*
X54250800Y-43497000D01*
X54267800Y-43433000D01*
X54286800Y-43369000D01*
X54304800Y-43285000D01*
X54305800Y-43219000D01*
X54308800Y-43136000D01*
X54298800Y-43065000D01*
X54286800Y-42992000D01*
X54263800Y-42895000D01*
X54236800Y-42816000D01*
X54204800Y-42733000D01*
X54167800Y-42657000D01*
X54114800Y-42563000D01*
X54050800Y-42462000D01*
X53967800Y-42350000D01*
X53871800Y-42245000D01*
X53802800Y-42176000D01*
X53703800Y-42077000D01*
X53572800Y-41975000D01*
X53468800Y-41892000D01*
X53363800Y-41826000D01*
X53131800Y-41702000D01*
X52884800Y-41619000D01*
X52793800Y-41590000D01*
X52646800Y-41546000D01*
X52268800Y-41443000D01*
X51715800Y-41322000D01*
X51047800Y-41192000D01*
X50140800Y-41044000D01*
X49430800Y-40947000D01*
X48980800Y-40896000D01*
X48650800Y-40867000D01*
X48116800Y-40810000D01*
X47895800Y-40784000D01*
X47683800Y-40737000D01*
X47503800Y-40691000D01*
X47383800Y-40650000D01*
X47205800Y-40562000D01*
X47073800Y-40464000D01*
X46994800Y-40385000D01*
X46916800Y-40292000D01*
X46849800Y-40186000D01*
X46804800Y-40074000D01*
X46787800Y-39980000D01*
X46785800Y-39891000D01*
X46792800Y-39806000D01*
X46814800Y-39706000D01*
X46847800Y-39619000D01*
X46931800Y-39467000D01*
X46975800Y-39406000D01*
X47026800Y-39339000D01*
X47061800Y-39295000D01*
X47113800Y-39244000D01*
X47198800Y-39153000D01*
X47274800Y-39093000D01*
X47362800Y-39036000D01*
X47493800Y-38949000D01*
X47629800Y-38865000D01*
X47794800Y-38773000D01*
X47902800Y-38718000D01*
X48126800Y-38603000D01*
X48473800Y-38427000D01*
X48736800Y-38292000D01*
X48886800Y-38218000D01*
X48911800Y-38206000D01*
X48929800Y-38205000D01*
X49260800Y-38211000D01*
X49663800Y-38220000D01*
X50027800Y-38236000D01*
X50234800Y-38247000D01*
X50408800Y-38277000D01*
X50486800Y-38289000D01*
X50569800Y-38317000D01*
X50665800Y-38355000D01*
X50725800Y-38389000D01*
X50791800Y-38416000D01*
X50854800Y-38436000D01*
X50946800Y-38444000D01*
X51043800Y-38457000D01*
X51115800Y-38467000D01*
X51146800Y-38484000D01*
X51200800Y-38519000D01*
X51249800Y-38534000D01*
X51292800Y-38541000D01*
X51349800Y-38542000D01*
X51395800Y-38541000D01*
X51456800Y-38520000D01*
X51502800Y-38508000D01*
X51578800Y-38480000D01*
X51671800Y-38455000D01*
X51799800Y-38433000D01*
X52067800Y-38403000D01*
X52205800Y-38396000D01*
X52401800Y-38382000D01*
X52603800Y-38379000D01*
X52797800Y-38387000D01*
X52987800Y-38409000D01*
X53149800Y-38437000D01*
X53309800Y-38481000D01*
X53416800Y-38505000D01*
X53537800Y-38523000D01*
X53669800Y-38534000D01*
X53826800Y-38536000D01*
X54015800Y-38534000D01*
X54097800Y-38525000D01*
X54150800Y-38511000D01*
X54177800Y-38495000D01*
X54195800Y-38474000D01*
X54207800Y-38445000D01*
X54214800Y-38410000D01*
X54219800Y-38365000D01*
X54220800Y-38314000D01*
X54215800Y-38262000D01*
X54206800Y-38213000D01*
X54182800Y-38143000D01*
X54145800Y-38076000D01*
X54087800Y-37996000D01*
X54032800Y-37955000D01*
X53970800Y-37928000D01*
X53831800Y-37886000D01*
X53555800Y-37814000D01*
X53408800Y-37773000D01*
X53323800Y-37719000D01*
X53280800Y-37686000D01*
X53267800Y-37663000D01*
X53289800Y-37627000D01*
X53343800Y-37590000D01*
X53422800Y-37549000D01*
X53550800Y-37475000D01*
X53843800Y-37330000D01*
X54034800Y-37257000D01*
X54072800Y-37242000D01*
X54180800Y-37212000D01*
X54322800Y-37189000D01*
X54531800Y-37174000D01*
X54685800Y-37174000D01*
X54971800Y-37180000D01*
X55116800Y-37200000D01*
X55238800Y-37228000D01*
X55347800Y-37270000D01*
X55465800Y-37320000D01*
X55526800Y-37353000D01*
X55594800Y-37404000D01*
X55649800Y-37456000D01*
X55719800Y-37541000D01*
X55771800Y-37609000D01*
X55821800Y-37717000D01*
X55864800Y-37818000D01*
X55916800Y-37942000D01*
X55950800Y-38014000D01*
X55986800Y-38069000D01*
X56013800Y-38108000D01*
X56030800Y-38129000D01*
X56063800Y-38161000D01*
X56103800Y-38191000D01*
X56215800Y-38262000D01*
X56342800Y-38311000D01*
X56558800Y-38338000D01*
X56761800Y-38372000D01*
X57025800Y-38395000D01*
X57187800Y-38418000D01*
X57220800Y-38431000D01*
X57248800Y-38427000D01*
X57286800Y-38405000D01*
X57324800Y-38357000D01*
X57352800Y-38321000D01*
X57395800Y-38267000D01*
X57438800Y-38193000D01*
X57463800Y-38131000D01*
X57480800Y-38066000D01*
X57479800Y-37998000D01*
X57447800Y-37927000D01*
X57399800Y-37871000D01*
X57348800Y-37841000D01*
X57282800Y-37809000D01*
X57173800Y-37785000D01*
X57012800Y-37754000D01*
X56904800Y-37720000D01*
X56835800Y-37670000D01*
X56792800Y-37627000D01*
X56763800Y-37571000D01*
X56750800Y-37522000D01*
X56747800Y-37477000D01*
X56756800Y-37426000D01*
X56765800Y-37398000D01*
X56782800Y-37380000D01*
X56805800Y-37366000D01*
X56835800Y-37347000D01*
X56910800Y-37319000D01*
X57060800Y-37266000D01*
X57235800Y-37199000D01*
X57304800Y-37170000D01*
X57398800Y-37120000D01*
X57508800Y-37061000D01*
X57808800Y-36882000D01*
X57919800Y-36832000D01*
X58104800Y-36779000D01*
X58262800Y-36768000D01*
X58367800Y-36782000D01*
X58578800Y-36797000D01*
X59021800Y-36838000D01*
X59279800Y-36872000D01*
X59539800Y-36906000D01*
X59775800Y-36938000D01*
X60040800Y-36983000D01*
X60463800Y-37038000D01*
X60593800Y-37060000D01*
X60796800Y-37078000D01*
X60957800Y-37082000D01*
X61069800Y-37072000D01*
X61161800Y-37054000D01*
X61427800Y-36978000D01*
X61630800Y-36918000D01*
X61714800Y-36889000D01*
X61837800Y-36855000D01*
X61974800Y-36831000D01*
X62039800Y-36811000D01*
X62087800Y-36785000D01*
X62119800Y-36752000D01*
X62131800Y-36707000D01*
X62133800Y-36654000D01*
X62100800Y-36571000D01*
X62043800Y-36440000D01*
X61920800Y-36203000D01*
X61782800Y-35972000D01*
X61611800Y-35728000D01*
X61489800Y-35566000D01*
X61262800Y-35306000D01*
X61097800Y-35125000D01*
X60865800Y-34907000D01*
X60622800Y-34711000D01*
X60474800Y-34608000D01*
X60334800Y-34525000D01*
X60234800Y-34465000D01*
X60153800Y-34418000D01*
G37*
X60153800Y-34418000D02*
X60064800Y-34372000D01*
X59800800Y-34795000D01*
X59827800Y-34813000D01*
X59849800Y-34830000D01*
X59872800Y-34852000D01*
X59887800Y-34869000D01*
X59902800Y-34890000D01*
X59914800Y-34910000D01*
X59923800Y-34927000D01*
X59931800Y-34944000D01*
X59936800Y-34958000D01*
X59940800Y-34974000D01*
X59943800Y-34986000D01*
X59947800Y-35005000D01*
X59949800Y-35017000D01*
X59952800Y-35034000D01*
X59953800Y-35046000D01*
X59953800Y-35061000D01*
X59953800Y-35076000D01*
X59952800Y-35092000D01*
X59949800Y-35111000D01*
X59944800Y-35134000D01*
X59939800Y-35150000D01*
X59933800Y-35168000D01*
X59924800Y-35189000D01*
X59910800Y-35214000D01*
X59899800Y-35231000D01*
X59886800Y-35248000D01*
X59873800Y-35264000D01*
X59857800Y-35279000D01*
X59824800Y-35306000D01*
X59803800Y-35319000D01*
X59786800Y-35328000D01*
X59767800Y-35336000D01*
X59746800Y-35344000D01*
X59717800Y-35352000D01*
X59670800Y-35359000D01*
X59632800Y-35359000D01*
X59588800Y-35353000D01*
X59550800Y-35341000D01*
X59517800Y-35327000D01*
X59490800Y-35311000D01*
X59473800Y-35299000D01*
X59443800Y-35274000D01*
X59412800Y-35240000D01*
X59395800Y-35215000D01*
X59375800Y-35177000D01*
X59365800Y-35147000D01*
X59360800Y-35126000D01*
X59355800Y-35099000D01*
X59352800Y-35057000D01*
X59354800Y-35021000D01*
X59363800Y-34978000D01*
X59380800Y-34932000D01*
X59398800Y-34897000D01*
X59424800Y-34863000D01*
X59436800Y-34850000D01*
X59453800Y-34834000D01*
X59463800Y-34825000D01*
X59485800Y-34809000D01*
X59508800Y-34795000D01*
X59520800Y-34789000D01*
X59535800Y-34781000D01*
X59546800Y-34777000D01*
X59565800Y-34771000D01*
X59575800Y-34768000D01*
X59587800Y-34765000D01*
X59597800Y-34763000D01*
X59610800Y-34761000D01*
X59627800Y-34759000D01*
X59645800Y-34758000D01*
X59672800Y-34758000D01*
X59697800Y-34760000D01*
X59733800Y-34766000D01*
X59759800Y-34775000D01*
X59778800Y-34784000D01*
X59793800Y-34792000D01*
X59796800Y-34794000D01*
X60061800Y-34370000D01*
X59896800Y-34282000D01*
X59676800Y-34191000D01*
X59568800Y-34129000D01*
X59465800Y-34056000D01*
X59363800Y-33948000D01*
X59242800Y-33799000D01*
X59092800Y-33587000D01*
X58969800Y-33409000D01*
X58818800Y-33211000D01*
X58699800Y-33071000D01*
X58610800Y-32980000D01*
X58482800Y-32883000D01*
X58373800Y-32820000D01*
X58268800Y-32770000D01*
X58185800Y-32758000D01*
X58129800Y-32767000D01*
X58053800Y-32798000D01*
X57937800Y-32861000D01*
X57842800Y-32932000D01*
X57748800Y-32988000D01*
X57663800Y-33011000D01*
X57564800Y-33046000D01*
X57486800Y-33093000D01*
X57422800Y-33145000D01*
X57319800Y-33225000D01*
X57249800Y-33279000D01*
X57173800Y-33290000D01*
X57059800Y-33288000D01*
X56910800Y-33252000D01*
X56638800Y-33174000D01*
X56233800Y-33015000D01*
X55974800Y-32899000D01*
X55514800Y-32682000D01*
X55084800Y-32468000D01*
X54923800Y-32387000D01*
X54729800Y-32310000D01*
X54569800Y-32260000D01*
X54390800Y-32219000D01*
X54230800Y-32199000D01*
X54087800Y-32191000D01*
X53925800Y-32184000D01*
X53815800Y-32185000D01*
X53622800Y-32187000D01*
X53480800Y-32193000D01*
X53337800Y-32207000D01*
X53118800Y-32229000D01*
X52976800Y-32249000D01*
X52751800Y-32287000D01*
X52600800Y-32317000D01*
X52403800Y-32363000D01*
X52258800Y-32402000D01*
X52011800Y-32472000D01*
X51825800Y-32540000D01*
X51526800Y-32653000D01*
X51011800Y-32908000D01*
X50598800Y-33135000D01*
X50476800Y-33210000D01*
X50209800Y-33423000D01*
X49707800Y-33872000D01*
X49542800Y-34038000D01*
X49474800Y-34140000D01*
X49394800Y-34274000D01*
X49302800Y-34439000D01*
X49242800Y-34637000D01*
X49178800Y-34881000D01*
X49096800Y-35262000D01*
X49043800Y-35549000D01*
X49001800Y-35852000D01*
X48967800Y-36225000D01*
X48942800Y-36791000D01*
X48934800Y-37638000D01*
X48902800Y-37658000D01*
X48405800Y-37904000D01*
X48002800Y-38100000D01*
X47514800Y-38382000D01*
X47278800Y-38543000D01*
X47115800Y-38667000D01*
X46940800Y-38826000D01*
X46811800Y-38954000D01*
X46713800Y-39086000D01*
X46623800Y-39218000D01*
X46540800Y-39353000D01*
X46451800Y-39547000D01*
X46385800Y-39730000D01*
X46359800Y-39884000D01*
X46354800Y-40017000D01*
X46362800Y-40137000D01*
X46386800Y-40249000D01*
X46431800Y-40375000D01*
X46499800Y-40493000D01*
X46579800Y-40607000D01*
X46722800Y-40770000D01*
X46908800Y-40904000D01*
X47063800Y-40987000D01*
X47219800Y-41041000D01*
X47514800Y-41105000D01*
X47871800Y-41144000D01*
X48985800Y-41241000D01*
X49793800Y-41322000D01*
X50146800Y-41360000D01*
X50576800Y-41412000D01*
X50962800Y-41469000D01*
X51403800Y-41552000D01*
X51852800Y-41650000D01*
X52299800Y-41764000D01*
X52634800Y-41871000D01*
X52945800Y-41966000D01*
X53118800Y-42032000D01*
X53307800Y-42127000D01*
X53478800Y-42222000D01*
X53625800Y-42317000D01*
X53736800Y-42414000D01*
X53848800Y-42522000D01*
X53928800Y-42632000D01*
X53985800Y-42756000D01*
X54030800Y-42865000D01*
X54054800Y-42979000D01*
X54083800Y-43129000D01*
X54106800Y-43268000D01*
X54123800Y-43407000D01*
X54132800Y-43480000D01*
X54139800Y-43552000D01*
X54146800Y-43588000D01*
X54160800Y-43605000D01*
X54191800Y-43633000D01*
X54200800Y-43635000D01*
X54214800Y-43617000D01*
X54223800Y-43591000D01*
X54233800Y-43558000D01*
X54250800Y-43497000D01*
X54267800Y-43433000D01*
X54286800Y-43369000D01*
X54304800Y-43285000D01*
X54305800Y-43219000D01*
X54308800Y-43136000D01*
X54298800Y-43065000D01*
X54286800Y-42992000D01*
X54263800Y-42895000D01*
X54236800Y-42816000D01*
X54204800Y-42733000D01*
X54167800Y-42657000D01*
X54114800Y-42563000D01*
X54050800Y-42462000D01*
X53967800Y-42350000D01*
X53871800Y-42245000D01*
X53802800Y-42176000D01*
X53703800Y-42077000D01*
X53572800Y-41975000D01*
X53468800Y-41892000D01*
X53363800Y-41826000D01*
X53131800Y-41702000D01*
X52884800Y-41619000D01*
X52793800Y-41590000D01*
X52646800Y-41546000D01*
X52268800Y-41443000D01*
X51715800Y-41322000D01*
X51047800Y-41192000D01*
X50140800Y-41044000D01*
X49430800Y-40947000D01*
X48980800Y-40896000D01*
X48650800Y-40867000D01*
X48116800Y-40810000D01*
X47895800Y-40784000D01*
X47683800Y-40737000D01*
X47503800Y-40691000D01*
X47383800Y-40650000D01*
X47205800Y-40562000D01*
X47073800Y-40464000D01*
X46994800Y-40385000D01*
X46916800Y-40292000D01*
X46849800Y-40186000D01*
X46804800Y-40074000D01*
X46787800Y-39980000D01*
X46785800Y-39891000D01*
X46792800Y-39806000D01*
X46814800Y-39706000D01*
X46847800Y-39619000D01*
X46931800Y-39467000D01*
X46975800Y-39406000D01*
X47026800Y-39339000D01*
X47061800Y-39295000D01*
X47113800Y-39244000D01*
X47198800Y-39153000D01*
X47274800Y-39093000D01*
X47362800Y-39036000D01*
X47493800Y-38949000D01*
X47629800Y-38865000D01*
X47794800Y-38773000D01*
X47902800Y-38718000D01*
X48126800Y-38603000D01*
X48473800Y-38427000D01*
X48736800Y-38292000D01*
X48886800Y-38218000D01*
X48911800Y-38206000D01*
X48929800Y-38205000D01*
X49260800Y-38211000D01*
X49663800Y-38220000D01*
X50027800Y-38236000D01*
X50234800Y-38247000D01*
X50408800Y-38277000D01*
X50486800Y-38289000D01*
X50569800Y-38317000D01*
X50665800Y-38355000D01*
X50725800Y-38389000D01*
X50791800Y-38416000D01*
X50854800Y-38436000D01*
X50946800Y-38444000D01*
X51043800Y-38457000D01*
X51115800Y-38467000D01*
X51146800Y-38484000D01*
X51200800Y-38519000D01*
X51249800Y-38534000D01*
X51292800Y-38541000D01*
X51349800Y-38542000D01*
X51395800Y-38541000D01*
X51456800Y-38520000D01*
X51502800Y-38508000D01*
X51578800Y-38480000D01*
X51671800Y-38455000D01*
X51799800Y-38433000D01*
X52067800Y-38403000D01*
X52205800Y-38396000D01*
X52401800Y-38382000D01*
X52603800Y-38379000D01*
X52797800Y-38387000D01*
X52987800Y-38409000D01*
X53149800Y-38437000D01*
X53309800Y-38481000D01*
X53416800Y-38505000D01*
X53537800Y-38523000D01*
X53669800Y-38534000D01*
X53826800Y-38536000D01*
X54015800Y-38534000D01*
X54097800Y-38525000D01*
X54150800Y-38511000D01*
X54177800Y-38495000D01*
X54195800Y-38474000D01*
X54207800Y-38445000D01*
X54214800Y-38410000D01*
X54219800Y-38365000D01*
X54220800Y-38314000D01*
X54215800Y-38262000D01*
X54206800Y-38213000D01*
X54182800Y-38143000D01*
X54145800Y-38076000D01*
X54087800Y-37996000D01*
X54032800Y-37955000D01*
X53970800Y-37928000D01*
X53831800Y-37886000D01*
X53555800Y-37814000D01*
X53408800Y-37773000D01*
X53323800Y-37719000D01*
X53280800Y-37686000D01*
X53267800Y-37663000D01*
X53289800Y-37627000D01*
X53343800Y-37590000D01*
X53422800Y-37549000D01*
X53550800Y-37475000D01*
X53843800Y-37330000D01*
X54034800Y-37257000D01*
X54072800Y-37242000D01*
X54180800Y-37212000D01*
X54322800Y-37189000D01*
X54531800Y-37174000D01*
X54685800Y-37174000D01*
X54971800Y-37180000D01*
X55116800Y-37200000D01*
X55238800Y-37228000D01*
X55347800Y-37270000D01*
X55465800Y-37320000D01*
X55526800Y-37353000D01*
X55594800Y-37404000D01*
X55649800Y-37456000D01*
X55719800Y-37541000D01*
X55771800Y-37609000D01*
X55821800Y-37717000D01*
X55864800Y-37818000D01*
X55916800Y-37942000D01*
X55950800Y-38014000D01*
X55986800Y-38069000D01*
X56013800Y-38108000D01*
X56030800Y-38129000D01*
X56063800Y-38161000D01*
X56103800Y-38191000D01*
X56215800Y-38262000D01*
X56342800Y-38311000D01*
X56558800Y-38338000D01*
X56761800Y-38372000D01*
X57025800Y-38395000D01*
X57187800Y-38418000D01*
X57220800Y-38431000D01*
X57248800Y-38427000D01*
X57286800Y-38405000D01*
X57324800Y-38357000D01*
X57352800Y-38321000D01*
X57395800Y-38267000D01*
X57438800Y-38193000D01*
X57463800Y-38131000D01*
X57480800Y-38066000D01*
X57479800Y-37998000D01*
X57447800Y-37927000D01*
X57399800Y-37871000D01*
X57348800Y-37841000D01*
X57282800Y-37809000D01*
X57173800Y-37785000D01*
X57012800Y-37754000D01*
X56904800Y-37720000D01*
X56835800Y-37670000D01*
X56792800Y-37627000D01*
X56763800Y-37571000D01*
X56750800Y-37522000D01*
X56747800Y-37477000D01*
X56756800Y-37426000D01*
X56765800Y-37398000D01*
X56782800Y-37380000D01*
X56805800Y-37366000D01*
X56835800Y-37347000D01*
X56910800Y-37319000D01*
X57060800Y-37266000D01*
X57235800Y-37199000D01*
X57304800Y-37170000D01*
X57398800Y-37120000D01*
X57508800Y-37061000D01*
X57808800Y-36882000D01*
X57919800Y-36832000D01*
X58104800Y-36779000D01*
X58262800Y-36768000D01*
X58367800Y-36782000D01*
X58578800Y-36797000D01*
X59021800Y-36838000D01*
X59279800Y-36872000D01*
X59539800Y-36906000D01*
X59775800Y-36938000D01*
X60040800Y-36983000D01*
X60463800Y-37038000D01*
X60593800Y-37060000D01*
X60796800Y-37078000D01*
X60957800Y-37082000D01*
X61069800Y-37072000D01*
X61161800Y-37054000D01*
X61427800Y-36978000D01*
X61630800Y-36918000D01*
X61714800Y-36889000D01*
X61837800Y-36855000D01*
X61974800Y-36831000D01*
X62039800Y-36811000D01*
X62087800Y-36785000D01*
X62119800Y-36752000D01*
X62131800Y-36707000D01*
X62133800Y-36654000D01*
X62100800Y-36571000D01*
X62043800Y-36440000D01*
X61920800Y-36203000D01*
X61782800Y-35972000D01*
X61611800Y-35728000D01*
X61489800Y-35566000D01*
X61262800Y-35306000D01*
X61097800Y-35125000D01*
X60865800Y-34907000D01*
X60622800Y-34711000D01*
X60474800Y-34608000D01*
X60334800Y-34525000D01*
X60234800Y-34465000D01*
X60153800Y-34418000D01*
D12*
X59645000Y-37582000D02*
X60356200Y-36870800D01*
X60483200Y-37759800D02*
X60635600Y-36947000D01*
X60838800Y-37455000D02*
X60838800Y-36997800D01*
D16*
X60653998Y-36886960D02*
X60502808Y-37756305D01*
X60276022Y-36975154D02*
X59658661Y-37579916D01*
X60848677Y-36991073D02*
X60848677Y-37454340D01*
D12*
X67010000Y-16380000D02*
X67610000Y-16380000D01*
X66310000Y-18480000D02*
X66310000Y-17080000D01*
X67610000Y-19180000D02*
X67010000Y-19180000D01*
X68310000Y-17080000D02*
X68310000Y-18480000D01*
X67610000Y-16380000D02*
G75*
G02*
X68310000Y-17080000I0J-700000D01*
G01*
X66310000Y-17080000D02*
G75*
G02*
X67010000Y-16380000I700000J0D01*
G01*
X67010000Y-19180000D02*
G75*
G02*
X66310000Y-18480000I0J700000D01*
G01*
X68310000Y-18480000D02*
G75*
G02*
X67610000Y-19180000I-700000J0D01*
G01*
X64100000Y-17390000D02*
X62900000Y-17390000D01*
X62900000Y-15630000D02*
X64100000Y-15630000D01*
X61900000Y-15105000D02*
X65960000Y-15105000D01*
X65960000Y-15105000D02*
X65960000Y-12835000D01*
X65960000Y-12835000D02*
X61900000Y-12835000D01*
X49805000Y-67345000D02*
X49805000Y-68545000D01*
X48045000Y-68545000D02*
X48045000Y-67345000D01*
X47870000Y-67345000D02*
X47870000Y-68545000D01*
X46110000Y-68545000D02*
X46110000Y-67345000D01*
D10*
X53788095Y-74967380D02*
X53788095Y-75776904D01*
X53835714Y-75872142D01*
X53883333Y-75919761D01*
X53978571Y-75967380D01*
X54169047Y-75967380D01*
X54264285Y-75919761D01*
X54311904Y-75872142D01*
X54359523Y-75776904D01*
X54359523Y-74967380D01*
X55359523Y-75967380D02*
X54788095Y-75967380D01*
X55073809Y-75967380D02*
X55073809Y-74967380D01*
X54978571Y-75110238D01*
X54883333Y-75205476D01*
X54788095Y-75253095D01*
X68497380Y-28908333D02*
X69211666Y-28908333D01*
X69354523Y-28955952D01*
X69449761Y-29051190D01*
X69497380Y-29194047D01*
X69497380Y-29289285D01*
X68830714Y-28003571D02*
X69497380Y-28003571D01*
X68449761Y-28241666D02*
X69164047Y-28479761D01*
X69164047Y-27860714D01*
X41743333Y-16952380D02*
X41410000Y-16476190D01*
X41171904Y-16952380D02*
X41171904Y-15952380D01*
X41552857Y-15952380D01*
X41648095Y-16000000D01*
X41695714Y-16047619D01*
X41743333Y-16142857D01*
X41743333Y-16285714D01*
X41695714Y-16380952D01*
X41648095Y-16428571D01*
X41552857Y-16476190D01*
X41171904Y-16476190D01*
X42076666Y-15952380D02*
X42695714Y-15952380D01*
X42362380Y-16333333D01*
X42505238Y-16333333D01*
X42600476Y-16380952D01*
X42648095Y-16428571D01*
X42695714Y-16523809D01*
X42695714Y-16761904D01*
X42648095Y-16857142D01*
X42600476Y-16904761D01*
X42505238Y-16952380D01*
X42219523Y-16952380D01*
X42124285Y-16904761D01*
X42076666Y-16857142D01*
X41171904Y-14422380D02*
X41171904Y-13422380D01*
X41410000Y-13422380D01*
X41552857Y-13470000D01*
X41648095Y-13565238D01*
X41695714Y-13660476D01*
X41743333Y-13850952D01*
X41743333Y-13993809D01*
X41695714Y-14184285D01*
X41648095Y-14279523D01*
X41552857Y-14374761D01*
X41410000Y-14422380D01*
X41171904Y-14422380D01*
X42076666Y-13422380D02*
X42695714Y-13422380D01*
X42362380Y-13803333D01*
X42505238Y-13803333D01*
X42600476Y-13850952D01*
X42648095Y-13898571D01*
X42695714Y-13993809D01*
X42695714Y-14231904D01*
X42648095Y-14327142D01*
X42600476Y-14374761D01*
X42505238Y-14422380D01*
X42219523Y-14422380D01*
X42124285Y-14374761D01*
X42076666Y-14327142D01*
X43481666Y-75652380D02*
X43481666Y-76366666D01*
X43434047Y-76509523D01*
X43338809Y-76604761D01*
X43195952Y-76652380D01*
X43100714Y-76652380D01*
X43862619Y-75652380D02*
X44529285Y-75652380D01*
X44100714Y-76652380D01*
X50923833Y-16962380D02*
X50590500Y-16486190D01*
X50352404Y-16962380D02*
X50352404Y-15962380D01*
X50733357Y-15962380D01*
X50828595Y-16010000D01*
X50876214Y-16057619D01*
X50923833Y-16152857D01*
X50923833Y-16295714D01*
X50876214Y-16390952D01*
X50828595Y-16438571D01*
X50733357Y-16486190D01*
X50352404Y-16486190D01*
X51304785Y-16057619D02*
X51352404Y-16010000D01*
X51447642Y-15962380D01*
X51685738Y-15962380D01*
X51780976Y-16010000D01*
X51828595Y-16057619D01*
X51876214Y-16152857D01*
X51876214Y-16248095D01*
X51828595Y-16390952D01*
X51257166Y-16962380D01*
X51876214Y-16962380D01*
X50352404Y-14422380D02*
X50352404Y-13422380D01*
X50590500Y-13422380D01*
X50733357Y-13470000D01*
X50828595Y-13565238D01*
X50876214Y-13660476D01*
X50923833Y-13850952D01*
X50923833Y-13993809D01*
X50876214Y-14184285D01*
X50828595Y-14279523D01*
X50733357Y-14374761D01*
X50590500Y-14422380D01*
X50352404Y-14422380D01*
X51304785Y-13517619D02*
X51352404Y-13470000D01*
X51447642Y-13422380D01*
X51685738Y-13422380D01*
X51780976Y-13470000D01*
X51828595Y-13517619D01*
X51876214Y-13612857D01*
X51876214Y-13708095D01*
X51828595Y-13850952D01*
X51257166Y-14422380D01*
X51876214Y-14422380D01*
X59813833Y-16962380D02*
X59480500Y-16486190D01*
X59242404Y-16962380D02*
X59242404Y-15962380D01*
X59623357Y-15962380D01*
X59718595Y-16010000D01*
X59766214Y-16057619D01*
X59813833Y-16152857D01*
X59813833Y-16295714D01*
X59766214Y-16390952D01*
X59718595Y-16438571D01*
X59623357Y-16486190D01*
X59242404Y-16486190D01*
X60766214Y-16962380D02*
X60194785Y-16962380D01*
X60480500Y-16962380D02*
X60480500Y-15962380D01*
X60385261Y-16105238D01*
X60290023Y-16200476D01*
X60194785Y-16248095D01*
X59169404Y-14422380D02*
X59169404Y-13422380D01*
X59407500Y-13422380D01*
X59550357Y-13470000D01*
X59645595Y-13565238D01*
X59693214Y-13660476D01*
X59740833Y-13850952D01*
X59740833Y-13993809D01*
X59693214Y-14184285D01*
X59645595Y-14279523D01*
X59550357Y-14374761D01*
X59407500Y-14422380D01*
X59169404Y-14422380D01*
X60693214Y-14422380D02*
X60121785Y-14422380D01*
X60407500Y-14422380D02*
X60407500Y-13422380D01*
X60312261Y-13565238D01*
X60217023Y-13660476D01*
X60121785Y-13708095D01*
X48758333Y-64587380D02*
X48425000Y-64111190D01*
X48186904Y-64587380D02*
X48186904Y-63587380D01*
X48567857Y-63587380D01*
X48663095Y-63635000D01*
X48710714Y-63682619D01*
X48758333Y-63777857D01*
X48758333Y-63920714D01*
X48710714Y-64015952D01*
X48663095Y-64063571D01*
X48567857Y-64111190D01*
X48186904Y-64111190D01*
X49663095Y-63587380D02*
X49186904Y-63587380D01*
X49139285Y-64063571D01*
X49186904Y-64015952D01*
X49282142Y-63968333D01*
X49520238Y-63968333D01*
X49615476Y-64015952D01*
X49663095Y-64063571D01*
X49710714Y-64158809D01*
X49710714Y-64396904D01*
X49663095Y-64492142D01*
X49615476Y-64539761D01*
X49520238Y-64587380D01*
X49282142Y-64587380D01*
X49186904Y-64539761D01*
X49139285Y-64492142D01*
X46823333Y-64587380D02*
X46490000Y-64111190D01*
X46251904Y-64587380D02*
X46251904Y-63587380D01*
X46632857Y-63587380D01*
X46728095Y-63635000D01*
X46775714Y-63682619D01*
X46823333Y-63777857D01*
X46823333Y-63920714D01*
X46775714Y-64015952D01*
X46728095Y-64063571D01*
X46632857Y-64111190D01*
X46251904Y-64111190D01*
X47680476Y-63920714D02*
X47680476Y-64587380D01*
X47442380Y-63539761D02*
X47204285Y-64254047D01*
X47823333Y-64254047D01*
M02*
